# MagicaVoxel @ ephtracy

# material
mtllib scummBarPirateKing01.mtl
usemtl palette

# normals
vn -1 0 0
vn 1 0 0
vn 0 0 1
vn 0 0 -1
vn 0 -1 0
vn 0 1 0

# texcoords
vt 0.845703 0.5
vt 0.849609 0.5
vt 0.853516 0.5
vt 0.876953 0.5
vt 0.908203 0.5
vt 0.912109 0.5
vt 0.919922 0.5
vt 0.923828 0.5
vt 0.970703 0.5

# verts
v -4.5 6 4
v -4.5 6 2
v -4.5 8 4
v -4.5 8 2
v -4.5 9 4
v -4.5 9 2
v -3.5 7 2
v -3.5 7 1
v -3.5 7 -1
v -3.5 8 2
v -3.5 8 1
v -3.5 8 -1
v -2.5 8 1
v -2.5 8 -0
v -2.5 8 -1
v -2.5 8 -2
v -2.5 9 1
v -2.5 9 -0
v -2.5 9 -1
v -2.5 9 -2
v -2.5 12 -1
v -2.5 12 -3
v -2.5 13 -1
v -2.5 13 -3
v -1.5 0 -1
v -1.5 0 -2
v -1.5 1 -1
v -1.5 1 -2
v -1.5 4 -0
v -1.5 4 -1
v -1.5 4 -2
v -1.5 4 -3
v -1.5 8 -0
v -1.5 8 -1
v -1.5 8 -2
v -1.5 9 -0
v -1.5 9 -1
v -1.5 9 -2
v -1.5 9 -3
v -1.5 10 -0
v -1.5 10 -1
v -1.5 11 -1
v -1.5 11 -2
v -1.5 11 -3
v -1.5 12 -1
v -1.5 12 -2
v -1.5 12 -3
v -1.5 13 -1
v -1.5 13 -3
v -1.5 13 -4
v -1.5 14 -0
v -1.5 14 -1
v -1.5 14 -3
v -1.5 14 -4
v -1.5 15 -0
v -1.5 15 -3
v -0.5 8 1
v -0.5 8 -0
v -0.5 9 1
v -0.5 9 -0
v -0.5 10 -2
v -0.5 10 -3
v -0.5 11 -2
v -0.5 11 -3
v -0.5 13 -0
v -0.5 13 -1
v -0.5 14 -0
v -0.5 14 -1
v -0.5 15 -0
v -0.5 15 -1
v -0.5 16 -0
v -0.5 16 -1
v 1.5 0 -1
v 1.5 0 -2
v 1.5 1 -1
v 1.5 1 -2
v 1.5 4 -0
v 1.5 4 -1
v 1.5 4 -2
v 1.5 5 -0
v 1.5 5 -1
v 1.5 14 -1
v 1.5 14 -3
v 1.5 15 -1
v 1.5 15 -3
v 2.5 8 1
v 2.5 8 -0
v 2.5 9 1
v 2.5 9 -0
v 3.5 5 -1
v 3.5 5 -2
v 3.5 6 -1
v 3.5 6 -2
v 3.5 8 -1
v 3.5 8 -2
v -2.5 6 4
v -2.5 6 2
v -2.5 7 2
v -2.5 7 1
v -2.5 7 -1
v -2.5 8 4
v -2.5 8 2
v -2.5 8 1
v -2.5 8 -0
v -2.5 8 -1
v -2.5 9 4
v -2.5 9 2
v -1.5 8 1
v -1.5 8 -0
v -1.5 9 1
v -1.5 9 -0
v -0.5 0 -1
v -0.5 0 -2
v -0.5 1 -1
v -0.5 1 -2
v -0.5 4 -0
v -0.5 4 -1
v -0.5 4 -2
v -0.5 5 -0
v -0.5 5 -1
v -0.5 14 -1
v -0.5 14 -3
v -0.5 15 -1
v -0.5 15 -3
v 1.5 8 1
v 1.5 8 -0
v 1.5 9 1
v 1.5 9 -0
v 1.5 10 -2
v 1.5 10 -3
v 1.5 11 -2
v 1.5 11 -3
v 1.5 13 -0
v 1.5 13 -1
v 1.5 14 -0
v 1.5 14 -1
v 1.5 15 -0
v 1.5 15 -1
v 1.5 16 -0
v 1.5 16 -1
v 2.5 0 -1
v 2.5 0 -2
v 2.5 1 -1
v 2.5 1 -2
v 2.5 4 -0
v 2.5 4 -1
v 2.5 4 -2
v 2.5 4 -3
v 2.5 8 -0
v 2.5 8 -1
v 2.5 8 -2
v 2.5 9 -0
v 2.5 9 -1
v 2.5 9 -2
v 2.5 9 -3
v 2.5 10 -0
v 2.5 10 -1
v 2.5 11 -1
v 2.5 11 -2
v 2.5 11 -3
v 2.5 12 -1
v 2.5 12 -2
v 2.5 12 -3
v 2.5 13 -1
v 2.5 13 -3
v 2.5 13 -4
v 2.5 14 -0
v 2.5 14 -1
v 2.5 14 -3
v 2.5 14 -4
v 2.5 15 -0
v 2.5 15 -3
v 3.5 8 1
v 3.5 8 -0
v 3.5 8 -1
v 3.5 8 -2
v 3.5 9 1
v 3.5 9 -0
v 3.5 9 -1
v 3.5 9 -2
v 3.5 12 -1
v 3.5 12 -3
v 3.5 13 -1
v 3.5 13 -3
v 4.5 5 -1
v 4.5 5 -2
v 4.5 6 -1
v 4.5 6 -2
v 4.5 8 -1
v 4.5 8 -2
v -4.5 6 4
v -4.5 8 4
v -4.5 9 4
v -2.5 6 4
v -2.5 8 4
v -2.5 9 4
v -2.5 8 1
v -2.5 9 1
v -1.5 8 1
v -1.5 9 1
v -0.5 8 1
v -0.5 9 1
v 1.5 8 1
v 1.5 9 1
v 2.5 8 1
v 2.5 9 1
v 3.5 8 1
v 3.5 9 1
v -1.5 4 -0
v -1.5 8 -0
v -1.5 9 -0
v -1.5 10 -0
v -1.5 14 -0
v -1.5 15 -0
v -0.5 4 -0
v -0.5 5 -0
v -0.5 8 -0
v -0.5 9 -0
v -0.5 13 -0
v -0.5 14 -0
v -0.5 15 -0
v -0.5 16 -0
v 1.5 4 -0
v 1.5 5 -0
v 1.5 8 -0
v 1.5 9 -0
v 1.5 13 -0
v 1.5 14 -0
v 1.5 15 -0
v 1.5 16 -0
v 2.5 4 -0
v 2.5 8 -0
v 2.5 9 -0
v 2.5 10 -0
v 2.5 14 -0
v 2.5 15 -0
v -2.5 8 -1
v -2.5 9 -1
v -2.5 12 -1
v -2.5 13 -1
v -1.5 0 -1
v -1.5 1 -1
v -1.5 4 -1
v -1.5 8 -1
v -1.5 9 -1
v -1.5 10 -1
v -1.5 11 -1
v -1.5 12 -1
v -1.5 13 -1
v -1.5 14 -1
v -0.5 0 -1
v -0.5 1 -1
v -0.5 4 -1
v -0.5 5 -1
v -0.5 10 -1
v -0.5 11 -1
v -0.5 12 -1
v -0.5 13 -1
v -0.5 14 -1
v 1.5 0 -1
v 1.5 1 -1
v 1.5 4 -1
v 1.5 5 -1
v 1.5 10 -1
v 1.5 11 -1
v 1.5 12 -1
v 1.5 13 -1
v 1.5 14 -1
v 2.5 0 -1
v 2.5 1 -1
v 2.5 4 -1
v 2.5 8 -1
v 2.5 9 -1
v 2.5 10 -1
v 2.5 11 -1
v 2.5 12 -1
v 2.5 13 -1
v 2.5 14 -1
v 3.5 5 -1
v 3.5 6 -1
v 3.5 8 -1
v 3.5 9 -1
v 3.5 12 -1
v 3.5 13 -1
v 4.5 5 -1
v 4.5 6 -1
v 4.5 8 -1
v -4.5 6 2
v -4.5 8 2
v -4.5 9 2
v -3.5 7 2
v -3.5 8 2
v -2.5 6 2
v -2.5 7 2
v -2.5 8 2
v -2.5 9 2
v -2.5 8 -0
v -2.5 9 -0
v -1.5 8 -0
v -1.5 9 -0
v 2.5 8 -0
v 2.5 9 -0
v 3.5 8 -0
v 3.5 9 -0
v -3.5 7 -1
v -3.5 8 -1
v -2.5 7 -1
v -2.5 8 -1
v -0.5 14 -1
v -0.5 15 -1
v -0.5 16 -1
v 1.5 14 -1
v 1.5 15 -1
v 1.5 16 -1
v -2.5 8 -2
v -2.5 9 -2
v -1.5 0 -2
v -1.5 1 -2
v -1.5 4 -2
v -1.5 8 -2
v -1.5 9 -2
v -1.5 11 -2
v -0.5 0 -2
v -0.5 1 -2
v -0.5 4 -2
v -0.5 9 -2
v -0.5 10 -2
v -0.5 11 -2
v 1.5 0 -2
v 1.5 1 -2
v 1.5 4 -2
v 1.5 9 -2
v 1.5 10 -2
v 1.5 11 -2
v 2.5 0 -2
v 2.5 1 -2
v 2.5 4 -2
v 2.5 8 -2
v 2.5 9 -2
v 2.5 11 -2
v 3.5 5 -2
v 3.5 6 -2
v 3.5 8 -2
v 3.5 9 -2
v 4.5 5 -2
v 4.5 6 -2
v 4.5 8 -2
v -2.5 12 -3
v -2.5 13 -3
v -1.5 4 -3
v -1.5 9 -3
v -1.5 11 -3
v -1.5 12 -3
v -1.5 13 -3
v -1.5 14 -3
v -1.5 15 -3
v -0.5 10 -3
v -0.5 11 -3
v -0.5 12 -3
v -0.5 13 -3
v -0.5 14 -3
v -0.5 15 -3
v 1.5 10 -3
v 1.5 11 -3
v 1.5 12 -3
v 1.5 13 -3
v 1.5 14 -3
v 1.5 15 -3
v 2.5 4 -3
v 2.5 9 -3
v 2.5 11 -3
v 2.5 12 -3
v 2.5 13 -3
v 2.5 14 -3
v 2.5 15 -3
v 3.5 12 -3
v 3.5 13 -3
v -1.5 13 -4
v -1.5 14 -4
v 2.5 13 -4
v 2.5 14 -4
v -1.5 0 -1
v -0.5 0 -1
v 1.5 0 -1
v 2.5 0 -1
v -1.5 0 -2
v -0.5 0 -2
v 1.5 0 -2
v 2.5 0 -2
v -1.5 4 -0
v -0.5 4 -0
v 1.5 4 -0
v 2.5 4 -0
v -1.5 4 -1
v -0.5 4 -1
v 1.5 4 -1
v 2.5 4 -1
v -1.5 4 -2
v -0.5 4 -2
v 1.5 4 -2
v 2.5 4 -2
v -1.5 4 -3
v 2.5 4 -3
v -0.5 5 -0
v 1.5 5 -0
v -0.5 5 -1
v 1.5 5 -1
v 3.5 5 -1
v 4.5 5 -1
v 3.5 5 -2
v 4.5 5 -2
v -4.5 6 4
v -2.5 6 4
v -4.5 6 2
v -2.5 6 2
v -3.5 7 2
v -2.5 7 2
v -3.5 7 1
v -2.5 7 1
v -3.5 7 -1
v -2.5 7 -1
v -2.5 8 1
v -1.5 8 1
v -0.5 8 1
v 1.5 8 1
v 2.5 8 1
v 3.5 8 1
v -2.5 8 -0
v -1.5 8 -0
v -0.5 8 -0
v 1.5 8 -0
v 2.5 8 -0
v 3.5 8 -0
v -2.5 8 -1
v -1.5 8 -1
v 2.5 8 -1
v 3.5 8 -1
v -2.5 8 -2
v -1.5 8 -2
v 2.5 8 -2
v 3.5 8 -2
v -0.5 10 -2
v 1.5 10 -2
v -0.5 10 -3
v 1.5 10 -3
v -1.5 11 -2
v -0.5 11 -2
v 1.5 11 -2
v 2.5 11 -2
v -1.5 11 -3
v -0.5 11 -3
v 1.5 11 -3
v 2.5 11 -3
v -2.5 12 -1
v -1.5 12 -1
v 2.5 12 -1
v 3.5 12 -1
v -1.5 12 -2
v 2.5 12 -2
v -2.5 12 -3
v -1.5 12 -3
v 2.5 12 -3
v 3.5 12 -3
v -0.5 13 -0
v 1.5 13 -0
v -0.5 13 -1
v 1.5 13 -1
v -1.5 13 -3
v -0.5 13 -3
v 1.5 13 -3
v 2.5 13 -3
v -1.5 13 -4
v 2.5 13 -4
v -1.5 14 -0
v -0.5 14 -0
v 1.5 14 -0
v 2.5 14 -0
v -1.5 14 -1
v -0.5 14 -1
v 1.5 14 -1
v 2.5 14 -1
v -3.5 8 2
v -2.5 8 2
v -3.5 8 1
v -2.5 8 1
v -2.5 8 -0
v -3.5 8 -1
v -2.5 8 -1
v 3.5 8 -1
v 4.5 8 -1
v 3.5 8 -2
v 4.5 8 -2
v -4.5 9 4
v -2.5 9 4
v -4.5 9 2
v -2.5 9 2
v -2.5 9 1
v -1.5 9 1
v -0.5 9 1
v 1.5 9 1
v 2.5 9 1
v 3.5 9 1
v -2.5 9 -0
v -1.5 9 -0
v -0.5 9 -0
v 1.5 9 -0
v 2.5 9 -0
v 3.5 9 -0
v -2.5 9 -1
v -1.5 9 -1
v 2.5 9 -1
v 3.5 9 -1
v -2.5 9 -2
v -1.5 9 -2
v -0.5 9 -2
v 1.5 9 -2
v 2.5 9 -2
v 3.5 9 -2
v -1.5 9 -3
v 2.5 9 -3
v -1.5 10 -0
v 2.5 10 -0
v -1.5 10 -1
v -0.5 10 -1
v 1.5 10 -1
v 2.5 10 -1
v -2.5 13 -1
v -1.5 13 -1
v 2.5 13 -1
v 3.5 13 -1
v -2.5 13 -3
v -1.5 13 -3
v 2.5 13 -3
v 3.5 13 -3
v -0.5 14 -1
v 1.5 14 -1
v -1.5 14 -3
v -0.5 14 -3
v 1.5 14 -3
v 2.5 14 -3
v -1.5 14 -4
v 2.5 14 -4
v -1.5 15 -0
v -0.5 15 -0
v 1.5 15 -0
v 2.5 15 -0
v -0.5 15 -1
v 1.5 15 -1
v -1.5 15 -3
v -0.5 15 -3
v 1.5 15 -3
v 2.5 15 -3
v -0.5 16 -0
v 1.5 16 -0
v -0.5 16 -1
v 1.5 16 -1

# faces
f 3/1/1 2/1/1 1/1/1
f 4/1/1 2/1/1 3/1/1
f 5/2/1 4/2/1 3/2/1
f 6/2/1 4/2/1 5/2/1
f 10/9/1 8/9/1 7/9/1
f 11/5/1 9/5/1 8/5/1
f 11/9/1 8/9/1 10/9/1
f 12/5/1 9/5/1 11/5/1
f 17/7/1 14/7/1 13/7/1
f 18/7/1 14/7/1 17/7/1
f 19/5/1 16/5/1 15/5/1
f 20/5/1 16/5/1 19/5/1
f 23/8/1 22/8/1 21/8/1
f 24/8/1 22/8/1 23/8/1
f 27/8/1 26/8/1 25/8/1
f 28/8/1 26/8/1 27/8/1
f 30/7/1 28/7/1 27/7/1
f 31/7/1 28/7/1 30/7/1
f 33/5/1 31/5/1 30/5/1
f 33/5/1 32/5/1 31/5/1
f 33/5/1 30/5/1 29/5/1
f 34/5/1 32/5/1 33/5/1
f 35/5/1 32/5/1 34/5/1
f 36/5/1 34/5/1 33/5/1
f 37/5/1 34/5/1 36/5/1
f 38/5/1 32/5/1 35/5/1
f 39/5/1 32/5/1 38/5/1
f 40/7/1 37/7/1 36/7/1
f 40/7/1 38/7/1 37/7/1
f 41/7/1 38/7/1 40/7/1
f 42/7/1 38/7/1 41/7/1
f 43/7/1 38/7/1 42/7/1
f 45/9/1 43/9/1 42/9/1
f 46/7/1 44/7/1 43/7/1
f 46/9/1 43/9/1 45/9/1
f 47/7/1 44/7/1 46/7/1
f 52/8/1 49/8/1 48/8/1
f 52/8/1 50/8/1 49/8/1
f 53/8/1 50/8/1 52/8/1
f 54/8/1 50/8/1 53/8/1
f 55/8/1 52/8/1 51/8/1
f 55/8/1 53/8/1 52/8/1
f 56/8/1 53/8/1 55/8/1
f 59/7/1 58/7/1 57/7/1
f 60/7/1 58/7/1 59/7/1
f 63/7/1 62/7/1 61/7/1
f 64/7/1 62/7/1 63/7/1
f 67/8/1 66/8/1 65/8/1
f 68/8/1 66/8/1 67/8/1
f 71/8/1 70/8/1 69/8/1
f 72/8/1 70/8/1 71/8/1
f 75/8/1 74/8/1 73/8/1
f 76/8/1 74/8/1 75/8/1
f 78/7/1 76/7/1 75/7/1
f 79/7/1 76/7/1 78/7/1
f 80/5/1 78/5/1 77/5/1
f 81/5/1 78/5/1 80/5/1
f 84/8/1 83/8/1 82/8/1
f 85/8/1 83/8/1 84/8/1
f 88/7/1 87/7/1 86/7/1
f 89/7/1 87/7/1 88/7/1
f 92/9/1 91/9/1 90/9/1
f 93/9/1 91/9/1 92/9/1
f 94/5/1 93/5/1 92/5/1
f 95/5/1 93/5/1 94/5/1
f 96/1/2 97/1/2 98/1/2
f 96/1/2 98/1/2 101/1/2
f 98/9/2 99/9/2 102/9/2
f 101/1/2 98/1/2 102/1/2
f 99/5/2 100/5/2 103/5/2
f 102/9/2 99/9/2 103/9/2
f 103/5/2 100/5/2 104/5/2
f 104/5/2 100/5/2 105/5/2
f 101/2/2 102/2/2 106/2/2
f 106/2/2 102/2/2 107/2/2
f 108/7/2 109/7/2 110/7/2
f 110/7/2 109/7/2 111/7/2
f 112/8/2 113/8/2 114/8/2
f 114/8/2 113/8/2 115/8/2
f 114/7/2 115/7/2 117/7/2
f 117/7/2 115/7/2 118/7/2
f 116/5/2 117/5/2 119/5/2
f 119/5/2 117/5/2 120/5/2
f 121/8/2 122/8/2 123/8/2
f 123/8/2 122/8/2 124/8/2
f 125/7/2 126/7/2 127/7/2
f 127/7/2 126/7/2 128/7/2
f 129/7/2 130/7/2 131/7/2
f 131/7/2 130/7/2 132/7/2
f 133/8/2 134/8/2 135/8/2
f 135/8/2 134/8/2 136/8/2
f 137/8/2 138/8/2 139/8/2
f 139/8/2 138/8/2 140/8/2
f 141/8/2 142/8/2 143/8/2
f 143/8/2 142/8/2 144/8/2
f 143/7/2 144/7/2 146/7/2
f 146/7/2 144/7/2 147/7/2
f 146/5/2 147/5/2 149/5/2
f 147/5/2 148/5/2 149/5/2
f 145/5/2 146/5/2 149/5/2
f 149/5/2 148/5/2 150/5/2
f 150/5/2 148/5/2 151/5/2
f 149/5/2 150/5/2 152/5/2
f 152/5/2 150/5/2 153/5/2
f 151/5/2 148/5/2 154/5/2
f 154/5/2 148/5/2 155/5/2
f 152/7/2 153/7/2 156/7/2
f 153/7/2 154/7/2 156/7/2
f 156/7/2 154/7/2 157/7/2
f 157/7/2 154/7/2 158/7/2
f 158/7/2 154/7/2 159/7/2
f 158/9/2 159/9/2 161/9/2
f 159/7/2 160/7/2 162/7/2
f 161/9/2 159/9/2 162/9/2
f 162/7/2 160/7/2 163/7/2
f 164/8/2 165/8/2 168/8/2
f 165/8/2 166/8/2 168/8/2
f 168/8/2 166/8/2 169/8/2
f 169/8/2 166/8/2 170/8/2
f 167/8/2 168/8/2 171/8/2
f 168/8/2 169/8/2 171/8/2
f 171/8/2 169/8/2 172/8/2
f 173/7/2 174/7/2 177/7/2
f 177/7/2 174/7/2 178/7/2
f 175/5/2 176/5/2 179/5/2
f 179/5/2 176/5/2 180/5/2
f 181/8/2 182/8/2 183/8/2
f 183/8/2 182/8/2 184/8/2
f 185/9/2 186/9/2 187/9/2
f 187/9/2 186/9/2 188/9/2
f 187/5/2 188/5/2 189/5/2
f 189/5/2 188/5/2 190/5/2
f 194/1/3 192/1/3 191/1/3
f 195/2/3 193/2/3 192/2/3
f 195/1/3 192/1/3 194/1/3
f 196/2/3 193/2/3 195/2/3
f 199/7/3 198/7/3 197/7/3
f 200/7/3 198/7/3 199/7/3
f 203/7/3 202/7/3 201/7/3
f 204/7/3 202/7/3 203/7/3
f 207/7/3 206/7/3 205/7/3
f 208/7/3 206/7/3 207/7/3
f 215/5/3 210/5/3 209/5/3
f 215/5/3 211/5/3 210/5/3
f 216/5/3 211/5/3 215/5/3
f 217/5/3 211/5/3 216/5/3
f 218/7/3 212/7/3 211/7/3
f 218/5/3 211/5/3 217/5/3
f 220/8/3 214/8/3 213/8/3
f 221/8/3 214/8/3 220/8/3
f 224/4/3 217/4/3 216/4/3
f 225/4/3 217/4/3 224/4/3
f 226/7/3 212/7/3 218/7/3
f 227/8/3 220/8/3 219/8/3
f 228/3/3 221/3/3 220/3/3
f 228/8/3 220/8/3 227/8/3
f 229/8/3 222/8/3 221/8/3
f 229/3/3 221/3/3 228/3/3
f 230/8/3 222/8/3 229/8/3
f 231/5/3 225/5/3 224/5/3
f 231/5/3 226/5/3 225/5/3
f 231/5/3 224/5/3 223/5/3
f 232/5/3 226/5/3 231/5/3
f 233/7/3 212/7/3 226/7/3
f 233/5/3 226/5/3 232/5/3
f 234/7/3 212/7/3 233/7/3
f 235/8/3 229/8/3 228/8/3
f 236/8/3 229/8/3 235/8/3
f 244/5/3 238/5/3 237/5/3
f 245/5/3 238/5/3 244/5/3
f 248/8/3 240/8/3 239/8/3
f 249/8/3 240/8/3 248/8/3
f 251/8/3 242/8/3 241/8/3
f 252/7/3 243/7/3 242/7/3
f 252/8/3 242/8/3 251/8/3
f 253/7/3 243/7/3 252/7/3
f 255/7/3 247/7/3 246/7/3
f 256/9/3 248/9/3 247/9/3
f 256/7/3 247/7/3 255/7/3
f 257/8/3 250/8/3 249/8/3
f 257/9/3 248/9/3 256/9/3
f 257/8/3 249/8/3 248/8/3
f 258/8/3 250/8/3 257/8/3
f 259/8/3 250/8/3 258/8/3
f 262/7/3 254/7/3 253/7/3
f 263/7/3 254/7/3 262/7/3
f 264/9/3 256/9/3 255/9/3
f 264/9/3 258/9/3 257/9/3
f 264/9/3 257/9/3 256/9/3
f 265/9/3 258/9/3 264/9/3
f 266/9/3 258/9/3 265/9/3
f 267/9/3 258/9/3 266/9/3
f 269/8/3 261/8/3 260/8/3
f 270/7/3 262/7/3 261/7/3
f 270/8/3 261/8/3 269/8/3
f 271/7/3 262/7/3 270/7/3
f 274/7/3 265/7/3 264/7/3
f 275/9/3 266/9/3 265/9/3
f 275/7/3 265/7/3 274/7/3
f 276/8/3 268/8/3 267/8/3
f 276/9/3 266/9/3 275/9/3
f 276/8/3 267/8/3 266/8/3
f 277/8/3 268/8/3 276/8/3
f 278/8/3 268/8/3 277/8/3
f 281/5/3 273/5/3 272/5/3
f 282/5/3 273/5/3 281/5/3
f 283/8/3 277/8/3 276/8/3
f 284/8/3 277/8/3 283/8/3
f 285/9/3 280/9/3 279/9/3
f 286/5/3 281/5/3 280/5/3
f 286/9/3 280/9/3 285/9/3
f 287/5/3 281/5/3 286/5/3
f 288/1/4 289/1/4 291/1/4
f 289/2/4 290/2/4 292/2/4
f 291/1/4 289/1/4 292/1/4
f 288/1/4 291/1/4 293/1/4
f 293/1/4 291/1/4 294/1/4
f 292/2/4 290/2/4 295/2/4
f 295/2/4 290/2/4 296/2/4
f 297/7/4 298/7/4 299/7/4
f 299/7/4 298/7/4 300/7/4
f 301/7/4 302/7/4 303/7/4
f 303/7/4 302/7/4 304/7/4
f 305/5/4 306/5/4 307/5/4
f 307/5/4 306/5/4 308/5/4
f 309/3/4 310/3/4 312/3/4
f 310/8/4 311/8/4 313/8/4
f 312/3/4 310/3/4 313/3/4
f 313/8/4 311/8/4 314/8/4
f 315/5/4 316/5/4 320/5/4
f 320/5/4 316/5/4 321/5/4
f 317/8/4 318/8/4 323/8/4
f 318/7/4 319/7/4 324/7/4
f 323/8/4 318/8/4 324/8/4
f 324/7/4 319/7/4 325/7/4
f 321/7/4 322/7/4 326/7/4
f 326/7/4 322/7/4 327/7/4
f 327/7/4 322/7/4 328/7/4
f 326/9/4 327/9/4 332/9/4
f 332/9/4 327/9/4 333/9/4
f 329/8/4 330/8/4 335/8/4
f 330/7/4 331/7/4 336/7/4
f 335/8/4 330/8/4 336/8/4
f 336/7/4 331/7/4 337/7/4
f 333/7/4 334/7/4 339/7/4
f 332/7/4 333/7/4 339/7/4
f 339/7/4 334/7/4 340/7/4
f 338/5/4 339/5/4 343/5/4
f 343/5/4 339/5/4 344/5/4
f 341/9/4 342/9/4 345/9/4
f 342/5/4 343/5/4 346/5/4
f 345/9/4 342/9/4 346/9/4
f 346/5/4 343/5/4 347/5/4
f 348/8/4 349/8/4 353/8/4
f 353/8/4 349/8/4 354/8/4
f 352/7/4 353/7/4 358/7/4
f 353/8/4 354/8/4 359/8/4
f 358/7/4 353/7/4 359/7/4
f 359/8/4 354/8/4 360/8/4
f 355/8/4 356/8/4 361/8/4
f 361/8/4 356/8/4 362/8/4
f 359/7/4 360/7/4 363/7/4
f 357/7/4 358/7/4 363/7/4
f 358/7/4 359/7/4 363/7/4
f 363/7/4 360/7/4 364/7/4
f 364/7/4 360/7/4 365/7/4
f 365/7/4 360/7/4 366/7/4
f 350/5/4 351/5/4 369/5/4
f 369/5/4 351/5/4 370/5/4
f 364/7/4 365/7/4 371/7/4
f 365/8/4 366/8/4 372/8/4
f 371/7/4 365/7/4 372/7/4
f 372/8/4 366/8/4 373/8/4
f 367/8/4 368/8/4 374/8/4
f 374/8/4 368/8/4 375/8/4
f 372/8/4 373/8/4 376/8/4
f 376/8/4 373/8/4 377/8/4
f 378/8/4 379/8/4 380/8/4
f 380/8/4 379/8/4 381/8/4
f 386/8/5 383/8/5 382/8/5
f 387/8/5 383/8/5 386/8/5
f 388/8/5 385/8/5 384/8/5
f 389/8/5 385/8/5 388/8/5
f 394/5/5 391/5/5 390/5/5
f 395/5/5 391/5/5 394/5/5
f 396/5/5 393/5/5 392/5/5
f 397/5/5 393/5/5 396/5/5
f 399/7/5 396/7/5 395/7/5
f 400/7/5 396/7/5 399/7/5
f 402/5/5 399/5/5 398/5/5
f 402/5/5 401/5/5 400/5/5
f 402/5/5 400/5/5 399/5/5
f 403/5/5 401/5/5 402/5/5
f 406/4/5 405/4/5 404/4/5
f 407/4/5 405/4/5 406/4/5
f 410/9/5 409/9/5 408/9/5
f 411/9/5 409/9/5 410/9/5
f 414/1/5 413/1/5 412/1/5
f 415/1/5 413/1/5 414/1/5
f 418/9/5 417/9/5 416/9/5
f 419/9/5 417/9/5 418/9/5
f 420/5/5 419/5/5 418/5/5
f 421/5/5 419/5/5 420/5/5
f 428/7/5 423/7/5 422/7/5
f 429/7/5 423/7/5 428/7/5
f 430/7/5 425/7/5 424/7/5
f 431/7/5 425/7/5 430/7/5
f 432/7/5 427/7/5 426/7/5
f 433/7/5 427/7/5 432/7/5
f 438/5/5 435/5/5 434/5/5
f 439/5/5 435/5/5 438/5/5
f 440/5/5 437/5/5 436/5/5
f 441/5/5 437/5/5 440/5/5
f 444/7/5 443/7/5 442/7/5
f 445/7/5 443/7/5 444/7/5
f 450/7/5 447/7/5 446/7/5
f 451/7/5 447/7/5 450/7/5
f 452/7/5 449/7/5 448/7/5
f 453/7/5 449/7/5 452/7/5
f 458/8/5 455/8/5 454/8/5
f 459/8/5 457/8/5 456/8/5
f 460/8/5 458/8/5 454/8/5
f 461/8/5 458/8/5 460/8/5
f 462/8/5 457/8/5 459/8/5
f 463/8/5 457/8/5 462/8/5
f 466/8/5 465/8/5 464/8/5
f 467/8/5 465/8/5 466/8/5
f 472/8/5 470/8/5 469/8/5
f 472/8/5 471/8/5 470/8/5
f 472/8/5 469/8/5 468/8/5
f 473/8/5 471/8/5 472/8/5
f 478/8/5 475/8/5 474/8/5
f 479/8/5 475/8/5 478/8/5
f 480/8/5 477/8/5 476/8/5
f 481/8/5 477/8/5 480/8/5
f 482/9/6 483/9/6 484/9/6
f 484/9/6 483/9/6 485/9/6
f 484/5/6 485/5/6 486/5/6
f 484/5/6 486/5/6 487/5/6
f 487/5/6 486/5/6 488/5/6
f 489/5/6 490/5/6 491/5/6
f 491/5/6 490/5/6 492/5/6
f 493/2/6 494/2/6 495/2/6
f 495/2/6 494/2/6 496/2/6
f 497/7/6 498/7/6 503/7/6
f 503/7/6 498/7/6 504/7/6
f 499/7/6 500/7/6 505/7/6
f 505/7/6 500/7/6 506/7/6
f 501/7/6 502/7/6 507/7/6
f 507/7/6 502/7/6 508/7/6
f 509/5/6 510/5/6 513/5/6
f 513/5/6 510/5/6 514/5/6
f 511/5/6 512/5/6 517/5/6
f 517/5/6 512/5/6 518/5/6
f 515/5/6 516/5/6 519/5/6
f 516/5/6 517/5/6 519/5/6
f 514/5/6 515/5/6 519/5/6
f 519/5/6 517/5/6 520/5/6
f 521/7/6 522/7/6 523/7/6
f 523/7/6 522/7/6 524/7/6
f 524/7/6 522/7/6 525/7/6
f 525/7/6 522/7/6 526/7/6
f 527/8/6 528/8/6 531/8/6
f 531/8/6 528/8/6 532/8/6
f 529/8/6 530/8/6 533/8/6
f 533/8/6 530/8/6 534/8/6
f 535/8/6 536/8/6 538/8/6
f 538/8/6 536/8/6 539/8/6
f 537/8/6 538/8/6 541/8/6
f 539/8/6 540/8/6 541/8/6
f 538/8/6 539/8/6 541/8/6
f 541/8/6 540/8/6 542/8/6
f 543/8/6 544/8/6 547/8/6
f 545/8/6 546/8/6 548/8/6
f 543/8/6 547/8/6 549/8/6
f 549/8/6 547/8/6 550/8/6
f 548/8/6 546/8/6 551/8/6
f 551/8/6 546/8/6 552/8/6
f 553/8/6 554/8/6 555/8/6
f 555/8/6 554/8/6 556/8/6
