# MagicaVoxel @ ephtracy

# material
mtllib scummBarPirateKing03_drinkArm.mtl
usemtl palette

# normals
vn -1 0 0
vn 1 0 0
vn 0 0 1
vn 0 0 -1
vn 0 -1 0
vn 0 1 0

# texcoords
vt 0.845703 0.5
vt 0.849609 0.5
vt 0.923828 0.5
vt 0.970703 0.5

# verts
v -1.5 1 -2
v -1.5 1 -3
v -1.5 2 -2
v -1.5 2 -3
v -0.5 0 3
v -0.5 0 1
v -0.5 0 -0
v -0.5 0 -2
v -0.5 1 1
v -0.5 1 -0
v -0.5 1 -2
v -0.5 2 3
v -0.5 2 1
v -0.5 2 -0
v -0.5 3 3
v -0.5 3 1
v -0.5 1 -2
v -0.5 1 -3
v -0.5 2 -2
v -0.5 2 -3
v 0.5 0 -0
v 0.5 0 -2
v 0.5 1 1
v 0.5 1 -0
v 0.5 1 -2
v 0.5 2 1
v 0.5 2 -0
v 1.5 0 3
v 1.5 0 1
v 1.5 2 3
v 1.5 2 1
v 1.5 3 3
v 1.5 3 1
v -0.5 0 3
v -0.5 2 3
v -0.5 3 3
v 1.5 0 3
v 1.5 2 3
v 1.5 3 3
v -0.5 0 -0
v -0.5 1 -0
v 0.5 0 -0
v 0.5 1 -0
v -1.5 1 -2
v -1.5 2 -2
v -0.5 1 -2
v -0.5 2 -2
v -0.5 0 1
v -0.5 1 1
v -0.5 2 1
v -0.5 3 1
v 0.5 1 1
v 0.5 2 1
v 1.5 0 1
v 1.5 2 1
v 1.5 3 1
v -0.5 1 -0
v -0.5 2 -0
v 0.5 1 -0
v 0.5 2 -0
v -0.5 0 -2
v -0.5 1 -2
v 0.5 0 -2
v 0.5 1 -2
v -1.5 1 -3
v -1.5 2 -3
v -0.5 1 -3
v -0.5 2 -3
v -0.5 0 3
v 1.5 0 3
v -0.5 0 1
v 1.5 0 1
v -0.5 0 -0
v 0.5 0 -0
v -0.5 0 -2
v 0.5 0 -2
v -0.5 1 1
v 0.5 1 1
v -0.5 1 -0
v 0.5 1 -0
v -1.5 1 -2
v -0.5 1 -2
v -1.5 1 -3
v -0.5 1 -3
v -0.5 1 -0
v 0.5 1 -0
v -0.5 1 -2
v 0.5 1 -2
v -0.5 2 1
v 0.5 2 1
v -0.5 2 -0
v 0.5 2 -0
v -1.5 2 -2
v -0.5 2 -2
v -1.5 2 -3
v -0.5 2 -3
v -0.5 3 3
v 1.5 3 3
v -0.5 3 1
v 1.5 3 1

# faces
f 3/3/1 2/3/1 1/3/1
f 4/3/1 2/3/1 3/3/1
f 9/1/1 6/1/1 5/1/1
f 10/3/1 8/3/1 7/3/1
f 11/3/1 8/3/1 10/3/1
f 12/1/1 9/1/1 5/1/1
f 13/4/1 10/4/1 9/4/1
f 13/1/1 9/1/1 12/1/1
f 14/4/1 10/4/1 13/4/1
f 15/2/1 13/2/1 12/2/1
f 16/2/1 13/2/1 15/2/1
f 17/3/2 18/3/2 19/3/2
f 19/3/2 18/3/2 20/3/2
f 21/3/2 22/3/2 24/3/2
f 24/3/2 22/3/2 25/3/2
f 23/4/2 24/4/2 26/4/2
f 26/4/2 24/4/2 27/4/2
f 28/1/2 29/1/2 30/1/2
f 30/1/2 29/1/2 31/1/2
f 30/2/2 31/2/2 32/2/2
f 32/2/2 31/2/2 33/2/2
f 37/1/3 35/1/3 34/1/3
f 38/2/3 36/2/3 35/2/3
f 38/1/3 35/1/3 37/1/3
f 39/2/3 36/2/3 38/2/3
f 42/3/3 41/3/3 40/3/3
f 43/3/3 41/3/3 42/3/3
f 46/3/3 45/3/3 44/3/3
f 47/3/3 45/3/3 46/3/3
f 48/1/4 49/1/4 52/1/4
f 50/2/4 51/2/4 53/2/4
f 48/1/4 52/1/4 54/1/4
f 52/1/4 53/1/4 54/1/4
f 53/2/4 51/2/4 55/2/4
f 54/1/4 53/1/4 55/1/4
f 55/2/4 51/2/4 56/2/4
f 57/4/4 58/4/4 59/4/4
f 59/4/4 58/4/4 60/4/4
f 61/3/4 62/3/4 63/3/4
f 63/3/4 62/3/4 64/3/4
f 65/3/4 66/3/4 67/3/4
f 67/3/4 66/3/4 68/3/4
f 71/1/5 70/1/5 69/1/5
f 72/1/5 70/1/5 71/1/5
f 75/3/5 74/3/5 73/3/5
f 76/3/5 74/3/5 75/3/5
f 79/4/5 78/4/5 77/4/5
f 80/4/5 78/4/5 79/4/5
f 83/3/5 82/3/5 81/3/5
f 84/3/5 82/3/5 83/3/5
f 85/3/6 86/3/6 87/3/6
f 87/3/6 86/3/6 88/3/6
f 89/4/6 90/4/6 91/4/6
f 91/4/6 90/4/6 92/4/6
f 93/3/6 94/3/6 95/3/6
f 95/3/6 94/3/6 96/3/6
f 97/2/6 98/2/6 99/2/6
f 99/2/6 98/2/6 100/2/6
