# MagicaVoxel @ ephtracy

# material
mtllib scummBarPirate03_body.mtl
usemtl palette

# normals
vn -1 0 0
vn 1 0 0
vn 0 0 1
vn 0 0 -1
vn 0 -1 0
vn 0 1 0

# texcoords
vt 0.845703 0.5
vt 0.849609 0.5
vt 0.908203 0.5
vt 0.912109 0.5
vt 0.916016 0.5
vt 0.923828 0.5
vt 0.927734 0.5
vt 0.970703 0.5

# verts
v -4 5 -0.5
v -4 5 -1.5
v -4 6 -0.5
v -4 6 -1.5
v -4 6 -2.5
v -4 8 -1.5
v -4 8 -2.5
v -3 8 -1.5
v -3 8 -2.5
v -3 9 -1.5
v -3 9 -2.5
v -2 0 -1.5
v -2 0 -2.5
v -2 1 -1.5
v -2 1 -2.5
v -2 5 -0.5
v -2 5 -1.5
v -2 5 -2.5
v -2 5 -3.5
v -2 6 -0.5
v -2 6 -1.5
v -2 7 -0.5
v -2 7 -1.5
v -2 8 -0.5
v -2 8 -1.5
v -2 8 -2.5
v -2 9 -0.5
v -2 9 -1.5
v -2 9 -2.5
v -2 9 -3.5
v 1 0 -1.5
v 1 0 -2.5
v 1 1 -1.5
v 1 1 -2.5
v 1 4 -1.5
v 1 4 -2.5
v 2 6 3.5
v 2 6 1.5
v 2 8 3.5
v 2 8 1.5
v 2 9 3.5
v 2 9 1.5
v 3 7 1.5
v 3 7 0.5
v 3 7 -1.5
v 3 8 1.5
v 3 8 0.5
v 3 8 -1.5
v -3 5 -0.5
v -3 5 -1.5
v -3 6 -0.5
v -3 6 -1.5
v -3 6 -2.5
v -3 8 -1.5
v -3 8 -2.5
v -1 0 -1.5
v -1 0 -2.5
v -1 1 -1.5
v -1 1 -2.5
v -1 4 -1.5
v -1 4 -2.5
v 2 0 -1.5
v 2 0 -2.5
v 2 1 -1.5
v 2 1 -2.5
v 2 5 -0.5
v 2 5 -1.5
v 2 5 -2.5
v 2 5 -3.5
v 2 6 -0.5
v 2 6 -1.5
v 2 7 -0.5
v 2 7 -1.5
v 2 8 -0.5
v 2 8 -1.5
v 2 8 -2.5
v 2 9 -0.5
v 2 9 -1.5
v 2 9 -2.5
v 2 9 -3.5
v 3 8 -1.5
v 3 8 -2.5
v 3 9 -1.5
v 3 9 -2.5
v 4 6 3.5
v 4 6 1.5
v 4 7 1.5
v 4 7 0.5
v 4 7 -1.5
v 4 8 3.5
v 4 8 1.5
v 4 8 0.5
v 4 8 -1.5
v 4 9 3.5
v 4 9 1.5
v 2 6 3.5
v 2 8 3.5
v 2 9 3.5
v 4 6 3.5
v 4 8 3.5
v 4 9 3.5
v -4 5 -0.5
v -4 6 -0.5
v -3 5 -0.5
v -3 6 -0.5
v -2 5 -0.5
v -2 6 -0.5
v -2 7 -0.5
v -2 8 -0.5
v -2 9 -0.5
v -1 6 -0.5
v -1 7 -0.5
v -1 8 -0.5
v -1 9 -0.5
v 1 6 -0.5
v 1 7 -0.5
v 1 8 -0.5
v 1 9 -0.5
v 2 5 -0.5
v 2 6 -0.5
v 2 7 -0.5
v 2 8 -0.5
v 2 9 -0.5
v -4 6 -1.5
v -4 8 -1.5
v -3 6 -1.5
v -3 8 -1.5
v -3 9 -1.5
v -2 0 -1.5
v -2 1 -1.5
v -2 5 -1.5
v -2 8 -1.5
v -2 9 -1.5
v -1 0 -1.5
v -1 1 -1.5
v -1 4 -1.5
v 1 0 -1.5
v 1 1 -1.5
v 1 4 -1.5
v 2 0 -1.5
v 2 1 -1.5
v 2 5 -1.5
v 2 8 -1.5
v 2 9 -1.5
v 3 8 -1.5
v 3 9 -1.5
v 2 6 1.5
v 2 8 1.5
v 2 9 1.5
v 3 7 1.5
v 3 8 1.5
v 4 6 1.5
v 4 7 1.5
v 4 8 1.5
v 4 9 1.5
v -4 5 -1.5
v -4 6 -1.5
v -3 5 -1.5
v -3 6 -1.5
v 3 7 -1.5
v 3 8 -1.5
v 4 7 -1.5
v 4 8 -1.5
v -4 6 -2.5
v -4 8 -2.5
v -3 6 -2.5
v -3 8 -2.5
v -3 9 -2.5
v -2 0 -2.5
v -2 1 -2.5
v -2 5 -2.5
v -2 8 -2.5
v -2 9 -2.5
v -1 0 -2.5
v -1 1 -2.5
v -1 4 -2.5
v 1 0 -2.5
v 1 1 -2.5
v 1 4 -2.5
v 2 0 -2.5
v 2 1 -2.5
v 2 5 -2.5
v 2 8 -2.5
v 2 9 -2.5
v 3 8 -2.5
v 3 9 -2.5
v -2 5 -3.5
v -2 9 -3.5
v 2 5 -3.5
v 2 9 -3.5
v -2 0 -1.5
v -1 0 -1.5
v 1 0 -1.5
v 2 0 -1.5
v -2 0 -2.5
v -1 0 -2.5
v 1 0 -2.5
v 2 0 -2.5
v -1 4 -1.5
v 1 4 -1.5
v -1 4 -2.5
v 1 4 -2.5
v -4 5 -0.5
v -3 5 -0.5
v -2 5 -0.5
v 2 5 -0.5
v -4 5 -1.5
v -3 5 -1.5
v -2 5 -1.5
v 2 5 -1.5
v -2 5 -2.5
v 2 5 -2.5
v -2 5 -3.5
v 2 5 -3.5
v 2 6 3.5
v 4 6 3.5
v 2 6 1.5
v 4 6 1.5
v -4 6 -1.5
v -3 6 -1.5
v -4 6 -2.5
v -3 6 -2.5
v 3 7 1.5
v 4 7 1.5
v 3 7 0.5
v 4 7 0.5
v 3 7 -1.5
v 4 7 -1.5
v -3 8 -1.5
v -2 8 -1.5
v 2 8 -1.5
v 3 8 -1.5
v -3 8 -2.5
v -2 8 -2.5
v 2 8 -2.5
v 3 8 -2.5
v -4 6 -0.5
v -3 6 -0.5
v -4 6 -1.5
v -3 6 -1.5
v 3 8 1.5
v 4 8 1.5
v 3 8 0.5
v 4 8 0.5
v -4 8 -1.5
v -3 8 -1.5
v 3 8 -1.5
v 4 8 -1.5
v -4 8 -2.5
v -3 8 -2.5
v 2 9 3.5
v 4 9 3.5
v 2 9 1.5
v 4 9 1.5
v -2 9 -0.5
v -1 9 -0.5
v 1 9 -0.5
v 2 9 -0.5
v -3 9 -1.5
v -2 9 -1.5
v -1 9 -1.5
v 1 9 -1.5
v 2 9 -1.5
v 3 9 -1.5
v -3 9 -2.5
v -2 9 -2.5
v -1 9 -2.5
v 1 9 -2.5
v 2 9 -2.5
v 3 9 -2.5
v -2 9 -3.5
v 2 9 -3.5

# faces
f 3/8/1 2/8/1 1/8/1
f 4/8/1 2/8/1 3/8/1
f 6/3/1 5/3/1 4/3/1
f 7/3/1 5/3/1 6/3/1
f 10/3/1 9/3/1 8/3/1
f 11/3/1 9/3/1 10/3/1
f 14/7/1 13/7/1 12/7/1
f 15/7/1 13/7/1 14/7/1
f 17/6/1 15/6/1 14/6/1
f 18/6/1 15/6/1 17/6/1
f 20/3/1 18/3/1 17/3/1
f 20/3/1 19/3/1 18/3/1
f 20/3/1 17/3/1 16/3/1
f 21/3/1 19/3/1 20/3/1
f 22/5/1 21/5/1 20/5/1
f 23/3/1 19/3/1 21/3/1
f 23/5/1 21/5/1 22/5/1
f 24/3/1 23/3/1 22/3/1
f 25/3/1 19/3/1 23/3/1
f 25/3/1 23/3/1 24/3/1
f 26/3/1 19/3/1 25/3/1
f 27/5/1 25/5/1 24/5/1
f 28/5/1 25/5/1 27/5/1
f 29/3/1 19/3/1 26/3/1
f 30/3/1 19/3/1 29/3/1
f 33/7/1 32/7/1 31/7/1
f 34/7/1 32/7/1 33/7/1
f 35/6/1 34/6/1 33/6/1
f 36/6/1 34/6/1 35/6/1
f 39/1/1 38/1/1 37/1/1
f 40/1/1 38/1/1 39/1/1
f 41/2/1 40/2/1 39/2/1
f 42/2/1 40/2/1 41/2/1
f 46/8/1 44/8/1 43/8/1
f 47/3/1 45/3/1 44/3/1
f 47/8/1 44/8/1 46/8/1
f 48/3/1 45/3/1 47/3/1
f 49/8/2 50/8/2 51/8/2
f 51/8/2 50/8/2 52/8/2
f 52/3/2 53/3/2 54/3/2
f 54/3/2 53/3/2 55/3/2
f 56/7/2 57/7/2 58/7/2
f 58/7/2 57/7/2 59/7/2
f 58/6/2 59/6/2 60/6/2
f 60/6/2 59/6/2 61/6/2
f 62/7/2 63/7/2 64/7/2
f 64/7/2 63/7/2 65/7/2
f 64/6/2 65/6/2 67/6/2
f 67/6/2 65/6/2 68/6/2
f 67/3/2 68/3/2 70/3/2
f 68/3/2 69/3/2 70/3/2
f 66/3/2 67/3/2 70/3/2
f 70/3/2 69/3/2 71/3/2
f 70/5/2 71/5/2 72/5/2
f 71/3/2 69/3/2 73/3/2
f 72/5/2 71/5/2 73/5/2
f 72/3/2 73/3/2 74/3/2
f 73/3/2 69/3/2 75/3/2
f 74/3/2 73/3/2 75/3/2
f 75/3/2 69/3/2 76/3/2
f 74/5/2 75/5/2 77/5/2
f 77/5/2 75/5/2 78/5/2
f 76/3/2 69/3/2 79/3/2
f 79/3/2 69/3/2 80/3/2
f 81/3/2 82/3/2 83/3/2
f 83/3/2 82/3/2 84/3/2
f 85/1/2 86/1/2 87/1/2
f 85/1/2 87/1/2 90/1/2
f 87/8/2 88/8/2 91/8/2
f 90/1/2 87/1/2 91/1/2
f 88/3/2 89/3/2 92/3/2
f 91/8/2 88/8/2 92/8/2
f 92/3/2 89/3/2 93/3/2
f 90/2/2 91/2/2 94/2/2
f 94/2/2 91/2/2 95/2/2
f 99/1/3 97/1/3 96/1/3
f 100/2/3 98/2/3 97/2/3
f 100/1/3 97/1/3 99/1/3
f 101/2/3 98/2/3 100/2/3
f 104/8/3 103/8/3 102/8/3
f 105/8/3 103/8/3 104/8/3
f 111/3/3 107/3/3 106/3/3
f 111/5/3 108/5/3 107/5/3
f 112/3/3 109/3/3 108/3/3
f 112/5/3 108/5/3 111/5/3
f 113/5/3 110/5/3 109/5/3
f 113/3/3 109/3/3 112/3/3
f 114/5/3 110/5/3 113/5/3
f 115/3/3 112/3/3 111/3/3
f 115/3/3 111/3/3 106/3/3
f 116/4/3 114/4/3 113/4/3
f 116/3/3 112/3/3 115/3/3
f 116/4/3 113/4/3 112/4/3
f 117/4/3 114/4/3 116/4/3
f 118/4/3 114/4/3 117/4/3
f 119/3/3 115/3/3 106/3/3
f 120/5/3 116/5/3 115/5/3
f 120/3/3 115/3/3 119/3/3
f 121/3/3 117/3/3 116/3/3
f 121/5/3 116/5/3 120/5/3
f 122/5/3 118/5/3 117/5/3
f 122/3/3 117/3/3 121/3/3
f 123/5/3 118/5/3 122/5/3
f 126/3/3 125/3/3 124/3/3
f 127/3/3 125/3/3 126/3/3
f 132/3/3 128/3/3 127/3/3
f 133/3/3 128/3/3 132/3/3
f 134/7/3 130/7/3 129/7/3
f 135/6/3 131/6/3 130/6/3
f 135/7/3 130/7/3 134/7/3
f 136/6/3 131/6/3 135/6/3
f 139/6/3 131/6/3 136/6/3
f 140/7/3 138/7/3 137/7/3
f 141/6/3 139/6/3 138/6/3
f 141/7/3 138/7/3 140/7/3
f 142/6/3 131/6/3 139/6/3
f 142/6/3 139/6/3 141/6/3
f 145/3/3 144/3/3 143/3/3
f 146/3/3 144/3/3 145/3/3
f 147/1/4 148/1/4 150/1/4
f 148/2/4 149/2/4 151/2/4
f 150/1/4 148/1/4 151/1/4
f 147/1/4 150/1/4 152/1/4
f 152/1/4 150/1/4 153/1/4
f 151/2/4 149/2/4 154/2/4
f 154/2/4 149/2/4 155/2/4
f 156/8/4 157/8/4 158/8/4
f 158/8/4 157/8/4 159/8/4
f 160/3/4 161/3/4 162/3/4
f 162/3/4 161/3/4 163/3/4
f 164/3/4 165/3/4 166/3/4
f 166/3/4 165/3/4 167/3/4
f 167/3/4 168/3/4 172/3/4
f 172/3/4 168/3/4 173/3/4
f 169/7/4 170/7/4 174/7/4
f 170/6/4 171/6/4 175/6/4
f 174/7/4 170/7/4 175/7/4
f 175/6/4 171/6/4 176/6/4
f 176/6/4 171/6/4 179/6/4
f 177/7/4 178/7/4 180/7/4
f 178/6/4 179/6/4 181/6/4
f 180/7/4 178/7/4 181/7/4
f 179/6/4 171/6/4 182/6/4
f 181/6/4 179/6/4 182/6/4
f 183/3/4 184/3/4 185/3/4
f 185/3/4 184/3/4 186/3/4
f 187/3/4 188/3/4 189/3/4
f 189/3/4 188/3/4 190/3/4
f 195/7/5 192/7/5 191/7/5
f 196/7/5 192/7/5 195/7/5
f 197/7/5 194/7/5 193/7/5
f 198/7/5 194/7/5 197/7/5
f 201/6/5 200/6/5 199/6/5
f 202/6/5 200/6/5 201/6/5
f 207/8/5 204/8/5 203/8/5
f 208/8/5 204/8/5 207/8/5
f 209/3/5 206/3/5 205/3/5
f 210/3/5 206/3/5 209/3/5
f 213/3/5 212/3/5 211/3/5
f 214/3/5 212/3/5 213/3/5
f 217/1/5 216/1/5 215/1/5
f 218/1/5 216/1/5 217/1/5
f 221/3/5 220/3/5 219/3/5
f 222/3/5 220/3/5 221/3/5
f 225/8/5 224/8/5 223/8/5
f 226/8/5 224/8/5 225/8/5
f 227/3/5 226/3/5 225/3/5
f 228/3/5 226/3/5 227/3/5
f 233/3/5 230/3/5 229/3/5
f 234/3/5 230/3/5 233/3/5
f 235/3/5 232/3/5 231/3/5
f 236/3/5 232/3/5 235/3/5
f 237/8/6 238/8/6 239/8/6
f 239/8/6 238/8/6 240/8/6
f 241/8/6 242/8/6 243/8/6
f 243/8/6 242/8/6 244/8/6
f 243/3/6 244/3/6 247/3/6
f 247/3/6 244/3/6 248/3/6
f 245/3/6 246/3/6 249/3/6
f 249/3/6 246/3/6 250/3/6
f 251/2/6 252/2/6 253/2/6
f 253/2/6 252/2/6 254/2/6
f 255/5/6 256/5/6 260/5/6
f 256/4/6 257/4/6 261/4/6
f 260/5/6 256/5/6 261/5/6
f 257/5/6 258/5/6 262/5/6
f 261/4/6 257/4/6 262/4/6
f 262/5/6 258/5/6 263/5/6
f 260/3/6 261/3/6 265/3/6
f 259/3/6 260/3/6 265/3/6
f 265/3/6 261/3/6 266/3/6
f 261/4/6 262/4/6 267/4/6
f 266/3/6 261/3/6 267/3/6
f 263/3/6 264/3/6 268/3/6
f 267/4/6 262/4/6 268/4/6
f 262/3/6 263/3/6 268/3/6
f 268/3/6 264/3/6 269/3/6
f 269/3/6 264/3/6 270/3/6
f 266/3/6 267/3/6 271/3/6
f 268/3/6 269/3/6 271/3/6
f 267/3/6 268/3/6 271/3/6
f 271/3/6 269/3/6 272/3/6
