# MagicaVoxel @ ephtracy

# material
mtllib scummBarPirateKing01_head.mtl
usemtl palette

# normals
vn -1 0 0
vn 1 0 0
vn 0 0 1
vn 0 0 -1
vn 0 -1 0
vn 0 1 0

# texcoords
vt 0.853516 0.5
vt 0.919922 0.5
vt 0.923828 0.5
vt 0.970703 0.5

# verts
v -3 0 2.5
v -3 0 1.5
v -3 1 2.5
v -3 1 1.5
v -3 4 0.5
v -3 4 -1.5
v -3 5 0.5
v -3 5 -1.5
v -2 1 1.5
v -2 1 -0.5
v -2 2 1.5
v -2 2 0.5
v -2 3 0.5
v -2 3 -0.5
v -2 3 -1.5
v -2 4 0.5
v -2 4 -0.5
v -2 4 -1.5
v -2 5 0.5
v -2 5 -1.5
v -2 5 -2.5
v -2 6 1.5
v -2 6 0.5
v -2 6 -1.5
v -2 6 -2.5
v -2 7 1.5
v -2 7 -1.5
v -1 0 2.5
v -1 0 1.5
v -1 1 2.5
v -1 1 1.5
v -1 2 -0.5
v -1 2 -1.5
v -1 3 -0.5
v -1 3 -1.5
v -1 5 1.5
v -1 5 0.5
v -1 6 1.5
v -1 6 0.5
v -1 7 1.5
v -1 7 0.5
v -1 8 1.5
v -1 8 0.5
v 1 6 0.5
v 1 6 -1.5
v 1 7 0.5
v 1 7 -1.5
v 2 0 2.5
v 2 0 1.5
v 2 1 2.5
v 2 1 1.5
v -2 0 2.5
v -2 0 1.5
v -2 1 2.5
v -2 1 1.5
v -1 6 0.5
v -1 6 -1.5
v -1 7 0.5
v -1 7 -1.5
v 1 0 2.5
v 1 0 1.5
v 1 1 2.5
v 1 1 1.5
v 1 2 -0.5
v 1 2 -1.5
v 1 3 -0.5
v 1 3 -1.5
v 1 5 1.5
v 1 5 0.5
v 1 6 1.5
v 1 6 0.5
v 1 7 1.5
v 1 7 0.5
v 1 8 1.5
v 1 8 0.5
v 2 1 1.5
v 2 1 -0.5
v 2 2 1.5
v 2 2 0.5
v 2 3 0.5
v 2 3 -0.5
v 2 3 -1.5
v 2 4 0.5
v 2 4 -0.5
v 2 4 -1.5
v 2 5 0.5
v 2 5 -1.5
v 2 5 -2.5
v 2 6 1.5
v 2 6 0.5
v 2 6 -1.5
v 2 6 -2.5
v 2 7 1.5
v 2 7 -1.5
v 3 0 2.5
v 3 0 1.5
v 3 1 2.5
v 3 1 1.5
v 3 4 0.5
v 3 4 -1.5
v 3 5 0.5
v 3 5 -1.5
v -3 0 2.5
v -3 1 2.5
v -2 0 2.5
v -2 1 2.5
v -1 0 2.5
v -1 1 2.5
v 1 0 2.5
v 1 1 2.5
v 2 0 2.5
v 2 1 2.5
v 3 0 2.5
v 3 1 2.5
v -2 1 1.5
v -2 2 1.5
v -2 6 1.5
v -2 7 1.5
v -1 1 1.5
v -1 5 1.5
v -1 6 1.5
v -1 7 1.5
v -1 8 1.5
v 1 1 1.5
v 1 5 1.5
v 1 6 1.5
v 1 7 1.5
v 1 8 1.5
v 2 1 1.5
v 2 2 1.5
v 2 6 1.5
v 2 7 1.5
v -3 4 0.5
v -3 5 0.5
v -2 2 0.5
v -2 3 0.5
v -2 4 0.5
v -2 5 0.5
v -2 6 0.5
v -1 2 0.5
v -1 3 0.5
v -1 4 0.5
v -1 5 0.5
v -1 6 0.5
v 1 2 0.5
v 1 3 0.5
v 1 4 0.5
v 1 5 0.5
v 1 6 0.5
v 2 2 0.5
v 2 3 0.5
v 2 4 0.5
v 2 5 0.5
v 2 6 0.5
v 3 4 0.5
v 3 5 0.5
v -3 0 1.5
v -3 1 1.5
v -2 0 1.5
v -2 1 1.5
v -1 0 1.5
v -1 1 1.5
v 1 0 1.5
v 1 1 1.5
v 2 0 1.5
v 2 1 1.5
v 3 0 1.5
v 3 1 1.5
v -1 6 0.5
v -1 7 0.5
v -1 8 0.5
v 1 6 0.5
v 1 7 0.5
v 1 8 0.5
v -2 1 -0.5
v -2 3 -0.5
v -1 1 -0.5
v -1 2 -0.5
v -1 3 -0.5
v 1 1 -0.5
v 1 2 -0.5
v 1 3 -0.5
v 2 1 -0.5
v 2 3 -0.5
v -3 4 -1.5
v -3 5 -1.5
v -2 3 -1.5
v -2 4 -1.5
v -2 5 -1.5
v -2 6 -1.5
v -2 7 -1.5
v -1 2 -1.5
v -1 3 -1.5
v -1 4 -1.5
v -1 5 -1.5
v -1 6 -1.5
v -1 7 -1.5
v 1 2 -1.5
v 1 3 -1.5
v 1 4 -1.5
v 1 5 -1.5
v 1 6 -1.5
v 1 7 -1.5
v 2 3 -1.5
v 2 4 -1.5
v 2 5 -1.5
v 2 6 -1.5
v 2 7 -1.5
v 3 4 -1.5
v 3 5 -1.5
v -2 5 -2.5
v -2 6 -2.5
v 2 5 -2.5
v 2 6 -2.5
v -3 0 2.5
v -2 0 2.5
v -1 0 2.5
v 1 0 2.5
v 2 0 2.5
v 3 0 2.5
v -3 0 1.5
v -2 0 1.5
v -1 0 1.5
v 1 0 1.5
v 2 0 1.5
v 3 0 1.5
v -2 1 1.5
v -1 1 1.5
v 1 1 1.5
v 2 1 1.5
v -1 1 0.5
v 1 1 0.5
v -2 1 -0.5
v -1 1 -0.5
v 1 1 -0.5
v 2 1 -0.5
v -1 2 -0.5
v 1 2 -0.5
v -1 2 -1.5
v 1 2 -1.5
v -2 3 -0.5
v -1 3 -0.5
v 1 3 -0.5
v 2 3 -0.5
v -2 3 -1.5
v -1 3 -1.5
v 1 3 -1.5
v 2 3 -1.5
v -3 4 0.5
v -2 4 0.5
v 2 4 0.5
v 3 4 0.5
v -2 4 -0.5
v 2 4 -0.5
v -3 4 -1.5
v -2 4 -1.5
v 2 4 -1.5
v 3 4 -1.5
v -1 5 1.5
v 1 5 1.5
v -1 5 0.5
v 1 5 0.5
v -2 5 -1.5
v -1 5 -1.5
v 1 5 -1.5
v 2 5 -1.5
v -2 5 -2.5
v 2 5 -2.5
v -2 6 1.5
v -1 6 1.5
v 1 6 1.5
v 2 6 1.5
v -2 6 0.5
v -1 6 0.5
v 1 6 0.5
v 2 6 0.5
v -3 1 2.5
v -2 1 2.5
v -1 1 2.5
v 1 1 2.5
v 2 1 2.5
v 3 1 2.5
v -3 1 1.5
v -2 1 1.5
v -1 1 1.5
v 1 1 1.5
v 2 1 1.5
v 3 1 1.5
v -2 2 1.5
v 2 2 1.5
v -2 2 0.5
v -1 2 0.5
v 1 2 0.5
v 2 2 0.5
v -3 5 0.5
v -2 5 0.5
v 2 5 0.5
v 3 5 0.5
v -3 5 -1.5
v -2 5 -1.5
v 2 5 -1.5
v 3 5 -1.5
v -1 6 0.5
v 1 6 0.5
v -2 6 -1.5
v -1 6 -1.5
v 1 6 -1.5
v 2 6 -1.5
v -2 6 -2.5
v 2 6 -2.5
v -2 7 1.5
v -1 7 1.5
v 1 7 1.5
v 2 7 1.5
v -1 7 0.5
v 1 7 0.5
v -2 7 -1.5
v -1 7 -1.5
v 1 7 -1.5
v 2 7 -1.5
v -1 8 1.5
v 1 8 1.5
v -1 8 0.5
v 1 8 0.5

# faces
f 3/2/1 2/2/1 1/2/1
f 4/2/1 2/2/1 3/2/1
f 7/3/1 6/3/1 5/3/1
f 8/3/1 6/3/1 7/3/1
f 11/2/1 10/2/1 9/2/1
f 12/2/1 10/2/1 11/2/1
f 13/2/1 10/2/1 12/2/1
f 14/2/1 10/2/1 13/2/1
f 16/4/1 14/4/1 13/4/1
f 17/2/1 15/2/1 14/2/1
f 17/4/1 14/4/1 16/4/1
f 18/2/1 15/2/1 17/2/1
f 23/3/1 20/3/1 19/3/1
f 23/3/1 21/3/1 20/3/1
f 24/3/1 21/3/1 23/3/1
f 25/3/1 21/3/1 24/3/1
f 26/3/1 23/3/1 22/3/1
f 26/3/1 24/3/1 23/3/1
f 27/3/1 24/3/1 26/3/1
f 30/2/1 29/2/1 28/2/1
f 31/2/1 29/2/1 30/2/1
f 34/2/1 33/2/1 32/2/1
f 35/2/1 33/2/1 34/2/1
f 38/3/1 37/3/1 36/3/1
f 39/3/1 37/3/1 38/3/1
f 42/3/1 41/3/1 40/3/1
f 43/3/1 41/3/1 42/3/1
f 46/3/1 45/3/1 44/3/1
f 47/3/1 45/3/1 46/3/1
f 50/2/1 49/2/1 48/2/1
f 51/2/1 49/2/1 50/2/1
f 52/2/2 53/2/2 54/2/2
f 54/2/2 53/2/2 55/2/2
f 56/3/2 57/3/2 58/3/2
f 58/3/2 57/3/2 59/3/2
f 60/2/2 61/2/2 62/2/2
f 62/2/2 61/2/2 63/2/2
f 64/2/2 65/2/2 66/2/2
f 66/2/2 65/2/2 67/2/2
f 68/3/2 69/3/2 70/3/2
f 70/3/2 69/3/2 71/3/2
f 72/3/2 73/3/2 74/3/2
f 74/3/2 73/3/2 75/3/2
f 76/2/2 77/2/2 78/2/2
f 78/2/2 77/2/2 79/2/2
f 79/2/2 77/2/2 80/2/2
f 80/2/2 77/2/2 81/2/2
f 80/4/2 81/4/2 83/4/2
f 81/2/2 82/2/2 84/2/2
f 83/4/2 81/4/2 84/4/2
f 84/2/2 82/2/2 85/2/2
f 86/3/2 87/3/2 90/3/2
f 87/3/2 88/3/2 90/3/2
f 90/3/2 88/3/2 91/3/2
f 91/3/2 88/3/2 92/3/2
f 89/3/2 90/3/2 93/3/2
f 90/3/2 91/3/2 93/3/2
f 93/3/2 91/3/2 94/3/2
f 95/2/2 96/2/2 97/2/2
f 97/2/2 96/2/2 98/2/2
f 99/3/2 100/3/2 101/3/2
f 101/3/2 100/3/2 102/3/2
f 105/2/3 104/2/3 103/2/3
f 106/2/3 104/2/3 105/2/3
f 109/2/3 108/2/3 107/2/3
f 110/2/3 108/2/3 109/2/3
f 113/2/3 112/2/3 111/2/3
f 114/2/3 112/2/3 113/2/3
f 119/2/3 116/2/3 115/2/3
f 121/3/3 118/3/3 117/3/3
f 122/3/3 118/3/3 121/3/3
f 124/2/3 116/2/3 119/2/3
f 125/3/3 121/3/3 120/3/3
f 126/1/3 122/1/3 121/1/3
f 126/3/3 121/3/3 125/3/3
f 127/3/3 123/3/3 122/3/3
f 127/1/3 122/1/3 126/1/3
f 128/3/3 123/3/3 127/3/3
f 129/2/3 116/2/3 124/2/3
f 130/2/3 116/2/3 129/2/3
f 131/3/3 127/3/3 126/3/3
f 132/3/3 127/3/3 131/3/3
f 137/3/3 134/3/3 133/3/3
f 138/3/3 134/3/3 137/3/3
f 140/2/3 136/2/3 135/2/3
f 141/4/3 137/4/3 136/4/3
f 141/2/3 136/2/3 140/2/3
f 142/3/3 139/3/3 138/3/3
f 142/4/3 137/4/3 141/4/3
f 142/3/3 138/3/3 137/3/3
f 143/3/3 139/3/3 142/3/3
f 144/3/3 139/3/3 143/3/3
f 145/4/3 141/4/3 140/4/3
f 145/4/3 142/4/3 141/4/3
f 145/4/3 143/4/3 142/4/3
f 146/4/3 143/4/3 145/4/3
f 147/4/3 143/4/3 146/4/3
f 148/4/3 143/4/3 147/4/3
f 150/2/3 146/2/3 145/2/3
f 151/4/3 147/4/3 146/4/3
f 151/2/3 146/2/3 150/2/3
f 152/3/3 149/3/3 148/3/3
f 152/4/3 147/4/3 151/4/3
f 152/3/3 148/3/3 147/3/3
f 153/3/3 149/3/3 152/3/3
f 154/3/3 149/3/3 153/3/3
f 155/3/3 153/3/3 152/3/3
f 156/3/3 153/3/3 155/3/3
f 157/2/4 158/2/4 159/2/4
f 159/2/4 158/2/4 160/2/4
f 161/2/4 162/2/4 163/2/4
f 163/2/4 162/2/4 164/2/4
f 165/2/4 166/2/4 167/2/4
f 167/2/4 166/2/4 168/2/4
f 169/1/4 170/1/4 172/1/4
f 170/3/4 171/3/4 173/3/4
f 172/1/4 170/1/4 173/1/4
f 173/3/4 171/3/4 174/3/4
f 175/2/4 176/2/4 177/2/4
f 177/2/4 176/2/4 178/2/4
f 178/2/4 176/2/4 179/2/4
f 177/4/4 178/4/4 180/4/4
f 180/4/4 178/4/4 181/4/4
f 180/2/4 181/2/4 183/2/4
f 181/2/4 182/2/4 183/2/4
f 183/2/4 182/2/4 184/2/4
f 185/3/4 186/3/4 188/3/4
f 188/3/4 186/3/4 189/3/4
f 187/2/4 188/2/4 193/2/4
f 188/3/4 189/3/4 194/3/4
f 193/2/4 188/2/4 194/2/4
f 194/3/4 189/3/4 195/3/4
f 190/3/4 191/3/4 196/3/4
f 196/3/4 191/3/4 197/3/4
f 194/2/4 195/2/4 198/2/4
f 192/2/4 193/2/4 198/2/4
f 193/2/4 194/2/4 198/2/4
f 198/2/4 195/2/4 199/2/4
f 199/2/4 195/2/4 200/2/4
f 200/2/4 195/2/4 201/2/4
f 199/2/4 200/2/4 204/2/4
f 200/3/4 201/3/4 205/3/4
f 204/2/4 200/2/4 205/2/4
f 205/3/4 201/3/4 206/3/4
f 202/3/4 203/3/4 207/3/4
f 207/3/4 203/3/4 208/3/4
f 205/3/4 206/3/4 209/3/4
f 209/3/4 206/3/4 210/3/4
f 211/3/4 212/3/4 213/3/4
f 213/3/4 212/3/4 214/3/4
f 221/2/5 216/2/5 215/2/5
f 222/2/5 216/2/5 221/2/5
f 223/2/5 218/2/5 217/2/5
f 224/2/5 218/2/5 223/2/5
f 225/2/5 220/2/5 219/2/5
f 226/2/5 220/2/5 225/2/5
f 231/2/5 228/2/5 227/2/5
f 231/2/5 230/2/5 229/2/5
f 231/2/5 229/2/5 228/2/5
f 232/2/5 230/2/5 231/2/5
f 233/2/5 231/2/5 227/2/5
f 234/4/5 232/4/5 231/4/5
f 234/2/5 231/2/5 233/2/5
f 235/2/5 230/2/5 232/2/5
f 235/4/5 232/4/5 234/4/5
f 236/2/5 230/2/5 235/2/5
f 239/2/5 238/2/5 237/2/5
f 240/2/5 238/2/5 239/2/5
f 245/2/5 242/2/5 241/2/5
f 246/2/5 242/2/5 245/2/5
f 247/2/5 244/2/5 243/2/5
f 248/2/5 244/2/5 247/2/5
f 253/3/5 250/3/5 249/3/5
f 254/3/5 252/3/5 251/3/5
f 255/3/5 253/3/5 249/3/5
f 256/3/5 253/3/5 255/3/5
f 257/3/5 252/3/5 254/3/5
f 258/3/5 252/3/5 257/3/5
f 261/3/5 260/3/5 259/3/5
f 262/3/5 260/3/5 261/3/5
f 267/3/5 265/3/5 264/3/5
f 267/3/5 266/3/5 265/3/5
f 267/3/5 264/3/5 263/3/5
f 268/3/5 266/3/5 267/3/5
f 273/3/5 270/3/5 269/3/5
f 274/3/5 270/3/5 273/3/5
f 275/3/5 272/3/5 271/3/5
f 276/3/5 272/3/5 275/3/5
f 277/2/6 278/2/6 283/2/6
f 283/2/6 278/2/6 284/2/6
f 279/2/6 280/2/6 285/2/6
f 285/2/6 280/2/6 286/2/6
f 281/2/6 282/2/6 287/2/6
f 287/2/6 282/2/6 288/2/6
f 289/2/6 290/2/6 291/2/6
f 291/2/6 290/2/6 292/2/6
f 292/2/6 290/2/6 293/2/6
f 293/2/6 290/2/6 294/2/6
f 295/3/6 296/3/6 299/3/6
f 299/3/6 296/3/6 300/3/6
f 297/3/6 298/3/6 301/3/6
f 301/3/6 298/3/6 302/3/6
f 303/3/6 304/3/6 306/3/6
f 306/3/6 304/3/6 307/3/6
f 305/3/6 306/3/6 309/3/6
f 307/3/6 308/3/6 309/3/6
f 306/3/6 307/3/6 309/3/6
f 309/3/6 308/3/6 310/3/6
f 311/3/6 312/3/6 315/3/6
f 313/3/6 314/3/6 316/3/6
f 311/3/6 315/3/6 317/3/6
f 317/3/6 315/3/6 318/3/6
f 316/3/6 314/3/6 319/3/6
f 319/3/6 314/3/6 320/3/6
f 321/3/6 322/3/6 323/3/6
f 323/3/6 322/3/6 324/3/6
