# MagicaVoxel @ ephtracy

# material
mtllib scummBarPirate01_head.mtl
usemtl palette

# normals
vn -1 0 0
vn 1 0 0
vn 0 0 1
vn 0 0 -1
vn 0 -1 0
vn 0 1 0

# texcoords
vt 0.923828 0.5
vt 0.970703 0.5
vt 0.974609 0.5

# verts
v -3 3 1
v -3 3 -1
v -3 4 1
v -3 4 -1
v -2 0 1
v -2 0 -0
v -2 2 1
v -2 2 -0
v -2 2 -1
v -2 3 1
v -2 3 -0
v -2 3 -1
v -2 4 2
v -2 4 1
v -2 4 -1
v -2 4 -2
v -2 5 -1
v -2 5 -2
v -2 6 2
v -2 6 -1
v -1 0 2
v -1 0 1
v -1 1 2
v -1 1 1
v -1 1 -0
v -1 1 -1
v -1 2 -0
v -1 2 -1
v 1 5 2
v 1 5 -1
v 1 6 2
v 1 6 -1
v -1 5 2
v -1 5 -1
v -1 6 2
v -1 6 -1
v 1 0 2
v 1 0 1
v 1 1 2
v 1 1 1
v 1 1 -0
v 1 1 -1
v 1 2 -0
v 1 2 -1
v 2 0 1
v 2 0 -0
v 2 2 1
v 2 2 -0
v 2 2 -1
v 2 3 1
v 2 3 -0
v 2 3 -1
v 2 4 2
v 2 4 1
v 2 4 -1
v 2 4 -2
v 2 5 -1
v 2 5 -2
v 2 6 2
v 2 6 -1
v 3 3 1
v 3 3 -1
v 3 4 1
v 3 4 -1
v -2 4 2
v -2 6 2
v -1 0 2
v -1 1 2
v -1 5 2
v -1 6 2
v 1 0 2
v 1 1 2
v 1 5 2
v 1 6 2
v 2 4 2
v 2 6 2
v -3 3 1
v -3 4 1
v -2 0 1
v -2 2 1
v -2 3 1
v -2 4 1
v -1 0 1
v -1 1 1
v -1 2 1
v -1 3 1
v -1 4 1
v 1 0 1
v 1 1 1
v 1 2 1
v 1 3 1
v 1 4 1
v 2 0 1
v 2 2 1
v 2 3 1
v 2 4 1
v 3 3 1
v 3 4 1
v -2 0 -0
v -2 2 -0
v -1 0 -0
v -1 1 -0
v -1 2 -0
v 1 0 -0
v 1 1 -0
v 1 2 -0
v 2 0 -0
v 2 2 -0
v -3 3 -1
v -3 4 -1
v -2 2 -1
v -2 3 -1
v -2 4 -1
v -2 5 -1
v -2 6 -1
v -1 1 -1
v -1 2 -1
v -1 3 -1
v -1 4 -1
v -1 5 -1
v -1 6 -1
v 1 1 -1
v 1 2 -1
v 1 3 -1
v 1 4 -1
v 1 5 -1
v 1 6 -1
v 2 2 -1
v 2 3 -1
v 2 4 -1
v 2 5 -1
v 2 6 -1
v 3 3 -1
v 3 4 -1
v -2 4 -2
v -2 5 -2
v 2 4 -2
v 2 5 -2
v -1 0 2
v 1 0 2
v -2 0 1
v -1 0 1
v 1 0 1
v 2 0 1
v -2 0 -0
v -1 0 -0
v 1 0 -0
v 2 0 -0
v -1 1 -0
v 1 1 -0
v -1 1 -1
v 1 1 -1
v -2 2 -0
v -1 2 -0
v 1 2 -0
v 2 2 -0
v -2 2 -1
v -1 2 -1
v 1 2 -1
v 2 2 -1
v -3 3 1
v -2 3 1
v 2 3 1
v 3 3 1
v -2 3 -0
v 2 3 -0
v -3 3 -1
v -2 3 -1
v 2 3 -1
v 3 3 -1
v -2 4 2
v 2 4 2
v -2 4 1
v -1 4 1
v 1 4 1
v 2 4 1
v -2 4 -1
v -1 4 -1
v 1 4 -1
v 2 4 -1
v -2 4 -2
v 2 4 -2
v -1 1 2
v 1 1 2
v -1 1 1
v 1 1 1
v -3 4 1
v -2 4 1
v 2 4 1
v 3 4 1
v -3 4 -1
v -2 4 -1
v 2 4 -1
v 3 4 -1
v -1 5 2
v 1 5 2
v -2 5 -1
v -1 5 -1
v 1 5 -1
v 2 5 -1
v -2 5 -2
v 2 5 -2
v -2 6 2
v -1 6 2
v 1 6 2
v 2 6 2
v -2 6 -1
v -1 6 -1
v 1 6 -1
v 2 6 -1

# faces
f 3/1/1 2/1/1 1/1/1
f 4/1/1 2/1/1 3/1/1
f 7/3/1 6/3/1 5/3/1
f 8/3/1 6/3/1 7/3/1
f 10/2/1 8/2/1 7/2/1
f 11/3/1 9/3/1 8/3/1
f 11/2/1 8/2/1 10/2/1
f 12/3/1 9/3/1 11/3/1
f 17/1/1 15/1/1 14/1/1
f 17/1/1 16/1/1 15/1/1
f 17/1/1 14/1/1 13/1/1
f 18/1/1 16/1/1 17/1/1
f 19/1/1 17/1/1 13/1/1
f 20/1/1 17/1/1 19/1/1
f 23/3/1 22/3/1 21/3/1
f 24/3/1 22/3/1 23/3/1
f 27/3/1 26/3/1 25/3/1
f 28/3/1 26/3/1 27/3/1
f 31/1/1 30/1/1 29/1/1
f 32/1/1 30/1/1 31/1/1
f 33/1/2 34/1/2 35/1/2
f 35/1/2 34/1/2 36/1/2
f 37/3/2 38/3/2 39/3/2
f 39/3/2 38/3/2 40/3/2
f 41/3/2 42/3/2 43/3/2
f 43/3/2 42/3/2 44/3/2
f 45/3/2 46/3/2 47/3/2
f 47/3/2 46/3/2 48/3/2
f 47/2/2 48/2/2 50/2/2
f 48/3/2 49/3/2 51/3/2
f 50/2/2 48/2/2 51/2/2
f 51/3/2 49/3/2 52/3/2
f 54/1/2 55/1/2 57/1/2
f 55/1/2 56/1/2 57/1/2
f 53/1/2 54/1/2 57/1/2
f 57/1/2 56/1/2 58/1/2
f 53/1/2 57/1/2 59/1/2
f 59/1/2 57/1/2 60/1/2
f 61/1/2 62/1/2 63/1/2
f 63/1/2 62/1/2 64/1/2
f 69/1/3 66/1/3 65/1/3
f 70/1/3 66/1/3 69/1/3
f 71/3/3 68/3/3 67/3/3
f 72/3/3 68/3/3 71/3/3
f 73/1/3 69/1/3 65/1/3
f 75/1/3 74/1/3 73/1/3
f 75/1/3 73/1/3 65/1/3
f 76/1/3 74/1/3 75/1/3
f 81/1/3 78/1/3 77/1/3
f 82/1/3 78/1/3 81/1/3
f 83/3/3 80/3/3 79/3/3
f 84/3/3 80/3/3 83/3/3
f 85/2/3 81/2/3 80/2/3
f 85/3/3 80/3/3 84/3/3
f 86/1/3 82/1/3 81/1/3
f 86/2/3 81/2/3 85/2/3
f 87/1/3 82/1/3 86/1/3
f 89/2/3 85/2/3 84/2/3
f 89/2/3 87/2/3 86/2/3
f 89/2/3 86/2/3 85/2/3
f 90/2/3 87/2/3 89/2/3
f 91/2/3 87/2/3 90/2/3
f 92/2/3 87/2/3 91/2/3
f 93/3/3 89/3/3 88/3/3
f 93/3/3 90/3/3 89/3/3
f 94/2/3 91/2/3 90/2/3
f 94/3/3 90/3/3 93/3/3
f 95/1/3 92/1/3 91/1/3
f 95/2/3 91/2/3 94/2/3
f 96/1/3 92/1/3 95/1/3
f 97/1/3 96/1/3 95/1/3
f 98/1/3 96/1/3 97/1/3
f 99/3/4 100/3/4 101/3/4
f 101/3/4 100/3/4 102/3/4
f 102/3/4 100/3/4 103/3/4
f 101/2/4 102/2/4 104/2/4
f 104/2/4 102/2/4 105/2/4
f 104/3/4 105/3/4 107/3/4
f 105/3/4 106/3/4 107/3/4
f 107/3/4 106/3/4 108/3/4
f 109/1/4 110/1/4 112/1/4
f 112/1/4 110/1/4 113/1/4
f 111/3/4 112/3/4 117/3/4
f 112/1/4 113/1/4 118/1/4
f 117/3/4 112/3/4 118/3/4
f 118/1/4 113/1/4 119/1/4
f 114/1/4 115/1/4 120/1/4
f 120/1/4 115/1/4 121/1/4
f 118/3/4 119/3/4 122/3/4
f 116/3/4 117/3/4 122/3/4
f 117/3/4 118/3/4 122/3/4
f 122/3/4 119/3/4 123/3/4
f 123/3/4 119/3/4 124/3/4
f 124/3/4 119/3/4 125/3/4
f 123/3/4 124/3/4 128/3/4
f 124/1/4 125/1/4 129/1/4
f 128/3/4 124/3/4 129/3/4
f 129/1/4 125/1/4 130/1/4
f 126/1/4 127/1/4 131/1/4
f 131/1/4 127/1/4 132/1/4
f 129/1/4 130/1/4 133/1/4
f 133/1/4 130/1/4 134/1/4
f 135/1/4 136/1/4 137/1/4
f 137/1/4 136/1/4 138/1/4
f 142/3/5 140/3/5 139/3/5
f 143/3/5 140/3/5 142/3/5
f 145/3/5 142/3/5 141/3/5
f 146/2/5 143/2/5 142/2/5
f 146/3/5 142/3/5 145/3/5
f 147/3/5 144/3/5 143/3/5
f 147/2/5 143/2/5 146/2/5
f 148/3/5 144/3/5 147/3/5
f 151/3/5 150/3/5 149/3/5
f 152/3/5 150/3/5 151/3/5
f 157/3/5 154/3/5 153/3/5
f 158/3/5 154/3/5 157/3/5
f 159/3/5 156/3/5 155/3/5
f 160/3/5 156/3/5 159/3/5
f 165/1/5 162/1/5 161/1/5
f 166/1/5 164/1/5 163/1/5
f 167/1/5 165/1/5 161/1/5
f 168/1/5 165/1/5 167/1/5
f 169/1/5 164/1/5 166/1/5
f 170/1/5 164/1/5 169/1/5
f 173/1/5 172/1/5 171/1/5
f 174/1/5 172/1/5 173/1/5
f 175/1/5 172/1/5 174/1/5
f 176/1/5 172/1/5 175/1/5
f 181/1/5 178/1/5 177/1/5
f 181/1/5 180/1/5 179/1/5
f 181/1/5 179/1/5 178/1/5
f 182/1/5 180/1/5 181/1/5
f 183/3/6 184/3/6 185/3/6
f 185/3/6 184/3/6 186/3/6
f 187/1/6 188/1/6 191/1/6
f 191/1/6 188/1/6 192/1/6
f 189/1/6 190/1/6 193/1/6
f 193/1/6 190/1/6 194/1/6
f 195/1/6 196/1/6 198/1/6
f 198/1/6 196/1/6 199/1/6
f 197/1/6 198/1/6 201/1/6
f 199/1/6 200/1/6 201/1/6
f 198/1/6 199/1/6 201/1/6
f 201/1/6 200/1/6 202/1/6
f 203/1/6 204/1/6 207/1/6
f 207/1/6 204/1/6 208/1/6
f 205/1/6 206/1/6 209/1/6
f 209/1/6 206/1/6 210/1/6
