# MagicaVoxel @ ephtracy

# material
mtllib scummBarPirate04_head.mtl
usemtl palette

# normals
vn -1 0 0
vn 1 0 0
vn 0 0 1
vn 0 0 -1
vn 0 -1 0
vn 0 1 0

# texcoords
vt 0.939453 0.5
vt 0.970703 0.5
vt 0.974609 0.5

# verts
v -2 2 0.5
v -2 2 -0.5
v -2 2 -1.5
v -2 3 0.5
v -2 3 -0.5
v -2 3 -1.5
v -2 4 0.5
v -2 4 -0.5
v -1 0 1.5
v -1 0 0.5
v -1 0 -0.5
v -1 1 1.5
v -1 1 0.5
v -1 1 -0.5
v -1 1 -1.5
v -1 2 0.5
v -1 2 -0.5
v -1 2 -1.5
v -1 3 -0.5
v -1 3 -1.5
v -1 4 0.5
v -1 4 -0.5
v -1 4 -1.5
v -1 5 0.5
v -1 5 -1.5
v 1 0 1.5
v 1 0 0.5
v 1 0 -0.5
v 1 1 1.5
v 1 1 0.5
v 1 1 -0.5
v 1 1 -1.5
v 1 2 0.5
v 1 2 -0.5
v 1 2 -1.5
v 1 3 -0.5
v 1 3 -1.5
v 1 4 0.5
v 1 4 -0.5
v 1 4 -1.5
v 1 5 0.5
v 1 5 -1.5
v 2 2 0.5
v 2 2 -0.5
v 2 2 -1.5
v 2 3 0.5
v 2 3 -0.5
v 2 3 -1.5
v 2 4 0.5
v 2 4 -0.5
v -1 0 1.5
v -1 1 1.5
v 1 0 1.5
v 1 1 1.5
v -2 2 0.5
v -2 3 0.5
v -2 4 0.5
v -1 1 0.5
v -1 2 0.5
v -1 3 0.5
v -1 4 0.5
v -1 5 0.5
v 1 1 0.5
v 1 2 0.5
v 1 3 0.5
v 1 4 0.5
v 1 5 0.5
v 2 2 0.5
v 2 3 0.5
v 2 4 0.5
v -2 3 -0.5
v -2 4 -0.5
v -1 0 -0.5
v -1 1 -0.5
v -1 3 -0.5
v -1 4 -0.5
v 1 0 -0.5
v 1 1 -0.5
v 1 3 -0.5
v 1 4 -0.5
v 2 3 -0.5
v 2 4 -0.5
v -2 2 -1.5
v -2 3 -1.5
v -1 1 -1.5
v -1 2 -1.5
v -1 3 -1.5
v -1 4 -1.5
v -1 5 -1.5
v 1 1 -1.5
v 1 2 -1.5
v 1 3 -1.5
v 1 4 -1.5
v 1 5 -1.5
v 2 2 -1.5
v 2 3 -1.5
v -1 0 1.5
v 1 0 1.5
v -1 0 0.5
v 1 0 0.5
v -1 0 -0.5
v 1 0 -0.5
v -1 1 -0.5
v 1 1 -0.5
v -1 1 -1.5
v 1 1 -1.5
v -2 2 0.5
v -1 2 0.5
v 1 2 0.5
v 2 2 0.5
v -2 2 -0.5
v -1 2 -0.5
v 1 2 -0.5
v 2 2 -0.5
v -2 2 -1.5
v -1 2 -1.5
v 1 2 -1.5
v 2 2 -1.5
v -1 1 1.5
v 1 1 1.5
v -1 1 0.5
v 1 1 0.5
v -2 3 -0.5
v -1 3 -0.5
v 1 3 -0.5
v 2 3 -0.5
v -2 3 -1.5
v -1 3 -1.5
v 1 3 -1.5
v 2 3 -1.5
v -2 4 0.5
v -1 4 0.5
v 1 4 0.5
v 2 4 0.5
v -2 4 -0.5
v -1 4 -0.5
v 1 4 -0.5
v 2 4 -0.5
v -1 5 0.5
v 1 5 0.5
v -1 5 -1.5
v 1 5 -1.5

# faces
f 4/2/1 2/2/1 1/2/1
f 5/3/1 3/3/1 2/3/1
f 5/2/1 2/2/1 4/2/1
f 6/3/1 3/3/1 5/3/1
f 7/3/1 5/3/1 4/3/1
f 8/3/1 5/3/1 7/3/1
f 12/3/1 10/3/1 9/3/1
f 13/2/1 11/2/1 10/2/1
f 13/3/1 10/3/1 12/3/1
f 14/2/1 11/2/1 13/2/1
f 16/2/1 14/2/1 13/2/1
f 17/3/1 15/3/1 14/3/1
f 17/2/1 14/2/1 16/2/1
f 18/3/1 15/3/1 17/3/1
f 22/3/1 20/3/1 19/3/1
f 23/3/1 20/3/1 22/3/1
f 24/1/1 22/1/1 21/1/1
f 24/1/1 23/1/1 22/1/1
f 25/1/1 23/1/1 24/1/1
f 26/3/2 27/3/2 29/3/2
f 27/2/2 28/2/2 30/2/2
f 29/3/2 27/3/2 30/3/2
f 30/2/2 28/2/2 31/2/2
f 30/2/2 31/2/2 33/2/2
f 31/3/2 32/3/2 34/3/2
f 33/2/2 31/2/2 34/2/2
f 34/3/2 32/3/2 35/3/2
f 36/3/2 37/3/2 39/3/2
f 39/3/2 37/3/2 40/3/2
f 38/1/2 39/1/2 41/1/2
f 39/1/2 40/1/2 41/1/2
f 41/1/2 40/1/2 42/1/2
f 43/2/2 44/2/2 46/2/2
f 44/3/2 45/3/2 47/3/2
f 46/2/2 44/2/2 47/2/2
f 47/3/2 45/3/2 48/3/2
f 46/3/2 47/3/2 49/3/2
f 49/3/2 47/3/2 50/3/2
f 53/3/3 52/3/3 51/3/3
f 54/3/3 52/3/3 53/3/3
f 59/2/3 56/2/3 55/2/3
f 60/3/3 57/3/3 56/3/3
f 60/2/3 56/2/3 59/2/3
f 61/3/3 57/3/3 60/3/3
f 63/2/3 59/2/3 58/2/3
f 63/2/3 60/2/3 59/2/3
f 63/2/3 61/2/3 60/2/3
f 64/2/3 61/2/3 63/2/3
f 65/2/3 61/2/3 64/2/3
f 66/1/3 62/1/3 61/1/3
f 66/2/3 61/2/3 65/2/3
f 67/1/3 62/1/3 66/1/3
f 68/2/3 65/2/3 64/2/3
f 69/3/3 66/3/3 65/3/3
f 69/2/3 65/2/3 68/2/3
f 70/3/3 66/3/3 69/3/3
f 71/3/4 72/3/4 75/3/4
f 75/3/4 72/3/4 76/3/4
f 73/2/4 74/2/4 77/2/4
f 77/2/4 74/2/4 78/2/4
f 79/3/4 80/3/4 81/3/4
f 81/3/4 80/3/4 82/3/4
f 83/3/4 84/3/4 86/3/4
f 86/3/4 84/3/4 87/3/4
f 85/3/4 86/3/4 90/3/4
f 86/3/4 87/3/4 90/3/4
f 87/3/4 88/3/4 90/3/4
f 90/3/4 88/3/4 91/3/4
f 91/3/4 88/3/4 92/3/4
f 88/1/4 89/1/4 93/1/4
f 92/3/4 88/3/4 93/3/4
f 93/1/4 89/1/4 94/1/4
f 91/3/4 92/3/4 95/3/4
f 95/3/4 92/3/4 96/3/4
f 99/3/5 98/3/5 97/3/5
f 100/3/5 98/3/5 99/3/5
f 101/2/5 100/2/5 99/2/5
f 102/2/5 100/2/5 101/2/5
f 105/3/5 104/3/5 103/3/5
f 106/3/5 104/3/5 105/3/5
f 111/2/5 108/2/5 107/2/5
f 112/2/5 108/2/5 111/2/5
f 113/2/5 110/2/5 109/2/5
f 114/2/5 110/2/5 113/2/5
f 115/3/5 112/3/5 111/3/5
f 116/3/5 112/3/5 115/3/5
f 117/3/5 114/3/5 113/3/5
f 118/3/5 114/3/5 117/3/5
f 119/3/6 120/3/6 121/3/6
f 121/3/6 120/3/6 122/3/6
f 123/3/6 124/3/6 127/3/6
f 127/3/6 124/3/6 128/3/6
f 125/3/6 126/3/6 129/3/6
f 129/3/6 126/3/6 130/3/6
f 131/3/6 132/3/6 135/3/6
f 135/3/6 132/3/6 136/3/6
f 133/3/6 134/3/6 137/3/6
f 137/3/6 134/3/6 138/3/6
f 139/1/6 140/1/6 141/1/6
f 141/1/6 140/1/6 142/1/6
