# MagicaVoxel @ ephtracy

# material
mtllib scummBarPirate01_body.mtl
usemtl palette

# normals
vn -1 0 0
vn 1 0 0
vn 0 0 1
vn 0 0 -1
vn 0 -1 0
vn 0 1 0

# texcoords
vt 0.845703 0.5
vt 0.849609 0.5
vt 0.908203 0.5
vt 0.912109 0.5
vt 0.916016 0.5
vt 0.919922 0.5
vt 0.923828 0.5
vt 0.970703 0.5

# verts
v -4.5 5 -1.5
v -4.5 5 -2.5
v -4.5 6 -1.5
v -4.5 6 -2.5
v -4.5 7 -1.5
v -4.5 7 -2.5
v -4.5 8 -1.5
v -4.5 8 -2.5
v -3.5 8 -1.5
v -3.5 8 -2.5
v -3.5 9 -1.5
v -3.5 9 -2.5
v -2.5 0 -1.5
v -2.5 0 -2.5
v -2.5 1 -1.5
v -2.5 1 -2.5
v -2.5 4 -0.5
v -2.5 4 -1.5
v -2.5 4 -2.5
v -2.5 4 -3.5
v -2.5 5 -0.5
v -2.5 5 -3.5
v -2.5 6 -0.5
v -2.5 6 -3.5
v -2.5 8 -1.5
v -2.5 8 -2.5
v -2.5 9 -0.5
v -2.5 9 -1.5
v -2.5 9 -2.5
v -2.5 9 -3.5
v 0.5 0 -1.5
v 0.5 0 -2.5
v 0.5 1 -1.5
v 0.5 1 -2.5
v 0.5 4 -0.5
v 0.5 4 -1.5
v 0.5 4 -2.5
v 0.5 5 -0.5
v 0.5 5 -1.5
v 2.5 7 3.5
v 2.5 7 1.5
v 2.5 7 0.5
v 2.5 7 -0.5
v 2.5 7 -1.5
v 2.5 8 1.5
v 2.5 8 0.5
v 2.5 8 -0.5
v 2.5 8 -1.5
v 2.5 9 3.5
v 2.5 9 1.5
v 2.5 9 0.5
v 2.5 10 3.5
v 2.5 10 1.5
v -3.5 5 -1.5
v -3.5 5 -2.5
v -3.5 6 -1.5
v -3.5 6 -2.5
v -3.5 7 -1.5
v -3.5 7 -2.5
v -3.5 8 -1.5
v -3.5 8 -2.5
v -1.5 0 -1.5
v -1.5 0 -2.5
v -1.5 1 -1.5
v -1.5 1 -2.5
v -1.5 4 -0.5
v -1.5 4 -1.5
v -1.5 4 -2.5
v -1.5 5 -0.5
v -1.5 5 -1.5
v 1.5 0 -1.5
v 1.5 0 -2.5
v 1.5 1 -1.5
v 1.5 1 -2.5
v 1.5 4 -0.5
v 1.5 4 -1.5
v 1.5 4 -2.5
v 1.5 4 -3.5
v 1.5 5 -0.5
v 1.5 5 -3.5
v 1.5 6 -0.5
v 1.5 6 -3.5
v 1.5 8 -1.5
v 1.5 8 -2.5
v 1.5 9 -0.5
v 1.5 9 -1.5
v 1.5 9 -2.5
v 1.5 9 -3.5
v 2.5 8 -1.5
v 2.5 8 -2.5
v 2.5 9 -1.5
v 2.5 9 -2.5
v 3.5 7 0.5
v 3.5 7 -0.5
v 3.5 7 -1.5
v 3.5 8 1.5
v 3.5 8 0.5
v 3.5 8 -0.5
v 3.5 8 -1.5
v 3.5 9 1.5
v 3.5 9 0.5
v 4.5 7 3.5
v 4.5 7 1.5
v 4.5 9 3.5
v 4.5 9 1.5
v 4.5 10 3.5
v 4.5 10 1.5
v 2.5 7 3.5
v 2.5 9 3.5
v 2.5 10 3.5
v 4.5 7 3.5
v 4.5 9 3.5
v 4.5 10 3.5
v 2.5 7 0.5
v 2.5 8 0.5
v 3.5 7 0.5
v 3.5 8 0.5
v -2.5 4 -0.5
v -2.5 5 -0.5
v -2.5 6 -0.5
v -2.5 9 -0.5
v -1.5 4 -0.5
v -1.5 5 -0.5
v -1.5 6 -0.5
v -1.5 9 -0.5
v 0.5 4 -0.5
v 0.5 5 -0.5
v 0.5 6 -0.5
v 0.5 9 -0.5
v 1.5 4 -0.5
v 1.5 5 -0.5
v 1.5 6 -0.5
v 1.5 9 -0.5
v -4.5 5 -1.5
v -4.5 6 -1.5
v -4.5 7 -1.5
v -4.5 8 -1.5
v -3.5 5 -1.5
v -3.5 6 -1.5
v -3.5 7 -1.5
v -3.5 8 -1.5
v -3.5 9 -1.5
v -2.5 0 -1.5
v -2.5 1 -1.5
v -2.5 4 -1.5
v -2.5 8 -1.5
v -2.5 9 -1.5
v -1.5 0 -1.5
v -1.5 1 -1.5
v -1.5 4 -1.5
v -1.5 5 -1.5
v 0.5 0 -1.5
v 0.5 1 -1.5
v 0.5 4 -1.5
v 0.5 5 -1.5
v 1.5 0 -1.5
v 1.5 1 -1.5
v 1.5 4 -1.5
v 1.5 8 -1.5
v 1.5 9 -1.5
v 2.5 8 -1.5
v 2.5 9 -1.5
v 2.5 7 1.5
v 2.5 8 1.5
v 2.5 9 1.5
v 2.5 10 1.5
v 3.5 8 1.5
v 3.5 9 1.5
v 4.5 7 1.5
v 4.5 9 1.5
v 4.5 10 1.5
v 2.5 8 0.5
v 2.5 9 0.5
v 3.5 8 0.5
v 3.5 9 0.5
v 2.5 7 -1.5
v 2.5 8 -1.5
v 3.5 7 -1.5
v 3.5 8 -1.5
v -4.5 5 -2.5
v -4.5 6 -2.5
v -4.5 7 -2.5
v -4.5 8 -2.5
v -3.5 5 -2.5
v -3.5 6 -2.5
v -3.5 7 -2.5
v -3.5 8 -2.5
v -3.5 9 -2.5
v -2.5 0 -2.5
v -2.5 1 -2.5
v -2.5 4 -2.5
v -2.5 8 -2.5
v -2.5 9 -2.5
v -1.5 0 -2.5
v -1.5 1 -2.5
v -1.5 4 -2.5
v 0.5 0 -2.5
v 0.5 1 -2.5
v 0.5 4 -2.5
v 1.5 0 -2.5
v 1.5 1 -2.5
v 1.5 4 -2.5
v 1.5 8 -2.5
v 1.5 9 -2.5
v 2.5 8 -2.5
v 2.5 9 -2.5
v -2.5 4 -3.5
v -2.5 5 -3.5
v -2.5 6 -3.5
v -2.5 9 -3.5
v 1.5 4 -3.5
v 1.5 5 -3.5
v 1.5 6 -3.5
v 1.5 9 -3.5
v -2.5 0 -1.5
v -1.5 0 -1.5
v 0.5 0 -1.5
v 1.5 0 -1.5
v -2.5 0 -2.5
v -1.5 0 -2.5
v 0.5 0 -2.5
v 1.5 0 -2.5
v -2.5 4 -0.5
v -1.5 4 -0.5
v 0.5 4 -0.5
v 1.5 4 -0.5
v -2.5 4 -1.5
v -1.5 4 -1.5
v 0.5 4 -1.5
v 1.5 4 -1.5
v -2.5 4 -2.5
v -1.5 4 -2.5
v 0.5 4 -2.5
v 1.5 4 -2.5
v -2.5 4 -3.5
v 1.5 4 -3.5
v -1.5 5 -0.5
v 0.5 5 -0.5
v -4.5 5 -1.5
v -3.5 5 -1.5
v -1.5 5 -1.5
v 0.5 5 -1.5
v -4.5 5 -2.5
v -3.5 5 -2.5
v 2.5 7 3.5
v 4.5 7 3.5
v 2.5 7 1.5
v 4.5 7 1.5
v 2.5 7 0.5
v 3.5 7 0.5
v 2.5 7 -0.5
v 3.5 7 -0.5
v 2.5 7 -1.5
v 3.5 7 -1.5
v 2.5 8 1.5
v 3.5 8 1.5
v 2.5 8 0.5
v 3.5 8 0.5
v -3.5 8 -1.5
v -2.5 8 -1.5
v 1.5 8 -1.5
v 2.5 8 -1.5
v -3.5 8 -2.5
v -2.5 8 -2.5
v 1.5 8 -2.5
v 2.5 8 -2.5
v 2.5 8 0.5
v 3.5 8 0.5
v 2.5 8 -0.5
v 3.5 8 -0.5
v -4.5 8 -1.5
v -3.5 8 -1.5
v 2.5 8 -1.5
v 3.5 8 -1.5
v -4.5 8 -2.5
v -3.5 8 -2.5
v 2.5 9 1.5
v 3.5 9 1.5
v 2.5 9 0.5
v 3.5 9 0.5
v -2.5 9 -0.5
v -1.5 9 -0.5
v 0.5 9 -0.5
v 1.5 9 -0.5
v -3.5 9 -1.5
v -2.5 9 -1.5
v -1.5 9 -1.5
v 0.5 9 -1.5
v 1.5 9 -1.5
v 2.5 9 -1.5
v -3.5 9 -2.5
v -2.5 9 -2.5
v -1.5 9 -2.5
v 0.5 9 -2.5
v 1.5 9 -2.5
v 2.5 9 -2.5
v -2.5 9 -3.5
v 1.5 9 -3.5
v 2.5 10 3.5
v 4.5 10 3.5
v 2.5 10 1.5
v 4.5 10 1.5

# faces
f 3/8/1 2/8/1 1/8/1
f 4/8/1 2/8/1 3/8/1
f 5/4/1 4/4/1 3/4/1
f 6/4/1 4/4/1 5/4/1
f 7/5/1 6/5/1 5/5/1
f 8/5/1 6/5/1 7/5/1
f 11/4/1 10/4/1 9/4/1
f 12/4/1 10/4/1 11/4/1
f 15/7/1 14/7/1 13/7/1
f 16/7/1 14/7/1 15/7/1
f 18/6/1 16/6/1 15/6/1
f 19/6/1 16/6/1 18/6/1
f 21/4/1 19/4/1 18/4/1
f 21/4/1 20/4/1 19/4/1
f 21/4/1 18/4/1 17/4/1
f 22/4/1 20/4/1 21/4/1
f 23/5/1 22/5/1 21/5/1
f 24/5/1 22/5/1 23/5/1
f 25/4/1 24/4/1 23/4/1
f 26/4/1 24/4/1 25/4/1
f 27/4/1 25/4/1 23/4/1
f 28/4/1 25/4/1 27/4/1
f 29/4/1 24/4/1 26/4/1
f 30/4/1 24/4/1 29/4/1
f 33/7/1 32/7/1 31/7/1
f 34/7/1 32/7/1 33/7/1
f 36/6/1 34/6/1 33/6/1
f 37/6/1 34/6/1 36/6/1
f 38/4/1 36/4/1 35/4/1
f 39/4/1 36/4/1 38/4/1
f 45/1/1 41/1/1 40/1/1
f 46/4/1 43/4/1 42/4/1
f 47/5/1 44/5/1 43/5/1
f 47/4/1 43/4/1 46/4/1
f 48/5/1 44/5/1 47/5/1
f 49/1/1 45/1/1 40/1/1
f 50/8/1 46/8/1 45/8/1
f 50/1/1 45/1/1 49/1/1
f 51/8/1 46/8/1 50/8/1
f 52/2/1 50/2/1 49/2/1
f 53/2/1 50/2/1 52/2/1
f 54/8/2 55/8/2 56/8/2
f 56/8/2 55/8/2 57/8/2
f 56/4/2 57/4/2 58/4/2
f 58/4/2 57/4/2 59/4/2
f 58/5/2 59/5/2 60/5/2
f 60/5/2 59/5/2 61/5/2
f 62/7/2 63/7/2 64/7/2
f 64/7/2 63/7/2 65/7/2
f 64/6/2 65/6/2 67/6/2
f 67/6/2 65/6/2 68/6/2
f 66/4/2 67/4/2 69/4/2
f 69/4/2 67/4/2 70/4/2
f 71/7/2 72/7/2 73/7/2
f 73/7/2 72/7/2 74/7/2
f 73/6/2 74/6/2 76/6/2
f 76/6/2 74/6/2 77/6/2
f 76/4/2 77/4/2 79/4/2
f 77/4/2 78/4/2 79/4/2
f 75/4/2 76/4/2 79/4/2
f 79/4/2 78/4/2 80/4/2
f 79/5/2 80/5/2 81/5/2
f 81/5/2 80/5/2 82/5/2
f 81/4/2 82/4/2 83/4/2
f 83/4/2 82/4/2 84/4/2
f 81/4/2 83/4/2 85/4/2
f 85/4/2 83/4/2 86/4/2
f 84/4/2 82/4/2 87/4/2
f 87/4/2 82/4/2 88/4/2
f 89/4/2 90/4/2 91/4/2
f 91/4/2 90/4/2 92/4/2
f 93/4/2 94/4/2 97/4/2
f 94/5/2 95/5/2 98/5/2
f 97/4/2 94/4/2 98/4/2
f 98/5/2 95/5/2 99/5/2
f 96/8/2 97/8/2 100/8/2
f 100/8/2 97/8/2 101/8/2
f 102/1/2 103/1/2 104/1/2
f 104/1/2 103/1/2 105/1/2
f 104/2/2 105/2/2 106/2/2
f 106/2/2 105/2/2 107/2/2
f 111/1/3 109/1/3 108/1/3
f 112/2/3 110/2/3 109/2/3
f 112/1/3 109/1/3 111/1/3
f 113/2/3 110/2/3 112/2/3
f 116/4/3 115/4/3 114/4/3
f 117/4/3 115/4/3 116/4/3
f 122/4/3 119/4/3 118/4/3
f 123/5/3 120/5/3 119/5/3
f 123/4/3 119/4/3 122/4/3
f 124/4/3 121/4/3 120/4/3
f 124/5/3 120/5/3 123/5/3
f 125/4/3 121/4/3 124/4/3
f 127/3/3 124/3/3 123/3/3
f 127/3/3 125/3/3 124/3/3
f 128/3/3 125/3/3 127/3/3
f 129/3/3 125/3/3 128/3/3
f 130/4/3 127/4/3 126/4/3
f 131/5/3 128/5/3 127/5/3
f 131/4/3 127/4/3 130/4/3
f 132/4/3 129/4/3 128/4/3
f 132/5/3 128/5/3 131/5/3
f 133/4/3 129/4/3 132/4/3
f 138/8/3 135/8/3 134/8/3
f 139/4/3 136/4/3 135/4/3
f 139/8/3 135/8/3 138/8/3
f 140/5/3 137/5/3 136/5/3
f 140/4/3 136/4/3 139/4/3
f 141/5/3 137/5/3 140/5/3
f 146/4/3 142/4/3 141/4/3
f 147/4/3 142/4/3 146/4/3
f 148/7/3 144/7/3 143/7/3
f 149/6/3 145/6/3 144/6/3
f 149/7/3 144/7/3 148/7/3
f 150/6/3 145/6/3 149/6/3
f 154/6/3 151/6/3 150/6/3
f 155/6/3 151/6/3 154/6/3
f 156/7/3 153/7/3 152/7/3
f 157/6/3 154/6/3 153/6/3
f 157/7/3 153/7/3 156/7/3
f 158/6/3 154/6/3 157/6/3
f 161/4/3 160/4/3 159/4/3
f 162/4/3 160/4/3 161/4/3
f 163/1/4 164/1/4 167/1/4
f 165/2/4 166/2/4 168/2/4
f 163/1/4 167/1/4 169/1/4
f 167/1/4 168/1/4 169/1/4
f 168/2/4 166/2/4 170/2/4
f 169/1/4 168/1/4 170/1/4
f 170/2/4 166/2/4 171/2/4
f 172/8/4 173/8/4 174/8/4
f 174/8/4 173/8/4 175/8/4
f 176/5/4 177/5/4 178/5/4
f 178/5/4 177/5/4 179/5/4
f 180/8/4 181/8/4 184/8/4
f 181/4/4 182/4/4 185/4/4
f 184/8/4 181/8/4 185/8/4
f 182/5/4 183/5/4 186/5/4
f 185/4/4 182/4/4 186/4/4
f 186/5/4 183/5/4 187/5/4
f 187/4/4 188/4/4 192/4/4
f 192/4/4 188/4/4 193/4/4
f 189/7/4 190/7/4 194/7/4
f 190/6/4 191/6/4 195/6/4
f 194/7/4 190/7/4 195/7/4
f 195/6/4 191/6/4 196/6/4
f 197/7/4 198/7/4 200/7/4
f 198/6/4 199/6/4 201/6/4
f 200/7/4 198/7/4 201/7/4
f 201/6/4 199/6/4 202/6/4
f 203/4/4 204/4/4 205/4/4
f 205/4/4 204/4/4 206/4/4
f 207/4/4 208/4/4 211/4/4
f 208/5/4 209/5/4 212/5/4
f 211/4/4 208/4/4 212/4/4
f 209/4/4 210/4/4 213/4/4
f 212/5/4 209/5/4 213/5/4
f 213/4/4 210/4/4 214/4/4
f 219/7/5 216/7/5 215/7/5
f 220/7/5 216/7/5 219/7/5
f 221/7/5 218/7/5 217/7/5
f 222/7/5 218/7/5 221/7/5
f 227/4/5 224/4/5 223/4/5
f 228/4/5 224/4/5 227/4/5
f 229/4/5 226/4/5 225/4/5
f 230/4/5 226/4/5 229/4/5
f 232/6/5 229/6/5 228/6/5
f 233/6/5 229/6/5 232/6/5
f 235/4/5 232/4/5 231/4/5
f 235/4/5 234/4/5 233/4/5
f 235/4/5 233/4/5 232/4/5
f 236/4/5 234/4/5 235/4/5
f 241/3/5 238/3/5 237/3/5
f 242/3/5 238/3/5 241/3/5
f 243/8/5 240/8/5 239/8/5
f 244/8/5 240/8/5 243/8/5
f 247/1/5 246/1/5 245/1/5
f 248/1/5 246/1/5 247/1/5
f 251/4/5 250/4/5 249/4/5
f 252/4/5 250/4/5 251/4/5
f 253/5/5 252/5/5 251/5/5
f 254/5/5 252/5/5 253/5/5
f 257/8/5 256/8/5 255/8/5
f 258/8/5 256/8/5 257/8/5
f 263/4/5 260/4/5 259/4/5
f 264/4/5 260/4/5 263/4/5
f 265/4/5 262/4/5 261/4/5
f 266/4/5 262/4/5 265/4/5
f 267/4/6 268/4/6 269/4/6
f 269/4/6 268/4/6 270/4/6
f 269/5/6 270/5/6 273/5/6
f 273/5/6 270/5/6 274/5/6
f 271/5/6 272/5/6 275/5/6
f 275/5/6 272/5/6 276/5/6
f 277/8/6 278/8/6 279/8/6
f 279/8/6 278/8/6 280/8/6
f 281/4/6 282/4/6 286/4/6
f 282/3/6 283/3/6 287/3/6
f 286/4/6 282/4/6 287/4/6
f 283/4/6 284/4/6 288/4/6
f 287/3/6 283/3/6 288/3/6
f 288/4/6 284/4/6 289/4/6
f 286/4/6 287/4/6 291/4/6
f 285/4/6 286/4/6 291/4/6
f 291/4/6 287/4/6 292/4/6
f 287/8/6 288/8/6 293/8/6
f 292/4/6 287/4/6 293/4/6
f 289/4/6 290/4/6 294/4/6
f 293/8/6 288/8/6 294/8/6
f 288/4/6 289/4/6 294/4/6
f 294/4/6 290/4/6 295/4/6
f 295/4/6 290/4/6 296/4/6
f 292/4/6 293/4/6 297/4/6
f 294/4/6 295/4/6 297/4/6
f 293/4/6 294/4/6 297/4/6
f 297/4/6 295/4/6 298/4/6
f 299/2/6 300/2/6 301/2/6
f 301/2/6 300/2/6 302/2/6
