# MagicaVoxel @ ephtracy

# material
mtllib scummBarLady02_head.mtl
usemtl palette

# normals
vn -1 0 0
vn 1 0 0
vn 0 0 1
vn 0 0 -1
vn 0 -1 0
vn 0 1 0

# texcoords
vt 0.970703 0.5
vt 0.974609 0.5

# verts
v -2 1 -0.5
v -2 1 -1.5
v -2 2 0.5
v -2 2 -0.5
v -2 3 0.5
v -2 3 -1.5
v -2 4 1.5
v -2 4 0.5
v -2 4 -1.5
v -2 5 1.5
v -2 5 0.5
v -2 5 -0.5
v -2 5 -1.5
v -2 6 1.5
v -2 6 0.5
v -2 7 0.5
v -2 7 -0.5
v -1 0 -0.5
v -1 0 -1.5
v -1 1 -0.5
v -1 1 -1.5
v -1 1 -2.5
v -1 2 1.5
v -1 2 0.5
v -1 3 0.5
v -1 3 -0.5
v -1 3 -1.5
v -1 3 -2.5
v -1 4 1.5
v -1 4 0.5
v -1 4 -0.5
v -1 5 -0.5
v -1 5 -1.5
v -1 6 1.5
v -1 6 0.5
v -1 6 -0.5
v -1 6 -1.5
v -1 7 1.5
v -1 7 0.5
v 0 6 2.5
v 0 6 1.5
v 0 7 2.5
v 0 7 1.5
v 0 7 0.5
v 0 8 1.5
v 0 8 0.5
v 1 0 -0.5
v 1 0 -1.5
v 1 1 -0.5
v 1 1 -1.5
v 1 1 -2.5
v 1 2 1.5
v 1 2 0.5
v 1 2 -0.5
v 1 3 -0.5
v 1 3 -1.5
v 1 3 -2.5
v 1 4 1.5
v 1 4 0.5
v 1 4 -0.5
v 1 4 -1.5
v 1 5 0.5
v 1 5 -0.5
v 1 6 2.5
v 1 6 1.5
v 1 6 0.5
v 1 6 -0.5
v 1 6 -1.5
v 1 7 2.5
v 1 7 1.5
v 1 7 0.5
v 1 8 1.5
v 1 8 0.5
v 2 1 -0.5
v 2 1 -1.5
v 2 3 -0.5
v 2 3 -1.5
v 2 4 1.5
v 2 4 0.5
v 2 4 -0.5
v 2 5 1.5
v 2 5 0.5
v 2 5 -0.5
v 2 6 1.5
v 2 6 0.5
v 2 6 -0.5
v 2 7 0.5
v 2 7 -0.5
v 0 6 2.5
v 0 7 2.5
v 1 6 2.5
v 1 7 2.5
v -2 4 1.5
v -2 5 1.5
v -2 6 1.5
v -1 2 1.5
v -1 4 1.5
v -1 5 1.5
v -1 6 1.5
v -1 7 1.5
v 0 6 1.5
v 0 7 1.5
v 0 8 1.5
v 1 2 1.5
v 1 4 1.5
v 1 5 1.5
v 1 6 1.5
v 1 7 1.5
v 1 8 1.5
v 2 4 1.5
v 2 5 1.5
v 2 6 1.5
v -2 2 0.5
v -2 3 0.5
v -2 6 0.5
v -2 7 0.5
v -1 2 0.5
v -1 3 0.5
v -1 6 0.5
v -1 7 0.5
v 1 6 0.5
v 1 7 0.5
v 2 6 0.5
v 2 7 0.5
v -2 1 -0.5
v -2 2 -0.5
v -1 0 -0.5
v -1 1 -0.5
v 1 0 -0.5
v 1 1 -0.5
v 1 2 -0.5
v 1 3 -0.5
v 2 1 -0.5
v 2 3 -0.5
v 0 7 0.5
v 0 8 0.5
v 1 5 0.5
v 1 6 0.5
v 1 7 0.5
v 1 8 0.5
v 2 5 0.5
v 2 6 0.5
v -2 5 -0.5
v -2 7 -0.5
v -1 3 -0.5
v -1 4 -0.5
v -1 5 -0.5
v -1 6 -0.5
v 1 3 -0.5
v 1 4 -0.5
v 1 5 -0.5
v 1 6 -0.5
v 2 4 -0.5
v 2 5 -0.5
v 2 6 -0.5
v 2 7 -0.5
v -2 1 -1.5
v -2 3 -1.5
v -2 4 -1.5
v -2 5 -1.5
v -1 0 -1.5
v -1 1 -1.5
v -1 3 -1.5
v -1 5 -1.5
v -1 6 -1.5
v 1 0 -1.5
v 1 1 -1.5
v 1 3 -1.5
v 1 4 -1.5
v 1 6 -1.5
v 2 1 -1.5
v 2 3 -1.5
v -1 1 -2.5
v -1 3 -2.5
v 1 1 -2.5
v 1 3 -2.5
v -1 0 -0.5
v 1 0 -0.5
v -1 0 -1.5
v 1 0 -1.5
v -2 1 -0.5
v -1 1 -0.5
v 1 1 -0.5
v 2 1 -0.5
v -2 1 -1.5
v -1 1 -1.5
v 1 1 -1.5
v 2 1 -1.5
v -1 1 -2.5
v 1 1 -2.5
v -1 2 1.5
v 1 2 1.5
v -2 2 0.5
v -1 2 0.5
v 1 2 0.5
v -2 2 -0.5
v 1 2 -0.5
v -2 4 1.5
v -1 4 1.5
v 1 4 1.5
v 2 4 1.5
v -2 4 0.5
v -1 4 0.5
v 1 4 0.5
v 2 4 0.5
v -1 4 -0.5
v 1 4 -0.5
v 2 4 -0.5
v -2 4 -1.5
v 1 4 -1.5
v 0 6 2.5
v 1 6 2.5
v 0 6 1.5
v 1 6 1.5
v 1 6 0.5
v 2 6 0.5
v 1 6 -0.5
v 2 6 -0.5
v -2 3 0.5
v -1 3 0.5
v -1 3 -0.5
v 1 3 -0.5
v 2 3 -0.5
v -2 3 -1.5
v -1 3 -1.5
v 1 3 -1.5
v 2 3 -1.5
v -1 3 -2.5
v 1 3 -2.5
v 1 5 0.5
v 2 5 0.5
v -2 5 -0.5
v -1 5 -0.5
v 1 5 -0.5
v 2 5 -0.5
v -2 5 -1.5
v -1 5 -1.5
v -2 6 1.5
v -1 6 1.5
v 1 6 1.5
v 2 6 1.5
v -2 6 0.5
v -1 6 0.5
v 1 6 0.5
v 2 6 0.5
v -1 6 -0.5
v 1 6 -0.5
v -1 6 -1.5
v 1 6 -1.5
v 0 7 2.5
v 1 7 2.5
v -1 7 1.5
v 0 7 1.5
v 1 7 1.5
v -2 7 0.5
v -1 7 0.5
v 0 7 0.5
v 1 7 0.5
v 2 7 0.5
v -2 7 -0.5
v 2 7 -0.5
v 0 8 1.5
v 1 8 1.5
v 0 8 0.5
v 1 8 0.5

# faces
f 4/2/1 2/2/1 1/2/1
f 5/2/1 4/2/1 3/2/1
f 6/2/1 2/2/1 4/2/1
f 6/2/1 4/2/1 5/2/1
f 10/1/1 8/1/1 7/1/1
f 11/2/1 9/2/1 8/2/1
f 11/1/1 8/1/1 10/1/1
f 12/2/1 9/2/1 11/2/1
f 13/2/1 9/2/1 12/2/1
f 14/2/1 11/2/1 10/2/1
f 14/2/1 12/2/1 11/2/1
f 15/2/1 12/2/1 14/2/1
f 16/2/1 12/2/1 15/2/1
f 17/2/1 12/2/1 16/2/1
f 20/2/1 19/2/1 18/2/1
f 21/2/1 19/2/1 20/2/1
f 25/1/1 24/1/1 23/1/1
f 27/2/1 22/2/1 21/2/1
f 28/2/1 22/2/1 27/2/1
f 29/1/1 25/1/1 23/1/1
f 30/2/1 26/2/1 25/2/1
f 30/1/1 25/1/1 29/1/1
f 31/2/1 26/2/1 30/2/1
f 36/2/1 33/2/1 32/2/1
f 37/2/1 33/2/1 36/2/1
f 38/2/1 35/2/1 34/2/1
f 39/2/1 35/2/1 38/2/1
f 42/2/1 41/2/1 40/2/1
f 43/2/1 41/2/1 42/2/1
f 45/2/1 44/2/1 43/2/1
f 46/2/1 44/2/1 45/2/1
f 47/2/2 48/2/2 49/2/2
f 49/2/2 48/2/2 50/2/2
f 53/2/2 54/2/2 55/2/2
f 50/2/2 51/2/2 56/2/2
f 56/2/2 51/2/2 57/2/2
f 52/1/2 53/1/2 58/1/2
f 53/2/2 55/2/2 59/2/2
f 58/1/2 53/1/2 59/1/2
f 59/2/2 55/2/2 60/2/2
f 60/2/2 61/2/2 63/2/2
f 62/2/2 63/2/2 66/2/2
f 63/2/2 61/2/2 67/2/2
f 66/2/2 63/2/2 67/2/2
f 67/2/2 61/2/2 68/2/2
f 65/2/2 66/2/2 69/2/2
f 64/2/2 65/2/2 69/2/2
f 69/2/2 66/2/2 70/2/2
f 70/2/2 66/2/2 71/2/2
f 70/2/2 71/2/2 72/2/2
f 72/2/2 71/2/2 73/2/2
f 74/2/2 75/2/2 76/2/2
f 76/2/2 75/2/2 77/2/2
f 78/1/2 79/1/2 81/1/2
f 79/2/2 80/2/2 82/2/2
f 81/1/2 79/1/2 82/1/2
f 82/2/2 80/2/2 83/2/2
f 81/2/2 82/2/2 84/2/2
f 84/2/2 82/2/2 85/2/2
f 85/2/2 86/2/2 87/2/2
f 87/2/2 86/2/2 88/2/2
f 91/2/3 90/2/3 89/2/3
f 92/2/3 90/2/3 91/2/3
f 97/1/3 94/1/3 93/1/3
f 98/2/3 95/2/3 94/2/3
f 98/1/3 94/1/3 97/1/3
f 99/2/3 95/2/3 98/2/3
f 101/1/3 97/1/3 96/1/3
f 101/2/3 100/2/3 99/2/3
f 101/1/3 99/1/3 98/1/3
f 101/1/3 98/1/3 97/1/3
f 102/2/3 100/2/3 101/2/3
f 104/1/3 101/1/3 96/1/3
f 105/1/3 101/1/3 104/1/3
f 106/1/3 101/1/3 105/1/3
f 107/1/3 101/1/3 106/1/3
f 108/2/3 103/2/3 102/2/3
f 109/2/3 103/2/3 108/2/3
f 110/1/3 106/1/3 105/1/3
f 111/2/3 107/2/3 106/2/3
f 111/1/3 106/1/3 110/1/3
f 112/2/3 107/2/3 111/2/3
f 117/2/3 114/2/3 113/2/3
f 118/2/3 114/2/3 117/2/3
f 119/2/3 116/2/3 115/2/3
f 120/2/3 116/2/3 119/2/3
f 123/2/3 122/2/3 121/2/3
f 124/2/3 122/2/3 123/2/3
f 128/2/3 126/2/3 125/2/3
f 129/2/3 128/2/3 127/2/3
f 130/2/3 126/2/3 128/2/3
f 130/2/3 128/2/3 129/2/3
f 131/2/3 126/2/3 130/2/3
f 133/2/3 132/2/3 131/2/3
f 133/2/3 131/2/3 130/2/3
f 134/2/3 132/2/3 133/2/3
f 135/2/4 136/2/4 139/2/4
f 139/2/4 136/2/4 140/2/4
f 137/2/4 138/2/4 141/2/4
f 141/2/4 138/2/4 142/2/4
f 143/2/4 144/2/4 147/2/4
f 147/2/4 144/2/4 148/2/4
f 145/2/4 146/2/4 149/2/4
f 149/2/4 146/2/4 150/2/4
f 148/2/4 144/2/4 152/2/4
f 150/2/4 151/2/4 153/2/4
f 153/2/4 151/2/4 154/2/4
f 152/2/4 144/2/4 155/2/4
f 155/2/4 144/2/4 156/2/4
f 157/2/4 158/2/4 162/2/4
f 162/2/4 158/2/4 163/2/4
f 159/2/4 160/2/4 164/2/4
f 161/2/4 162/2/4 166/2/4
f 166/2/4 162/2/4 167/2/4
f 164/2/4 165/2/4 169/2/4
f 159/2/4 164/2/4 169/2/4
f 169/2/4 165/2/4 170/2/4
f 167/2/4 168/2/4 171/2/4
f 171/2/4 168/2/4 172/2/4
f 173/2/4 174/2/4 175/2/4
f 175/2/4 174/2/4 176/2/4
f 179/2/5 178/2/5 177/2/5
f 180/2/5 178/2/5 179/2/5
f 185/2/5 182/2/5 181/2/5
f 186/2/5 182/2/5 185/2/5
f 187/2/5 184/2/5 183/2/5
f 188/2/5 184/2/5 187/2/5
f 189/2/5 187/2/5 186/2/5
f 190/2/5 187/2/5 189/2/5
f 194/1/5 192/1/5 191/1/5
f 195/1/5 192/1/5 194/1/5
f 196/2/5 194/2/5 193/2/5
f 196/2/5 195/2/5 194/2/5
f 197/2/5 195/2/5 196/2/5
f 202/1/5 199/1/5 198/1/5
f 203/1/5 199/1/5 202/1/5
f 204/1/5 201/1/5 200/1/5
f 205/1/5 201/1/5 204/1/5
f 206/2/5 203/2/5 202/2/5
f 207/2/5 205/2/5 204/2/5
f 208/2/5 205/2/5 207/2/5
f 209/2/5 206/2/5 202/2/5
f 209/2/5 207/2/5 206/2/5
f 210/2/5 207/2/5 209/2/5
f 213/2/5 212/2/5 211/2/5
f 214/2/5 212/2/5 213/2/5
f 217/2/5 216/2/5 215/2/5
f 218/2/5 216/2/5 217/2/5
f 219/2/6 220/2/6 221/2/6
f 219/2/6 221/2/6 224/2/6
f 222/2/6 223/2/6 224/2/6
f 221/2/6 222/2/6 224/2/6
f 224/2/6 223/2/6 225/2/6
f 225/2/6 223/2/6 226/2/6
f 226/2/6 223/2/6 227/2/6
f 225/2/6 226/2/6 228/2/6
f 228/2/6 226/2/6 229/2/6
f 230/2/6 231/2/6 234/2/6
f 234/2/6 231/2/6 235/2/6
f 232/2/6 233/2/6 236/2/6
f 236/2/6 233/2/6 237/2/6
f 238/2/6 239/2/6 242/2/6
f 242/2/6 239/2/6 243/2/6
f 240/2/6 241/2/6 244/2/6
f 244/2/6 241/2/6 245/2/6
f 246/2/6 247/2/6 248/2/6
f 248/2/6 247/2/6 249/2/6
f 250/2/6 251/2/6 253/2/6
f 253/2/6 251/2/6 254/2/6
f 252/2/6 253/2/6 256/2/6
f 256/2/6 253/2/6 257/2/6
f 257/2/6 258/2/6 260/2/6
f 258/2/6 259/2/6 260/2/6
f 256/2/6 257/2/6 260/2/6
f 255/2/6 256/2/6 260/2/6
f 260/2/6 259/2/6 261/2/6
f 262/2/6 263/2/6 264/2/6
f 264/2/6 263/2/6 265/2/6
