# MagicaVoxel @ ephtracy

# material
mtllib scummBarPirate06.mtl
usemtl palette

# normals
vn -1 0 0
vn 1 0 0
vn 0 0 1
vn 0 0 -1
vn 0 -1 0
vn 0 1 0

# texcoords
vt 0.908203 0.5
vt 0.912109 0.5
vt 0.939453 0.5
vt 0.943359 0.5
vt 0.947266 0.5
vt 0.951172 0.5
vt 0.955078 0.5
vt 0.970703 0.5
vt 0.974609 0.5

# verts
v -3.5 5 0.5
v -3.5 5 -0.5
v -3.5 6 0.5
v -3.5 6 -0.5
v -3.5 6 -1.5
v -3.5 8 -0.5
v -3.5 8 -1.5
v -2.5 8 -0.5
v -2.5 8 -1.5
v -2.5 9 -0.5
v -2.5 9 -1.5
v -1.5 0 -0.5
v -1.5 0 -1.5
v -1.5 1 -0.5
v -1.5 1 -1.5
v -1.5 5 0.5
v -1.5 5 -0.5
v -1.5 5 -1.5
v -1.5 5 -2.5
v -1.5 8 -0.5
v -1.5 8 -1.5
v -1.5 9 0.5
v -1.5 9 -0.5
v -1.5 9 -1.5
v -1.5 9 -2.5
v -1.5 11 -0.5
v -1.5 11 -1.5
v -1.5 11 -2.5
v -1.5 12 0.5
v -1.5 12 -0.5
v -1.5 12 -1.5
v -1.5 12 -2.5
v -1.5 13 0.5
v -1.5 13 -1.5
v -0.5 7 -2.5
v -0.5 7 -3.5
v -0.5 8 -2.5
v -0.5 8 -3.5
v -0.5 9 -0.5
v -0.5 9 -1.5
v -0.5 9 -2.5
v -0.5 11 -0.5
v -0.5 11 -1.5
v -0.5 11 -2.5
v -0.5 12 1.5
v -0.5 12 0.5
v -0.5 12 -1.5
v -0.5 12 -2.5
v -0.5 13 1.5
v -0.5 13 0.5
v -0.5 13 -1.5
v -0.5 13 -2.5
v -0.5 14 0.5
v -0.5 14 -1.5
v 0.5 8 -2.5
v 0.5 8 -3.5
v 0.5 9 -2.5
v 0.5 10 3.5
v 0.5 10 1.5
v 0.5 10 0.5
v 0.5 10 -2.5
v 0.5 10 -3.5
v 0.5 12 3.5
v 0.5 12 1.5
v 0.5 12 0.5
v 1.5 0 -0.5
v 1.5 0 -1.5
v 1.5 1 -0.5
v 1.5 1 -1.5
v 1.5 4 -0.5
v 1.5 4 -1.5
v 1.5 12 0.5
v 1.5 12 -0.5
v 1.5 13 0.5
v 1.5 13 -0.5
v 2.5 9 1.5
v 2.5 9 0.5
v 2.5 10 1.5
v 2.5 10 0.5
v -2.5 5 0.5
v -2.5 5 -0.5
v -2.5 6 0.5
v -2.5 6 -0.5
v -2.5 6 -1.5
v -2.5 8 -0.5
v -2.5 8 -1.5
v -0.5 0 -0.5
v -0.5 0 -1.5
v -0.5 1 -0.5
v -0.5 1 -1.5
v -0.5 4 -0.5
v -0.5 4 -1.5
v -0.5 12 0.5
v -0.5 12 -0.5
v -0.5 13 0.5
v -0.5 13 -0.5
v 0.5 7 -2.5
v 0.5 7 -3.5
v 0.5 8 -2.5
v 0.5 8 -3.5
v 1.5 8 -2.5
v 1.5 8 -3.5
v 1.5 9 -0.5
v 1.5 9 -1.5
v 1.5 9 -2.5
v 1.5 10 -2.5
v 1.5 10 -3.5
v 1.5 11 -0.5
v 1.5 11 -1.5
v 1.5 11 -2.5
v 1.5 12 1.5
v 1.5 12 0.5
v 1.5 12 -1.5
v 1.5 12 -2.5
v 1.5 13 1.5
v 1.5 13 0.5
v 1.5 13 -1.5
v 1.5 13 -2.5
v 1.5 14 0.5
v 1.5 14 -1.5
v 2.5 0 -0.5
v 2.5 0 -1.5
v 2.5 1 -0.5
v 2.5 1 -1.5
v 2.5 5 0.5
v 2.5 5 -0.5
v 2.5 5 -1.5
v 2.5 5 -2.5
v 2.5 8 0.5
v 2.5 8 -1.5
v 2.5 9 -1.5
v 2.5 9 -2.5
v 2.5 10 3.5
v 2.5 10 2.5
v 2.5 10 1.5
v 2.5 10 0.5
v 2.5 11 2.5
v 2.5 11 1.5
v 2.5 11 -0.5
v 2.5 11 -1.5
v 2.5 11 -2.5
v 2.5 12 3.5
v 2.5 12 1.5
v 2.5 12 0.5
v 2.5 12 -0.5
v 2.5 12 -1.5
v 2.5 12 -2.5
v 2.5 13 0.5
v 2.5 13 -1.5
v 3.5 8 0.5
v 3.5 8 -1.5
v 3.5 9 1.5
v 3.5 9 0.5
v 3.5 9 -1.5
v 3.5 10 2.5
v 3.5 10 1.5
v 3.5 10 0.5
v 3.5 11 2.5
v 3.5 11 1.5
v 0.5 10 3.5
v 0.5 12 3.5
v 2.5 10 3.5
v 2.5 12 3.5
v 2.5 10 2.5
v 2.5 11 2.5
v 3.5 10 2.5
v 3.5 11 2.5
v -0.5 12 1.5
v -0.5 13 1.5
v 0.5 12 1.5
v 1.5 12 1.5
v 1.5 13 1.5
v 2.5 9 1.5
v 2.5 10 1.5
v 3.5 9 1.5
v 3.5 10 1.5
v -3.5 5 0.5
v -3.5 6 0.5
v -2.5 5 0.5
v -2.5 6 0.5
v -1.5 5 0.5
v -1.5 9 0.5
v -1.5 12 0.5
v -1.5 13 0.5
v -0.5 12 0.5
v -0.5 13 0.5
v -0.5 14 0.5
v 1.5 12 0.5
v 1.5 13 0.5
v 1.5 14 0.5
v 2.5 5 0.5
v 2.5 8 0.5
v 2.5 9 0.5
v 2.5 12 0.5
v 2.5 13 0.5
v 3.5 8 0.5
v 3.5 9 0.5
v -3.5 6 -0.5
v -3.5 8 -0.5
v -2.5 6 -0.5
v -2.5 8 -0.5
v -2.5 9 -0.5
v -1.5 0 -0.5
v -1.5 1 -0.5
v -1.5 5 -0.5
v -1.5 8 -0.5
v -1.5 9 -0.5
v -1.5 11 -0.5
v -1.5 12 -0.5
v -0.5 0 -0.5
v -0.5 1 -0.5
v -0.5 4 -0.5
v -0.5 9 -0.5
v -0.5 11 -0.5
v -0.5 12 -0.5
v -0.5 13 -0.5
v 1.5 0 -0.5
v 1.5 1 -0.5
v 1.5 4 -0.5
v 1.5 9 -0.5
v 1.5 11 -0.5
v 1.5 12 -0.5
v 1.5 13 -0.5
v 2.5 0 -0.5
v 2.5 1 -0.5
v 2.5 5 -0.5
v 2.5 11 -0.5
v 2.5 12 -0.5
v 2.5 10 1.5
v 2.5 11 1.5
v 3.5 10 1.5
v 3.5 11 1.5
v -0.5 12 0.5
v -0.5 13 0.5
v 0.5 10 0.5
v 0.5 12 0.5
v 1.5 12 0.5
v 1.5 13 0.5
v 2.5 9 0.5
v 2.5 10 0.5
v 2.5 12 0.5
v 3.5 9 0.5
v 3.5 10 0.5
v -3.5 5 -0.5
v -3.5 6 -0.5
v -2.5 5 -0.5
v -2.5 6 -0.5
v -3.5 6 -1.5
v -3.5 8 -1.5
v -2.5 6 -1.5
v -2.5 8 -1.5
v -2.5 9 -1.5
v -1.5 0 -1.5
v -1.5 1 -1.5
v -1.5 5 -1.5
v -1.5 8 -1.5
v -1.5 9 -1.5
v -1.5 12 -1.5
v -1.5 13 -1.5
v -0.5 0 -1.5
v -0.5 1 -1.5
v -0.5 4 -1.5
v -0.5 5 -1.5
v -0.5 12 -1.5
v -0.5 13 -1.5
v -0.5 14 -1.5
v 1.5 0 -1.5
v 1.5 1 -1.5
v 1.5 4 -1.5
v 1.5 5 -1.5
v 1.5 12 -1.5
v 1.5 13 -1.5
v 1.5 14 -1.5
v 2.5 0 -1.5
v 2.5 1 -1.5
v 2.5 5 -1.5
v 2.5 8 -1.5
v 2.5 9 -1.5
v 2.5 12 -1.5
v 2.5 13 -1.5
v 3.5 8 -1.5
v 3.5 9 -1.5
v -1.5 5 -2.5
v -1.5 9 -2.5
v -1.5 11 -2.5
v -1.5 12 -2.5
v -0.5 5 -2.5
v -0.5 6 -2.5
v -0.5 7 -2.5
v -0.5 8 -2.5
v -0.5 9 -2.5
v -0.5 11 -2.5
v -0.5 12 -2.5
v -0.5 13 -2.5
v 0.5 7 -2.5
v 0.5 8 -2.5
v 0.5 9 -2.5
v 0.5 10 -2.5
v 1.5 5 -2.5
v 1.5 6 -2.5
v 1.5 8 -2.5
v 1.5 9 -2.5
v 1.5 10 -2.5
v 1.5 11 -2.5
v 1.5 12 -2.5
v 1.5 13 -2.5
v 2.5 5 -2.5
v 2.5 9 -2.5
v 2.5 11 -2.5
v 2.5 12 -2.5
v -0.5 7 -3.5
v -0.5 8 -3.5
v 0.5 7 -3.5
v 0.5 8 -3.5
v 0.5 10 -3.5
v 1.5 8 -3.5
v 1.5 10 -3.5
v -1.5 0 -0.5
v -0.5 0 -0.5
v 1.5 0 -0.5
v 2.5 0 -0.5
v -1.5 0 -1.5
v -0.5 0 -1.5
v 1.5 0 -1.5
v 2.5 0 -1.5
v -0.5 4 -0.5
v 1.5 4 -0.5
v -0.5 4 -1.5
v 1.5 4 -1.5
v -3.5 5 0.5
v -2.5 5 0.5
v -1.5 5 0.5
v 2.5 5 0.5
v -3.5 5 -0.5
v -2.5 5 -0.5
v -1.5 5 -0.5
v 2.5 5 -0.5
v -1.5 5 -1.5
v -0.5 5 -1.5
v 1.5 5 -1.5
v 2.5 5 -1.5
v -1.5 5 -2.5
v -0.5 5 -2.5
v 1.5 5 -2.5
v 2.5 5 -2.5
v -3.5 6 -0.5
v -2.5 6 -0.5
v -3.5 6 -1.5
v -2.5 6 -1.5
v -0.5 7 -2.5
v 0.5 7 -2.5
v -0.5 7 -3.5
v 0.5 7 -3.5
v 2.5 8 0.5
v 3.5 8 0.5
v -2.5 8 -0.5
v -1.5 8 -0.5
v -2.5 8 -1.5
v -1.5 8 -1.5
v 2.5 8 -1.5
v 3.5 8 -1.5
v 0.5 8 -2.5
v 1.5 8 -2.5
v 0.5 8 -3.5
v 1.5 8 -3.5
v 2.5 9 1.5
v 3.5 9 1.5
v 2.5 9 0.5
v 3.5 9 0.5
v 0.5 10 3.5
v 2.5 10 3.5
v 2.5 10 2.5
v 3.5 10 2.5
v 0.5 10 1.5
v 2.5 10 1.5
v 3.5 10 1.5
v 0.5 10 0.5
v 2.5 10 0.5
v -1.5 11 -0.5
v -0.5 11 -0.5
v 1.5 11 -0.5
v 2.5 11 -0.5
v -1.5 11 -1.5
v -0.5 11 -1.5
v 1.5 11 -1.5
v 2.5 11 -1.5
v -1.5 11 -2.5
v -0.5 11 -2.5
v 1.5 11 -2.5
v 2.5 11 -2.5
v -0.5 12 1.5
v 0.5 12 1.5
v -1.5 12 0.5
v -0.5 12 0.5
v 0.5 12 0.5
v 1.5 12 0.5
v 2.5 12 0.5
v -1.5 12 -0.5
v -0.5 12 -0.5
v 1.5 12 -0.5
v 2.5 12 -0.5
v -0.5 13 0.5
v 1.5 13 0.5
v -0.5 13 -0.5
v 1.5 13 -0.5
v -3.5 6 0.5
v -2.5 6 0.5
v -3.5 6 -0.5
v -2.5 6 -0.5
v -3.5 8 -0.5
v -2.5 8 -0.5
v -3.5 8 -1.5
v -2.5 8 -1.5
v -0.5 8 -2.5
v 0.5 8 -2.5
v -0.5 8 -3.5
v 0.5 8 -3.5
v -1.5 9 0.5
v 2.5 9 0.5
v 3.5 9 0.5
v -2.5 9 -0.5
v -1.5 9 -0.5
v -0.5 9 -0.5
v 1.5 9 -0.5
v -2.5 9 -1.5
v -1.5 9 -1.5
v -0.5 9 -1.5
v 1.5 9 -1.5
v 2.5 9 -1.5
v 3.5 9 -1.5
v -1.5 9 -2.5
v -0.5 9 -2.5
v 1.5 9 -2.5
v 2.5 9 -2.5
v 2.5 10 1.5
v 3.5 10 1.5
v 2.5 10 0.5
v 3.5 10 0.5
v 0.5 10 -2.5
v 1.5 10 -2.5
v 0.5 10 -3.5
v 1.5 10 -3.5
v 2.5 11 2.5
v 3.5 11 2.5
v 2.5 11 1.5
v 3.5 11 1.5
v 0.5 12 3.5
v 2.5 12 3.5
v 0.5 12 1.5
v 1.5 12 1.5
v 2.5 12 1.5
v 1.5 12 0.5
v 2.5 12 0.5
v -1.5 12 -1.5
v -0.5 12 -1.5
v 1.5 12 -1.5
v 2.5 12 -1.5
v -1.5 12 -2.5
v -0.5 12 -2.5
v 1.5 12 -2.5
v 2.5 12 -2.5
v -0.5 13 1.5
v 1.5 13 1.5
v -1.5 13 0.5
v -0.5 13 0.5
v 1.5 13 0.5
v 2.5 13 0.5
v -1.5 13 -1.5
v -0.5 13 -1.5
v 1.5 13 -1.5
v 2.5 13 -1.5
v -0.5 13 -2.5
v 1.5 13 -2.5
v -0.5 14 0.5
v 1.5 14 0.5
v -0.5 14 -1.5
v 1.5 14 -1.5

# faces
f 3/8/1 2/8/1 1/8/1
f 4/8/1 2/8/1 3/8/1
f 6/3/1 5/3/1 4/3/1
f 7/3/1 5/3/1 6/3/1
f 10/3/1 9/3/1 8/3/1
f 11/3/1 9/3/1 10/3/1
f 14/5/1 13/5/1 12/5/1
f 15/5/1 13/5/1 14/5/1
f 17/4/1 15/4/1 14/4/1
f 18/4/1 15/4/1 17/4/1
f 20/3/1 18/3/1 17/3/1
f 20/3/1 19/3/1 18/3/1
f 20/3/1 17/3/1 16/3/1
f 21/3/1 19/3/1 20/3/1
f 22/3/1 20/3/1 16/3/1
f 23/3/1 20/3/1 22/3/1
f 24/3/1 19/3/1 21/3/1
f 25/3/1 19/3/1 24/3/1
f 30/8/1 27/8/1 26/8/1
f 31/9/1 28/9/1 27/9/1
f 31/8/1 27/8/1 30/8/1
f 32/9/1 28/9/1 31/9/1
f 33/7/1 30/7/1 29/7/1
f 33/7/1 31/7/1 30/7/1
f 34/7/1 31/7/1 33/7/1
f 37/9/1 36/9/1 35/9/1
f 38/9/1 36/9/1 37/9/1
f 42/8/1 40/8/1 39/8/1
f 43/9/1 41/9/1 40/9/1
f 43/8/1 40/8/1 42/8/1
f 44/9/1 41/9/1 43/9/1
f 49/7/1 46/7/1 45/7/1
f 50/7/1 46/7/1 49/7/1
f 51/7/1 48/7/1 47/7/1
f 52/7/1 48/7/1 51/7/1
f 53/7/1 51/7/1 50/7/1
f 54/7/1 51/7/1 53/7/1
f 57/9/1 56/9/1 55/9/1
f 61/9/1 56/9/1 57/9/1
f 62/9/1 56/9/1 61/9/1
f 63/1/1 59/1/1 58/1/1
f 64/2/1 60/2/1 59/2/1
f 64/1/1 59/1/1 63/1/1
f 65/2/1 60/2/1 64/2/1
f 68/5/1 67/5/1 66/5/1
f 69/5/1 67/5/1 68/5/1
f 70/4/1 69/4/1 68/4/1
f 71/4/1 69/4/1 70/4/1
f 74/7/1 73/7/1 72/7/1
f 75/7/1 73/7/1 74/7/1
f 78/3/1 77/3/1 76/3/1
f 79/3/1 77/3/1 78/3/1
f 80/8/2 81/8/2 82/8/2
f 82/8/2 81/8/2 83/8/2
f 83/3/2 84/3/2 85/3/2
f 85/3/2 84/3/2 86/3/2
f 87/5/2 88/5/2 89/5/2
f 89/5/2 88/5/2 90/5/2
f 89/4/2 90/4/2 91/4/2
f 91/4/2 90/4/2 92/4/2
f 93/7/2 94/7/2 95/7/2
f 95/7/2 94/7/2 96/7/2
f 97/9/2 98/9/2 99/9/2
f 99/9/2 98/9/2 100/9/2
f 101/9/2 102/9/2 105/9/2
f 105/9/2 102/9/2 106/9/2
f 104/9/2 105/9/2 106/9/2
f 106/9/2 102/9/2 107/9/2
f 103/8/2 104/8/2 108/8/2
f 104/9/2 106/9/2 109/9/2
f 108/8/2 104/8/2 109/8/2
f 109/9/2 106/9/2 110/9/2
f 111/7/2 112/7/2 115/7/2
f 115/7/2 112/7/2 116/7/2
f 113/7/2 114/7/2 117/7/2
f 117/7/2 114/7/2 118/7/2
f 116/7/2 117/7/2 119/7/2
f 119/7/2 117/7/2 120/7/2
f 121/5/2 122/5/2 123/5/2
f 123/5/2 122/5/2 124/5/2
f 123/4/2 124/4/2 126/4/2
f 126/4/2 124/4/2 127/4/2
f 126/3/2 127/3/2 129/3/2
f 127/3/2 128/3/2 129/3/2
f 125/3/2 126/3/2 129/3/2
f 129/3/2 128/3/2 130/3/2
f 130/3/2 128/3/2 131/3/2
f 131/3/2 128/3/2 132/3/2
f 133/1/2 134/1/2 137/1/2
f 135/2/2 136/2/2 138/2/2
f 133/1/2 137/1/2 142/1/2
f 137/1/2 138/1/2 142/1/2
f 138/2/2 136/2/2 143/2/2
f 142/1/2 138/1/2 143/1/2
f 143/2/2 136/2/2 144/2/2
f 139/8/2 140/8/2 145/8/2
f 140/9/2 141/9/2 146/9/2
f 145/8/2 140/8/2 146/8/2
f 146/9/2 141/9/2 147/9/2
f 144/7/2 145/7/2 148/7/2
f 145/7/2 146/7/2 148/7/2
f 148/7/2 146/7/2 149/7/2
f 150/3/2 151/3/2 153/3/2
f 153/3/2 151/3/2 154/3/2
f 152/3/2 153/3/2 156/3/2
f 156/3/2 153/3/2 157/3/2
f 155/8/2 156/8/2 158/8/2
f 158/8/2 156/8/2 159/8/2
f 162/1/3 161/1/3 160/1/3
f 163/1/3 161/1/3 162/1/3
f 166/8/3 165/8/3 164/8/3
f 167/8/3 165/8/3 166/8/3
f 170/7/3 169/7/3 168/7/3
f 171/7/3 169/7/3 170/7/3
f 172/7/3 169/7/3 171/7/3
f 175/3/3 174/3/3 173/3/3
f 176/3/3 174/3/3 175/3/3
f 179/8/3 178/8/3 177/8/3
f 180/8/3 178/8/3 179/8/3
f 185/7/3 184/7/3 183/7/3
f 186/7/3 184/7/3 185/7/3
f 189/7/3 187/7/3 186/7/3
f 190/7/3 187/7/3 189/7/3
f 191/3/3 182/3/3 181/3/3
f 192/3/3 182/3/3 191/3/3
f 193/3/3 182/3/3 192/3/3
f 194/7/3 189/7/3 188/7/3
f 195/7/3 189/7/3 194/7/3
f 196/3/3 193/3/3 192/3/3
f 197/3/3 193/3/3 196/3/3
f 200/3/3 199/3/3 198/3/3
f 201/3/3 199/3/3 200/3/3
f 206/3/3 202/3/3 201/3/3
f 207/3/3 202/3/3 206/3/3
f 210/5/3 204/5/3 203/5/3
f 211/4/3 205/4/3 204/4/3
f 211/5/3 204/5/3 210/5/3
f 212/4/3 205/4/3 211/4/3
f 214/8/3 209/8/3 208/8/3
f 215/8/3 209/8/3 214/8/3
f 219/4/3 205/4/3 212/4/3
f 220/8/3 216/8/3 215/8/3
f 220/8/3 215/8/3 214/8/3
f 220/8/3 214/8/3 213/8/3
f 221/8/3 216/8/3 220/8/3
f 222/8/3 216/8/3 221/8/3
f 223/8/3 216/8/3 222/8/3
f 224/5/3 218/5/3 217/5/3
f 225/4/3 219/4/3 218/4/3
f 225/5/3 218/5/3 224/5/3
f 226/4/3 205/4/3 219/4/3
f 226/4/3 219/4/3 225/4/3
f 227/8/3 222/8/3 221/8/3
f 228/8/3 222/8/3 227/8/3
f 229/8/4 230/8/4 231/8/4
f 231/8/4 230/8/4 232/8/4
f 233/7/4 234/7/4 236/7/4
f 236/7/4 234/7/4 237/7/4
f 235/2/4 236/2/4 237/2/4
f 237/7/4 234/7/4 238/7/4
f 235/2/4 237/2/4 240/2/4
f 240/2/4 237/2/4 241/2/4
f 239/3/4 240/3/4 242/3/4
f 242/3/4 240/3/4 243/3/4
f 244/8/4 245/8/4 246/8/4
f 246/8/4 245/8/4 247/8/4
f 248/3/4 249/3/4 250/3/4
f 250/3/4 249/3/4 251/3/4
f 251/3/4 252/3/4 256/3/4
f 256/3/4 252/3/4 257/3/4
f 253/5/4 254/5/4 260/5/4
f 254/4/4 255/4/4 261/4/4
f 260/5/4 254/5/4 261/5/4
f 261/4/4 255/4/4 262/4/4
f 262/4/4 255/4/4 263/4/4
f 258/7/4 259/7/4 264/7/4
f 264/7/4 259/7/4 265/7/4
f 262/4/4 263/4/4 269/4/4
f 269/4/4 263/4/4 270/4/4
f 265/7/4 266/7/4 272/7/4
f 272/7/4 266/7/4 273/7/4
f 267/5/4 268/5/4 274/5/4
f 269/4/4 270/4/4 275/4/4
f 274/5/4 268/5/4 275/5/4
f 268/4/4 269/4/4 275/4/4
f 275/4/4 270/4/4 276/4/4
f 271/7/4 272/7/4 279/7/4
f 279/7/4 272/7/4 280/7/4
f 277/3/4 278/3/4 281/3/4
f 281/3/4 278/3/4 282/3/4
f 283/3/4 284/3/4 287/3/4
f 287/3/4 284/3/4 288/3/4
f 288/3/4 284/3/4 289/3/4
f 289/3/4 284/3/4 290/3/4
f 290/3/4 284/3/4 291/3/4
f 285/9/4 286/9/4 292/9/4
f 292/9/4 286/9/4 293/9/4
f 288/3/4 289/3/4 295/3/4
f 290/3/4 291/3/4 296/3/4
f 292/9/4 293/9/4 297/9/4
f 291/9/4 292/9/4 297/9/4
f 296/3/4 291/3/4 297/3/4
f 297/9/4 293/9/4 298/9/4
f 287/6/4 288/6/4 299/6/4
f 288/3/4 295/3/4 300/3/4
f 299/6/4 288/6/4 300/6/4
f 295/3/4 296/3/4 300/3/4
f 300/3/4 296/3/4 301/3/4
f 298/9/4 293/9/4 303/9/4
f 303/9/4 293/9/4 304/9/4
f 293/7/4 294/7/4 305/7/4
f 304/9/4 293/9/4 305/9/4
f 305/7/4 294/7/4 306/7/4
f 301/3/4 302/3/4 307/3/4
f 299/3/4 300/3/4 307/3/4
f 300/3/4 301/3/4 307/3/4
f 307/3/4 302/3/4 308/3/4
f 304/9/4 305/9/4 309/9/4
f 309/9/4 305/9/4 310/9/4
f 311/9/4 312/9/4 313/9/4
f 313/9/4 312/9/4 314/9/4
f 314/9/4 315/9/4 316/9/4
f 316/9/4 315/9/4 317/9/4
f 322/5/5 319/5/5 318/5/5
f 323/5/5 319/5/5 322/5/5
f 324/5/5 321/5/5 320/5/5
f 325/5/5 321/5/5 324/5/5
f 328/4/5 327/4/5 326/4/5
f 329/4/5 327/4/5 328/4/5
f 334/8/5 331/8/5 330/8/5
f 335/8/5 331/8/5 334/8/5
f 336/3/5 333/3/5 332/3/5
f 337/3/5 333/3/5 336/3/5
f 342/3/5 339/3/5 338/3/5
f 343/6/5 340/6/5 339/6/5
f 343/3/5 339/3/5 342/3/5
f 344/3/5 341/3/5 340/3/5
f 344/6/5 340/6/5 343/6/5
f 345/3/5 341/3/5 344/3/5
f 348/3/5 347/3/5 346/3/5
f 349/3/5 347/3/5 348/3/5
f 352/9/5 351/9/5 350/9/5
f 353/9/5 351/9/5 352/9/5
f 358/3/5 357/3/5 356/3/5
f 359/3/5 357/3/5 358/3/5
f 360/3/5 355/3/5 354/3/5
f 361/3/5 355/3/5 360/3/5
f 364/9/5 363/9/5 362/9/5
f 365/9/5 363/9/5 364/9/5
f 368/3/5 367/3/5 366/3/5
f 369/3/5 367/3/5 368/3/5
f 372/1/5 371/1/5 370/1/5
f 374/1/5 372/1/5 370/1/5
f 375/8/5 373/8/5 372/8/5
f 375/1/5 372/1/5 374/1/5
f 376/8/5 373/8/5 375/8/5
f 377/2/5 375/2/5 374/2/5
f 378/2/5 375/2/5 377/2/5
f 383/8/5 380/8/5 379/8/5
f 384/8/5 380/8/5 383/8/5
f 385/8/5 382/8/5 381/8/5
f 386/8/5 382/8/5 385/8/5
f 387/9/5 384/9/5 383/9/5
f 388/9/5 384/9/5 387/9/5
f 389/9/5 386/9/5 385/9/5
f 390/9/5 386/9/5 389/9/5
f 394/7/5 392/7/5 391/7/5
f 395/7/5 392/7/5 394/7/5
f 398/7/5 394/7/5 393/7/5
f 399/7/5 394/7/5 398/7/5
f 400/7/5 397/7/5 396/7/5
f 401/7/5 397/7/5 400/7/5
f 404/7/5 403/7/5 402/7/5
f 405/7/5 403/7/5 404/7/5
f 406/8/6 407/8/6 408/8/6
f 408/8/6 407/8/6 409/8/6
f 410/3/6 411/3/6 412/3/6
f 412/3/6 411/3/6 413/3/6
f 414/9/6 415/9/6 416/9/6
f 416/9/6 415/9/6 417/9/6
f 418/3/6 419/3/6 422/3/6
f 419/3/6 420/3/6 422/3/6
f 422/3/6 420/3/6 423/3/6
f 423/3/6 420/3/6 424/3/6
f 421/3/6 422/3/6 425/3/6
f 422/3/6 423/3/6 425/3/6
f 425/3/6 423/3/6 426/3/6
f 426/3/6 423/3/6 427/3/6
f 424/3/6 420/3/6 428/3/6
f 428/3/6 420/3/6 429/3/6
f 429/3/6 420/3/6 430/3/6
f 426/3/6 427/3/6 431/3/6
f 431/3/6 427/3/6 432/3/6
f 428/3/6 429/3/6 433/3/6
f 433/3/6 429/3/6 434/3/6
f 435/3/6 436/3/6 437/3/6
f 437/3/6 436/3/6 438/3/6
f 439/9/6 440/9/6 441/9/6
f 441/9/6 440/9/6 442/9/6
f 443/8/6 444/8/6 445/8/6
f 445/8/6 444/8/6 446/8/6
f 447/1/6 448/1/6 449/1/6
f 449/1/6 448/1/6 450/1/6
f 450/1/6 448/1/6 451/1/6
f 450/2/6 451/2/6 452/2/6
f 452/2/6 451/2/6 453/2/6
f 454/9/6 455/9/6 458/9/6
f 458/9/6 455/9/6 459/9/6
f 456/9/6 457/9/6 460/9/6
f 460/9/6 457/9/6 461/9/6
f 462/7/6 463/7/6 465/7/6
f 465/7/6 463/7/6 466/7/6
f 464/7/6 465/7/6 468/7/6
f 468/7/6 465/7/6 469/7/6
f 466/7/6 467/7/6 470/7/6
f 470/7/6 467/7/6 471/7/6
f 469/7/6 470/7/6 472/7/6
f 472/7/6 470/7/6 473/7/6
f 474/7/6 475/7/6 476/7/6
f 476/7/6 475/7/6 477/7/6
