# MagicaVoxel @ ephtracy

# material
mtllib scummBarPirateKing02.mtl
usemtl palette

# normals
vn -1 0 0
vn 1 0 0
vn 0 0 1
vn 0 0 -1
vn 0 -1 0
vn 0 1 0

# texcoords
vt 0.845703 0.5
vt 0.849609 0.5
vt 0.853516 0.5
vt 0.876953 0.5
vt 0.916016 0.5
vt 0.919922 0.5
vt 0.923828 0.5
vt 0.970703 0.5
vt 0.974609 0.5

# verts
v -4.5 5 -1
v -4.5 5 -2
v -4.5 6 -1
v -4.5 6 -2
v -4.5 8 -1
v -4.5 8 -2
v -3.5 8 -1
v -3.5 8 -2
v -3.5 9 -1
v -3.5 9 -2
v -3.5 12 -1
v -3.5 12 -3
v -3.5 13 -1
v -3.5 13 -3
v -2.5 0 -1
v -2.5 0 -2
v -2.5 1 -1
v -2.5 1 -2
v -2.5 4 -0
v -2.5 4 -1
v -2.5 4 -2
v -2.5 4 -3
v -2.5 8 -1
v -2.5 8 -2
v -2.5 9 -0
v -2.5 9 -1
v -2.5 9 -2
v -2.5 9 -3
v -2.5 11 -1
v -2.5 11 -2
v -2.5 11 -3
v -2.5 12 -1
v -2.5 12 -2
v -2.5 12 -3
v -2.5 13 -1
v -2.5 13 -2
v -2.5 13 -3
v -2.5 13 -4
v -2.5 14 -1
v -2.5 14 -2
v -2.5 14 -3
v -2.5 14 -4
v -2.5 15 -1
v -2.5 15 -3
v -1.5 10 -2
v -1.5 10 -3
v -1.5 11 -2
v -1.5 11 -3
v -1.5 13 -0
v -1.5 13 -1
v -1.5 14 -0
v -1.5 14 -1
v -1.5 14 -3
v -1.5 14 -4
v -1.5 15 -3
v -1.5 15 -4
v -0.5 6 3
v -0.5 6 1
v -0.5 8 3
v -0.5 8 1
v -0.5 9 3
v -0.5 9 1
v 0.5 0 -1
v 0.5 0 -2
v 0.5 1 -1
v 0.5 1 -2
v 0.5 4 -0
v 0.5 4 -1
v 0.5 4 -2
v 0.5 5 -0
v 0.5 5 -1
v 0.5 14 -1
v 0.5 14 -3
v 0.5 15 -1
v 0.5 15 -3
v 2.5 7 1
v 2.5 7 -1
v 2.5 8 1
v 2.5 8 -1
v -3.5 5 -1
v -3.5 5 -2
v -3.5 6 -1
v -3.5 6 -2
v -3.5 8 -1
v -3.5 8 -2
v -1.5 0 -1
v -1.5 0 -2
v -1.5 1 -1
v -1.5 1 -2
v -1.5 4 -0
v -1.5 4 -1
v -1.5 4 -2
v -1.5 5 -0
v -1.5 5 -1
v -1.5 14 -1
v -1.5 14 -3
v -1.5 15 -1
v -1.5 15 -3
v 0.5 10 -2
v 0.5 10 -3
v 0.5 11 -2
v 0.5 11 -3
v 0.5 13 -0
v 0.5 13 -1
v 0.5 14 -0
v 0.5 14 -1
v 0.5 14 -3
v 0.5 14 -4
v 0.5 15 -3
v 0.5 15 -4
v 1.5 0 -1
v 1.5 0 -2
v 1.5 1 -1
v 1.5 1 -2
v 1.5 4 -0
v 1.5 4 -1
v 1.5 4 -2
v 1.5 4 -3
v 1.5 6 3
v 1.5 6 1
v 1.5 7 2
v 1.5 7 1
v 1.5 8 3
v 1.5 8 2
v 1.5 8 1
v 1.5 8 -1
v 1.5 8 -2
v 1.5 9 3
v 1.5 9 1
v 1.5 9 -0
v 1.5 9 -1
v 1.5 9 -2
v 1.5 9 -3
v 1.5 11 -1
v 1.5 11 -2
v 1.5 11 -3
v 1.5 12 -1
v 1.5 12 -2
v 1.5 12 -3
v 1.5 13 -1
v 1.5 13 -2
v 1.5 13 -3
v 1.5 13 -4
v 1.5 14 -1
v 1.5 14 -2
v 1.5 14 -3
v 1.5 14 -4
v 1.5 15 -1
v 1.5 15 -3
v 2.5 7 2
v 2.5 7 1
v 2.5 8 2
v 2.5 8 1
v 2.5 8 -1
v 2.5 8 -2
v 2.5 9 -1
v 2.5 9 -2
v 2.5 12 -1
v 2.5 12 -3
v 2.5 13 -1
v 2.5 13 -3
v 3.5 7 1
v 3.5 7 -1
v 3.5 8 1
v 3.5 8 -1
v -0.5 6 3
v -0.5 8 3
v -0.5 9 3
v 1.5 6 3
v 1.5 8 3
v 1.5 9 3
v 1.5 7 2
v 1.5 8 2
v 2.5 7 2
v 2.5 8 2
v 2.5 7 1
v 2.5 8 1
v 3.5 7 1
v 3.5 8 1
v -2.5 4 -0
v -2.5 9 -0
v -1.5 4 -0
v -1.5 5 -0
v -1.5 9 -0
v -1.5 13 -0
v -1.5 14 -0
v 0.5 4 -0
v 0.5 5 -0
v 0.5 9 -0
v 0.5 13 -0
v 0.5 14 -0
v 1.5 4 -0
v 1.5 9 -0
v -4.5 5 -1
v -4.5 6 -1
v -4.5 8 -1
v -3.5 5 -1
v -3.5 6 -1
v -3.5 8 -1
v -3.5 9 -1
v -3.5 12 -1
v -3.5 13 -1
v -2.5 0 -1
v -2.5 1 -1
v -2.5 4 -1
v -2.5 8 -1
v -2.5 9 -1
v -2.5 11 -1
v -2.5 12 -1
v -2.5 13 -1
v -2.5 14 -1
v -2.5 15 -1
v -1.5 0 -1
v -1.5 1 -1
v -1.5 4 -1
v -1.5 5 -1
v -1.5 9 -1
v -1.5 10 -1
v -1.5 11 -1
v -1.5 12 -1
v -1.5 13 -1
v -1.5 14 -1
v -1.5 15 -1
v 0.5 0 -1
v 0.5 1 -1
v 0.5 4 -1
v 0.5 5 -1
v 0.5 9 -1
v 0.5 10 -1
v 0.5 11 -1
v 0.5 12 -1
v 0.5 13 -1
v 0.5 14 -1
v 0.5 15 -1
v 1.5 0 -1
v 1.5 1 -1
v 1.5 4 -1
v 1.5 8 -1
v 1.5 9 -1
v 1.5 11 -1
v 1.5 12 -1
v 1.5 13 -1
v 1.5 14 -1
v 1.5 15 -1
v 2.5 8 -1
v 2.5 9 -1
v 2.5 12 -1
v 2.5 13 -1
v -1.5 14 -3
v -1.5 15 -3
v 0.5 14 -3
v 0.5 15 -3
v -0.5 6 1
v -0.5 8 1
v -0.5 9 1
v 1.5 6 1
v 1.5 7 1
v 1.5 8 1
v 1.5 9 1
v 2.5 7 1
v 2.5 8 1
v 2.5 7 -1
v 2.5 8 -1
v 3.5 7 -1
v 3.5 8 -1
v -4.5 5 -2
v -4.5 6 -2
v -4.5 8 -2
v -3.5 5 -2
v -3.5 6 -2
v -3.5 8 -2
v -3.5 9 -2
v -2.5 0 -2
v -2.5 1 -2
v -2.5 4 -2
v -2.5 8 -2
v -2.5 9 -2
v -2.5 11 -2
v -1.5 0 -2
v -1.5 1 -2
v -1.5 4 -2
v -1.5 10 -2
v -1.5 11 -2
v 0.5 0 -2
v 0.5 1 -2
v 0.5 4 -2
v 0.5 10 -2
v 0.5 11 -2
v 1.5 0 -2
v 1.5 1 -2
v 1.5 4 -2
v 1.5 8 -2
v 1.5 9 -2
v 1.5 11 -2
v 2.5 8 -2
v 2.5 9 -2
v -3.5 12 -3
v -3.5 13 -3
v -2.5 4 -3
v -2.5 9 -3
v -2.5 11 -3
v -2.5 12 -3
v -2.5 13 -3
v -2.5 14 -3
v -2.5 15 -3
v -1.5 10 -3
v -1.5 11 -3
v -1.5 12 -3
v -1.5 13 -3
v -1.5 14 -3
v -1.5 15 -3
v 0.5 10 -3
v 0.5 11 -3
v 0.5 12 -3
v 0.5 13 -3
v 0.5 14 -3
v 0.5 15 -3
v 1.5 4 -3
v 1.5 9 -3
v 1.5 11 -3
v 1.5 12 -3
v 1.5 13 -3
v 1.5 14 -3
v 1.5 15 -3
v 2.5 12 -3
v 2.5 13 -3
v -2.5 13 -4
v -2.5 14 -4
v -1.5 14 -4
v -1.5 15 -4
v 0.5 14 -4
v 0.5 15 -4
v 1.5 13 -4
v 1.5 14 -4
v -2.5 0 -1
v -1.5 0 -1
v 0.5 0 -1
v 1.5 0 -1
v -2.5 0 -2
v -1.5 0 -2
v 0.5 0 -2
v 1.5 0 -2
v -2.5 4 -0
v -1.5 4 -0
v 0.5 4 -0
v 1.5 4 -0
v -2.5 4 -1
v -1.5 4 -1
v 0.5 4 -1
v 1.5 4 -1
v -2.5 4 -2
v -1.5 4 -2
v 0.5 4 -2
v 1.5 4 -2
v -2.5 4 -3
v 1.5 4 -3
v -1.5 5 -0
v 0.5 5 -0
v -4.5 5 -1
v -3.5 5 -1
v -1.5 5 -1
v 0.5 5 -1
v -4.5 5 -2
v -3.5 5 -2
v -0.5 6 3
v 1.5 6 3
v -0.5 6 1
v 1.5 6 1
v 1.5 7 2
v 2.5 7 2
v 1.5 7 1
v 2.5 7 1
v 3.5 7 1
v 2.5 7 -1
v 3.5 7 -1
v -3.5 8 -1
v -2.5 8 -1
v 1.5 8 -1
v 2.5 8 -1
v -3.5 8 -2
v -2.5 8 -2
v 1.5 8 -2
v 2.5 8 -2
v -1.5 10 -2
v 0.5 10 -2
v -1.5 10 -3
v 0.5 10 -3
v -2.5 11 -2
v -1.5 11 -2
v 0.5 11 -2
v 1.5 11 -2
v -2.5 11 -3
v -1.5 11 -3
v 0.5 11 -3
v 1.5 11 -3
v -3.5 12 -1
v -2.5 12 -1
v 1.5 12 -1
v 2.5 12 -1
v -2.5 12 -2
v 1.5 12 -2
v -3.5 12 -3
v -2.5 12 -3
v 1.5 12 -3
v 2.5 12 -3
v -1.5 13 -0
v 0.5 13 -0
v -1.5 13 -1
v 0.5 13 -1
v -2.5 13 -3
v -1.5 13 -3
v 0.5 13 -3
v 1.5 13 -3
v -2.5 13 -4
v 1.5 13 -4
v 1.5 8 2
v 2.5 8 2
v 1.5 8 1
v 2.5 8 1
v 3.5 8 1
v -4.5 8 -1
v -3.5 8 -1
v 2.5 8 -1
v 3.5 8 -1
v -4.5 8 -2
v -3.5 8 -2
v -0.5 9 3
v 1.5 9 3
v -0.5 9 1
v 1.5 9 1
v -2.5 9 -0
v -1.5 9 -0
v 0.5 9 -0
v 1.5 9 -0
v -3.5 9 -1
v -2.5 9 -1
v -1.5 9 -1
v 0.5 9 -1
v 1.5 9 -1
v 2.5 9 -1
v -3.5 9 -2
v -2.5 9 -2
v 1.5 9 -2
v 2.5 9 -2
v -2.5 9 -3
v 1.5 9 -3
v -3.5 13 -1
v -2.5 13 -1
v 1.5 13 -1
v 2.5 13 -1
v -2.5 13 -2
v 1.5 13 -2
v -3.5 13 -3
v -2.5 13 -3
v 1.5 13 -3
v 2.5 13 -3
v -1.5 14 -0
v 0.5 14 -0
v -1.5 14 -1
v 0.5 14 -1
v -2.5 14 -3
v -1.5 14 -3
v 0.5 14 -3
v 1.5 14 -3
v -2.5 14 -4
v -1.5 14 -4
v 0.5 14 -4
v 1.5 14 -4
v -2.5 15 -1
v -1.5 15 -1
v 0.5 15 -1
v 1.5 15 -1
v -2.5 15 -3
v -1.5 15 -3
v 0.5 15 -3
v 1.5 15 -3
v -1.5 15 -4
v 0.5 15 -4

# faces
f 3/8/1 2/8/1 1/8/1
f 4/8/1 2/8/1 3/8/1
f 5/4/1 4/4/1 3/4/1
f 6/4/1 4/4/1 5/4/1
f 9/4/1 8/4/1 7/4/1
f 10/4/1 8/4/1 9/4/1
f 13/7/1 12/7/1 11/7/1
f 14/7/1 12/7/1 13/7/1
f 17/7/1 16/7/1 15/7/1
f 18/7/1 16/7/1 17/7/1
f 20/6/1 18/6/1 17/6/1
f 21/6/1 18/6/1 20/6/1
f 23/4/1 21/4/1 20/4/1
f 23/4/1 22/4/1 21/4/1
f 23/4/1 20/4/1 19/4/1
f 24/4/1 22/4/1 23/4/1
f 25/4/1 23/4/1 19/4/1
f 26/4/1 23/4/1 25/4/1
f 27/4/1 22/4/1 24/4/1
f 28/4/1 22/4/1 27/4/1
f 29/9/1 27/9/1 26/9/1
f 30/9/1 27/9/1 29/9/1
f 32/8/1 30/8/1 29/8/1
f 33/9/1 31/9/1 30/9/1
f 33/8/1 30/8/1 32/8/1
f 34/9/1 31/9/1 33/9/1
f 39/5/1 36/5/1 35/5/1
f 40/7/1 37/7/1 36/7/1
f 40/5/1 36/5/1 39/5/1
f 40/7/1 38/7/1 37/7/1
f 41/7/1 38/7/1 40/7/1
f 42/7/1 38/7/1 41/7/1
f 43/7/1 40/7/1 39/7/1
f 43/7/1 41/7/1 40/7/1
f 44/7/1 41/7/1 43/7/1
f 47/9/1 46/9/1 45/9/1
f 48/9/1 46/9/1 47/9/1
f 51/7/1 50/7/1 49/7/1
f 52/7/1 50/7/1 51/7/1
f 55/5/1 54/5/1 53/5/1
f 56/5/1 54/5/1 55/5/1
f 59/1/1 58/1/1 57/1/1
f 60/1/1 58/1/1 59/1/1
f 61/2/1 60/2/1 59/2/1
f 62/2/1 60/2/1 61/2/1
f 65/7/1 64/7/1 63/7/1
f 66/7/1 64/7/1 65/7/1
f 68/6/1 66/6/1 65/6/1
f 69/6/1 66/6/1 68/6/1
f 70/4/1 68/4/1 67/4/1
f 71/4/1 68/4/1 70/4/1
f 74/7/1 73/7/1 72/7/1
f 75/7/1 73/7/1 74/7/1
f 78/4/1 77/4/1 76/4/1
f 79/4/1 77/4/1 78/4/1
f 80/8/2 81/8/2 82/8/2
f 82/8/2 81/8/2 83/8/2
f 82/4/2 83/4/2 84/4/2
f 84/4/2 83/4/2 85/4/2
f 86/7/2 87/7/2 88/7/2
f 88/7/2 87/7/2 89/7/2
f 88/6/2 89/6/2 91/6/2
f 91/6/2 89/6/2 92/6/2
f 90/4/2 91/4/2 93/4/2
f 93/4/2 91/4/2 94/4/2
f 95/7/2 96/7/2 97/7/2
f 97/7/2 96/7/2 98/7/2
f 99/9/2 100/9/2 101/9/2
f 101/9/2 100/9/2 102/9/2
f 103/7/2 104/7/2 105/7/2
f 105/7/2 104/7/2 106/7/2
f 107/5/2 108/5/2 109/5/2
f 109/5/2 108/5/2 110/5/2
f 111/7/2 112/7/2 113/7/2
f 113/7/2 112/7/2 114/7/2
f 113/6/2 114/6/2 116/6/2
f 116/6/2 114/6/2 117/6/2
f 119/1/2 120/1/2 121/1/2
f 121/1/2 120/1/2 122/1/2
f 119/1/2 121/1/2 123/1/2
f 123/1/2 121/1/2 124/1/2
f 116/4/2 117/4/2 126/4/2
f 115/4/2 116/4/2 126/4/2
f 117/4/2 118/4/2 126/4/2
f 126/4/2 118/4/2 127/4/2
f 124/2/2 125/2/2 128/2/2
f 123/2/2 124/2/2 128/2/2
f 128/2/2 125/2/2 129/2/2
f 115/4/2 126/4/2 130/4/2
f 130/4/2 126/4/2 131/4/2
f 127/4/2 118/4/2 132/4/2
f 132/4/2 118/4/2 133/4/2
f 131/9/2 132/9/2 134/9/2
f 134/9/2 132/9/2 135/9/2
f 134/8/2 135/8/2 137/8/2
f 135/9/2 136/9/2 138/9/2
f 137/8/2 135/8/2 138/8/2
f 138/9/2 136/9/2 139/9/2
f 140/5/2 141/5/2 144/5/2
f 141/7/2 142/7/2 145/7/2
f 144/5/2 141/5/2 145/5/2
f 142/7/2 143/7/2 145/7/2
f 145/7/2 143/7/2 146/7/2
f 146/7/2 143/7/2 147/7/2
f 144/7/2 145/7/2 148/7/2
f 145/7/2 146/7/2 148/7/2
f 148/7/2 146/7/2 149/7/2
f 150/8/2 151/8/2 152/8/2
f 152/8/2 151/8/2 153/8/2
f 154/4/2 155/4/2 156/4/2
f 156/4/2 155/4/2 157/4/2
f 158/7/2 159/7/2 160/7/2
f 160/7/2 159/7/2 161/7/2
f 162/4/2 163/4/2 164/4/2
f 164/4/2 163/4/2 165/4/2
f 169/1/3 167/1/3 166/1/3
f 170/2/3 168/2/3 167/2/3
f 170/1/3 167/1/3 169/1/3
f 171/2/3 168/2/3 170/2/3
f 174/8/3 173/8/3 172/8/3
f 175/8/3 173/8/3 174/8/3
f 178/4/3 177/4/3 176/4/3
f 179/4/3 177/4/3 178/4/3
f 182/4/3 181/4/3 180/4/3
f 183/4/3 181/4/3 182/4/3
f 184/4/3 181/4/3 183/4/3
f 188/3/3 184/3/3 183/3/3
f 189/3/3 184/3/3 188/3/3
f 190/7/3 186/7/3 185/7/3
f 191/7/3 186/7/3 190/7/3
f 192/4/3 189/4/3 188/4/3
f 192/4/3 188/4/3 187/4/3
f 193/4/3 189/4/3 192/4/3
f 197/8/3 195/8/3 194/8/3
f 198/4/3 196/4/3 195/4/3
f 198/8/3 195/8/3 197/8/3
f 199/4/3 196/4/3 198/4/3
f 206/4/3 200/4/3 199/4/3
f 207/4/3 200/4/3 206/4/3
f 209/7/3 202/7/3 201/7/3
f 210/7/3 202/7/3 209/7/3
f 213/7/3 204/7/3 203/7/3
f 214/6/3 205/6/3 204/6/3
f 214/7/3 204/7/3 213/7/3
f 215/6/3 205/6/3 214/6/3
f 217/9/3 208/9/3 207/9/3
f 218/9/3 208/9/3 217/9/3
f 219/8/3 209/8/3 208/8/3
f 219/9/3 208/9/3 218/9/3
f 220/7/3 210/7/3 209/7/3
f 220/8/3 209/8/3 219/8/3
f 221/5/3 211/5/3 210/5/3
f 221/7/3 210/7/3 220/7/3
f 222/7/3 212/7/3 211/7/3
f 222/5/3 211/5/3 221/5/3
f 223/7/3 212/7/3 222/7/3
f 226/6/3 216/6/3 215/6/3
f 227/6/3 216/6/3 226/6/3
f 228/9/3 218/9/3 217/9/3
f 229/8/3 221/8/3 220/8/3
f 229/9/3 218/9/3 228/9/3
f 229/8/3 220/8/3 219/8/3
f 229/8/3 219/8/3 218/8/3
f 230/8/3 221/8/3 229/8/3
f 231/8/3 221/8/3 230/8/3
f 232/8/3 221/8/3 231/8/3
f 235/7/3 225/7/3 224/7/3
f 236/6/3 226/6/3 225/6/3
f 236/7/3 225/7/3 235/7/3
f 237/6/3 226/6/3 236/6/3
f 239/9/3 229/9/3 228/9/3
f 239/9/3 230/9/3 229/9/3
f 240/8/3 231/8/3 230/8/3
f 240/9/3 230/9/3 239/9/3
f 241/7/3 232/7/3 231/7/3
f 241/8/3 231/8/3 240/8/3
f 242/5/3 233/5/3 232/5/3
f 242/7/3 232/7/3 241/7/3
f 243/7/3 234/7/3 233/7/3
f 243/5/3 233/5/3 242/5/3
f 244/7/3 234/7/3 243/7/3
f 245/4/3 239/4/3 238/4/3
f 246/4/3 239/4/3 245/4/3
f 247/7/3 242/7/3 241/7/3
f 248/7/3 242/7/3 247/7/3
f 251/5/3 250/5/3 249/5/3
f 252/5/3 250/5/3 251/5/3
f 253/1/4 254/1/4 256/1/4
f 256/1/4 254/1/4 257/1/4
f 254/2/4 255/2/4 258/2/4
f 257/1/4 254/1/4 258/1/4
f 258/2/4 255/2/4 259/2/4
f 257/8/4 258/8/4 260/8/4
f 260/8/4 258/8/4 261/8/4
f 262/4/4 263/4/4 264/4/4
f 264/4/4 263/4/4 265/4/4
f 266/8/4 267/8/4 269/8/4
f 267/4/4 268/4/4 270/4/4
f 269/8/4 267/8/4 270/8/4
f 270/4/4 268/4/4 271/4/4
f 271/4/4 272/4/4 276/4/4
f 276/4/4 272/4/4 277/4/4
f 273/7/4 274/7/4 279/7/4
f 274/6/4 275/6/4 280/6/4
f 279/7/4 274/7/4 280/7/4
f 280/6/4 275/6/4 281/6/4
f 277/9/4 278/9/4 282/9/4
f 282/9/4 278/9/4 283/9/4
f 277/9/4 282/9/4 287/9/4
f 284/7/4 285/7/4 289/7/4
f 285/6/4 286/6/4 290/6/4
f 289/7/4 285/7/4 290/7/4
f 290/6/4 286/6/4 291/6/4
f 287/9/4 288/9/4 293/9/4
f 277/9/4 287/9/4 293/9/4
f 293/9/4 288/9/4 294/9/4
f 292/4/4 293/4/4 295/4/4
f 295/4/4 293/4/4 296/4/4
f 297/7/4 298/7/4 302/7/4
f 302/7/4 298/7/4 303/7/4
f 301/9/4 302/9/4 307/9/4
f 302/7/4 303/7/4 308/7/4
f 307/9/4 302/9/4 308/9/4
f 308/7/4 303/7/4 309/7/4
f 304/7/4 305/7/4 310/7/4
f 310/7/4 305/7/4 311/7/4
f 308/9/4 309/9/4 312/9/4
f 306/9/4 307/9/4 312/9/4
f 307/9/4 308/9/4 312/9/4
f 312/9/4 309/9/4 313/9/4
f 313/9/4 309/9/4 314/9/4
f 314/9/4 309/9/4 315/9/4
f 299/4/4 300/4/4 318/4/4
f 318/4/4 300/4/4 319/4/4
f 313/9/4 314/9/4 320/9/4
f 314/7/4 315/7/4 321/7/4
f 320/9/4 314/9/4 321/9/4
f 321/7/4 315/7/4 322/7/4
f 316/7/4 317/7/4 323/7/4
f 323/7/4 317/7/4 324/7/4
f 321/7/4 322/7/4 325/7/4
f 325/7/4 322/7/4 326/7/4
f 327/7/4 328/7/4 329/7/4
f 327/7/4 329/7/4 331/7/4
f 329/5/4 330/5/4 331/5/4
f 331/5/4 330/5/4 332/5/4
f 327/7/4 331/7/4 333/7/4
f 333/7/4 331/7/4 334/7/4
f 339/7/5 336/7/5 335/7/5
f 340/7/5 336/7/5 339/7/5
f 341/7/5 338/7/5 337/7/5
f 342/7/5 338/7/5 341/7/5
f 347/4/5 344/4/5 343/4/5
f 348/4/5 344/4/5 347/4/5
f 349/4/5 346/4/5 345/4/5
f 350/4/5 346/4/5 349/4/5
f 352/6/5 349/6/5 348/6/5
f 353/6/5 349/6/5 352/6/5
f 355/4/5 352/4/5 351/4/5
f 355/4/5 354/4/5 353/4/5
f 355/4/5 353/4/5 352/4/5
f 356/4/5 354/4/5 355/4/5
f 361/3/5 358/3/5 357/3/5
f 362/3/5 358/3/5 361/3/5
f 363/8/5 360/8/5 359/8/5
f 364/8/5 360/8/5 363/8/5
f 367/1/5 366/1/5 365/1/5
f 368/1/5 366/1/5 367/1/5
f 371/8/5 370/8/5 369/8/5
f 372/8/5 370/8/5 371/8/5
f 374/4/5 373/4/5 372/4/5
f 375/4/5 373/4/5 374/4/5
f 380/4/5 377/4/5 376/4/5
f 381/4/5 377/4/5 380/4/5
f 382/4/5 379/4/5 378/4/5
f 383/4/5 379/4/5 382/4/5
f 386/9/5 385/9/5 384/9/5
f 387/9/5 385/9/5 386/9/5
f 392/9/5 389/9/5 388/9/5
f 393/9/5 389/9/5 392/9/5
f 394/9/5 391/9/5 390/9/5
f 395/9/5 391/9/5 394/9/5
f 400/7/5 397/7/5 396/7/5
f 401/7/5 399/7/5 398/7/5
f 402/7/5 400/7/5 396/7/5
f 403/7/5 400/7/5 402/7/5
f 404/7/5 399/7/5 401/7/5
f 405/7/5 399/7/5 404/7/5
f 408/7/5 407/7/5 406/7/5
f 409/7/5 407/7/5 408/7/5
f 414/7/5 412/7/5 411/7/5
f 414/7/5 413/7/5 412/7/5
f 414/7/5 411/7/5 410/7/5
f 415/7/5 413/7/5 414/7/5
f 416/8/6 417/8/6 418/8/6
f 418/8/6 417/8/6 419/8/6
f 419/4/6 420/4/6 423/4/6
f 423/4/6 420/4/6 424/4/6
f 421/4/6 422/4/6 425/4/6
f 425/4/6 422/4/6 426/4/6
f 427/2/6 428/2/6 429/2/6
f 429/2/6 428/2/6 430/2/6
f 431/4/6 432/4/6 436/4/6
f 432/3/6 433/3/6 437/3/6
f 436/4/6 432/4/6 437/4/6
f 433/4/6 434/4/6 438/4/6
f 437/3/6 433/3/6 438/3/6
f 438/4/6 434/4/6 439/4/6
f 435/4/6 436/4/6 441/4/6
f 441/4/6 436/4/6 442/4/6
f 439/4/6 440/4/6 443/4/6
f 443/4/6 440/4/6 444/4/6
f 442/4/6 443/4/6 445/4/6
f 445/4/6 443/4/6 446/4/6
f 447/7/6 448/7/6 451/7/6
f 449/7/6 450/7/6 452/7/6
f 447/7/6 451/7/6 453/7/6
f 453/7/6 451/7/6 454/7/6
f 452/7/6 450/7/6 455/7/6
f 455/7/6 450/7/6 456/7/6
f 457/7/6 458/7/6 459/7/6
f 459/7/6 458/7/6 460/7/6
f 459/7/6 460/7/6 462/7/6
f 462/7/6 460/7/6 463/7/6
f 461/7/6 462/7/6 465/7/6
f 465/7/6 462/7/6 466/7/6
f 463/7/6 464/7/6 467/7/6
f 467/7/6 464/7/6 468/7/6
f 469/7/6 470/7/6 473/7/6
f 473/7/6 470/7/6 474/7/6
f 471/7/6 472/7/6 475/7/6
f 475/7/6 472/7/6 476/7/6
f 474/5/6 475/5/6 477/5/6
f 477/5/6 475/5/6 478/5/6
