# MagicaVoxel @ ephtracy

# material
mtllib scummBarPirate01.mtl
usemtl palette

# normals
vn -1 0 0
vn 1 0 0
vn 0 0 1
vn 0 0 -1
vn 0 -1 0
vn 0 1 0

# texcoords
vt 0.845703 0.5
vt 0.849609 0.5
vt 0.908203 0.5
vt 0.912109 0.5
vt 0.916016 0.5
vt 0.919922 0.5
vt 0.923828 0.5
vt 0.970703 0.5
vt 0.974609 0.5

# verts
v -4.5 5 -1
v -4.5 5 -2
v -4.5 6 -1
v -4.5 6 -2
v -4.5 7 -1
v -4.5 7 -2
v -4.5 8 -1
v -4.5 8 -2
v -3.5 8 -1
v -3.5 8 -2
v -3.5 9 -1
v -3.5 9 -2
v -3.5 12 -1
v -3.5 12 -3
v -3.5 13 -1
v -3.5 13 -3
v -2.5 0 -1
v -2.5 0 -2
v -2.5 1 -1
v -2.5 1 -2
v -2.5 4 -0
v -2.5 4 -1
v -2.5 4 -2
v -2.5 4 -3
v -2.5 5 -0
v -2.5 5 -3
v -2.5 6 -0
v -2.5 6 -3
v -2.5 8 -1
v -2.5 8 -2
v -2.5 9 -0
v -2.5 9 -1
v -2.5 9 -2
v -2.5 9 -3
v -2.5 11 -1
v -2.5 11 -2
v -2.5 11 -3
v -2.5 12 -1
v -2.5 12 -2
v -2.5 12 -3
v -2.5 13 -0
v -2.5 13 -1
v -2.5 13 -3
v -2.5 13 -4
v -2.5 14 -3
v -2.5 14 -4
v -2.5 15 -0
v -2.5 15 -3
v -1.5 9 -0
v -1.5 9 -1
v -1.5 10 -0
v -1.5 10 -1
v -1.5 10 -2
v -1.5 10 -3
v -1.5 11 -2
v -1.5 11 -3
v 0.5 0 -1
v 0.5 0 -2
v 0.5 1 -1
v 0.5 1 -2
v 0.5 4 -0
v 0.5 4 -1
v 0.5 4 -2
v 0.5 5 -0
v 0.5 5 -1
v 0.5 14 -0
v 0.5 14 -3
v 0.5 15 -0
v 0.5 15 -3
v 2.5 7 4
v 2.5 7 2
v 2.5 7 1
v 2.5 7 -0
v 2.5 7 -1
v 2.5 8 2
v 2.5 8 1
v 2.5 8 -0
v 2.5 8 -1
v 2.5 9 4
v 2.5 9 2
v 2.5 9 1
v 2.5 10 4
v 2.5 10 2
v -3.5 5 -1
v -3.5 5 -2
v -3.5 6 -1
v -3.5 6 -2
v -3.5 7 -1
v -3.5 7 -2
v -3.5 8 -1
v -3.5 8 -2
v -1.5 0 -1
v -1.5 0 -2
v -1.5 1 -1
v -1.5 1 -2
v -1.5 4 -0
v -1.5 4 -1
v -1.5 4 -2
v -1.5 5 -0
v -1.5 5 -1
v -1.5 14 -0
v -1.5 14 -3
v -1.5 15 -0
v -1.5 15 -3
v 0.5 9 -0
v 0.5 9 -1
v 0.5 10 -0
v 0.5 10 -1
v 0.5 10 -2
v 0.5 10 -3
v 0.5 11 -2
v 0.5 11 -3
v 1.5 0 -1
v 1.5 0 -2
v 1.5 1 -1
v 1.5 1 -2
v 1.5 4 -0
v 1.5 4 -1
v 1.5 4 -2
v 1.5 4 -3
v 1.5 5 -0
v 1.5 5 -3
v 1.5 6 -0
v 1.5 6 -3
v 1.5 8 -1
v 1.5 8 -2
v 1.5 9 -0
v 1.5 9 -1
v 1.5 9 -2
v 1.5 9 -3
v 1.5 11 -1
v 1.5 11 -2
v 1.5 11 -3
v 1.5 12 -1
v 1.5 12 -2
v 1.5 12 -3
v 1.5 13 -0
v 1.5 13 -1
v 1.5 13 -3
v 1.5 13 -4
v 1.5 14 -3
v 1.5 14 -4
v 1.5 15 -0
v 1.5 15 -3
v 2.5 8 -1
v 2.5 8 -2
v 2.5 9 -1
v 2.5 9 -2
v 2.5 12 -1
v 2.5 12 -3
v 2.5 13 -1
v 2.5 13 -3
v 3.5 7 1
v 3.5 7 -0
v 3.5 7 -1
v 3.5 8 2
v 3.5 8 1
v 3.5 8 -0
v 3.5 8 -1
v 3.5 9 2
v 3.5 9 1
v 4.5 7 4
v 4.5 7 2
v 4.5 9 4
v 4.5 9 2
v 4.5 10 4
v 4.5 10 2
v 2.5 7 4
v 2.5 9 4
v 2.5 10 4
v 4.5 7 4
v 4.5 9 4
v 4.5 10 4
v 2.5 7 1
v 2.5 8 1
v 3.5 7 1
v 3.5 8 1
v -2.5 4 -0
v -2.5 5 -0
v -2.5 6 -0
v -2.5 9 -0
v -2.5 13 -0
v -2.5 15 -0
v -1.5 4 -0
v -1.5 5 -0
v -1.5 6 -0
v -1.5 9 -0
v -1.5 10 -0
v -1.5 14 -0
v -1.5 15 -0
v 0.5 4 -0
v 0.5 5 -0
v 0.5 6 -0
v 0.5 9 -0
v 0.5 10 -0
v 0.5 14 -0
v 0.5 15 -0
v 1.5 4 -0
v 1.5 5 -0
v 1.5 6 -0
v 1.5 9 -0
v 1.5 13 -0
v 1.5 15 -0
v -4.5 5 -1
v -4.5 6 -1
v -4.5 7 -1
v -4.5 8 -1
v -3.5 5 -1
v -3.5 6 -1
v -3.5 7 -1
v -3.5 8 -1
v -3.5 9 -1
v -3.5 12 -1
v -3.5 13 -1
v -2.5 0 -1
v -2.5 1 -1
v -2.5 4 -1
v -2.5 8 -1
v -2.5 9 -1
v -2.5 11 -1
v -2.5 12 -1
v -2.5 13 -1
v -1.5 0 -1
v -1.5 1 -1
v -1.5 4 -1
v -1.5 5 -1
v -1.5 9 -1
v -1.5 10 -1
v -1.5 11 -1
v -1.5 12 -1
v -1.5 13 -1
v 0.5 0 -1
v 0.5 1 -1
v 0.5 4 -1
v 0.5 5 -1
v 0.5 9 -1
v 0.5 10 -1
v 0.5 11 -1
v 0.5 12 -1
v 0.5 13 -1
v 1.5 0 -1
v 1.5 1 -1
v 1.5 4 -1
v 1.5 8 -1
v 1.5 9 -1
v 1.5 11 -1
v 1.5 12 -1
v 1.5 13 -1
v 2.5 8 -1
v 2.5 9 -1
v 2.5 12 -1
v 2.5 13 -1
v 2.5 7 2
v 2.5 8 2
v 2.5 9 2
v 2.5 10 2
v 3.5 8 2
v 3.5 9 2
v 4.5 7 2
v 4.5 9 2
v 4.5 10 2
v 2.5 8 1
v 2.5 9 1
v 3.5 8 1
v 3.5 9 1
v 2.5 7 -1
v 2.5 8 -1
v 3.5 7 -1
v 3.5 8 -1
v -4.5 5 -2
v -4.5 6 -2
v -4.5 7 -2
v -4.5 8 -2
v -3.5 5 -2
v -3.5 6 -2
v -3.5 7 -2
v -3.5 8 -2
v -3.5 9 -2
v -2.5 0 -2
v -2.5 1 -2
v -2.5 4 -2
v -2.5 8 -2
v -2.5 9 -2
v -2.5 11 -2
v -1.5 0 -2
v -1.5 1 -2
v -1.5 4 -2
v -1.5 9 -2
v -1.5 10 -2
v -1.5 11 -2
v 0.5 0 -2
v 0.5 1 -2
v 0.5 4 -2
v 0.5 9 -2
v 0.5 10 -2
v 0.5 11 -2
v 1.5 0 -2
v 1.5 1 -2
v 1.5 4 -2
v 1.5 8 -2
v 1.5 9 -2
v 1.5 11 -2
v 2.5 8 -2
v 2.5 9 -2
v -3.5 12 -3
v -3.5 13 -3
v -2.5 4 -3
v -2.5 5 -3
v -2.5 6 -3
v -2.5 9 -3
v -2.5 11 -3
v -2.5 12 -3
v -2.5 13 -3
v -2.5 14 -3
v -2.5 15 -3
v -1.5 10 -3
v -1.5 11 -3
v -1.5 12 -3
v -1.5 13 -3
v -1.5 14 -3
v -1.5 15 -3
v 0.5 10 -3
v 0.5 11 -3
v 0.5 12 -3
v 0.5 13 -3
v 0.5 14 -3
v 0.5 15 -3
v 1.5 4 -3
v 1.5 5 -3
v 1.5 6 -3
v 1.5 9 -3
v 1.5 11 -3
v 1.5 12 -3
v 1.5 13 -3
v 1.5 14 -3
v 1.5 15 -3
v 2.5 12 -3
v 2.5 13 -3
v -2.5 13 -4
v -2.5 14 -4
v 1.5 13 -4
v 1.5 14 -4
v -2.5 0 -1
v -1.5 0 -1
v 0.5 0 -1
v 1.5 0 -1
v -2.5 0 -2
v -1.5 0 -2
v 0.5 0 -2
v 1.5 0 -2
v -2.5 4 -0
v -1.5 4 -0
v 0.5 4 -0
v 1.5 4 -0
v -2.5 4 -1
v -1.5 4 -1
v 0.5 4 -1
v 1.5 4 -1
v -2.5 4 -2
v -1.5 4 -2
v 0.5 4 -2
v 1.5 4 -2
v -2.5 4 -3
v 1.5 4 -3
v -1.5 5 -0
v 0.5 5 -0
v -4.5 5 -1
v -3.5 5 -1
v -1.5 5 -1
v 0.5 5 -1
v -4.5 5 -2
v -3.5 5 -2
v 2.5 7 4
v 4.5 7 4
v 2.5 7 2
v 4.5 7 2
v 2.5 7 1
v 3.5 7 1
v 2.5 7 -0
v 3.5 7 -0
v 2.5 7 -1
v 3.5 7 -1
v 2.5 8 2
v 3.5 8 2
v 2.5 8 1
v 3.5 8 1
v -3.5 8 -1
v -2.5 8 -1
v 1.5 8 -1
v 2.5 8 -1
v -3.5 8 -2
v -2.5 8 -2
v 1.5 8 -2
v 2.5 8 -2
v -1.5 10 -2
v 0.5 10 -2
v -1.5 10 -3
v 0.5 10 -3
v -2.5 11 -2
v -1.5 11 -2
v 0.5 11 -2
v 1.5 11 -2
v -2.5 11 -3
v -1.5 11 -3
v 0.5 11 -3
v 1.5 11 -3
v -3.5 12 -1
v -2.5 12 -1
v 1.5 12 -1
v 2.5 12 -1
v -2.5 12 -2
v 1.5 12 -2
v -3.5 12 -3
v -2.5 12 -3
v 1.5 12 -3
v 2.5 12 -3
v -2.5 13 -0
v 1.5 13 -0
v -2.5 13 -1
v -1.5 13 -1
v 0.5 13 -1
v 1.5 13 -1
v -2.5 13 -3
v -1.5 13 -3
v 0.5 13 -3
v 1.5 13 -3
v -2.5 13 -4
v 1.5 13 -4
v 2.5 8 1
v 3.5 8 1
v 2.5 8 -0
v 3.5 8 -0
v -4.5 8 -1
v -3.5 8 -1
v 2.5 8 -1
v 3.5 8 -1
v -4.5 8 -2
v -3.5 8 -2
v 2.5 9 2
v 3.5 9 2
v 2.5 9 1
v 3.5 9 1
v -2.5 9 -0
v -1.5 9 -0
v 0.5 9 -0
v 1.5 9 -0
v -3.5 9 -1
v -2.5 9 -1
v -1.5 9 -1
v 0.5 9 -1
v 1.5 9 -1
v 2.5 9 -1
v -3.5 9 -2
v -2.5 9 -2
v -1.5 9 -2
v 0.5 9 -2
v 1.5 9 -2
v 2.5 9 -2
v -2.5 9 -3
v 1.5 9 -3
v 2.5 10 4
v 4.5 10 4
v 2.5 10 2
v 4.5 10 2
v -1.5 10 -0
v 0.5 10 -0
v -1.5 10 -1
v 0.5 10 -1
v -3.5 13 -1
v -2.5 13 -1
v 1.5 13 -1
v 2.5 13 -1
v -3.5 13 -3
v -2.5 13 -3
v 1.5 13 -3
v 2.5 13 -3
v -1.5 14 -0
v 0.5 14 -0
v -2.5 14 -3
v -1.5 14 -3
v 0.5 14 -3
v 1.5 14 -3
v -2.5 14 -4
v 1.5 14 -4
v -2.5 15 -0
v -1.5 15 -0
v 0.5 15 -0
v 1.5 15 -0
v -2.5 15 -3
v -1.5 15 -3
v 0.5 15 -3
v 1.5 15 -3

# faces
f 3/8/1 2/8/1 1/8/1
f 4/8/1 2/8/1 3/8/1
f 5/4/1 4/4/1 3/4/1
f 6/4/1 4/4/1 5/4/1
f 7/5/1 6/5/1 5/5/1
f 8/5/1 6/5/1 7/5/1
f 11/4/1 10/4/1 9/4/1
f 12/4/1 10/4/1 11/4/1
f 15/7/1 14/7/1 13/7/1
f 16/7/1 14/7/1 15/7/1
f 19/7/1 18/7/1 17/7/1
f 20/7/1 18/7/1 19/7/1
f 22/6/1 20/6/1 19/6/1
f 23/6/1 20/6/1 22/6/1
f 25/4/1 23/4/1 22/4/1
f 25/4/1 24/4/1 23/4/1
f 25/4/1 22/4/1 21/4/1
f 26/4/1 24/4/1 25/4/1
f 27/5/1 26/5/1 25/5/1
f 28/5/1 26/5/1 27/5/1
f 29/4/1 28/4/1 27/4/1
f 30/4/1 28/4/1 29/4/1
f 31/4/1 29/4/1 27/4/1
f 32/4/1 29/4/1 31/4/1
f 33/4/1 28/4/1 30/4/1
f 34/4/1 28/4/1 33/4/1
f 35/9/1 33/9/1 32/9/1
f 36/9/1 33/9/1 35/9/1
f 38/8/1 36/8/1 35/8/1
f 39/9/1 37/9/1 36/9/1
f 39/8/1 36/8/1 38/8/1
f 40/9/1 37/9/1 39/9/1
f 45/7/1 43/7/1 42/7/1
f 45/7/1 44/7/1 43/7/1
f 45/7/1 42/7/1 41/7/1
f 46/7/1 44/7/1 45/7/1
f 47/7/1 45/7/1 41/7/1
f 48/7/1 45/7/1 47/7/1
f 51/9/1 50/9/1 49/9/1
f 52/9/1 50/9/1 51/9/1
f 55/9/1 54/9/1 53/9/1
f 56/9/1 54/9/1 55/9/1
f 59/7/1 58/7/1 57/7/1
f 60/7/1 58/7/1 59/7/1
f 62/6/1 60/6/1 59/6/1
f 63/6/1 60/6/1 62/6/1
f 64/4/1 62/4/1 61/4/1
f 65/4/1 62/4/1 64/4/1
f 68/7/1 67/7/1 66/7/1
f 69/7/1 67/7/1 68/7/1
f 75/1/1 71/1/1 70/1/1
f 76/4/1 73/4/1 72/4/1
f 77/5/1 74/5/1 73/5/1
f 77/4/1 73/4/1 76/4/1
f 78/5/1 74/5/1 77/5/1
f 79/1/1 75/1/1 70/1/1
f 80/8/1 76/8/1 75/8/1
f 80/1/1 75/1/1 79/1/1
f 81/8/1 76/8/1 80/8/1
f 82/2/1 80/2/1 79/2/1
f 83/2/1 80/2/1 82/2/1
f 84/8/2 85/8/2 86/8/2
f 86/8/2 85/8/2 87/8/2
f 86/4/2 87/4/2 88/4/2
f 88/4/2 87/4/2 89/4/2
f 88/5/2 89/5/2 90/5/2
f 90/5/2 89/5/2 91/5/2
f 92/7/2 93/7/2 94/7/2
f 94/7/2 93/7/2 95/7/2
f 94/6/2 95/6/2 97/6/2
f 97/6/2 95/6/2 98/6/2
f 96/4/2 97/4/2 99/4/2
f 99/4/2 97/4/2 100/4/2
f 101/7/2 102/7/2 103/7/2
f 103/7/2 102/7/2 104/7/2
f 105/9/2 106/9/2 107/9/2
f 107/9/2 106/9/2 108/9/2
f 109/9/2 110/9/2 111/9/2
f 111/9/2 110/9/2 112/9/2
f 113/7/2 114/7/2 115/7/2
f 115/7/2 114/7/2 116/7/2
f 115/6/2 116/6/2 118/6/2
f 118/6/2 116/6/2 119/6/2
f 118/4/2 119/4/2 121/4/2
f 119/4/2 120/4/2 121/4/2
f 117/4/2 118/4/2 121/4/2
f 121/4/2 120/4/2 122/4/2
f 121/5/2 122/5/2 123/5/2
f 123/5/2 122/5/2 124/5/2
f 123/4/2 124/4/2 125/4/2
f 125/4/2 124/4/2 126/4/2
f 123/4/2 125/4/2 127/4/2
f 127/4/2 125/4/2 128/4/2
f 126/4/2 124/4/2 129/4/2
f 129/4/2 124/4/2 130/4/2
f 128/9/2 129/9/2 131/9/2
f 131/9/2 129/9/2 132/9/2
f 131/8/2 132/8/2 134/8/2
f 132/9/2 133/9/2 135/9/2
f 134/8/2 132/8/2 135/8/2
f 135/9/2 133/9/2 136/9/2
f 138/7/2 139/7/2 141/7/2
f 139/7/2 140/7/2 141/7/2
f 137/7/2 138/7/2 141/7/2
f 141/7/2 140/7/2 142/7/2
f 137/7/2 141/7/2 143/7/2
f 143/7/2 141/7/2 144/7/2
f 145/4/2 146/4/2 147/4/2
f 147/4/2 146/4/2 148/4/2
f 149/7/2 150/7/2 151/7/2
f 151/7/2 150/7/2 152/7/2
f 153/4/2 154/4/2 157/4/2
f 154/5/2 155/5/2 158/5/2
f 157/4/2 154/4/2 158/4/2
f 158/5/2 155/5/2 159/5/2
f 156/8/2 157/8/2 160/8/2
f 160/8/2 157/8/2 161/8/2
f 162/1/2 163/1/2 164/1/2
f 164/1/2 163/1/2 165/1/2
f 164/2/2 165/2/2 166/2/2
f 166/2/2 165/2/2 167/2/2
f 171/1/3 169/1/3 168/1/3
f 172/2/3 170/2/3 169/2/3
f 172/1/3 169/1/3 171/1/3
f 173/2/3 170/2/3 172/2/3
f 176/4/3 175/4/3 174/4/3
f 177/4/3 175/4/3 176/4/3
f 184/4/3 179/4/3 178/4/3
f 185/5/3 180/5/3 179/5/3
f 185/4/3 179/4/3 184/4/3
f 186/4/3 181/4/3 180/4/3
f 186/5/3 180/5/3 185/5/3
f 187/4/3 181/4/3 186/4/3
f 189/7/3 183/7/3 182/7/3
f 190/7/3 183/7/3 189/7/3
f 192/3/3 186/3/3 185/3/3
f 192/3/3 187/3/3 186/3/3
f 193/3/3 187/3/3 192/3/3
f 194/9/3 188/9/3 187/9/3
f 194/3/3 187/3/3 193/3/3
f 195/9/3 188/9/3 194/9/3
f 196/7/3 189/7/3 182/7/3
f 198/4/3 192/4/3 191/4/3
f 199/5/3 193/5/3 192/5/3
f 199/4/3 192/4/3 198/4/3
f 200/4/3 194/4/3 193/4/3
f 200/5/3 193/5/3 199/5/3
f 201/4/3 194/4/3 200/4/3
f 202/7/3 197/7/3 196/7/3
f 202/7/3 196/7/3 182/7/3
f 203/7/3 197/7/3 202/7/3
f 208/8/3 205/8/3 204/8/3
f 209/4/3 206/4/3 205/4/3
f 209/8/3 205/8/3 208/8/3
f 210/5/3 207/5/3 206/5/3
f 210/4/3 206/4/3 209/4/3
f 211/5/3 207/5/3 210/5/3
f 218/4/3 212/4/3 211/4/3
f 219/4/3 212/4/3 218/4/3
f 221/7/3 214/7/3 213/7/3
f 222/7/3 214/7/3 221/7/3
f 223/7/3 216/7/3 215/7/3
f 224/6/3 217/6/3 216/6/3
f 224/7/3 216/7/3 223/7/3
f 225/6/3 217/6/3 224/6/3
f 227/9/3 220/9/3 219/9/3
f 228/9/3 220/9/3 227/9/3
f 229/8/3 221/8/3 220/8/3
f 229/9/3 220/9/3 228/9/3
f 230/7/3 222/7/3 221/7/3
f 230/8/3 221/8/3 229/8/3
f 231/7/3 222/7/3 230/7/3
f 234/6/3 226/6/3 225/6/3
f 235/6/3 226/6/3 234/6/3
f 237/8/3 229/8/3 228/8/3
f 237/8/3 231/8/3 230/8/3
f 237/8/3 230/8/3 229/8/3
f 238/8/3 231/8/3 237/8/3
f 239/8/3 231/8/3 238/8/3
f 240/8/3 231/8/3 239/8/3
f 241/7/3 233/7/3 232/7/3
f 242/6/3 234/6/3 233/6/3
f 242/7/3 233/7/3 241/7/3
f 243/6/3 234/6/3 242/6/3
f 245/9/3 237/9/3 236/9/3
f 245/9/3 238/9/3 237/9/3
f 246/8/3 239/8/3 238/8/3
f 246/9/3 238/9/3 245/9/3
f 247/7/3 240/7/3 239/7/3
f 247/8/3 239/8/3 246/8/3
f 248/7/3 240/7/3 247/7/3
f 249/4/3 245/4/3 244/4/3
f 250/4/3 245/4/3 249/4/3
f 251/7/3 248/7/3 247/7/3
f 252/7/3 248/7/3 251/7/3
f 253/1/4 254/1/4 257/1/4
f 255/2/4 256/2/4 258/2/4
f 253/1/4 257/1/4 259/1/4
f 257/1/4 258/1/4 259/1/4
f 258/2/4 256/2/4 260/2/4
f 259/1/4 258/1/4 260/1/4
f 260/2/4 256/2/4 261/2/4
f 262/8/4 263/8/4 264/8/4
f 264/8/4 263/8/4 265/8/4
f 266/5/4 267/5/4 268/5/4
f 268/5/4 267/5/4 269/5/4
f 270/8/4 271/8/4 274/8/4
f 271/4/4 272/4/4 275/4/4
f 274/8/4 271/8/4 275/8/4
f 272/5/4 273/5/4 276/5/4
f 275/4/4 272/4/4 276/4/4
f 276/5/4 273/5/4 277/5/4
f 277/4/4 278/4/4 282/4/4
f 282/4/4 278/4/4 283/4/4
f 279/7/4 280/7/4 285/7/4
f 280/6/4 281/6/4 286/6/4
f 285/7/4 280/7/4 286/7/4
f 286/6/4 281/6/4 287/6/4
f 283/9/4 284/9/4 288/9/4
f 288/9/4 284/9/4 289/9/4
f 289/9/4 284/9/4 290/9/4
f 288/8/4 289/8/4 294/8/4
f 294/8/4 289/8/4 295/8/4
f 291/7/4 292/7/4 297/7/4
f 292/6/4 293/6/4 298/6/4
f 297/7/4 292/7/4 298/7/4
f 298/6/4 293/6/4 299/6/4
f 295/9/4 296/9/4 301/9/4
f 294/9/4 295/9/4 301/9/4
f 301/9/4 296/9/4 302/9/4
f 300/4/4 301/4/4 303/4/4
f 303/4/4 301/4/4 304/4/4
f 305/7/4 306/7/4 312/7/4
f 312/7/4 306/7/4 313/7/4
f 311/9/4 312/9/4 317/9/4
f 312/7/4 313/7/4 318/7/4
f 317/9/4 312/9/4 318/9/4
f 318/7/4 313/7/4 319/7/4
f 314/7/4 315/7/4 320/7/4
f 320/7/4 315/7/4 321/7/4
f 318/9/4 319/9/4 322/9/4
f 316/9/4 317/9/4 322/9/4
f 317/9/4 318/9/4 322/9/4
f 322/9/4 319/9/4 323/9/4
f 323/9/4 319/9/4 324/9/4
f 324/9/4 319/9/4 325/9/4
f 307/4/4 308/4/4 328/4/4
f 308/5/4 309/5/4 329/5/4
f 328/4/4 308/4/4 329/4/4
f 309/4/4 310/4/4 330/4/4
f 329/5/4 309/5/4 330/5/4
f 330/4/4 310/4/4 331/4/4
f 323/9/4 324/9/4 332/9/4
f 324/7/4 325/7/4 333/7/4
f 332/9/4 324/9/4 333/9/4
f 333/7/4 325/7/4 334/7/4
f 326/7/4 327/7/4 335/7/4
f 335/7/4 327/7/4 336/7/4
f 333/7/4 334/7/4 337/7/4
f 337/7/4 334/7/4 338/7/4
f 339/7/4 340/7/4 341/7/4
f 341/7/4 340/7/4 342/7/4
f 347/7/5 344/7/5 343/7/5
f 348/7/5 344/7/5 347/7/5
f 349/7/5 346/7/5 345/7/5
f 350/7/5 346/7/5 349/7/5
f 355/4/5 352/4/5 351/4/5
f 356/4/5 352/4/5 355/4/5
f 357/4/5 354/4/5 353/4/5
f 358/4/5 354/4/5 357/4/5
f 360/6/5 357/6/5 356/6/5
f 361/6/5 357/6/5 360/6/5
f 363/4/5 360/4/5 359/4/5
f 363/4/5 362/4/5 361/4/5
f 363/4/5 361/4/5 360/4/5
f 364/4/5 362/4/5 363/4/5
f 369/3/5 366/3/5 365/3/5
f 370/3/5 366/3/5 369/3/5
f 371/8/5 368/8/5 367/8/5
f 372/8/5 368/8/5 371/8/5
f 375/1/5 374/1/5 373/1/5
f 376/1/5 374/1/5 375/1/5
f 379/4/5 378/4/5 377/4/5
f 380/4/5 378/4/5 379/4/5
f 381/5/5 380/5/5 379/5/5
f 382/5/5 380/5/5 381/5/5
f 385/8/5 384/8/5 383/8/5
f 386/8/5 384/8/5 385/8/5
f 391/4/5 388/4/5 387/4/5
f 392/4/5 388/4/5 391/4/5
f 393/4/5 390/4/5 389/4/5
f 394/4/5 390/4/5 393/4/5
f 397/9/5 396/9/5 395/9/5
f 398/9/5 396/9/5 397/9/5
f 403/9/5 400/9/5 399/9/5
f 404/9/5 400/9/5 403/9/5
f 405/9/5 402/9/5 401/9/5
f 406/9/5 402/9/5 405/9/5
f 411/7/5 408/7/5 407/7/5
f 412/7/5 410/7/5 409/7/5
f 413/7/5 411/7/5 407/7/5
f 414/7/5 411/7/5 413/7/5
f 415/7/5 410/7/5 412/7/5
f 416/7/5 410/7/5 415/7/5
f 419/7/5 418/7/5 417/7/5
f 420/7/5 418/7/5 419/7/5
f 421/7/5 418/7/5 420/7/5
f 422/7/5 418/7/5 421/7/5
f 427/7/5 424/7/5 423/7/5
f 427/7/5 426/7/5 425/7/5
f 427/7/5 425/7/5 424/7/5
f 428/7/5 426/7/5 427/7/5
f 429/4/6 430/4/6 431/4/6
f 431/4/6 430/4/6 432/4/6
f 431/5/6 432/5/6 435/5/6
f 435/5/6 432/5/6 436/5/6
f 433/5/6 434/5/6 437/5/6
f 437/5/6 434/5/6 438/5/6
f 439/8/6 440/8/6 441/8/6
f 441/8/6 440/8/6 442/8/6
f 443/4/6 444/4/6 448/4/6
f 448/4/6 444/4/6 449/4/6
f 445/4/6 446/4/6 450/4/6
f 450/4/6 446/4/6 451/4/6
f 447/4/6 448/4/6 453/4/6
f 453/4/6 448/4/6 454/4/6
f 451/4/6 452/4/6 457/4/6
f 457/4/6 452/4/6 458/4/6
f 455/4/6 456/4/6 459/4/6
f 456/4/6 457/4/6 459/4/6
f 454/4/6 455/4/6 459/4/6
f 459/4/6 457/4/6 460/4/6
f 461/2/6 462/2/6 463/2/6
f 463/2/6 462/2/6 464/2/6
f 465/9/6 466/9/6 467/9/6
f 467/9/6 466/9/6 468/9/6
f 469/7/6 470/7/6 473/7/6
f 473/7/6 470/7/6 474/7/6
f 471/7/6 472/7/6 475/7/6
f 475/7/6 472/7/6 476/7/6
f 477/7/6 478/7/6 480/7/6
f 480/7/6 478/7/6 481/7/6
f 479/7/6 480/7/6 483/7/6
f 481/7/6 482/7/6 483/7/6
f 480/7/6 481/7/6 483/7/6
f 483/7/6 482/7/6 484/7/6
f 485/7/6 486/7/6 489/7/6
f 489/7/6 486/7/6 490/7/6
f 487/7/6 488/7/6 491/7/6
f 491/7/6 488/7/6 492/7/6
