# MagicaVoxel @ ephtracy

# material
mtllib scummBarPirate04_body.mtl
usemtl palette

# normals
vn -1 0 0
vn 1 0 0
vn 0 0 1
vn 0 0 -1
vn 0 -1 0
vn 0 1 0

# texcoords
vt 0.908203 0.5
vt 0.939453 0.5
vt 0.943359 0.5
vt 0.947266 0.5
vt 0.970703 0.5

# verts
v -4 5 -1
v -4 5 -2
v -4 6 -1
v -4 6 -2
v -4 8 -1
v -4 8 -2
v -3 8 -1
v -3 8 -2
v -3 9 -1
v -3 9 -2
v -2 0 -1
v -2 0 -2
v -2 1 -1
v -2 1 -2
v -2 5 -0
v -2 5 -1
v -2 5 -2
v -2 5 -3
v -2 8 -1
v -2 8 -2
v -2 9 -0
v -2 9 -1
v -2 9 -2
v -2 9 -3
v 1 0 -1
v 1 0 -2
v 1 1 -1
v 1 1 -2
v 1 4 -1
v 1 4 -2
v 2 5 3
v 2 5 1
v 2 7 3
v 2 7 1
v 3 6 1
v 3 6 -0
v 3 6 -1
v 3 7 1
v 3 7 -0
v 3 7 -1
v 3 7 -2
v 3 8 -1
v 3 8 -2
v -3 5 -1
v -3 5 -2
v -3 6 -1
v -3 6 -2
v -3 8 -1
v -3 8 -2
v -1 0 -1
v -1 0 -2
v -1 1 -1
v -1 1 -2
v -1 4 -1
v -1 4 -2
v 2 0 -1
v 2 0 -2
v 2 1 -1
v 2 1 -2
v 2 5 -0
v 2 5 -1
v 2 5 -2
v 2 5 -3
v 2 8 -1
v 2 8 -2
v 2 9 -0
v 2 9 -1
v 2 9 -2
v 2 9 -3
v 3 8 -1
v 3 8 -2
v 3 9 -1
v 3 9 -2
v 4 5 3
v 4 5 1
v 4 6 1
v 4 6 -0
v 4 6 -1
v 4 7 3
v 4 7 1
v 4 7 -0
v 4 7 -1
v 4 7 -2
v 4 8 -1
v 4 8 -2
v 2 5 3
v 2 7 3
v 4 5 3
v 4 7 3
v -2 5 -0
v -2 9 -0
v 2 5 -0
v 2 9 -0
v -4 5 -1
v -4 6 -1
v -4 8 -1
v -3 5 -1
v -3 6 -1
v -3 8 -1
v -3 9 -1
v -2 0 -1
v -2 1 -1
v -2 5 -1
v -2 8 -1
v -2 9 -1
v -1 0 -1
v -1 1 -1
v -1 4 -1
v 1 0 -1
v 1 1 -1
v 1 4 -1
v 2 0 -1
v 2 1 -1
v 2 5 -1
v 2 8 -1
v 2 9 -1
v 3 7 -1
v 3 8 -1
v 3 9 -1
v 4 7 -1
v 4 8 -1
v 2 5 1
v 2 7 1
v 3 6 1
v 3 7 1
v 4 5 1
v 4 6 1
v 3 6 -1
v 3 7 -1
v 4 6 -1
v 4 7 -1
v -4 5 -2
v -4 6 -2
v -4 8 -2
v -3 5 -2
v -3 6 -2
v -3 8 -2
v -3 9 -2
v -2 0 -2
v -2 1 -2
v -2 5 -2
v -2 8 -2
v -2 9 -2
v -1 0 -2
v -1 1 -2
v -1 4 -2
v 1 0 -2
v 1 1 -2
v 1 4 -2
v 2 0 -2
v 2 1 -2
v 2 5 -2
v 2 8 -2
v 2 9 -2
v 3 7 -2
v 3 8 -2
v 3 9 -2
v 4 7 -2
v 4 8 -2
v -2 5 -3
v -2 9 -3
v 2 5 -3
v 2 9 -3
v -2 0 -1
v -1 0 -1
v 1 0 -1
v 2 0 -1
v -2 0 -2
v -1 0 -2
v 1 0 -2
v 2 0 -2
v -1 4 -1
v 1 4 -1
v -1 4 -2
v 1 4 -2
v 2 5 3
v 4 5 3
v 2 5 1
v 4 5 1
v -2 5 -0
v 2 5 -0
v -4 5 -1
v -3 5 -1
v -2 5 -1
v 2 5 -1
v -4 5 -2
v -3 5 -2
v -2 5 -2
v 2 5 -2
v -2 5 -3
v 2 5 -3
v 3 6 1
v 4 6 1
v 3 6 -0
v 4 6 -0
v 3 6 -1
v 4 6 -1
v 3 7 -1
v 4 7 -1
v 3 7 -2
v 4 7 -2
v -3 8 -1
v -2 8 -1
v 2 8 -1
v 3 8 -1
v -3 8 -2
v -2 8 -2
v 2 8 -2
v 3 8 -2
v 2 7 3
v 4 7 3
v 2 7 1
v 3 7 1
v 4 7 1
v 3 7 -0
v 4 7 -0
v 3 7 -1
v 4 7 -1
v -4 8 -1
v -3 8 -1
v 3 8 -1
v 4 8 -1
v -4 8 -2
v -3 8 -2
v 3 8 -2
v 4 8 -2
v -2 9 -0
v 2 9 -0
v -3 9 -1
v -2 9 -1
v 2 9 -1
v 3 9 -1
v -3 9 -2
v -2 9 -2
v 2 9 -2
v 3 9 -2
v -2 9 -3
v 2 9 -3

# faces
f 3/5/1 2/5/1 1/5/1
f 4/5/1 2/5/1 3/5/1
f 5/2/1 4/2/1 3/2/1
f 6/2/1 4/2/1 5/2/1
f 9/2/1 8/2/1 7/2/1
f 10/2/1 8/2/1 9/2/1
f 13/4/1 12/4/1 11/4/1
f 14/4/1 12/4/1 13/4/1
f 16/3/1 14/3/1 13/3/1
f 17/3/1 14/3/1 16/3/1
f 19/2/1 17/2/1 16/2/1
f 19/2/1 18/2/1 17/2/1
f 19/2/1 16/2/1 15/2/1
f 20/2/1 18/2/1 19/2/1
f 21/2/1 19/2/1 15/2/1
f 22/2/1 19/2/1 21/2/1
f 23/2/1 18/2/1 20/2/1
f 24/2/1 18/2/1 23/2/1
f 27/4/1 26/4/1 25/4/1
f 28/4/1 26/4/1 27/4/1
f 29/3/1 28/3/1 27/3/1
f 30/3/1 28/3/1 29/3/1
f 33/1/1 32/1/1 31/1/1
f 34/1/1 32/1/1 33/1/1
f 38/5/1 36/5/1 35/5/1
f 39/2/1 37/2/1 36/2/1
f 39/5/1 36/5/1 38/5/1
f 40/2/1 37/2/1 39/2/1
f 42/2/1 41/2/1 40/2/1
f 43/2/1 41/2/1 42/2/1
f 44/5/2 45/5/2 46/5/2
f 46/5/2 45/5/2 47/5/2
f 46/2/2 47/2/2 48/2/2
f 48/2/2 47/2/2 49/2/2
f 50/4/2 51/4/2 52/4/2
f 52/4/2 51/4/2 53/4/2
f 52/3/2 53/3/2 54/3/2
f 54/3/2 53/3/2 55/3/2
f 56/4/2 57/4/2 58/4/2
f 58/4/2 57/4/2 59/4/2
f 58/3/2 59/3/2 61/3/2
f 61/3/2 59/3/2 62/3/2
f 61/2/2 62/2/2 64/2/2
f 62/2/2 63/2/2 64/2/2
f 60/2/2 61/2/2 64/2/2
f 64/2/2 63/2/2 65/2/2
f 60/2/2 64/2/2 66/2/2
f 66/2/2 64/2/2 67/2/2
f 65/2/2 63/2/2 68/2/2
f 68/2/2 63/2/2 69/2/2
f 70/2/2 71/2/2 72/2/2
f 72/2/2 71/2/2 73/2/2
f 74/1/2 75/1/2 76/1/2
f 74/1/2 76/1/2 79/1/2
f 76/5/2 77/5/2 80/5/2
f 79/1/2 76/1/2 80/1/2
f 77/2/2 78/2/2 81/2/2
f 80/5/2 77/5/2 81/5/2
f 81/2/2 78/2/2 82/2/2
f 82/2/2 83/2/2 84/2/2
f 84/2/2 83/2/2 85/2/2
f 88/1/3 87/1/3 86/1/3
f 89/1/3 87/1/3 88/1/3
f 92/2/3 91/2/3 90/2/3
f 93/2/3 91/2/3 92/2/3
f 97/5/3 95/5/3 94/5/3
f 98/2/3 96/2/3 95/2/3
f 98/5/3 95/5/3 97/5/3
f 99/2/3 96/2/3 98/2/3
f 104/2/3 100/2/3 99/2/3
f 105/2/3 100/2/3 104/2/3
f 106/4/3 102/4/3 101/4/3
f 107/3/3 103/3/3 102/3/3
f 107/4/3 102/4/3 106/4/3
f 108/3/3 103/3/3 107/3/3
f 111/3/3 103/3/3 108/3/3
f 112/4/3 110/4/3 109/4/3
f 113/3/3 111/3/3 110/3/3
f 113/4/3 110/4/3 112/4/3
f 114/3/3 103/3/3 111/3/3
f 114/3/3 111/3/3 113/3/3
f 118/2/3 116/2/3 115/2/3
f 119/2/3 116/2/3 118/2/3
f 120/2/3 118/2/3 117/2/3
f 121/2/3 118/2/3 120/2/3
f 122/1/4 123/1/4 124/1/4
f 124/1/4 123/1/4 125/1/4
f 122/1/4 124/1/4 126/1/4
f 126/1/4 124/1/4 127/1/4
f 128/2/4 129/2/4 130/2/4
f 130/2/4 129/2/4 131/2/4
f 132/5/4 133/5/4 135/5/4
f 133/2/4 134/2/4 136/2/4
f 135/5/4 133/5/4 136/5/4
f 136/2/4 134/2/4 137/2/4
f 137/2/4 138/2/4 142/2/4
f 142/2/4 138/2/4 143/2/4
f 139/4/4 140/4/4 144/4/4
f 140/3/4 141/3/4 145/3/4
f 144/4/4 140/4/4 145/4/4
f 145/3/4 141/3/4 146/3/4
f 146/3/4 141/3/4 149/3/4
f 147/4/4 148/4/4 150/4/4
f 148/3/4 149/3/4 151/3/4
f 150/4/4 148/4/4 151/4/4
f 149/3/4 141/3/4 152/3/4
f 151/3/4 149/3/4 152/3/4
f 153/2/4 154/2/4 156/2/4
f 156/2/4 154/2/4 157/2/4
f 155/2/4 156/2/4 158/2/4
f 158/2/4 156/2/4 159/2/4
f 160/2/4 161/2/4 162/2/4
f 162/2/4 161/2/4 163/2/4
f 168/4/5 165/4/5 164/4/5
f 169/4/5 165/4/5 168/4/5
f 170/4/5 167/4/5 166/4/5
f 171/4/5 167/4/5 170/4/5
f 174/3/5 173/3/5 172/3/5
f 175/3/5 173/3/5 174/3/5
f 178/1/5 177/1/5 176/1/5
f 179/1/5 177/1/5 178/1/5
f 184/2/5 181/2/5 180/2/5
f 185/2/5 181/2/5 184/2/5
f 186/5/5 183/5/5 182/5/5
f 187/5/5 183/5/5 186/5/5
f 190/2/5 189/2/5 188/2/5
f 191/2/5 189/2/5 190/2/5
f 194/5/5 193/5/5 192/5/5
f 195/5/5 193/5/5 194/5/5
f 196/2/5 195/2/5 194/2/5
f 197/2/5 195/2/5 196/2/5
f 200/2/5 199/2/5 198/2/5
f 201/2/5 199/2/5 200/2/5
f 206/2/5 203/2/5 202/2/5
f 207/2/5 203/2/5 206/2/5
f 208/2/5 205/2/5 204/2/5
f 209/2/5 205/2/5 208/2/5
f 210/1/6 211/1/6 212/1/6
f 212/1/6 211/1/6 213/1/6
f 213/1/6 211/1/6 214/1/6
f 213/5/6 214/5/6 215/5/6
f 215/5/6 214/5/6 216/5/6
f 215/2/6 216/2/6 217/2/6
f 217/2/6 216/2/6 218/2/6
f 219/2/6 220/2/6 223/2/6
f 223/2/6 220/2/6 224/2/6
f 221/2/6 222/2/6 225/2/6
f 225/2/6 222/2/6 226/2/6
f 227/2/6 228/2/6 230/2/6
f 230/2/6 228/2/6 231/2/6
f 229/2/6 230/2/6 233/2/6
f 231/2/6 232/2/6 233/2/6
f 230/2/6 231/2/6 233/2/6
f 233/2/6 232/2/6 234/2/6
f 234/2/6 232/2/6 235/2/6
f 235/2/6 232/2/6 236/2/6
f 234/2/6 235/2/6 237/2/6
f 237/2/6 235/2/6 238/2/6
