# MagicaVoxel @ ephtracy

# material
mtllib scummBarDog_wBone_head.mtl
usemtl palette

# normals
vn -1 0 0
vn 1 0 0
vn 0 0 1
vn 0 0 -1
vn 0 -1 0
vn 0 1 0

# texcoords
vt 0.908203 0.5
vt 0.939453 0.5
vt 0.970703 0.5
vt 0.974609 0.5

# verts
v -3.5 0 1.5
v -3.5 0 0.5
v -3.5 1 1.5
v -3.5 1 0.5
v -3.5 2 1.5
v -3.5 2 0.5
v -3.5 3 1.5
v -3.5 3 0.5
v -2.5 1 1.5
v -2.5 1 0.5
v -2.5 2 1.5
v -2.5 2 0.5
v -2.5 2 -0.5
v -2.5 3 0.5
v -2.5 5 0.5
v -2.5 5 -0.5
v -1.5 2 1.5
v -1.5 2 0.5
v -1.5 2 -0.5
v -1.5 2 -1.5
v -1.5 3 1.5
v -1.5 3 0.5
v -1.5 5 -0.5
v -1.5 5 -1.5
v -0.5 3 1.5
v -0.5 3 0.5
v -0.5 4 1.5
v -0.5 4 0.5
v 2.5 0 1.5
v 2.5 0 0.5
v 2.5 1 1.5
v 2.5 1 0.5
v 2.5 2 1.5
v 2.5 2 0.5
v 2.5 3 1.5
v 2.5 3 0.5
v -2.5 0 1.5
v -2.5 0 0.5
v -2.5 1 1.5
v -2.5 1 0.5
v -2.5 2 1.5
v -2.5 2 0.5
v -2.5 3 1.5
v -2.5 3 0.5
v 0.5 3 1.5
v 0.5 3 0.5
v 0.5 4 1.5
v 0.5 4 0.5
v 1.5 2 1.5
v 1.5 2 0.5
v 1.5 2 -0.5
v 1.5 2 -1.5
v 1.5 3 1.5
v 1.5 3 0.5
v 1.5 5 -0.5
v 1.5 5 -1.5
v 2.5 1 1.5
v 2.5 1 0.5
v 2.5 2 1.5
v 2.5 2 0.5
v 2.5 2 -0.5
v 2.5 3 0.5
v 2.5 5 0.5
v 2.5 5 -0.5
v 3.5 0 1.5
v 3.5 0 0.5
v 3.5 1 1.5
v 3.5 1 0.5
v 3.5 2 1.5
v 3.5 2 0.5
v 3.5 3 1.5
v 3.5 3 0.5
v -3.5 0 1.5
v -3.5 1 1.5
v -3.5 2 1.5
v -3.5 3 1.5
v -2.5 0 1.5
v -2.5 1 1.5
v -2.5 2 1.5
v -2.5 3 1.5
v -1.5 2 1.5
v -1.5 3 1.5
v -0.5 3 1.5
v -0.5 4 1.5
v 0.5 3 1.5
v 0.5 4 1.5
v 1.5 2 1.5
v 1.5 3 1.5
v 2.5 0 1.5
v 2.5 1 1.5
v 2.5 2 1.5
v 2.5 3 1.5
v 3.5 0 1.5
v 3.5 1 1.5
v 3.5 2 1.5
v 3.5 3 1.5
v -2.5 2 0.5
v -2.5 3 0.5
v -2.5 5 0.5
v -1.5 2 0.5
v -1.5 3 0.5
v -1.5 4 0.5
v -1.5 5 0.5
v -0.5 3 0.5
v -0.5 4 0.5
v 0.5 3 0.5
v 0.5 4 0.5
v 1.5 2 0.5
v 1.5 3 0.5
v 1.5 4 0.5
v 1.5 5 0.5
v 2.5 2 0.5
v 2.5 3 0.5
v 2.5 5 0.5
v -3.5 0 0.5
v -3.5 1 0.5
v -3.5 2 0.5
v -3.5 3 0.5
v -2.5 0 0.5
v -2.5 1 0.5
v -2.5 2 0.5
v -2.5 3 0.5
v -1.5 2 0.5
v 1.5 2 0.5
v 2.5 0 0.5
v 2.5 1 0.5
v 2.5 2 0.5
v 2.5 3 0.5
v 3.5 0 0.5
v 3.5 1 0.5
v 3.5 2 0.5
v 3.5 3 0.5
v -2.5 2 -0.5
v -2.5 5 -0.5
v -1.5 2 -0.5
v -1.5 5 -0.5
v 1.5 2 -0.5
v 1.5 5 -0.5
v 2.5 2 -0.5
v 2.5 5 -0.5
v -1.5 2 -1.5
v -1.5 5 -1.5
v 1.5 2 -1.5
v 1.5 5 -1.5
v -3.5 0 1.5
v -2.5 0 1.5
v 2.5 0 1.5
v 3.5 0 1.5
v -3.5 0 0.5
v -2.5 0 0.5
v 2.5 0 0.5
v 3.5 0 0.5
v -2.5 1 1.5
v 2.5 1 1.5
v -2.5 1 0.5
v 2.5 1 0.5
v -3.5 2 1.5
v -2.5 2 1.5
v 2.5 2 1.5
v 3.5 2 1.5
v -3.5 2 0.5
v -2.5 2 0.5
v -1.5 2 0.5
v 1.5 2 0.5
v 2.5 2 0.5
v 3.5 2 0.5
v -2.5 2 -0.5
v -1.5 2 -0.5
v 1.5 2 -0.5
v 2.5 2 -0.5
v -1.5 2 -1.5
v 1.5 2 -1.5
v -3.5 1 1.5
v -2.5 1 1.5
v 2.5 1 1.5
v 3.5 1 1.5
v -3.5 1 0.5
v -2.5 1 0.5
v 2.5 1 0.5
v 3.5 1 0.5
v -2.5 2 1.5
v -1.5 2 1.5
v 1.5 2 1.5
v 2.5 2 1.5
v -2.5 2 0.5
v -1.5 2 0.5
v 1.5 2 0.5
v 2.5 2 0.5
v -3.5 3 1.5
v -2.5 3 1.5
v -1.5 3 1.5
v -0.5 3 1.5
v 0.5 3 1.5
v 1.5 3 1.5
v 2.5 3 1.5
v 3.5 3 1.5
v -3.5 3 0.5
v -2.5 3 0.5
v -1.5 3 0.5
v -0.5 3 0.5
v 0.5 3 0.5
v 1.5 3 0.5
v 2.5 3 0.5
v 3.5 3 0.5
v -0.5 4 1.5
v 0.5 4 1.5
v -0.5 4 0.5
v 0.5 4 0.5
v -2.5 5 0.5
v -1.5 5 0.5
v 1.5 5 0.5
v 2.5 5 0.5
v -2.5 5 -0.5
v -1.5 5 -0.5
v 1.5 5 -0.5
v 2.5 5 -0.5
v -1.5 5 -1.5
v 1.5 5 -1.5

# faces
f 3/1/1 2/1/1 1/1/1
f 4/1/1 2/1/1 3/1/1
f 7/1/1 6/1/1 5/1/1
f 8/1/1 6/1/1 7/1/1
f 11/1/1 10/1/1 9/1/1
f 12/1/1 10/1/1 11/1/1
f 14/2/1 13/2/1 12/2/1
f 15/2/1 13/2/1 14/2/1
f 16/2/1 13/2/1 15/2/1
f 21/3/1 18/3/1 17/3/1
f 22/3/1 18/3/1 21/3/1
f 23/3/1 20/3/1 19/3/1
f 24/3/1 20/3/1 23/3/1
f 27/2/1 26/2/1 25/2/1
f 28/2/1 26/2/1 27/2/1
f 31/1/1 30/1/1 29/1/1
f 32/1/1 30/1/1 31/1/1
f 35/1/1 34/1/1 33/1/1
f 36/1/1 34/1/1 35/1/1
f 37/1/2 38/1/2 39/1/2
f 39/1/2 38/1/2 40/1/2
f 41/1/2 42/1/2 43/1/2
f 43/1/2 42/1/2 44/1/2
f 45/2/2 46/2/2 47/2/2
f 47/2/2 46/2/2 48/2/2
f 49/3/2 50/3/2 53/3/2
f 53/3/2 50/3/2 54/3/2
f 51/3/2 52/3/2 55/3/2
f 55/3/2 52/3/2 56/3/2
f 57/1/2 58/1/2 59/1/2
f 59/1/2 58/1/2 60/1/2
f 60/2/2 61/2/2 62/2/2
f 62/2/2 61/2/2 63/2/2
f 63/2/2 61/2/2 64/2/2
f 65/1/2 66/1/2 67/1/2
f 67/1/2 66/1/2 68/1/2
f 69/1/2 70/1/2 71/1/2
f 71/1/2 70/1/2 72/1/2
f 77/1/3 74/1/3 73/1/3
f 78/1/3 74/1/3 77/1/3
f 79/1/3 76/1/3 75/1/3
f 80/1/3 76/1/3 79/1/3
f 81/1/3 79/1/3 78/1/3
f 83/3/3 82/3/3 81/3/3
f 85/3/3 83/3/3 81/3/3
f 85/2/3 84/2/3 83/2/3
f 86/2/3 84/2/3 85/2/3
f 87/1/3 81/1/3 78/1/3
f 87/3/3 85/3/3 81/3/3
f 88/3/3 85/3/3 87/3/3
f 90/1/3 87/1/3 78/1/3
f 91/1/3 87/1/3 90/1/3
f 93/1/3 90/1/3 89/1/3
f 94/1/3 90/1/3 93/1/3
f 95/1/3 92/1/3 91/1/3
f 96/1/3 92/1/3 95/1/3
f 100/2/3 98/2/3 97/2/3
f 100/2/3 99/2/3 98/2/3
f 101/2/3 99/2/3 100/2/3
f 102/2/3 99/2/3 101/2/3
f 103/2/3 99/2/3 102/2/3
f 104/3/3 102/3/3 101/3/3
f 105/4/3 103/4/3 102/4/3
f 105/3/3 102/3/3 104/3/3
f 107/4/3 103/4/3 105/4/3
f 109/3/3 107/3/3 106/3/3
f 110/4/3 103/4/3 107/4/3
f 110/3/3 107/3/3 109/3/3
f 111/4/3 103/4/3 110/4/3
f 112/2/3 109/2/3 108/2/3
f 112/2/3 110/2/3 109/2/3
f 112/2/3 111/2/3 110/2/3
f 113/2/3 111/2/3 112/2/3
f 114/2/3 111/2/3 113/2/3
f 115/1/4 116/1/4 119/1/4
f 119/1/4 116/1/4 120/1/4
f 117/1/4 118/1/4 121/1/4
f 121/1/4 118/1/4 122/1/4
f 120/1/4 121/1/4 123/1/4
f 120/1/4 123/1/4 124/1/4
f 120/1/4 124/1/4 126/1/4
f 126/1/4 124/1/4 127/1/4
f 125/1/4 126/1/4 129/1/4
f 129/1/4 126/1/4 130/1/4
f 127/1/4 128/1/4 131/1/4
f 131/1/4 128/1/4 132/1/4
f 133/2/4 134/2/4 135/2/4
f 135/2/4 134/2/4 136/2/4
f 137/2/4 138/2/4 139/2/4
f 139/2/4 138/2/4 140/2/4
f 141/3/4 142/3/4 143/3/4
f 143/3/4 142/3/4 144/3/4
f 149/1/5 146/1/5 145/1/5
f 150/1/5 146/1/5 149/1/5
f 151/1/5 148/1/5 147/1/5
f 152/1/5 148/1/5 151/1/5
f 155/1/5 154/1/5 153/1/5
f 156/1/5 154/1/5 155/1/5
f 161/1/5 158/1/5 157/1/5
f 162/1/5 158/1/5 161/1/5
f 165/1/5 160/1/5 159/1/5
f 166/1/5 160/1/5 165/1/5
f 167/2/5 163/2/5 162/2/5
f 168/3/5 164/3/5 163/3/5
f 168/2/5 163/2/5 167/2/5
f 169/2/5 165/2/5 164/2/5
f 169/3/5 164/3/5 168/3/5
f 170/2/5 165/2/5 169/2/5
f 171/3/5 169/3/5 168/3/5
f 172/3/5 169/3/5 171/3/5
f 173/1/6 174/1/6 177/1/6
f 177/1/6 174/1/6 178/1/6
f 175/1/6 176/1/6 179/1/6
f 179/1/6 176/1/6 180/1/6
f 181/1/6 182/1/6 185/1/6
f 185/1/6 182/1/6 186/1/6
f 183/1/6 184/1/6 187/1/6
f 187/1/6 184/1/6 188/1/6
f 189/1/6 190/1/6 197/1/6
f 197/1/6 190/1/6 198/1/6
f 191/3/6 192/3/6 199/3/6
f 199/3/6 192/3/6 200/3/6
f 193/3/6 194/3/6 201/3/6
f 201/3/6 194/3/6 202/3/6
f 195/1/6 196/1/6 203/1/6
f 203/1/6 196/1/6 204/1/6
f 205/2/6 206/2/6 207/2/6
f 207/2/6 206/2/6 208/2/6
f 209/2/6 210/2/6 213/2/6
f 210/4/6 211/4/6 214/4/6
f 213/2/6 210/2/6 214/2/6
f 211/2/6 212/2/6 215/2/6
f 214/4/6 211/4/6 215/4/6
f 215/2/6 212/2/6 216/2/6
f 214/3/6 215/3/6 217/3/6
f 217/3/6 215/3/6 218/3/6
