# MagicaVoxel @ ephtracy

# material
mtllib scummBarLady01.mtl
usemtl palette

# normals
vn -1 0 0
vn 1 0 0
vn 0 0 1
vn 0 0 -1
vn 0 -1 0
vn 0 1 0

# texcoords
vt 0.939453 0.5
vt 0.943359 0.5
vt 0.947266 0.5
vt 0.951172 0.5
vt 0.955078 0.5
vt 0.970703 0.5

# verts
v -4 6 0.5
v -4 6 -0.5
v -4 8 0.5
v -4 8 -0.5
v -3 5 0.5
v -3 5 -0.5
v -3 6 0.5
v -3 6 -0.5
v -3 8 0.5
v -3 8 -0.5
v -3 9 0.5
v -3 9 -0.5
v -2 0 0.5
v -2 0 -0.5
v -2 1 0.5
v -2 1 -0.5
v -2 5 1.5
v -2 5 0.5
v -2 5 -0.5
v -2 5 -1.5
v -2 6 0.5
v -2 6 -0.5
v -2 6 -1.5
v -2 7 2.5
v -2 7 1.5
v -2 8 0.5
v -2 8 -0.5
v -2 8 -2.5
v -2 9 2.5
v -2 9 0.5
v -2 9 -0.5
v -2 9 -1.5
v -2 10 -1.5
v -2 10 -2.5
v -2 11 0.5
v -2 11 -0.5
v -2 11 -1.5
v -2 12 0.5
v -2 12 -0.5
v -2 12 -1.5
v -2 13 -0.5
v -2 13 -1.5
v -1 4 -0.5
v -1 4 -1.5
v -1 5 -0.5
v -1 5 -1.5
v -1 7 -0.5
v -1 7 -2.5
v -1 8 -0.5
v -1 8 -2.5
v -1 8 -3.5
v -1 9 0.5
v -1 9 -0.5
v -1 9 -1.5
v -1 10 -1.5
v -1 10 -2.5
v -1 10 -3.5
v -1 11 0.5
v -1 11 -0.5
v -1 11 -1.5
v -1 11 -2.5
v -1 12 0.5
v -1 12 -0.5
v -1 13 0.5
v -1 13 -0.5
v -1 13 -1.5
v -1 14 0.5
v -1 14 -1.5
v 1 0 0.5
v 1 0 -0.5
v 1 1 0.5
v 1 1 -0.5
v 1 4 0.5
v 1 4 -0.5
v 3 6 0.5
v 3 6 -0.5
v 3 8 0.5
v 3 8 -0.5
v -3 6 0.5
v -3 6 -0.5
v -3 8 0.5
v -3 8 -0.5
v -1 0 0.5
v -1 0 -0.5
v -1 1 0.5
v -1 1 -0.5
v -1 4 0.5
v -1 4 -0.5
v 1 4 -0.5
v 1 4 -1.5
v 1 5 -0.5
v 1 5 -1.5
v 1 7 -0.5
v 1 7 -2.5
v 1 8 -0.5
v 1 8 -2.5
v 1 8 -3.5
v 1 9 0.5
v 1 9 -0.5
v 1 9 -1.5
v 1 10 -1.5
v 1 10 -2.5
v 1 10 -3.5
v 1 11 0.5
v 1 11 -0.5
v 1 11 -1.5
v 1 11 -2.5
v 1 12 0.5
v 1 12 -0.5
v 1 13 0.5
v 1 13 -0.5
v 1 13 -1.5
v 1 14 0.5
v 1 14 -1.5
v 2 0 0.5
v 2 0 -0.5
v 2 1 0.5
v 2 1 -0.5
v 2 5 1.5
v 2 5 0.5
v 2 5 -0.5
v 2 5 -1.5
v 2 6 0.5
v 2 6 -0.5
v 2 6 -1.5
v 2 7 2.5
v 2 7 1.5
v 2 8 0.5
v 2 8 -0.5
v 2 8 -2.5
v 2 9 2.5
v 2 9 0.5
v 2 9 -0.5
v 2 9 -1.5
v 2 10 -1.5
v 2 10 -2.5
v 2 11 0.5
v 2 11 -0.5
v 2 11 -1.5
v 2 12 0.5
v 2 12 -0.5
v 2 12 -1.5
v 2 13 -0.5
v 2 13 -1.5
v 3 5 0.5
v 3 5 -0.5
v 3 6 0.5
v 3 6 -0.5
v 3 8 0.5
v 3 8 -0.5
v 3 9 0.5
v 3 9 -0.5
v 4 6 0.5
v 4 6 -0.5
v 4 8 0.5
v 4 8 -0.5
v -2 7 2.5
v -2 9 2.5
v -1 8 2.5
v -1 9 2.5
v 1 8 2.5
v 1 9 2.5
v 2 7 2.5
v 2 9 2.5
v -2 5 1.5
v -2 7 1.5
v 2 5 1.5
v 2 7 1.5
v -4 6 0.5
v -4 8 0.5
v -3 5 0.5
v -3 6 0.5
v -3 8 0.5
v -3 9 0.5
v -2 0 0.5
v -2 1 0.5
v -2 5 0.5
v -2 6 0.5
v -2 8 0.5
v -2 9 0.5
v -2 11 0.5
v -2 12 0.5
v -1 0 0.5
v -1 1 0.5
v -1 4 0.5
v -1 9 0.5
v -1 11 0.5
v -1 12 0.5
v -1 13 0.5
v -1 14 0.5
v 1 0 0.5
v 1 1 0.5
v 1 4 0.5
v 1 9 0.5
v 1 11 0.5
v 1 12 0.5
v 1 13 0.5
v 1 14 0.5
v 2 0 0.5
v 2 1 0.5
v 2 5 0.5
v 2 6 0.5
v 2 8 0.5
v 2 9 0.5
v 2 11 0.5
v 2 12 0.5
v 3 5 0.5
v 3 6 0.5
v 3 8 0.5
v 3 9 0.5
v 4 6 0.5
v 4 8 0.5
v -2 12 -0.5
v -2 13 -0.5
v -1 12 -0.5
v -1 13 -0.5
v 1 12 -0.5
v 1 13 -0.5
v 2 12 -0.5
v 2 13 -0.5
v -2 9 -1.5
v -2 10 -1.5
v -1 9 -1.5
v -1 10 -1.5
v 1 9 -1.5
v 1 10 -1.5
v 2 9 -1.5
v 2 10 -1.5
v -4 6 -0.5
v -4 8 -0.5
v -3 5 -0.5
v -3 6 -0.5
v -3 8 -0.5
v -3 9 -0.5
v -2 0 -0.5
v -2 1 -0.5
v -2 5 -0.5
v -2 6 -0.5
v -2 8 -0.5
v -2 9 -0.5
v -1 0 -0.5
v -1 1 -0.5
v -1 4 -0.5
v -1 5 -0.5
v -1 7 -0.5
v -1 8 -0.5
v 1 0 -0.5
v 1 1 -0.5
v 1 4 -0.5
v 1 5 -0.5
v 1 7 -0.5
v 1 8 -0.5
v 2 0 -0.5
v 2 1 -0.5
v 2 5 -0.5
v 2 6 -0.5
v 2 8 -0.5
v 2 9 -0.5
v 3 5 -0.5
v 3 6 -0.5
v 3 8 -0.5
v 3 9 -0.5
v 4 6 -0.5
v 4 8 -0.5
v -2 5 -1.5
v -2 6 -1.5
v -2 11 -1.5
v -2 12 -1.5
v -2 13 -1.5
v -1 4 -1.5
v -1 5 -1.5
v -1 11 -1.5
v -1 12 -1.5
v -1 13 -1.5
v -1 14 -1.5
v 1 4 -1.5
v 1 5 -1.5
v 1 11 -1.5
v 1 12 -1.5
v 1 13 -1.5
v 1 14 -1.5
v 2 5 -1.5
v 2 6 -1.5
v 2 11 -1.5
v 2 12 -1.5
v 2 13 -1.5
v -2 8 -2.5
v -2 10 -2.5
v -1 7 -2.5
v -1 8 -2.5
v -1 10 -2.5
v -1 11 -2.5
v 1 7 -2.5
v 1 8 -2.5
v 1 10 -2.5
v 1 11 -2.5
v 2 8 -2.5
v 2 10 -2.5
v -1 8 -3.5
v -1 10 -3.5
v 1 8 -3.5
v 1 10 -3.5
v -2 0 0.5
v -1 0 0.5
v 1 0 0.5
v 2 0 0.5
v -2 0 -0.5
v -1 0 -0.5
v 1 0 -0.5
v 2 0 -0.5
v -1 4 0.5
v 1 4 0.5
v -1 4 -0.5
v 1 4 -0.5
v -1 4 -1.5
v 1 4 -1.5
v -2 5 1.5
v 2 5 1.5
v -3 5 0.5
v -2 5 0.5
v 2 5 0.5
v 3 5 0.5
v -3 5 -0.5
v -2 5 -0.5
v -1 5 -0.5
v 1 5 -0.5
v 2 5 -0.5
v 3 5 -0.5
v -2 5 -1.5
v -1 5 -1.5
v 1 5 -1.5
v 2 5 -1.5
v -4 6 0.5
v -3 6 0.5
v 3 6 0.5
v 4 6 0.5
v -4 6 -0.5
v -3 6 -0.5
v 3 6 -0.5
v 4 6 -0.5
v -2 7 2.5
v 2 7 2.5
v -2 7 1.5
v 2 7 1.5
v -1 7 -0.5
v 1 7 -0.5
v -1 7 -2.5
v 1 7 -2.5
v -3 8 0.5
v -2 8 0.5
v 2 8 0.5
v 3 8 0.5
v -3 8 -0.5
v -2 8 -0.5
v -1 8 -0.5
v 1 8 -0.5
v 2 8 -0.5
v 3 8 -0.5
v -2 8 -2.5
v -1 8 -2.5
v 1 8 -2.5
v 2 8 -2.5
v -1 8 -3.5
v 1 8 -3.5
v -2 11 0.5
v -1 11 0.5
v 1 11 0.5
v 2 11 0.5
v -2 11 -0.5
v -1 11 -0.5
v 1 11 -0.5
v 2 11 -0.5
v -2 11 -1.5
v -1 11 -1.5
v 1 11 -1.5
v 2 11 -1.5
v -3 6 0.5
v -2 6 0.5
v 2 6 0.5
v 3 6 0.5
v -3 6 -0.5
v -2 6 -0.5
v 2 6 -0.5
v 3 6 -0.5
v -2 6 -1.5
v 2 6 -1.5
v -4 8 0.5
v -3 8 0.5
v 3 8 0.5
v 4 8 0.5
v -4 8 -0.5
v -3 8 -0.5
v 3 8 -0.5
v 4 8 -0.5
v -2 9 2.5
v -1 9 2.5
v 1 9 2.5
v 2 9 2.5
v -3 9 0.5
v -2 9 0.5
v -1 9 0.5
v 1 9 0.5
v 2 9 0.5
v 3 9 0.5
v -3 9 -0.5
v -2 9 -0.5
v -1 9 -0.5
v 1 9 -0.5
v 2 9 -0.5
v 3 9 -0.5
v -2 9 -1.5
v -1 9 -1.5
v 1 9 -1.5
v 2 9 -1.5
v -2 10 -1.5
v -1 10 -1.5
v 1 10 -1.5
v 2 10 -1.5
v -2 10 -2.5
v -1 10 -2.5
v 1 10 -2.5
v 2 10 -2.5
v -1 10 -3.5
v 1 10 -3.5
v -1 11 -1.5
v 1 11 -1.5
v -1 11 -2.5
v 1 11 -2.5
v -2 12 0.5
v -1 12 0.5
v 1 12 0.5
v 2 12 0.5
v -2 12 -0.5
v -1 12 -0.5
v 1 12 -0.5
v 2 12 -0.5
v -2 13 -0.5
v -1 13 -0.5
v 1 13 -0.5
v 2 13 -0.5
v -2 13 -1.5
v -1 13 -1.5
v 1 13 -1.5
v 2 13 -1.5
v -1 14 0.5
v 1 14 0.5
v -1 14 -1.5
v 1 14 -1.5

# faces
f 3/6/1 2/6/1 1/6/1
f 4/6/1 2/6/1 3/6/1
f 7/6/1 6/6/1 5/6/1
f 8/6/1 6/6/1 7/6/1
f 11/6/1 10/6/1 9/6/1
f 12/6/1 10/6/1 11/6/1
f 15/5/1 14/5/1 13/5/1
f 16/5/1 14/5/1 15/5/1
f 18/4/1 16/4/1 15/4/1
f 19/4/1 16/4/1 18/4/1
f 21/1/1 18/1/1 17/1/1
f 22/1/1 20/1/1 19/1/1
f 23/1/1 20/1/1 22/1/1
f 25/1/1 21/1/1 17/1/1
f 25/1/1 22/1/1 21/1/1
f 26/1/1 22/1/1 25/1/1
f 26/1/1 25/1/1 24/1/1
f 27/1/1 22/1/1 26/1/1
f 29/1/1 26/1/1 24/1/1
f 30/1/1 26/1/1 29/1/1
f 31/3/1 28/3/1 27/3/1
f 32/3/1 28/3/1 31/3/1
f 33/3/1 28/3/1 32/3/1
f 34/3/1 28/3/1 33/3/1
f 38/6/1 36/6/1 35/6/1
f 39/3/1 37/3/1 36/3/1
f 39/6/1 36/6/1 38/6/1
f 40/3/1 37/3/1 39/3/1
f 41/2/1 40/2/1 39/2/1
f 42/2/1 40/2/1 41/2/1
f 45/4/1 44/4/1 43/4/1
f 46/4/1 44/4/1 45/4/1
f 49/3/1 48/3/1 47/3/1
f 50/3/1 48/3/1 49/3/1
f 55/3/1 54/3/1 53/3/1
f 56/3/1 51/3/1 50/3/1
f 57/3/1 51/3/1 56/3/1
f 58/6/1 53/6/1 52/6/1
f 59/3/1 55/3/1 53/3/1
f 59/6/1 53/6/1 58/6/1
f 59/3/1 56/3/1 55/3/1
f 60/3/1 56/3/1 59/3/1
f 61/3/1 56/3/1 60/3/1
f 64/6/1 63/6/1 62/6/1
f 65/6/1 63/6/1 64/6/1
f 67/2/1 65/2/1 64/2/1
f 67/2/1 66/2/1 65/2/1
f 68/2/1 66/2/1 67/2/1
f 71/5/1 70/5/1 69/5/1
f 72/5/1 70/5/1 71/5/1
f 73/4/1 72/4/1 71/4/1
f 74/4/1 72/4/1 73/4/1
f 77/6/1 76/6/1 75/6/1
f 78/6/1 76/6/1 77/6/1
f 79/6/2 80/6/2 81/6/2
f 81/6/2 80/6/2 82/6/2
f 83/5/2 84/5/2 85/5/2
f 85/5/2 84/5/2 86/5/2
f 85/4/2 86/4/2 87/4/2
f 87/4/2 86/4/2 88/4/2
f 89/4/2 90/4/2 91/4/2
f 91/4/2 90/4/2 92/4/2
f 93/3/2 94/3/2 95/3/2
f 95/3/2 94/3/2 96/3/2
f 99/3/2 100/3/2 101/3/2
f 96/3/2 97/3/2 102/3/2
f 102/3/2 97/3/2 103/3/2
f 98/6/2 99/6/2 104/6/2
f 99/3/2 101/3/2 105/3/2
f 104/6/2 99/6/2 105/6/2
f 101/3/2 102/3/2 105/3/2
f 105/3/2 102/3/2 106/3/2
f 106/3/2 102/3/2 107/3/2
f 108/6/2 109/6/2 110/6/2
f 110/6/2 109/6/2 111/6/2
f 110/2/2 111/2/2 113/2/2
f 111/2/2 112/2/2 113/2/2
f 113/2/2 112/2/2 114/2/2
f 115/5/2 116/5/2 117/5/2
f 117/5/2 116/5/2 118/5/2
f 117/4/2 118/4/2 120/4/2
f 120/4/2 118/4/2 121/4/2
f 119/1/2 120/1/2 123/1/2
f 121/1/2 122/1/2 124/1/2
f 124/1/2 122/1/2 125/1/2
f 119/1/2 123/1/2 127/1/2
f 123/1/2 124/1/2 127/1/2
f 127/1/2 124/1/2 128/1/2
f 126/1/2 127/1/2 128/1/2
f 128/1/2 124/1/2 129/1/2
f 126/1/2 128/1/2 131/1/2
f 131/1/2 128/1/2 132/1/2
f 129/3/2 130/3/2 133/3/2
f 133/3/2 130/3/2 134/3/2
f 134/3/2 130/3/2 135/3/2
f 135/3/2 130/3/2 136/3/2
f 137/6/2 138/6/2 140/6/2
f 138/3/2 139/3/2 141/3/2
f 140/6/2 138/6/2 141/6/2
f 141/3/2 139/3/2 142/3/2
f 141/2/2 142/2/2 143/2/2
f 143/2/2 142/2/2 144/2/2
f 145/6/2 146/6/2 147/6/2
f 147/6/2 146/6/2 148/6/2
f 149/6/2 150/6/2 151/6/2
f 151/6/2 150/6/2 152/6/2
f 153/6/2 154/6/2 155/6/2
f 155/6/2 154/6/2 156/6/2
f 159/1/3 158/1/3 157/1/3
f 160/1/3 158/1/3 159/1/3
f 161/1/3 159/1/3 157/1/3
f 161/6/3 160/6/3 159/6/3
f 162/6/3 160/6/3 161/6/3
f 163/1/3 161/1/3 157/1/3
f 163/1/3 162/1/3 161/1/3
f 164/1/3 162/1/3 163/1/3
f 167/1/3 166/1/3 165/1/3
f 168/1/3 166/1/3 167/1/3
f 172/6/3 170/6/3 169/6/3
f 173/6/3 170/6/3 172/6/3
f 177/6/3 172/6/3 171/6/3
f 178/6/3 172/6/3 177/6/3
f 179/6/3 174/6/3 173/6/3
f 180/6/3 174/6/3 179/6/3
f 183/5/3 176/5/3 175/5/3
f 184/4/3 177/4/3 176/4/3
f 184/5/3 176/5/3 183/5/3
f 185/4/3 177/4/3 184/4/3
f 187/6/3 182/6/3 181/6/3
f 188/6/3 182/6/3 187/6/3
f 193/4/3 177/4/3 185/4/3
f 194/6/3 189/6/3 188/6/3
f 194/6/3 187/6/3 186/6/3
f 194/6/3 188/6/3 187/6/3
f 195/6/3 189/6/3 194/6/3
f 196/6/3 189/6/3 195/6/3
f 197/2/3 190/2/3 189/2/3
f 197/6/3 189/6/3 196/6/3
f 198/2/3 190/2/3 197/2/3
f 199/5/3 192/5/3 191/5/3
f 200/4/3 193/4/3 192/4/3
f 200/5/3 192/5/3 199/5/3
f 201/4/3 177/4/3 193/4/3
f 201/4/3 193/4/3 200/4/3
f 205/6/3 196/6/3 195/6/3
f 206/6/3 196/6/3 205/6/3
f 207/6/3 202/6/3 201/6/3
f 208/6/3 202/6/3 207/6/3
f 209/6/3 204/6/3 203/6/3
f 210/6/3 204/6/3 209/6/3
f 211/6/3 209/6/3 208/6/3
f 212/6/3 209/6/3 211/6/3
f 215/2/3 214/2/3 213/2/3
f 216/2/3 214/2/3 215/2/3
f 219/2/3 218/2/3 217/2/3
f 220/2/3 218/2/3 219/2/3
f 223/3/3 222/3/3 221/3/3
f 224/3/3 222/3/3 223/3/3
f 227/3/3 226/3/3 225/3/3
f 228/3/3 226/3/3 227/3/3
f 229/6/4 230/6/4 232/6/4
f 232/6/4 230/6/4 233/6/4
f 231/6/4 232/6/4 237/6/4
f 237/6/4 232/6/4 238/6/4
f 233/6/4 234/6/4 239/6/4
f 239/6/4 234/6/4 240/6/4
f 235/5/4 236/5/4 241/5/4
f 236/4/4 237/4/4 242/4/4
f 241/5/4 236/5/4 242/5/4
f 242/4/4 237/4/4 243/4/4
f 243/4/4 237/4/4 244/4/4
f 238/1/4 239/1/4 245/1/4
f 245/1/4 239/1/4 246/1/4
f 238/1/4 245/1/4 251/1/4
f 247/5/4 248/5/4 253/5/4
f 249/4/4 250/4/4 254/4/4
f 253/5/4 248/5/4 254/5/4
f 248/4/4 249/4/4 254/4/4
f 254/4/4 250/4/4 255/4/4
f 251/1/4 252/1/4 256/1/4
f 238/1/4 251/1/4 256/1/4
f 256/1/4 252/1/4 257/1/4
f 255/6/4 256/6/4 259/6/4
f 259/6/4 256/6/4 260/6/4
f 257/6/4 258/6/4 261/6/4
f 261/6/4 258/6/4 262/6/4
f 260/6/4 261/6/4 263/6/4
f 263/6/4 261/6/4 264/6/4
f 265/1/4 266/1/4 271/1/4
f 267/3/4 268/3/4 272/3/4
f 268/2/4 269/2/4 273/2/4
f 272/3/4 268/3/4 273/3/4
f 273/2/4 269/2/4 274/2/4
f 270/4/4 271/4/4 276/4/4
f 271/1/4 266/1/4 277/1/4
f 276/4/4 271/4/4 277/4/4
f 274/2/4 275/2/4 278/2/4
f 272/2/4 273/2/4 278/2/4
f 273/2/4 274/2/4 278/2/4
f 278/2/4 275/2/4 279/2/4
f 279/2/4 275/2/4 280/2/4
f 280/2/4 275/2/4 281/2/4
f 277/1/4 266/1/4 282/1/4
f 282/1/4 266/1/4 283/1/4
f 278/3/4 279/3/4 284/3/4
f 279/2/4 280/2/4 285/2/4
f 284/3/4 279/3/4 285/3/4
f 285/2/4 280/2/4 286/2/4
f 287/3/4 288/3/4 290/3/4
f 290/3/4 288/3/4 291/3/4
f 289/3/4 290/3/4 293/3/4
f 293/3/4 290/3/4 294/3/4
f 291/3/4 292/3/4 295/3/4
f 295/3/4 292/3/4 296/3/4
f 294/3/4 295/3/4 297/3/4
f 297/3/4 295/3/4 298/3/4
f 299/3/4 300/3/4 301/3/4
f 301/3/4 300/3/4 302/3/4
f 307/5/5 304/5/5 303/5/5
f 308/5/5 304/5/5 307/5/5
f 309/5/5 306/5/5 305/5/5
f 310/5/5 306/5/5 309/5/5
f 313/4/5 312/4/5 311/4/5
f 314/4/5 312/4/5 313/4/5
f 315/4/5 314/4/5 313/4/5
f 316/4/5 314/4/5 315/4/5
f 320/1/5 318/1/5 317/1/5
f 321/1/5 318/1/5 320/1/5
f 323/6/5 320/6/5 319/6/5
f 324/6/5 320/6/5 323/6/5
f 327/6/5 322/6/5 321/6/5
f 328/6/5 322/6/5 327/6/5
f 329/1/5 325/1/5 324/1/5
f 330/1/5 325/1/5 329/1/5
f 331/1/5 327/1/5 326/1/5
f 332/1/5 327/1/5 331/1/5
f 337/6/5 334/6/5 333/6/5
f 338/6/5 334/6/5 337/6/5
f 339/6/5 336/6/5 335/6/5
f 340/6/5 336/6/5 339/6/5
f 343/1/5 342/1/5 341/1/5
f 344/1/5 342/1/5 343/1/5
f 347/3/5 346/3/5 345/3/5
f 348/3/5 346/3/5 347/3/5
f 353/6/5 350/6/5 349/6/5
f 354/6/5 350/6/5 353/6/5
f 357/6/5 352/6/5 351/6/5
f 358/6/5 352/6/5 357/6/5
f 359/3/5 355/3/5 354/3/5
f 360/3/5 355/3/5 359/3/5
f 361/3/5 357/3/5 356/3/5
f 362/3/5 357/3/5 361/3/5
f 363/3/5 361/3/5 360/3/5
f 364/3/5 361/3/5 363/3/5
f 369/6/5 366/6/5 365/6/5
f 370/6/5 366/6/5 369/6/5
f 371/6/5 368/6/5 367/6/5
f 372/6/5 368/6/5 371/6/5
f 373/3/5 370/3/5 369/3/5
f 374/3/5 370/3/5 373/3/5
f 375/3/5 372/3/5 371/3/5
f 376/3/5 372/3/5 375/3/5
f 377/6/6 378/6/6 381/6/6
f 381/6/6 378/6/6 382/6/6
f 379/6/6 380/6/6 383/6/6
f 383/6/6 380/6/6 384/6/6
f 382/1/6 383/1/6 385/1/6
f 385/1/6 383/1/6 386/1/6
f 387/6/6 388/6/6 391/6/6
f 391/6/6 388/6/6 392/6/6
f 389/6/6 390/6/6 393/6/6
f 393/6/6 390/6/6 394/6/6
f 395/1/6 396/1/6 400/1/6
f 396/6/6 397/6/6 401/6/6
f 400/1/6 396/1/6 401/1/6
f 397/1/6 398/1/6 402/1/6
f 401/6/6 397/6/6 402/6/6
f 402/1/6 398/1/6 403/1/6
f 399/6/6 400/6/6 405/6/6
f 400/1/6 401/1/6 406/1/6
f 405/6/6 400/6/6 406/6/6
f 406/1/6 401/1/6 407/1/6
f 402/1/6 403/1/6 408/1/6
f 403/6/6 404/6/6 409/6/6
f 408/1/6 403/1/6 409/1/6
f 409/6/6 404/6/6 410/6/6
f 406/3/6 407/3/6 411/3/6
f 411/3/6 407/3/6 412/3/6
f 408/3/6 409/3/6 413/3/6
f 413/3/6 409/3/6 414/3/6
f 415/3/6 416/3/6 419/3/6
f 419/3/6 416/3/6 420/3/6
f 417/3/6 418/3/6 421/3/6
f 421/3/6 418/3/6 422/3/6
f 420/3/6 421/3/6 423/3/6
f 423/3/6 421/3/6 424/3/6
f 425/3/6 426/3/6 427/3/6
f 427/3/6 426/3/6 428/3/6
f 429/6/6 430/6/6 433/6/6
f 433/6/6 430/6/6 434/6/6
f 431/6/6 432/6/6 435/6/6
f 435/6/6 432/6/6 436/6/6
f 437/2/6 438/2/6 441/2/6
f 441/2/6 438/2/6 442/2/6
f 439/2/6 440/2/6 443/2/6
f 443/2/6 440/2/6 444/2/6
f 445/2/6 446/2/6 447/2/6
f 447/2/6 446/2/6 448/2/6
