# MagicaVoxel @ ephtracy

# material
mtllib scummBarDog_wBone.mtl
usemtl palette

# normals
vn -1 0 0
vn 1 0 0
vn 0 0 1
vn 0 0 -1
vn 0 -1 0
vn 0 1 0

# texcoords
vt 0.908203 0.5
vt 0.939453 0.5
vt 0.970703 0.5
vt 0.974609 0.5

# verts
v -3.5 2 4
v -3.5 2 3
v -3.5 3 4
v -3.5 3 3
v -3.5 4 4
v -3.5 4 3
v -3.5 5 4
v -3.5 5 3
v -2.5 0 -0
v -2.5 0 -1
v -2.5 0 -2
v -2.5 1 -0
v -2.5 1 -1
v -2.5 2 -1
v -2.5 2 -2
v -2.5 3 4
v -2.5 3 3
v -2.5 4 4
v -2.5 4 3
v -2.5 4 2
v -2.5 5 3
v -2.5 7 3
v -2.5 7 2
v -1.5 0 2
v -1.5 0 1
v -1.5 1 2
v -1.5 1 1
v -1.5 1 -0
v -1.5 1 -1
v -1.5 2 1
v -1.5 2 -0
v -1.5 2 -1
v -1.5 2 -2
v -1.5 3 2
v -1.5 3 1
v -1.5 3 -0
v -1.5 3 -2
v -1.5 4 4
v -1.5 4 3
v -1.5 4 2
v -1.5 4 1
v -1.5 4 -0
v -1.5 5 4
v -1.5 5 3
v -1.5 7 2
v -1.5 7 1
v -0.5 0 -3
v -0.5 0 -4
v -0.5 1 -2
v -0.5 1 -3
v -0.5 1 -4
v -0.5 2 -2
v -0.5 2 -3
v -0.5 3 2
v -0.5 3 1
v -0.5 3 -0
v -0.5 3 -1
v -0.5 4 2
v -0.5 4 1
v -0.5 4 -0
v -0.5 4 -1
v -0.5 5 4
v -0.5 5 3
v -0.5 6 4
v -0.5 6 3
v 0.5 0 2
v 0.5 0 1
v 0.5 1 2
v 0.5 1 1
v 0.5 2 2
v 0.5 2 1
v 1.5 0 -0
v 1.5 0 -1
v 1.5 0 -2
v 1.5 1 -0
v 1.5 1 -1
v 1.5 1 -2
v 2.5 2 4
v 2.5 2 3
v 2.5 3 4
v 2.5 3 3
v 2.5 4 4
v 2.5 4 3
v 2.5 5 4
v 2.5 5 3
v -2.5 2 4
v -2.5 2 3
v -2.5 3 4
v -2.5 3 3
v -2.5 4 4
v -2.5 4 3
v -2.5 5 4
v -2.5 5 3
v -1.5 0 -0
v -1.5 0 -1
v -1.5 0 -2
v -1.5 1 -0
v -1.5 1 -1
v -1.5 1 -2
v -0.5 0 2
v -0.5 0 1
v -0.5 1 2
v -0.5 1 1
v -0.5 2 2
v -0.5 2 1
v 0.5 0 -3
v 0.5 0 -4
v 0.5 1 -2
v 0.5 1 -3
v 0.5 1 -4
v 0.5 2 -2
v 0.5 2 -3
v 0.5 3 2
v 0.5 3 1
v 0.5 3 -0
v 0.5 3 -1
v 0.5 4 2
v 0.5 4 1
v 0.5 4 -0
v 0.5 4 -1
v 0.5 5 4
v 0.5 5 3
v 0.5 6 4
v 0.5 6 3
v 1.5 0 2
v 1.5 0 1
v 1.5 1 2
v 1.5 1 1
v 1.5 1 -0
v 1.5 1 -1
v 1.5 2 1
v 1.5 2 -0
v 1.5 2 -1
v 1.5 2 -2
v 1.5 3 2
v 1.5 3 1
v 1.5 3 -0
v 1.5 3 -2
v 1.5 4 4
v 1.5 4 3
v 1.5 4 2
v 1.5 4 1
v 1.5 4 -0
v 1.5 5 4
v 1.5 5 3
v 1.5 7 2
v 1.5 7 1
v 2.5 0 -0
v 2.5 0 -1
v 2.5 0 -2
v 2.5 1 -0
v 2.5 1 -1
v 2.5 2 -1
v 2.5 2 -2
v 2.5 3 4
v 2.5 3 3
v 2.5 4 4
v 2.5 4 3
v 2.5 4 2
v 2.5 5 3
v 2.5 7 3
v 2.5 7 2
v 3.5 2 4
v 3.5 2 3
v 3.5 3 4
v 3.5 3 3
v 3.5 4 4
v 3.5 4 3
v 3.5 5 4
v 3.5 5 3
v -3.5 2 4
v -3.5 3 4
v -3.5 4 4
v -3.5 5 4
v -2.5 2 4
v -2.5 3 4
v -2.5 4 4
v -2.5 5 4
v -1.5 4 4
v -1.5 5 4
v -0.5 5 4
v -0.5 6 4
v 0.5 5 4
v 0.5 6 4
v 1.5 4 4
v 1.5 5 4
v 2.5 2 4
v 2.5 3 4
v 2.5 4 4
v 2.5 5 4
v 3.5 2 4
v 3.5 3 4
v 3.5 4 4
v 3.5 5 4
v -2.5 4 3
v -2.5 5 3
v -2.5 7 3
v -1.5 4 3
v -1.5 5 3
v -1.5 6 3
v -1.5 7 3
v -0.5 5 3
v -0.5 6 3
v 0.5 5 3
v 0.5 6 3
v 1.5 4 3
v 1.5 5 3
v 1.5 6 3
v 1.5 7 3
v 2.5 4 3
v 2.5 5 3
v 2.5 7 3
v -1.5 0 2
v -1.5 1 2
v -1.5 3 2
v -0.5 0 2
v -0.5 1 2
v -0.5 2 2
v -0.5 3 2
v -0.5 4 2
v 0.5 0 2
v 0.5 1 2
v 0.5 2 2
v 0.5 3 2
v 0.5 4 2
v 1.5 0 2
v 1.5 1 2
v 1.5 3 2
v -1.5 3 1
v -1.5 4 1
v -0.5 3 1
v -0.5 4 1
v 0.5 3 1
v 0.5 4 1
v 1.5 3 1
v 1.5 4 1
v -2.5 0 -0
v -2.5 1 -0
v -1.5 0 -0
v -1.5 1 -0
v -1.5 2 -0
v 1.5 0 -0
v 1.5 1 -0
v 1.5 2 -0
v 2.5 0 -0
v 2.5 1 -0
v -2.5 1 -1
v -2.5 2 -1
v -1.5 1 -1
v -1.5 2 -1
v 1.5 1 -1
v 1.5 2 -1
v 2.5 1 -1
v 2.5 2 -1
v -0.5 0 -3
v -0.5 1 -3
v 0.5 0 -3
v 0.5 1 -3
v -3.5 2 3
v -3.5 3 3
v -3.5 4 3
v -3.5 5 3
v -2.5 2 3
v -2.5 3 3
v -2.5 4 3
v -2.5 5 3
v -1.5 4 3
v 1.5 4 3
v 2.5 2 3
v 2.5 3 3
v 2.5 4 3
v 2.5 5 3
v 3.5 2 3
v 3.5 3 3
v 3.5 4 3
v 3.5 5 3
v -2.5 4 2
v -2.5 7 2
v -1.5 4 2
v -1.5 7 2
v 1.5 4 2
v 1.5 7 2
v 2.5 4 2
v 2.5 7 2
v -1.5 0 1
v -1.5 1 1
v -1.5 2 1
v -1.5 4 1
v -1.5 7 1
v -0.5 0 1
v -0.5 1 1
v -0.5 2 1
v 0.5 0 1
v 0.5 1 1
v 0.5 2 1
v 1.5 0 1
v 1.5 1 1
v 1.5 2 1
v 1.5 4 1
v 1.5 7 1
v -1.5 3 -0
v -1.5 4 -0
v -0.5 3 -0
v -0.5 4 -0
v 0.5 3 -0
v 0.5 4 -0
v 1.5 3 -0
v 1.5 4 -0
v -0.5 3 -1
v -0.5 4 -1
v 0.5 3 -1
v 0.5 4 -1
v -2.5 0 -2
v -2.5 2 -2
v -1.5 0 -2
v -1.5 1 -2
v -1.5 2 -2
v -1.5 3 -2
v -0.5 1 -2
v -0.5 2 -2
v 0.5 1 -2
v 0.5 2 -2
v 1.5 0 -2
v 1.5 1 -2
v 1.5 2 -2
v 1.5 3 -2
v 2.5 0 -2
v 2.5 2 -2
v -0.5 1 -3
v -0.5 2 -3
v 0.5 1 -3
v 0.5 2 -3
v -0.5 0 -4
v -0.5 1 -4
v 0.5 0 -4
v 0.5 1 -4
v -1.5 0 2
v -0.5 0 2
v 0.5 0 2
v 1.5 0 2
v -1.5 0 1
v -0.5 0 1
v 0.5 0 1
v 1.5 0 1
v -2.5 0 -0
v -1.5 0 -0
v 1.5 0 -0
v 2.5 0 -0
v -2.5 0 -1
v -1.5 0 -1
v 1.5 0 -1
v 2.5 0 -1
v -2.5 0 -2
v -1.5 0 -2
v 1.5 0 -2
v 2.5 0 -2
v -0.5 0 -3
v 0.5 0 -3
v -0.5 0 -4
v 0.5 0 -4
v -1.5 1 -0
v 1.5 1 -0
v -1.5 1 -1
v 1.5 1 -1
v -1.5 1 -2
v -0.5 1 -2
v 0.5 1 -2
v 1.5 1 -2
v -0.5 1 -3
v 0.5 1 -3
v -3.5 2 4
v -2.5 2 4
v 2.5 2 4
v 3.5 2 4
v -3.5 2 3
v -2.5 2 3
v 2.5 2 3
v 3.5 2 3
v -0.5 2 2
v 0.5 2 2
v -1.5 2 1
v -0.5 2 1
v 0.5 2 1
v 1.5 2 1
v -1.5 2 -0
v 1.5 2 -0
v -2.5 3 4
v 2.5 3 4
v -2.5 3 3
v 2.5 3 3
v -3.5 4 4
v -2.5 4 4
v 2.5 4 4
v 3.5 4 4
v -3.5 4 3
v -2.5 4 3
v -1.5 4 3
v 1.5 4 3
v 2.5 4 3
v 3.5 4 3
v -2.5 4 2
v -1.5 4 2
v -0.5 4 2
v 0.5 4 2
v 1.5 4 2
v 2.5 4 2
v -1.5 4 1
v -0.5 4 1
v 0.5 4 1
v 1.5 4 1
v -2.5 1 -0
v -1.5 1 -0
v 1.5 1 -0
v 2.5 1 -0
v -2.5 1 -1
v -1.5 1 -1
v 1.5 1 -1
v 2.5 1 -1
v -0.5 1 -3
v 0.5 1 -3
v -0.5 1 -4
v 0.5 1 -4
v -2.5 2 -1
v -1.5 2 -1
v 1.5 2 -1
v 2.5 2 -1
v -2.5 2 -2
v -1.5 2 -2
v -0.5 2 -2
v 0.5 2 -2
v 1.5 2 -2
v 2.5 2 -2
v -0.5 2 -3
v 0.5 2 -3
v -3.5 3 4
v -2.5 3 4
v 2.5 3 4
v 3.5 3 4
v -3.5 3 3
v -2.5 3 3
v 2.5 3 3
v 3.5 3 3
v -1.5 3 2
v -0.5 3 2
v 0.5 3 2
v 1.5 3 2
v -1.5 3 1
v -0.5 3 1
v 0.5 3 1
v 1.5 3 1
v -1.5 3 -0
v -0.5 3 -0
v 0.5 3 -0
v 1.5 3 -0
v -0.5 3 -1
v 0.5 3 -1
v -1.5 3 -2
v 1.5 3 -2
v -2.5 4 4
v -1.5 4 4
v 1.5 4 4
v 2.5 4 4
v -2.5 4 3
v -1.5 4 3
v 1.5 4 3
v 2.5 4 3
v -1.5 4 1
v 1.5 4 1
v -1.5 4 -0
v -0.5 4 -0
v 0.5 4 -0
v 1.5 4 -0
v -0.5 4 -1
v 0.5 4 -1
v -3.5 5 4
v -2.5 5 4
v -1.5 5 4
v -0.5 5 4
v 0.5 5 4
v 1.5 5 4
v 2.5 5 4
v 3.5 5 4
v -3.5 5 3
v -2.5 5 3
v -1.5 5 3
v -0.5 5 3
v 0.5 5 3
v 1.5 5 3
v 2.5 5 3
v 3.5 5 3
v -0.5 6 4
v 0.5 6 4
v -0.5 6 3
v 0.5 6 3
v -2.5 7 3
v -1.5 7 3
v 1.5 7 3
v 2.5 7 3
v -2.5 7 2
v -1.5 7 2
v 1.5 7 2
v 2.5 7 2
v -1.5 7 1
v 1.5 7 1

# faces
f 3/1/1 2/1/1 1/1/1
f 4/1/1 2/1/1 3/1/1
f 7/1/1 6/1/1 5/1/1
f 8/1/1 6/1/1 7/1/1
f 12/4/1 10/4/1 9/4/1
f 13/3/1 11/3/1 10/3/1
f 13/4/1 10/4/1 12/4/1
f 14/3/1 11/3/1 13/3/1
f 15/3/1 11/3/1 14/3/1
f 18/1/1 17/1/1 16/1/1
f 19/1/1 17/1/1 18/1/1
f 21/2/1 20/2/1 19/2/1
f 22/2/1 20/2/1 21/2/1
f 23/2/1 20/2/1 22/2/1
f 26/4/1 25/4/1 24/4/1
f 27/4/1 25/4/1 26/4/1
f 30/3/1 27/3/1 26/3/1
f 31/3/1 29/3/1 28/3/1
f 32/3/1 29/3/1 31/3/1
f 34/3/1 30/3/1 26/3/1
f 34/3/1 33/3/1 32/3/1
f 34/3/1 32/3/1 31/3/1
f 34/3/1 31/3/1 30/3/1
f 35/3/1 33/3/1 34/3/1
f 36/3/1 33/3/1 35/3/1
f 37/3/1 33/3/1 36/3/1
f 41/3/1 36/3/1 35/3/1
f 42/3/1 36/3/1 41/3/1
f 43/3/1 39/3/1 38/3/1
f 44/3/1 39/3/1 43/3/1
f 45/3/1 41/3/1 40/3/1
f 46/3/1 41/3/1 45/3/1
f 50/3/1 48/3/1 47/3/1
f 51/3/1 48/3/1 50/3/1
f 52/3/1 50/3/1 49/3/1
f 53/3/1 50/3/1 52/3/1
f 58/3/1 55/3/1 54/3/1
f 59/3/1 55/3/1 58/3/1
f 60/3/1 57/3/1 56/3/1
f 61/3/1 57/3/1 60/3/1
f 64/2/1 63/2/1 62/2/1
f 65/2/1 63/2/1 64/2/1
f 68/4/1 67/4/1 66/4/1
f 69/4/1 67/4/1 68/4/1
f 70/3/1 69/3/1 68/3/1
f 71/3/1 69/3/1 70/3/1
f 75/4/1 73/4/1 72/4/1
f 76/3/1 74/3/1 73/3/1
f 76/4/1 73/4/1 75/4/1
f 77/3/1 74/3/1 76/3/1
f 80/1/1 79/1/1 78/1/1
f 81/1/1 79/1/1 80/1/1
f 84/1/1 83/1/1 82/1/1
f 85/1/1 83/1/1 84/1/1
f 86/1/2 87/1/2 88/1/2
f 88/1/2 87/1/2 89/1/2
f 90/1/2 91/1/2 92/1/2
f 92/1/2 91/1/2 93/1/2
f 94/4/2 95/4/2 97/4/2
f 95/3/2 96/3/2 98/3/2
f 97/4/2 95/4/2 98/4/2
f 98/3/2 96/3/2 99/3/2
f 100/4/2 101/4/2 102/4/2
f 102/4/2 101/4/2 103/4/2
f 102/3/2 103/3/2 104/3/2
f 104/3/2 103/3/2 105/3/2
f 106/3/2 107/3/2 109/3/2
f 109/3/2 107/3/2 110/3/2
f 108/3/2 109/3/2 111/3/2
f 111/3/2 109/3/2 112/3/2
f 113/3/2 114/3/2 117/3/2
f 117/3/2 114/3/2 118/3/2
f 115/3/2 116/3/2 119/3/2
f 119/3/2 116/3/2 120/3/2
f 121/2/2 122/2/2 123/2/2
f 123/2/2 122/2/2 124/2/2
f 125/4/2 126/4/2 127/4/2
f 127/4/2 126/4/2 128/4/2
f 127/3/2 128/3/2 131/3/2
f 129/3/2 130/3/2 132/3/2
f 132/3/2 130/3/2 133/3/2
f 127/3/2 131/3/2 135/3/2
f 133/3/2 134/3/2 135/3/2
f 132/3/2 133/3/2 135/3/2
f 131/3/2 132/3/2 135/3/2
f 135/3/2 134/3/2 136/3/2
f 136/3/2 134/3/2 137/3/2
f 137/3/2 134/3/2 138/3/2
f 136/3/2 137/3/2 142/3/2
f 142/3/2 137/3/2 143/3/2
f 139/3/2 140/3/2 144/3/2
f 144/3/2 140/3/2 145/3/2
f 141/3/2 142/3/2 146/3/2
f 146/3/2 142/3/2 147/3/2
f 148/4/2 149/4/2 151/4/2
f 149/3/2 150/3/2 152/3/2
f 151/4/2 149/4/2 152/4/2
f 152/3/2 150/3/2 153/3/2
f 153/3/2 150/3/2 154/3/2
f 155/1/2 156/1/2 157/1/2
f 157/1/2 156/1/2 158/1/2
f 158/2/2 159/2/2 160/2/2
f 160/2/2 159/2/2 161/2/2
f 161/2/2 159/2/2 162/2/2
f 163/1/2 164/1/2 165/1/2
f 165/1/2 164/1/2 166/1/2
f 167/1/2 168/1/2 169/1/2
f 169/1/2 168/1/2 170/1/2
f 175/1/3 172/1/3 171/1/3
f 176/1/3 172/1/3 175/1/3
f 177/1/3 174/1/3 173/1/3
f 178/1/3 174/1/3 177/1/3
f 179/1/3 177/1/3 176/1/3
f 181/3/3 180/3/3 179/3/3
f 183/3/3 181/3/3 179/3/3
f 183/2/3 182/2/3 181/2/3
f 184/2/3 182/2/3 183/2/3
f 185/1/3 179/1/3 176/1/3
f 185/3/3 183/3/3 179/3/3
f 186/3/3 183/3/3 185/3/3
f 188/1/3 185/1/3 176/1/3
f 189/1/3 185/1/3 188/1/3
f 191/1/3 188/1/3 187/1/3
f 192/1/3 188/1/3 191/1/3
f 193/1/3 190/1/3 189/1/3
f 194/1/3 190/1/3 193/1/3
f 198/2/3 196/2/3 195/2/3
f 198/2/3 197/2/3 196/2/3
f 199/2/3 197/2/3 198/2/3
f 200/2/3 197/2/3 199/2/3
f 201/2/3 197/2/3 200/2/3
f 202/3/3 200/3/3 199/3/3
f 203/4/3 201/4/3 200/4/3
f 203/3/3 200/3/3 202/3/3
f 205/4/3 201/4/3 203/4/3
f 207/3/3 205/3/3 204/3/3
f 208/4/3 201/4/3 205/4/3
f 208/3/3 205/3/3 207/3/3
f 209/4/3 201/4/3 208/4/3
f 210/2/3 207/2/3 206/2/3
f 210/2/3 208/2/3 207/2/3
f 210/2/3 209/2/3 208/2/3
f 211/2/3 209/2/3 210/2/3
f 212/2/3 209/2/3 211/2/3
f 216/4/3 214/4/3 213/4/3
f 217/3/3 215/3/3 214/3/3
f 217/4/3 214/4/3 216/4/3
f 218/3/3 215/3/3 217/3/3
f 219/3/3 215/3/3 218/3/3
f 223/3/3 220/3/3 219/3/3
f 223/3/3 219/3/3 218/3/3
f 224/3/3 220/3/3 223/3/3
f 225/3/3 220/3/3 224/3/3
f 226/4/3 222/4/3 221/4/3
f 227/3/3 223/3/3 222/3/3
f 227/4/3 222/4/3 226/4/3
f 227/3/3 224/3/3 223/3/3
f 228/3/3 224/3/3 227/3/3
f 231/3/3 230/3/3 229/3/3
f 232/3/3 230/3/3 231/3/3
f 235/3/3 234/3/3 233/3/3
f 236/3/3 234/3/3 235/3/3
f 239/4/3 238/4/3 237/4/3
f 240/4/3 238/4/3 239/4/3
f 243/3/3 241/3/3 240/3/3
f 244/3/3 241/3/3 243/3/3
f 245/4/3 243/4/3 242/4/3
f 246/4/3 243/4/3 245/4/3
f 249/3/3 248/3/3 247/3/3
f 250/3/3 248/3/3 249/3/3
f 253/3/3 252/3/3 251/3/3
f 254/3/3 252/3/3 253/3/3
f 257/3/3 256/3/3 255/3/3
f 258/3/3 256/3/3 257/3/3
f 259/1/4 260/1/4 263/1/4
f 263/1/4 260/1/4 264/1/4
f 261/1/4 262/1/4 265/1/4
f 265/1/4 262/1/4 266/1/4
f 264/1/4 265/1/4 267/1/4
f 264/1/4 267/1/4 268/1/4
f 264/1/4 268/1/4 270/1/4
f 270/1/4 268/1/4 271/1/4
f 269/1/4 270/1/4 273/1/4
f 273/1/4 270/1/4 274/1/4
f 271/1/4 272/1/4 275/1/4
f 275/1/4 272/1/4 276/1/4
f 277/2/4 278/2/4 279/2/4
f 279/2/4 278/2/4 280/2/4
f 281/2/4 282/2/4 283/2/4
f 283/2/4 282/2/4 284/2/4
f 285/4/4 286/4/4 290/4/4
f 286/3/4 287/3/4 291/3/4
f 290/4/4 286/4/4 291/4/4
f 291/3/4 287/3/4 292/3/4
f 293/4/4 294/4/4 296/4/4
f 294/3/4 295/3/4 297/3/4
f 296/4/4 294/4/4 297/4/4
f 297/3/4 295/3/4 298/3/4
f 288/3/4 289/3/4 299/3/4
f 299/3/4 289/3/4 300/3/4
f 301/3/4 302/3/4 303/3/4
f 303/3/4 302/3/4 304/3/4
f 305/3/4 306/3/4 307/3/4
f 307/3/4 306/3/4 308/3/4
f 309/3/4 310/3/4 311/3/4
f 311/3/4 310/3/4 312/3/4
f 313/3/4 314/3/4 315/3/4
f 315/3/4 314/3/4 316/3/4
f 316/3/4 314/3/4 317/3/4
f 317/3/4 318/3/4 319/3/4
f 316/3/4 317/3/4 319/3/4
f 319/3/4 318/3/4 320/3/4
f 320/3/4 318/3/4 322/3/4
f 321/3/4 322/3/4 324/3/4
f 322/3/4 318/3/4 325/3/4
f 324/3/4 322/3/4 325/3/4
f 325/3/4 318/3/4 326/3/4
f 323/3/4 324/3/4 327/3/4
f 324/3/4 325/3/4 327/3/4
f 327/3/4 325/3/4 328/3/4
f 329/3/4 330/3/4 331/3/4
f 331/3/4 330/3/4 332/3/4
f 333/3/4 334/3/4 335/3/4
f 335/3/4 334/3/4 336/3/4
f 341/4/5 338/4/5 337/4/5
f 342/4/5 338/4/5 341/4/5
f 343/4/5 340/4/5 339/4/5
f 344/4/5 340/4/5 343/4/5
f 349/4/5 346/4/5 345/4/5
f 350/4/5 346/4/5 349/4/5
f 351/4/5 348/4/5 347/4/5
f 352/4/5 348/4/5 351/4/5
f 353/3/5 350/3/5 349/3/5
f 354/3/5 350/3/5 353/3/5
f 355/3/5 352/3/5 351/3/5
f 356/3/5 352/3/5 355/3/5
f 359/3/5 358/3/5 357/3/5
f 360/3/5 358/3/5 359/3/5
f 363/3/5 362/3/5 361/3/5
f 364/3/5 362/3/5 363/3/5
f 365/3/5 364/3/5 363/3/5
f 366/3/5 364/3/5 365/3/5
f 367/3/5 364/3/5 366/3/5
f 368/3/5 364/3/5 367/3/5
f 369/3/5 367/3/5 366/3/5
f 370/3/5 367/3/5 369/3/5
f 375/1/5 372/1/5 371/1/5
f 376/1/5 372/1/5 375/1/5
f 377/1/5 374/1/5 373/1/5
f 378/1/5 374/1/5 377/1/5
f 382/3/5 380/3/5 379/3/5
f 383/3/5 380/3/5 382/3/5
f 385/3/5 382/3/5 381/3/5
f 385/3/5 384/3/5 383/3/5
f 385/3/5 383/3/5 382/3/5
f 386/3/5 384/3/5 385/3/5
f 389/1/5 388/1/5 387/1/5
f 390/1/5 388/1/5 389/1/5
f 395/1/5 392/1/5 391/1/5
f 396/1/5 392/1/5 395/1/5
f 399/1/5 394/1/5 393/1/5
f 400/1/5 394/1/5 399/1/5
f 401/2/5 397/2/5 396/2/5
f 402/3/5 398/3/5 397/3/5
f 402/2/5 397/2/5 401/2/5
f 403/3/5 398/3/5 402/3/5
f 404/3/5 398/3/5 403/3/5
f 405/2/5 399/2/5 398/2/5
f 405/3/5 398/3/5 404/3/5
f 406/2/5 399/2/5 405/2/5
f 407/3/5 403/3/5 402/3/5
f 408/3/5 403/3/5 407/3/5
f 409/3/5 405/3/5 404/3/5
f 410/3/5 405/3/5 409/3/5
f 411/4/6 412/4/6 415/4/6
f 415/4/6 412/4/6 416/4/6
f 413/4/6 414/4/6 417/4/6
f 417/4/6 414/4/6 418/4/6
f 419/3/6 420/3/6 421/3/6
f 421/3/6 420/3/6 422/3/6
f 423/3/6 424/3/6 427/3/6
f 427/3/6 424/3/6 428/3/6
f 425/3/6 426/3/6 431/3/6
f 431/3/6 426/3/6 432/3/6
f 429/3/6 430/3/6 433/3/6
f 433/3/6 430/3/6 434/3/6
f 435/1/6 436/1/6 439/1/6
f 439/1/6 436/1/6 440/1/6
f 437/1/6 438/1/6 441/1/6
f 441/1/6 438/1/6 442/1/6
f 443/3/6 444/3/6 447/3/6
f 447/3/6 444/3/6 448/3/6
f 445/3/6 446/3/6 449/3/6
f 449/3/6 446/3/6 450/3/6
f 451/3/6 452/3/6 455/3/6
f 453/3/6 454/3/6 456/3/6
f 451/3/6 455/3/6 457/3/6
f 455/3/6 456/3/6 457/3/6
f 456/3/6 454/3/6 458/3/6
f 457/3/6 456/3/6 458/3/6
f 459/1/6 460/1/6 463/1/6
f 463/1/6 460/1/6 464/1/6
f 461/1/6 462/1/6 465/1/6
f 465/1/6 462/1/6 466/1/6
f 467/3/6 468/3/6 469/3/6
f 469/3/6 468/3/6 470/3/6
f 470/3/6 468/3/6 471/3/6
f 471/3/6 468/3/6 472/3/6
f 470/3/6 471/3/6 473/3/6
f 473/3/6 471/3/6 474/3/6
f 475/1/6 476/1/6 483/1/6
f 483/1/6 476/1/6 484/1/6
f 477/3/6 478/3/6 485/3/6
f 485/3/6 478/3/6 486/3/6
f 479/3/6 480/3/6 487/3/6
f 487/3/6 480/3/6 488/3/6
f 481/1/6 482/1/6 489/1/6
f 489/1/6 482/1/6 490/1/6
f 491/2/6 492/2/6 493/2/6
f 493/2/6 492/2/6 494/2/6
f 495/2/6 496/2/6 499/2/6
f 496/4/6 497/4/6 500/4/6
f 499/2/6 496/2/6 500/2/6
f 497/2/6 498/2/6 501/2/6
f 500/4/6 497/4/6 501/4/6
f 501/2/6 498/2/6 502/2/6
f 500/3/6 501/3/6 503/3/6
f 503/3/6 501/3/6 504/3/6
