# MagicaVoxel @ ephtracy

# material
mtllib scummBarPirate13.mtl
usemtl palette

# normals
vn -1 0 0
vn 1 0 0
vn 0 0 1
vn 0 0 -1
vn 0 -1 0
vn 0 1 0

# texcoords
vt 0.939453 0.5
vt 0.943359 0.5
vt 0.947266 0.5
vt 0.951172 0.5
vt 0.970703 0.5

# verts
v -6 0 -0
v -6 0 -1
v -6 1 -0
v -6 1 -1
v -3 1 -1
v -3 1 -2
v -3 2 -1
v -3 2 -2
v -2 0 2
v -2 0 1
v -2 0 -2
v -2 1 3
v -2 1 2
v -2 1 -1
v -2 1 -2
v -2 1 -4
v -2 1 -5
v -2 1 -6
v -2 2 4
v -2 2 3
v -2 2 2
v -2 2 -1
v -2 2 -2
v -2 2 -4
v -2 2 -5
v -2 2 -6
v -2 3 2
v -2 3 1
v -2 3 -2
v -2 4 6
v -2 4 5
v -2 4 4
v -2 4 3
v -2 5 6
v -2 5 5
v -2 5 4
v -1 0 -5
v -1 0 -6
v -1 1 -2
v -1 1 -4
v -1 1 -5
v -1 1 -6
v -1 1 -7
v -1 2 -2
v -1 2 -4
v -1 2 -5
v -1 2 -6
v -1 3 -5
v -1 3 -7
v 1 0 7
v 1 0 6
v 1 0 5
v 1 0 4
v 1 1 7
v 1 1 6
v 1 1 5
v 1 1 4
v 1 1 3
v 1 2 4
v 1 2 3
v 3 0 -2
v 3 0 -3
v 3 1 -2
v 3 1 -3
v 5 0 -3
v 5 0 -4
v 5 1 -3
v 5 1 -4
v -3 0 -0
v -3 0 -1
v -3 1 -0
v -3 1 -1
v -1 2 4
v -1 2 3
v -1 4 6
v -1 4 5
v -1 4 4
v -1 4 3
v -1 5 6
v -1 5 5
v -1 5 4
v 1 0 -5
v 1 0 -6
v 1 1 -2
v 1 1 -4
v 1 1 -5
v 1 1 -6
v 1 1 -7
v 1 2 -2
v 1 2 -4
v 1 2 -5
v 1 2 -6
v 1 3 -5
v 1 3 -7
v 2 0 7
v 2 0 6
v 2 0 5
v 2 0 4
v 2 0 2
v 2 0 1
v 2 0 -2
v 2 1 7
v 2 1 6
v 2 1 5
v 2 1 4
v 2 1 2
v 2 1 -1
v 2 1 -2
v 2 1 -4
v 2 1 -5
v 2 1 -6
v 2 2 4
v 2 2 2
v 2 2 -1
v 2 2 -2
v 2 2 -4
v 2 2 -5
v 2 2 -6
v 2 3 2
v 2 3 1
v 2 3 -2
v 3 1 -1
v 3 1 -2
v 3 2 -1
v 3 2 -2
v 5 0 -2
v 5 0 -3
v 5 1 -2
v 5 1 -3
v 6 0 -3
v 6 0 -4
v 6 1 -3
v 6 1 -4
v 1 0 7
v 1 1 7
v 2 0 7
v 2 1 7
v -2 4 6
v -2 5 6
v -1 4 6
v -1 5 6
v -2 2 4
v -2 4 4
v -1 2 4
v -1 4 4
v 1 1 4
v 1 2 4
v 2 1 4
v 2 2 4
v -2 1 3
v -2 2 3
v -1 2 3
v 1 1 3
v 1 2 3
v -2 0 2
v -2 1 2
v -2 2 2
v -2 3 2
v 2 0 2
v 2 1 2
v 2 2 2
v 2 3 2
v -6 0 -0
v -6 1 -0
v -5 0 -0
v -5 1 -0
v -3 0 -0
v -3 1 -0
v -3 1 -1
v -3 2 -1
v -2 1 -1
v -2 2 -1
v 2 1 -1
v 2 2 -1
v 3 1 -1
v 3 2 -1
v 3 0 -2
v 3 1 -2
v 5 0 -2
v 5 1 -2
v 5 0 -3
v 5 1 -3
v 6 0 -3
v 6 1 -3
v -2 1 -4
v -2 2 -4
v -1 1 -4
v -1 2 -4
v 1 1 -4
v 1 2 -4
v 2 1 -4
v 2 2 -4
v -1 0 -5
v -1 1 -5
v -1 2 -5
v -1 3 -5
v 1 0 -5
v 1 1 -5
v 1 2 -5
v 1 3 -5
v -2 4 4
v -2 5 4
v -1 4 4
v -1 5 4
v 1 0 4
v 1 1 4
v 2 0 4
v 2 1 4
v -2 2 3
v -2 4 3
v -1 2 3
v -1 4 3
v -6 0 -1
v -6 1 -1
v -5 0 -1
v -5 1 -1
v -3 0 -1
v -3 1 -1
v -3 1 -2
v -3 2 -2
v -2 0 -2
v -2 1 -2
v -2 2 -2
v -2 3 -2
v -1 1 -2
v -1 2 -2
v 1 1 -2
v 1 2 -2
v 2 0 -2
v 2 1 -2
v 2 2 -2
v 2 3 -2
v 3 1 -2
v 3 2 -2
v 3 0 -3
v 3 1 -3
v 5 0 -3
v 5 1 -3
v 5 0 -4
v 5 1 -4
v 6 0 -4
v 6 1 -4
v -2 1 -6
v -2 2 -6
v -1 0 -6
v -1 1 -6
v -1 2 -6
v 1 0 -6
v 1 1 -6
v 1 2 -6
v 2 1 -6
v 2 2 -6
v -1 1 -7
v -1 3 -7
v 1 1 -7
v 1 3 -7
v 1 0 7
v 2 0 7
v 1 0 6
v 2 0 6
v 1 0 5
v 2 0 5
v 1 0 4
v 2 0 4
v -2 0 2
v 2 0 2
v -2 0 1
v 2 0 1
v -6 0 -0
v -5 0 -0
v -3 0 -0
v -6 0 -1
v -5 0 -1
v -3 0 -1
v -2 0 -2
v 2 0 -2
v 3 0 -2
v 5 0 -2
v 3 0 -3
v 5 0 -3
v 6 0 -3
v 5 0 -4
v 6 0 -4
v -1 0 -5
v 1 0 -5
v -1 0 -6
v 1 0 -6
v 1 1 4
v 2 1 4
v -2 1 3
v 1 1 3
v -2 1 2
v 2 1 2
v -3 1 -1
v -2 1 -1
v 2 1 -1
v 3 1 -1
v -3 1 -2
v -2 1 -2
v -1 1 -2
v 1 1 -2
v 2 1 -2
v 3 1 -2
v -2 1 -4
v -1 1 -4
v 1 1 -4
v 2 1 -4
v -2 1 -5
v -1 1 -5
v 1 1 -5
v 2 1 -5
v -2 1 -6
v -1 1 -6
v 1 1 -6
v 2 1 -6
v -1 1 -7
v 1 1 -7
v -2 2 4
v -1 2 4
v -2 2 3
v -1 2 3
v -2 4 6
v -1 4 6
v -2 4 5
v -1 4 5
v -2 4 4
v -1 4 4
v 1 1 7
v 2 1 7
v 1 1 6
v 2 1 6
v 1 1 5
v 2 1 5
v 1 1 4
v 2 1 4
v -6 1 -0
v -5 1 -0
v -3 1 -0
v -6 1 -1
v -5 1 -1
v -3 1 -1
v 3 1 -2
v 5 1 -2
v 3 1 -3
v 5 1 -3
v 6 1 -3
v 5 1 -4
v 6 1 -4
v 1 2 4
v 2 2 4
v -2 2 3
v -1 2 3
v 1 2 3
v -2 2 2
v 2 2 2
v -3 2 -1
v -2 2 -1
v 2 2 -1
v 3 2 -1
v -3 2 -2
v -2 2 -2
v -1 2 -2
v 1 2 -2
v 2 2 -2
v 3 2 -2
v -2 2 -4
v -1 2 -4
v 1 2 -4
v 2 2 -4
v -2 2 -5
v -1 2 -5
v 1 2 -5
v 2 2 -5
v -2 2 -6
v -1 2 -6
v 1 2 -6
v 2 2 -6
v -2 3 2
v 2 3 2
v -2 3 1
v 2 3 1
v -2 3 -2
v 2 3 -2
v -1 3 -5
v 1 3 -5
v -1 3 -7
v 1 3 -7
v -2 4 4
v -1 4 4
v -2 4 3
v -1 4 3
v -2 5 6
v -1 5 6
v -2 5 5
v -1 5 5
v -2 5 4
v -1 5 4

# faces
f 3/5/1 2/5/1 1/5/1
f 4/5/1 2/5/1 3/5/1
f 7/3/1 6/3/1 5/3/1
f 8/3/1 6/3/1 7/3/1
f 13/4/1 10/4/1 9/4/1
f 14/3/1 11/3/1 10/3/1
f 15/3/1 11/3/1 14/3/1
f 20/3/1 13/3/1 12/3/1
f 21/4/1 10/4/1 13/4/1
f 21/3/1 13/3/1 20/3/1
f 22/3/1 14/3/1 10/3/1
f 24/5/1 17/5/1 16/5/1
f 25/4/1 18/4/1 17/4/1
f 25/5/1 17/5/1 24/5/1
f 26/4/1 18/4/1 25/4/1
f 27/4/1 10/4/1 21/4/1
f 28/3/1 23/3/1 22/3/1
f 28/4/1 10/4/1 27/4/1
f 28/3/1 22/3/1 10/3/1
f 29/3/1 23/3/1 28/3/1
f 32/3/1 20/3/1 19/3/1
f 33/3/1 20/3/1 32/3/1
f 34/2/1 31/2/1 30/2/1
f 35/1/1 32/1/1 31/1/1
f 35/2/1 31/2/1 34/2/1
f 36/1/1 32/1/1 35/1/1
f 41/4/1 38/4/1 37/4/1
f 42/4/1 38/4/1 41/4/1
f 44/5/1 40/5/1 39/5/1
f 45/5/1 40/5/1 44/5/1
f 47/4/1 43/4/1 42/4/1
f 48/4/1 47/4/1 46/4/1
f 49/4/1 43/4/1 47/4/1
f 49/4/1 47/4/1 48/4/1
f 54/2/1 51/2/1 50/2/1
f 55/1/1 52/1/1 51/1/1
f 55/2/1 51/2/1 54/2/1
f 56/3/1 53/3/1 52/3/1
f 56/1/1 52/1/1 55/1/1
f 57/3/1 53/3/1 56/3/1
f 59/3/1 58/3/1 57/3/1
f 60/3/1 58/3/1 59/3/1
f 63/3/1 62/3/1 61/3/1
f 64/3/1 62/3/1 63/3/1
f 67/5/1 66/5/1 65/5/1
f 68/5/1 66/5/1 67/5/1
f 69/3/2 70/3/2 71/3/2
f 71/3/2 70/3/2 72/3/2
f 73/3/2 74/3/2 77/3/2
f 77/3/2 74/3/2 78/3/2
f 75/2/2 76/2/2 79/2/2
f 76/1/2 77/1/2 80/1/2
f 79/2/2 76/2/2 80/2/2
f 80/1/2 77/1/2 81/1/2
f 82/4/2 83/4/2 86/4/2
f 86/4/2 83/4/2 87/4/2
f 84/5/2 85/5/2 89/5/2
f 89/5/2 85/5/2 90/5/2
f 87/4/2 88/4/2 92/4/2
f 91/4/2 92/4/2 93/4/2
f 92/4/2 88/4/2 94/4/2
f 93/4/2 92/4/2 94/4/2
f 95/2/2 96/2/2 102/2/2
f 96/1/2 97/1/2 103/1/2
f 102/2/2 96/2/2 103/2/2
f 97/3/2 98/3/2 104/3/2
f 103/1/2 97/1/2 104/1/2
f 104/3/2 98/3/2 105/3/2
f 99/4/2 100/4/2 106/4/2
f 100/3/2 101/3/2 107/3/2
f 107/3/2 101/3/2 108/3/2
f 105/3/2 106/3/2 112/3/2
f 106/4/2 100/4/2 113/4/2
f 112/3/2 106/3/2 113/3/2
f 100/3/2 107/3/2 114/3/2
f 109/5/2 110/5/2 116/5/2
f 110/4/2 111/4/2 117/4/2
f 116/5/2 110/5/2 117/5/2
f 117/4/2 111/4/2 118/4/2
f 113/4/2 100/4/2 119/4/2
f 114/3/2 115/3/2 120/3/2
f 119/4/2 100/4/2 120/4/2
f 100/3/2 114/3/2 120/3/2
f 120/3/2 115/3/2 121/3/2
f 122/3/2 123/3/2 124/3/2
f 124/3/2 123/3/2 125/3/2
f 126/3/2 127/3/2 128/3/2
f 128/3/2 127/3/2 129/3/2
f 130/5/2 131/5/2 132/5/2
f 132/5/2 131/5/2 133/5/2
f 136/2/3 135/2/3 134/2/3
f 137/2/3 135/2/3 136/2/3
f 140/2/3 139/2/3 138/2/3
f 141/2/3 139/2/3 140/2/3
f 144/3/3 143/3/3 142/3/3
f 145/3/3 143/3/3 144/3/3
f 148/3/3 147/3/3 146/3/3
f 149/3/3 147/3/3 148/3/3
f 152/3/3 151/3/3 150/3/3
f 153/3/3 152/3/3 150/3/3
f 154/3/3 152/3/3 153/3/3
f 159/4/3 156/4/3 155/4/3
f 160/4/3 156/4/3 159/4/3
f 161/4/3 158/4/3 157/4/3
f 162/4/3 158/4/3 161/4/3
f 165/5/3 164/5/3 163/5/3
f 166/5/3 164/5/3 165/5/3
f 167/3/3 166/3/3 165/3/3
f 168/3/3 166/3/3 167/3/3
f 171/3/3 170/3/3 169/3/3
f 172/3/3 170/3/3 171/3/3
f 175/3/3 174/3/3 173/3/3
f 176/3/3 174/3/3 175/3/3
f 179/3/3 178/3/3 177/3/3
f 180/3/3 178/3/3 179/3/3
f 183/5/3 182/5/3 181/5/3
f 184/5/3 182/5/3 183/5/3
f 187/5/3 186/5/3 185/5/3
f 188/5/3 186/5/3 187/5/3
f 191/5/3 190/5/3 189/5/3
f 192/5/3 190/5/3 191/5/3
f 197/4/3 194/4/3 193/4/3
f 198/4/3 194/4/3 197/4/3
f 199/4/3 196/4/3 195/4/3
f 200/4/3 196/4/3 199/4/3
f 201/1/4 202/1/4 203/1/4
f 203/1/4 202/1/4 204/1/4
f 205/3/4 206/3/4 207/3/4
f 207/3/4 206/3/4 208/3/4
f 209/3/4 210/3/4 211/3/4
f 211/3/4 210/3/4 212/3/4
f 213/5/4 214/5/4 215/5/4
f 215/5/4 214/5/4 216/5/4
f 215/3/4 216/3/4 217/3/4
f 217/3/4 216/3/4 218/3/4
f 219/3/4 220/3/4 222/3/4
f 222/3/4 220/3/4 223/3/4
f 221/3/4 222/3/4 225/3/4
f 222/5/4 223/5/4 225/5/4
f 223/3/4 224/3/4 226/3/4
f 225/5/4 223/5/4 226/5/4
f 221/3/4 225/3/4 227/3/4
f 226/3/4 224/3/4 228/3/4
f 221/3/4 227/3/4 229/3/4
f 227/3/4 228/3/4 229/3/4
f 229/3/4 228/3/4 230/3/4
f 228/3/4 224/3/4 231/3/4
f 230/3/4 228/3/4 231/3/4
f 231/3/4 224/3/4 232/3/4
f 230/3/4 231/3/4 233/3/4
f 233/3/4 231/3/4 234/3/4
f 235/3/4 236/3/4 237/3/4
f 237/3/4 236/3/4 238/3/4
f 239/5/4 240/5/4 241/5/4
f 241/5/4 240/5/4 242/5/4
f 243/4/4 244/4/4 246/4/4
f 246/4/4 244/4/4 247/4/4
f 245/4/4 246/4/4 248/4/4
f 248/4/4 246/4/4 249/4/4
f 249/4/4 250/4/4 251/4/4
f 251/4/4 250/4/4 252/4/4
f 253/4/4 254/4/4 255/4/4
f 255/4/4 254/4/4 256/4/4
f 259/2/5 258/2/5 257/2/5
f 260/2/5 258/2/5 259/2/5
f 261/1/5 260/1/5 259/1/5
f 262/1/5 260/1/5 261/1/5
f 263/3/5 262/3/5 261/3/5
f 264/3/5 262/3/5 263/3/5
f 267/4/5 266/4/5 265/4/5
f 268/4/5 266/4/5 267/4/5
f 272/5/5 270/5/5 269/5/5
f 273/3/5 271/3/5 270/3/5
f 273/5/5 270/5/5 272/5/5
f 274/3/5 271/3/5 273/3/5
f 275/3/5 268/3/5 267/3/5
f 276/3/5 268/3/5 275/3/5
f 279/3/5 278/3/5 277/3/5
f 280/3/5 278/3/5 279/3/5
f 282/5/5 281/5/5 280/5/5
f 283/5/5 281/5/5 282/5/5
f 286/4/5 285/4/5 284/4/5
f 287/4/5 285/4/5 286/4/5
f 291/3/5 289/3/5 288/3/5
f 292/3/5 291/3/5 290/3/5
f 293/3/5 289/3/5 291/3/5
f 293/3/5 291/3/5 292/3/5
f 298/3/5 295/3/5 294/3/5
f 299/3/5 295/3/5 298/3/5
f 302/3/5 297/3/5 296/3/5
f 303/3/5 297/3/5 302/3/5
f 305/5/5 301/5/5 300/5/5
f 306/5/5 301/5/5 305/5/5
f 308/5/5 305/5/5 304/5/5
f 308/5/5 307/5/5 306/5/5
f 308/5/5 306/5/5 305/5/5
f 309/5/5 307/5/5 308/5/5
f 310/5/5 307/5/5 309/5/5
f 311/5/5 307/5/5 310/5/5
f 312/4/5 309/4/5 308/4/5
f 313/4/5 309/4/5 312/4/5
f 314/4/5 311/4/5 310/4/5
f 315/4/5 311/4/5 314/4/5
f 316/4/5 314/4/5 313/4/5
f 317/4/5 314/4/5 316/4/5
f 320/3/5 319/3/5 318/3/5
f 321/3/5 319/3/5 320/3/5
f 324/2/5 323/2/5 322/2/5
f 325/2/5 323/2/5 324/2/5
f 326/1/5 325/1/5 324/1/5
f 327/1/5 325/1/5 326/1/5
f 328/2/6 329/2/6 330/2/6
f 330/2/6 329/2/6 331/2/6
f 330/1/6 331/1/6 332/1/6
f 332/1/6 331/1/6 333/1/6
f 332/3/6 333/3/6 334/3/6
f 334/3/6 333/3/6 335/3/6
f 336/5/6 337/5/6 339/5/6
f 337/3/6 338/3/6 340/3/6
f 339/5/6 337/5/6 340/5/6
f 340/3/6 338/3/6 341/3/6
f 342/3/6 343/3/6 344/3/6
f 344/3/6 343/3/6 345/3/6
f 345/5/6 346/5/6 347/5/6
f 347/5/6 346/5/6 348/5/6
f 349/3/6 350/3/6 353/3/6
f 351/3/6 352/3/6 354/3/6
f 352/3/6 353/3/6 354/3/6
f 353/3/6 350/3/6 355/3/6
f 354/3/6 353/3/6 355/3/6
f 356/3/6 357/3/6 360/3/6
f 360/3/6 357/3/6 361/3/6
f 358/3/6 359/3/6 364/3/6
f 364/3/6 359/3/6 365/3/6
f 362/5/6 363/5/6 367/5/6
f 367/5/6 363/5/6 368/5/6
f 366/5/6 367/5/6 370/5/6
f 368/5/6 369/5/6 370/5/6
f 367/5/6 368/5/6 370/5/6
f 370/5/6 369/5/6 371/5/6
f 371/5/6 369/5/6 372/5/6
f 372/5/6 369/5/6 373/5/6
f 370/4/6 371/4/6 374/4/6
f 374/4/6 371/4/6 375/4/6
f 372/4/6 373/4/6 376/4/6
f 376/4/6 373/4/6 377/4/6
f 378/4/6 379/4/6 380/4/6
f 380/4/6 379/4/6 381/4/6
f 380/3/6 381/3/6 382/3/6
f 382/3/6 381/3/6 383/3/6
f 384/4/6 385/4/6 386/4/6
f 386/4/6 385/4/6 387/4/6
f 388/3/6 389/3/6 390/3/6
f 390/3/6 389/3/6 391/3/6
f 392/2/6 393/2/6 394/2/6
f 394/2/6 393/2/6 395/2/6
f 394/1/6 395/1/6 396/1/6
f 396/1/6 395/1/6 397/1/6
