# MagicaVoxel @ ephtracy

# material
mtllib scummBarPirate09.mtl
usemtl palette

# normals
vn -1 0 0
vn 1 0 0
vn 0 0 1
vn 0 0 -1
vn 0 -1 0
vn 0 1 0

# texcoords
vt 0.908203 0.5
vt 0.912109 0.5
vt 0.939453 0.5
vt 0.943359 0.5
vt 0.947266 0.5
vt 0.951172 0.5
vt 0.955078 0.5
vt 0.970703 0.5
vt 0.974609 0.5

# verts
v -4 5 0.5
v -4 5 -0.5
v -4 6 0.5
v -4 6 -0.5
v -4 6 -1.5
v -4 8 -0.5
v -4 8 -1.5
v -3 8 -0.5
v -3 8 -1.5
v -3 9 -0.5
v -3 9 -1.5
v -2 0 -0.5
v -2 0 -1.5
v -2 1 -0.5
v -2 1 -1.5
v -2 5 0.5
v -2 5 -0.5
v -2 5 -1.5
v -2 5 -2.5
v -2 8 -0.5
v -2 8 -1.5
v -2 9 0.5
v -2 9 -0.5
v -2 9 -1.5
v -2 9 -2.5
v -2 11 -0.5
v -2 11 -1.5
v -2 11 -2.5
v -2 12 0.5
v -2 12 -0.5
v -2 12 -1.5
v -2 12 -2.5
v -2 13 0.5
v -2 13 -0.5
v -2 13 -1.5
v -2 13 -2.5
v -1 9 0.5
v -1 9 -0.5
v -1 9 -1.5
v -1 10 0.5
v -1 10 -0.5
v -1 10 -1.5
v -1 10 -2.5
v -1 11 -0.5
v -1 11 -1.5
v -1 11 -2.5
v -1 13 0.5
v -1 13 -0.5
v -1 13 -1.5
v -1 13 -2.5
v -1 14 0.5
v -1 14 -0.5
v -1 14 -1.5
v -1 14 -2.5
v 0 6 2.5
v 0 6 0.5
v 0 8 2.5
v 0 8 0.5
v 0 9 2.5
v 0 9 0.5
v 1 0 -0.5
v 1 0 -1.5
v 1 1 -0.5
v 1 1 -1.5
v 1 4 -0.5
v 1 4 -1.5
v 3 7 1.5
v 3 7 -0.5
v 3 8 1.5
v 3 8 -0.5
v -3 5 0.5
v -3 5 -0.5
v -3 6 0.5
v -3 6 -0.5
v -3 6 -1.5
v -3 8 -0.5
v -3 8 -1.5
v -1 0 -0.5
v -1 0 -1.5
v -1 1 -0.5
v -1 1 -1.5
v -1 4 -0.5
v -1 4 -1.5
v 1 9 0.5
v 1 9 -0.5
v 1 9 -1.5
v 1 10 0.5
v 1 10 -0.5
v 1 10 -1.5
v 1 10 -2.5
v 1 11 -0.5
v 1 11 -1.5
v 1 11 -2.5
v 1 13 0.5
v 1 13 -0.5
v 1 13 -1.5
v 1 13 -2.5
v 1 14 0.5
v 1 14 -0.5
v 1 14 -1.5
v 1 14 -2.5
v 2 0 -0.5
v 2 0 -1.5
v 2 1 -0.5
v 2 1 -1.5
v 2 5 0.5
v 2 5 -0.5
v 2 5 -1.5
v 2 5 -2.5
v 2 6 2.5
v 2 6 0.5
v 2 7 2.5
v 2 7 1.5
v 2 8 2.5
v 2 8 1.5
v 2 8 0.5
v 2 8 -0.5
v 2 8 -1.5
v 2 9 2.5
v 2 9 0.5
v 2 9 -0.5
v 2 9 -1.5
v 2 9 -2.5
v 2 11 -0.5
v 2 11 -1.5
v 2 11 -2.5
v 2 12 0.5
v 2 12 -0.5
v 2 12 -1.5
v 2 12 -2.5
v 2 13 0.5
v 2 13 -0.5
v 2 13 -1.5
v 2 13 -2.5
v 3 7 2.5
v 3 7 1.5
v 3 8 2.5
v 3 8 1.5
v 3 8 -0.5
v 3 8 -1.5
v 3 9 -0.5
v 3 9 -1.5
v 4 7 1.5
v 4 7 -0.5
v 4 8 1.5
v 4 8 -0.5
v 0 6 2.5
v 0 8 2.5
v 0 9 2.5
v 2 6 2.5
v 2 7 2.5
v 2 8 2.5
v 2 9 2.5
v 3 7 2.5
v 3 8 2.5
v 3 7 1.5
v 3 8 1.5
v 4 7 1.5
v 4 8 1.5
v -4 5 0.5
v -4 6 0.5
v -3 5 0.5
v -3 6 0.5
v -2 5 0.5
v -2 9 0.5
v -2 12 0.5
v -2 13 0.5
v -1 9 0.5
v -1 10 0.5
v -1 12 0.5
v -1 13 0.5
v -1 14 0.5
v 0 6 0.5
v 0 8 0.5
v 0 9 0.5
v 0 12 0.5
v 0 13 0.5
v 0 14 0.5
v 1 9 0.5
v 1 10 0.5
v 1 12 0.5
v 1 13 0.5
v 1 14 0.5
v 2 5 0.5
v 2 6 0.5
v 2 12 0.5
v 2 13 0.5
v -4 6 -0.5
v -4 8 -0.5
v -3 6 -0.5
v -3 8 -0.5
v -3 9 -0.5
v -2 0 -0.5
v -2 1 -0.5
v -2 5 -0.5
v -2 8 -0.5
v -2 9 -0.5
v -2 11 -0.5
v -2 12 -0.5
v -1 0 -0.5
v -1 1 -0.5
v -1 4 -0.5
v -1 10 -0.5
v -1 11 -0.5
v -1 12 -0.5
v 0 12 -0.5
v 1 0 -0.5
v 1 1 -0.5
v 1 4 -0.5
v 1 10 -0.5
v 1 11 -0.5
v 1 12 -0.5
v 2 0 -0.5
v 2 1 -0.5
v 2 5 -0.5
v 2 8 -0.5
v 2 9 -0.5
v 2 11 -0.5
v 2 12 -0.5
v 3 8 -0.5
v 3 9 -0.5
v 2 7 1.5
v 2 8 1.5
v 3 7 1.5
v 3 8 1.5
v -4 5 -0.5
v -4 6 -0.5
v -3 5 -0.5
v -3 6 -0.5
v 3 7 -0.5
v 3 8 -0.5
v 4 7 -0.5
v 4 8 -0.5
v -4 6 -1.5
v -4 8 -1.5
v -3 6 -1.5
v -3 8 -1.5
v -3 9 -1.5
v -2 0 -1.5
v -2 1 -1.5
v -2 5 -1.5
v -2 8 -1.5
v -2 9 -1.5
v -1 0 -1.5
v -1 1 -1.5
v -1 4 -1.5
v -1 9 -1.5
v -1 10 -1.5
v 1 0 -1.5
v 1 1 -1.5
v 1 4 -1.5
v 1 9 -1.5
v 1 10 -1.5
v 2 0 -1.5
v 2 1 -1.5
v 2 5 -1.5
v 2 8 -1.5
v 2 9 -1.5
v 3 8 -1.5
v 3 9 -1.5
v -2 5 -2.5
v -2 9 -2.5
v -2 11 -2.5
v -2 12 -2.5
v -2 13 -2.5
v -1 10 -2.5
v -1 11 -2.5
v -1 12 -2.5
v -1 13 -2.5
v -1 14 -2.5
v 0 11 -2.5
v 0 12 -2.5
v 0 13 -2.5
v 0 14 -2.5
v 1 10 -2.5
v 1 11 -2.5
v 1 12 -2.5
v 1 13 -2.5
v 1 14 -2.5
v 2 5 -2.5
v 2 9 -2.5
v 2 11 -2.5
v 2 12 -2.5
v 2 13 -2.5
v -2 0 -0.5
v -1 0 -0.5
v 1 0 -0.5
v 2 0 -0.5
v -2 0 -1.5
v -1 0 -1.5
v 1 0 -1.5
v 2 0 -1.5
v -1 4 -0.5
v 1 4 -0.5
v -1 4 -1.5
v 1 4 -1.5
v -4 5 0.5
v -3 5 0.5
v -2 5 0.5
v 2 5 0.5
v -4 5 -0.5
v -3 5 -0.5
v -2 5 -0.5
v 2 5 -0.5
v -2 5 -1.5
v 2 5 -1.5
v -2 5 -2.5
v 2 5 -2.5
v 0 6 2.5
v 2 6 2.5
v 0 6 0.5
v 2 6 0.5
v -4 6 -0.5
v -3 6 -0.5
v -4 6 -1.5
v -3 6 -1.5
v 2 7 2.5
v 3 7 2.5
v 2 7 1.5
v 3 7 1.5
v 4 7 1.5
v 3 7 -0.5
v 4 7 -0.5
v -3 8 -0.5
v -2 8 -0.5
v 2 8 -0.5
v 3 8 -0.5
v -3 8 -1.5
v -2 8 -1.5
v 2 8 -1.5
v 3 8 -1.5
v -1 10 -1.5
v 1 10 -1.5
v -1 10 -2.5
v 1 10 -2.5
v -2 11 -0.5
v -1 11 -0.5
v 1 11 -0.5
v 2 11 -0.5
v -2 11 -1.5
v -1 11 -1.5
v 1 11 -1.5
v 2 11 -1.5
v -2 11 -2.5
v -1 11 -2.5
v 1 11 -2.5
v 2 11 -2.5
v -2 12 0.5
v -1 12 0.5
v 0 12 0.5
v 1 12 0.5
v 2 12 0.5
v -2 12 -0.5
v -1 12 -0.5
v 0 12 -0.5
v 1 12 -0.5
v 2 12 -0.5
v -4 6 0.5
v -3 6 0.5
v -4 6 -0.5
v -3 6 -0.5
v 2 8 2.5
v 3 8 2.5
v 2 8 1.5
v 3 8 1.5
v 4 8 1.5
v -4 8 -0.5
v -3 8 -0.5
v 3 8 -0.5
v 4 8 -0.5
v -4 8 -1.5
v -3 8 -1.5
v 0 9 2.5
v 2 9 2.5
v -2 9 0.5
v -1 9 0.5
v 0 9 0.5
v 1 9 0.5
v 2 9 0.5
v -3 9 -0.5
v -2 9 -0.5
v -1 9 -0.5
v 1 9 -0.5
v 2 9 -0.5
v 3 9 -0.5
v -3 9 -1.5
v -2 9 -1.5
v -1 9 -1.5
v 1 9 -1.5
v 2 9 -1.5
v 3 9 -1.5
v -2 9 -2.5
v 2 9 -2.5
v -1 10 0.5
v 1 10 0.5
v -1 10 -0.5
v 1 10 -0.5
v -2 13 0.5
v -1 13 0.5
v 1 13 0.5
v 2 13 0.5
v -2 13 -0.5
v -1 13 -0.5
v 1 13 -0.5
v 2 13 -0.5
v -2 13 -1.5
v -1 13 -1.5
v 1 13 -1.5
v 2 13 -1.5
v -2 13 -2.5
v -1 13 -2.5
v 1 13 -2.5
v 2 13 -2.5
v -1 14 0.5
v 0 14 0.5
v 1 14 0.5
v -1 14 -0.5
v 0 14 -0.5
v 1 14 -0.5
v -1 14 -1.5
v 0 14 -1.5
v 1 14 -1.5
v -1 14 -2.5
v 0 14 -2.5
v 1 14 -2.5

# faces
f 3/8/1 2/8/1 1/8/1
f 4/8/1 2/8/1 3/8/1
f 6/5/1 5/5/1 4/5/1
f 7/5/1 5/5/1 6/5/1
f 10/5/1 9/5/1 8/5/1
f 11/5/1 9/5/1 10/5/1
f 14/7/1 13/7/1 12/7/1
f 15/7/1 13/7/1 14/7/1
f 17/6/1 15/6/1 14/6/1
f 18/6/1 15/6/1 17/6/1
f 20/5/1 18/5/1 17/5/1
f 20/5/1 19/5/1 18/5/1
f 20/5/1 17/5/1 16/5/1
f 21/5/1 19/5/1 20/5/1
f 22/5/1 20/5/1 16/5/1
f 23/5/1 20/5/1 22/5/1
f 24/5/1 19/5/1 21/5/1
f 25/5/1 19/5/1 24/5/1
f 30/8/1 27/8/1 26/8/1
f 31/9/1 28/9/1 27/9/1
f 31/8/1 27/8/1 30/8/1
f 32/9/1 28/9/1 31/9/1
f 33/3/1 30/3/1 29/3/1
f 34/4/1 31/4/1 30/4/1
f 34/3/1 30/3/1 33/3/1
f 35/3/1 32/3/1 31/3/1
f 35/4/1 31/4/1 34/4/1
f 36/3/1 32/3/1 35/3/1
f 40/9/1 38/9/1 37/9/1
f 41/8/1 39/8/1 38/8/1
f 41/9/1 38/9/1 40/9/1
f 42/8/1 39/8/1 41/8/1
f 44/8/1 42/8/1 41/8/1
f 45/9/1 43/9/1 42/9/1
f 45/8/1 42/8/1 44/8/1
f 46/9/1 43/9/1 45/9/1
f 51/3/1 48/3/1 47/3/1
f 52/4/1 49/4/1 48/4/1
f 52/3/1 48/3/1 51/3/1
f 53/3/1 50/3/1 49/3/1
f 53/4/1 49/4/1 52/4/1
f 54/3/1 50/3/1 53/3/1
f 57/1/1 56/1/1 55/1/1
f 58/1/1 56/1/1 57/1/1
f 59/2/1 58/2/1 57/2/1
f 60/2/1 58/2/1 59/2/1
f 63/7/1 62/7/1 61/7/1
f 64/7/1 62/7/1 63/7/1
f 65/6/1 64/6/1 63/6/1
f 66/6/1 64/6/1 65/6/1
f 69/5/1 68/5/1 67/5/1
f 70/5/1 68/5/1 69/5/1
f 71/8/2 72/8/2 73/8/2
f 73/8/2 72/8/2 74/8/2
f 74/5/2 75/5/2 76/5/2
f 76/5/2 75/5/2 77/5/2
f 78/7/2 79/7/2 80/7/2
f 80/7/2 79/7/2 81/7/2
f 80/6/2 81/6/2 82/6/2
f 82/6/2 81/6/2 83/6/2
f 84/9/2 85/9/2 87/9/2
f 85/8/2 86/8/2 88/8/2
f 87/9/2 85/9/2 88/9/2
f 88/8/2 86/8/2 89/8/2
f 88/8/2 89/8/2 91/8/2
f 89/9/2 90/9/2 92/9/2
f 91/8/2 89/8/2 92/8/2
f 92/9/2 90/9/2 93/9/2
f 94/4/2 95/4/2 98/4/2
f 95/3/2 96/3/2 99/3/2
f 98/4/2 95/4/2 99/4/2
f 96/4/2 97/4/2 100/4/2
f 99/3/2 96/3/2 100/3/2
f 100/4/2 97/4/2 101/4/2
f 102/7/2 103/7/2 104/7/2
f 104/7/2 103/7/2 105/7/2
f 104/6/2 105/6/2 107/6/2
f 107/6/2 105/6/2 108/6/2
f 107/5/2 108/5/2 111/5/2
f 108/5/2 109/5/2 111/5/2
f 106/5/2 107/5/2 111/5/2
f 110/1/2 111/1/2 112/1/2
f 112/1/2 111/1/2 113/1/2
f 113/1/2 111/1/2 115/1/2
f 111/5/2 109/5/2 116/5/2
f 115/1/2 111/1/2 116/1/2
f 116/5/2 109/5/2 117/5/2
f 117/5/2 109/5/2 118/5/2
f 114/2/2 115/2/2 119/2/2
f 115/2/2 116/2/2 119/2/2
f 116/5/2 117/5/2 120/5/2
f 119/2/2 116/2/2 120/2/2
f 120/5/2 117/5/2 121/5/2
f 118/5/2 109/5/2 122/5/2
f 122/5/2 109/5/2 123/5/2
f 124/8/2 125/8/2 128/8/2
f 125/9/2 126/9/2 129/9/2
f 128/8/2 125/8/2 129/8/2
f 129/9/2 126/9/2 130/9/2
f 127/4/2 128/4/2 131/4/2
f 128/3/2 129/3/2 132/3/2
f 131/4/2 128/4/2 132/4/2
f 129/4/2 130/4/2 133/4/2
f 132/3/2 129/3/2 133/3/2
f 133/4/2 130/4/2 134/4/2
f 135/8/2 136/8/2 137/8/2
f 137/8/2 136/8/2 138/8/2
f 139/5/2 140/5/2 141/5/2
f 141/5/2 140/5/2 142/5/2
f 143/5/2 144/5/2 145/5/2
f 145/5/2 144/5/2 146/5/2
f 150/1/3 148/1/3 147/1/3
f 151/1/3 148/1/3 150/1/3
f 152/2/3 149/2/3 148/2/3
f 152/1/3 148/1/3 151/1/3
f 153/2/3 149/2/3 152/2/3
f 154/8/3 152/8/3 151/8/3
f 155/8/3 152/8/3 154/8/3
f 158/5/3 157/5/3 156/5/3
f 159/5/3 157/5/3 158/5/3
f 162/8/3 161/8/3 160/8/3
f 163/8/3 161/8/3 162/8/3
f 168/5/3 165/5/3 164/5/3
f 170/3/3 167/3/3 166/3/3
f 171/3/3 167/3/3 170/3/3
f 173/5/3 168/5/3 164/5/3
f 174/5/3 168/5/3 173/5/3
f 175/9/3 169/9/3 168/9/3
f 175/5/3 168/5/3 174/5/3
f 176/4/3 171/4/3 170/4/3
f 177/3/3 172/3/3 171/3/3
f 177/4/3 171/4/3 176/4/3
f 178/3/3 172/3/3 177/3/3
f 179/9/3 169/9/3 175/9/3
f 180/9/3 169/9/3 179/9/3
f 181/3/3 177/3/3 176/3/3
f 182/4/3 178/4/3 177/4/3
f 182/3/3 177/3/3 181/3/3
f 183/4/3 178/4/3 182/4/3
f 184/5/3 173/5/3 164/5/3
f 185/5/3 173/5/3 184/5/3
f 186/4/3 182/4/3 181/4/3
f 187/4/3 182/4/3 186/4/3
f 190/5/3 189/5/3 188/5/3
f 191/5/3 189/5/3 190/5/3
f 196/5/3 192/5/3 191/5/3
f 197/5/3 192/5/3 196/5/3
f 200/7/3 194/7/3 193/7/3
f 201/6/3 195/6/3 194/6/3
f 201/7/3 194/7/3 200/7/3
f 202/6/3 195/6/3 201/6/3
f 204/8/3 199/8/3 198/8/3
f 205/8/3 199/8/3 204/8/3
f 206/8/3 205/8/3 204/8/3
f 206/8/3 204/8/3 203/8/3
f 209/6/3 195/6/3 202/6/3
f 210/8/3 206/8/3 203/8/3
f 211/8/3 206/8/3 210/8/3
f 212/8/3 206/8/3 211/8/3
f 213/7/3 208/7/3 207/7/3
f 214/6/3 209/6/3 208/6/3
f 214/7/3 208/7/3 213/7/3
f 215/6/3 195/6/3 209/6/3
f 215/6/3 209/6/3 214/6/3
f 218/8/3 212/8/3 211/8/3
f 219/8/3 212/8/3 218/8/3
f 220/5/3 217/5/3 216/5/3
f 221/5/3 217/5/3 220/5/3
f 222/8/4 223/8/4 224/8/4
f 224/8/4 223/8/4 225/8/4
f 226/8/4 227/8/4 228/8/4
f 228/8/4 227/8/4 229/8/4
f 230/5/4 231/5/4 232/5/4
f 232/5/4 231/5/4 233/5/4
f 234/5/4 235/5/4 236/5/4
f 236/5/4 235/5/4 237/5/4
f 237/5/4 238/5/4 242/5/4
f 242/5/4 238/5/4 243/5/4
f 239/7/4 240/7/4 244/7/4
f 240/6/4 241/6/4 245/6/4
f 244/7/4 240/7/4 245/7/4
f 245/6/4 241/6/4 246/6/4
f 246/6/4 241/6/4 251/6/4
f 247/8/4 248/8/4 252/8/4
f 252/8/4 248/8/4 253/8/4
f 249/7/4 250/7/4 254/7/4
f 250/6/4 251/6/4 255/6/4
f 254/7/4 250/7/4 255/7/4
f 251/6/4 241/6/4 256/6/4
f 255/6/4 251/6/4 256/6/4
f 257/5/4 258/5/4 259/5/4
f 259/5/4 258/5/4 260/5/4
f 263/9/4 264/9/4 267/9/4
f 264/3/4 265/3/4 268/3/4
f 267/9/4 264/9/4 268/9/4
f 268/3/4 265/3/4 269/3/4
f 266/9/4 267/9/4 271/9/4
f 267/3/4 268/3/4 271/3/4
f 268/4/4 269/4/4 272/4/4
f 271/3/4 268/3/4 272/3/4
f 269/3/4 270/3/4 273/3/4
f 272/4/4 269/4/4 273/4/4
f 273/3/4 270/3/4 274/3/4
f 266/9/4 271/9/4 275/9/4
f 271/4/4 272/4/4 276/4/4
f 275/9/4 271/9/4 276/9/4
f 272/3/4 273/3/4 277/3/4
f 276/4/4 272/4/4 277/4/4
f 273/4/4 274/4/4 278/4/4
f 277/3/4 273/3/4 278/3/4
f 278/4/4 274/4/4 279/4/4
f 261/5/4 262/5/4 280/5/4
f 280/5/4 262/5/4 281/5/4
f 276/9/4 277/9/4 282/9/4
f 277/4/4 278/4/4 283/4/4
f 282/9/4 277/9/4 283/9/4
f 283/4/4 278/4/4 284/4/4
f 289/7/5 286/7/5 285/7/5
f 290/7/5 286/7/5 289/7/5
f 291/7/5 288/7/5 287/7/5
f 292/7/5 288/7/5 291/7/5
f 295/6/5 294/6/5 293/6/5
f 296/6/5 294/6/5 295/6/5
f 301/8/5 298/8/5 297/8/5
f 302/8/5 298/8/5 301/8/5
f 303/5/5 300/5/5 299/5/5
f 304/5/5 300/5/5 303/5/5
f 307/5/5 306/5/5 305/5/5
f 308/5/5 306/5/5 307/5/5
f 311/1/5 310/1/5 309/1/5
f 312/1/5 310/1/5 311/1/5
f 315/5/5 314/5/5 313/5/5
f 316/5/5 314/5/5 315/5/5
f 319/8/5 318/8/5 317/8/5
f 320/8/5 318/8/5 319/8/5
f 322/5/5 321/5/5 320/5/5
f 323/5/5 321/5/5 322/5/5
f 328/5/5 325/5/5 324/5/5
f 329/5/5 325/5/5 328/5/5
f 330/5/5 327/5/5 326/5/5
f 331/5/5 327/5/5 330/5/5
f 334/9/5 333/9/5 332/9/5
f 335/9/5 333/9/5 334/9/5
f 340/8/5 337/8/5 336/8/5
f 341/8/5 337/8/5 340/8/5
f 342/8/5 339/8/5 338/8/5
f 343/8/5 339/8/5 342/8/5
f 344/9/5 341/9/5 340/9/5
f 345/9/5 341/9/5 344/9/5
f 346/9/5 343/9/5 342/9/5
f 347/9/5 343/9/5 346/9/5
f 353/3/5 349/3/5 348/3/5
f 354/4/5 350/4/5 349/4/5
f 354/3/5 349/3/5 353/3/5
f 355/3/5 351/3/5 350/3/5
f 355/4/5 350/4/5 354/4/5
f 356/4/5 352/4/5 351/4/5
f 356/3/5 351/3/5 355/3/5
f 357/4/5 352/4/5 356/4/5
f 358/8/6 359/8/6 360/8/6
f 360/8/6 359/8/6 361/8/6
f 362/8/6 363/8/6 364/8/6
f 364/8/6 363/8/6 365/8/6
f 365/5/6 366/5/6 369/5/6
f 369/5/6 366/5/6 370/5/6
f 367/5/6 368/5/6 371/5/6
f 371/5/6 368/5/6 372/5/6
f 373/2/6 374/2/6 377/2/6
f 377/2/6 374/2/6 378/2/6
f 378/2/6 374/2/6 379/2/6
f 375/5/6 376/5/6 381/5/6
f 381/5/6 376/5/6 382/5/6
f 378/5/6 379/5/6 383/5/6
f 383/5/6 379/5/6 384/5/6
f 381/5/6 382/5/6 386/5/6
f 380/5/6 381/5/6 386/5/6
f 386/5/6 382/5/6 387/5/6
f 387/5/6 382/5/6 388/5/6
f 384/5/6 385/5/6 389/5/6
f 383/5/6 384/5/6 389/5/6
f 389/5/6 385/5/6 390/5/6
f 390/5/6 385/5/6 391/5/6
f 387/5/6 388/5/6 392/5/6
f 389/5/6 390/5/6 392/5/6
f 388/5/6 389/5/6 392/5/6
f 392/5/6 390/5/6 393/5/6
f 394/9/6 395/9/6 396/9/6
f 396/9/6 395/9/6 397/9/6
f 398/3/6 399/3/6 402/3/6
f 402/3/6 399/3/6 403/3/6
f 400/4/6 401/4/6 404/4/6
f 404/4/6 401/4/6 405/4/6
f 402/4/6 403/4/6 406/4/6
f 406/4/6 403/4/6 407/4/6
f 404/3/6 405/3/6 408/3/6
f 408/3/6 405/3/6 409/3/6
f 406/3/6 407/3/6 410/3/6
f 410/3/6 407/3/6 411/3/6
f 408/4/6 409/4/6 412/4/6
f 412/4/6 409/4/6 413/4/6
f 414/3/6 415/3/6 417/3/6
f 415/4/6 416/4/6 418/4/6
f 417/3/6 415/3/6 418/3/6
f 418/4/6 416/4/6 419/4/6
f 417/4/6 418/4/6 420/4/6
f 418/3/6 419/3/6 421/3/6
f 420/4/6 418/4/6 421/4/6
f 421/3/6 419/3/6 422/3/6
f 420/3/6 421/3/6 423/3/6
f 421/4/6 422/4/6 424/4/6
f 423/3/6 421/3/6 424/3/6
f 424/4/6 422/4/6 425/4/6
