# MagicaVoxel @ ephtracy

# material
mtllib scummBarPirate08_head.mtl
usemtl palette

# normals
vn -1 0 0
vn 1 0 0
vn 0 0 1
vn 0 0 -1
vn 0 -1 0
vn 0 1 0

# texcoords
vt 0.951172 0.5
vt 0.970703 0.5

# verts
v -2 2 0.5
v -2 2 -0.5
v -2 3 0.5
v -2 3 -0.5
v -2 3 -1.5
v -2 4 0.5
v -2 4 -1.5
v -1 0 0.5
v -1 0 -0.5
v -1 2 0.5
v -1 2 -0.5
v -1 2 -1.5
v -1 3 1.5
v -1 3 0.5
v -1 3 -0.5
v -1 3 -1.5
v -1 4 0.5
v -1 4 -0.5
v -1 5 1.5
v -1 5 -0.5
v 1 0 0.5
v 1 0 -0.5
v 1 2 0.5
v 1 2 -0.5
v 1 2 -1.5
v 1 3 1.5
v 1 3 0.5
v 1 3 -0.5
v 1 3 -1.5
v 1 4 0.5
v 1 4 -0.5
v 1 5 1.5
v 1 5 -0.5
v 2 2 0.5
v 2 2 -0.5
v 2 3 0.5
v 2 3 -0.5
v 2 3 -1.5
v 2 4 0.5
v 2 4 -1.5
v -1 3 1.5
v -1 5 1.5
v 1 3 1.5
v 1 5 1.5
v -2 2 0.5
v -2 3 0.5
v -2 4 0.5
v -1 0 0.5
v -1 2 0.5
v -1 3 0.5
v -1 4 0.5
v 1 0 0.5
v 1 2 0.5
v 1 3 0.5
v 1 4 0.5
v 2 2 0.5
v 2 3 0.5
v 2 4 0.5
v -2 2 -0.5
v -2 3 -0.5
v -1 0 -0.5
v -1 2 -0.5
v -1 3 -0.5
v -1 4 -0.5
v -1 5 -0.5
v 1 0 -0.5
v 1 2 -0.5
v 1 3 -0.5
v 1 4 -0.5
v 1 5 -0.5
v 2 2 -0.5
v 2 3 -0.5
v -2 3 -1.5
v -2 4 -1.5
v -1 2 -1.5
v -1 3 -1.5
v 1 2 -1.5
v 1 3 -1.5
v 2 3 -1.5
v 2 4 -1.5
v -1 0 0.5
v 1 0 0.5
v -1 0 -0.5
v 1 0 -0.5
v -2 2 0.5
v -1 2 0.5
v 1 2 0.5
v 2 2 0.5
v -2 2 -0.5
v -1 2 -0.5
v 1 2 -0.5
v 2 2 -0.5
v -1 2 -1.5
v 1 2 -1.5
v -1 3 1.5
v 1 3 1.5
v -1 3 0.5
v 1 3 0.5
v -2 3 -0.5
v -1 3 -0.5
v 1 3 -0.5
v 2 3 -0.5
v -2 3 -1.5
v -1 3 -1.5
v 1 3 -1.5
v 2 3 -1.5
v -2 4 0.5
v -1 4 0.5
v 1 4 0.5
v 2 4 0.5
v -1 4 -0.5
v 1 4 -0.5
v -2 4 -1.5
v 2 4 -1.5
v -1 5 1.5
v 1 5 1.5
v -1 5 -0.5
v 1 5 -0.5

# faces
f 3/2/1 2/2/1 1/2/1
f 4/2/1 2/2/1 3/2/1
f 6/1/1 4/1/1 3/1/1
f 6/1/1 5/1/1 4/1/1
f 7/1/1 5/1/1 6/1/1
f 10/2/1 9/2/1 8/2/1
f 11/2/1 9/2/1 10/2/1
f 15/1/1 12/1/1 11/1/1
f 16/1/1 12/1/1 15/1/1
f 17/1/1 14/1/1 13/1/1
f 19/1/1 17/1/1 13/1/1
f 19/1/1 18/1/1 17/1/1
f 20/1/1 18/1/1 19/1/1
f 21/2/2 22/2/2 23/2/2
f 23/2/2 22/2/2 24/2/2
f 24/1/2 25/1/2 28/1/2
f 28/1/2 25/1/2 29/1/2
f 26/1/2 27/1/2 30/1/2
f 26/1/2 30/1/2 32/1/2
f 30/1/2 31/1/2 32/1/2
f 32/1/2 31/1/2 33/1/2
f 34/2/2 35/2/2 36/2/2
f 36/2/2 35/2/2 37/2/2
f 36/1/2 37/1/2 39/1/2
f 37/1/2 38/1/2 39/1/2
f 39/1/2 38/1/2 40/1/2
f 43/1/3 42/1/3 41/1/3
f 44/1/3 42/1/3 43/1/3
f 49/2/3 46/2/3 45/2/3
f 50/1/3 47/1/3 46/1/3
f 50/2/3 46/2/3 49/2/3
f 51/1/3 47/1/3 50/1/3
f 52/2/3 49/2/3 48/2/3
f 52/2/3 50/2/3 49/2/3
f 53/2/3 50/2/3 52/2/3
f 54/2/3 50/2/3 53/2/3
f 56/2/3 54/2/3 53/2/3
f 57/1/3 55/1/3 54/1/3
f 57/2/3 54/2/3 56/2/3
f 58/1/3 55/1/3 57/1/3
f 59/2/4 60/2/4 62/2/4
f 62/2/4 60/2/4 63/2/4
f 61/2/4 62/2/4 66/2/4
f 66/2/4 62/2/4 67/2/4
f 64/1/4 65/1/4 69/1/4
f 69/1/4 65/1/4 70/1/4
f 67/2/4 68/2/4 71/2/4
f 71/2/4 68/2/4 72/2/4
f 73/1/4 74/1/4 76/1/4
f 75/1/4 76/1/4 77/1/4
f 76/1/4 74/1/4 78/1/4
f 77/1/4 76/1/4 78/1/4
f 78/1/4 74/1/4 79/1/4
f 79/1/4 74/1/4 80/1/4
f 83/2/5 82/2/5 81/2/5
f 84/2/5 82/2/5 83/2/5
f 89/2/5 86/2/5 85/2/5
f 90/2/5 86/2/5 89/2/5
f 91/2/5 88/2/5 87/2/5
f 92/2/5 88/2/5 91/2/5
f 93/1/5 91/1/5 90/1/5
f 94/1/5 91/1/5 93/1/5
f 97/1/5 96/1/5 95/1/5
f 98/1/5 96/1/5 97/1/5
f 103/1/5 100/1/5 99/1/5
f 104/1/5 100/1/5 103/1/5
f 105/1/5 102/1/5 101/1/5
f 106/1/5 102/1/5 105/1/5
f 107/1/6 108/1/6 111/1/6
f 109/1/6 110/1/6 112/1/6
f 107/1/6 111/1/6 113/1/6
f 111/1/6 112/1/6 113/1/6
f 112/1/6 110/1/6 114/1/6
f 113/1/6 112/1/6 114/1/6
f 115/1/6 116/1/6 117/1/6
f 117/1/6 116/1/6 118/1/6
