# MagicaVoxel @ ephtracy

# material
mtllib scummBarPirate04.mtl
usemtl palette

# normals
vn -1 0 0
vn 1 0 0
vn 0 0 1
vn 0 0 -1
vn 0 -1 0
vn 0 1 0

# texcoords
vt 0.908203 0.5
vt 0.939453 0.5
vt 0.943359 0.5
vt 0.947266 0.5
vt 0.970703 0.5
vt 0.974609 0.5

# verts
v -4 5 -1
v -4 5 -2
v -4 6 -1
v -4 6 -2
v -4 8 -1
v -4 8 -2
v -3 8 -1
v -3 8 -2
v -3 9 -1
v -3 9 -2
v -2 0 -1
v -2 0 -2
v -2 1 -1
v -2 1 -2
v -2 5 -0
v -2 5 -1
v -2 5 -2
v -2 5 -3
v -2 8 -1
v -2 8 -2
v -2 9 -0
v -2 9 -1
v -2 9 -2
v -2 9 -3
v -2 11 -1
v -2 11 -2
v -2 11 -3
v -2 12 -1
v -2 12 -2
v -2 12 -3
v -2 13 -1
v -2 13 -2
v -1 9 -0
v -1 9 -1
v -1 9 -2
v -1 10 -0
v -1 10 -1
v -1 10 -2
v -1 10 -3
v -1 11 -1
v -1 11 -2
v -1 11 -3
v -1 12 -2
v -1 12 -3
v -1 13 -1
v -1 13 -2
v -1 13 -3
v -1 14 -1
v -1 14 -3
v 1 0 -1
v 1 0 -2
v 1 1 -1
v 1 1 -2
v 1 4 -1
v 1 4 -2
v 2 5 3
v 2 5 1
v 2 7 3
v 2 7 1
v 3 6 1
v 3 6 -0
v 3 6 -1
v 3 7 1
v 3 7 -0
v 3 7 -1
v 3 7 -2
v 3 8 -1
v 3 8 -2
v -3 5 -1
v -3 5 -2
v -3 6 -1
v -3 6 -2
v -3 8 -1
v -3 8 -2
v -1 0 -1
v -1 0 -2
v -1 1 -1
v -1 1 -2
v -1 4 -1
v -1 4 -2
v 1 9 -0
v 1 9 -1
v 1 9 -2
v 1 10 -0
v 1 10 -1
v 1 10 -2
v 1 10 -3
v 1 11 -1
v 1 11 -2
v 1 11 -3
v 1 12 -2
v 1 12 -3
v 1 13 -1
v 1 13 -2
v 1 13 -3
v 1 14 -1
v 1 14 -3
v 2 0 -1
v 2 0 -2
v 2 1 -1
v 2 1 -2
v 2 5 -0
v 2 5 -1
v 2 5 -2
v 2 5 -3
v 2 8 -1
v 2 8 -2
v 2 9 -0
v 2 9 -1
v 2 9 -2
v 2 9 -3
v 2 11 -1
v 2 11 -2
v 2 11 -3
v 2 12 -1
v 2 12 -2
v 2 12 -3
v 2 13 -1
v 2 13 -2
v 3 8 -1
v 3 8 -2
v 3 9 -1
v 3 9 -2
v 4 5 3
v 4 5 1
v 4 6 1
v 4 6 -0
v 4 6 -1
v 4 7 3
v 4 7 1
v 4 7 -0
v 4 7 -1
v 4 7 -2
v 4 8 -1
v 4 8 -2
v 2 5 3
v 2 7 3
v 4 5 3
v 4 7 3
v -2 5 -0
v -2 9 -0
v -1 9 -0
v -1 10 -0
v 1 9 -0
v 1 10 -0
v 2 5 -0
v 2 9 -0
v -4 5 -1
v -4 6 -1
v -4 8 -1
v -3 5 -1
v -3 6 -1
v -3 8 -1
v -3 9 -1
v -2 0 -1
v -2 1 -1
v -2 5 -1
v -2 8 -1
v -2 9 -1
v -2 11 -1
v -2 12 -1
v -2 13 -1
v -1 0 -1
v -1 1 -1
v -1 4 -1
v -1 10 -1
v -1 11 -1
v -1 12 -1
v -1 13 -1
v -1 14 -1
v 1 0 -1
v 1 1 -1
v 1 4 -1
v 1 10 -1
v 1 11 -1
v 1 12 -1
v 1 13 -1
v 1 14 -1
v 2 0 -1
v 2 1 -1
v 2 5 -1
v 2 8 -1
v 2 9 -1
v 2 11 -1
v 2 12 -1
v 2 13 -1
v 3 7 -1
v 3 8 -1
v 3 9 -1
v 4 7 -1
v 4 8 -1
v 2 5 1
v 2 7 1
v 3 6 1
v 3 7 1
v 4 5 1
v 4 6 1
v 3 6 -1
v 3 7 -1
v 4 6 -1
v 4 7 -1
v -4 5 -2
v -4 6 -2
v -4 8 -2
v -3 5 -2
v -3 6 -2
v -3 8 -2
v -3 9 -2
v -2 0 -2
v -2 1 -2
v -2 5 -2
v -2 8 -2
v -2 9 -2
v -2 12 -2
v -2 13 -2
v -1 0 -2
v -1 1 -2
v -1 4 -2
v -1 9 -2
v -1 10 -2
v -1 12 -2
v -1 13 -2
v 1 0 -2
v 1 1 -2
v 1 4 -2
v 1 9 -2
v 1 10 -2
v 1 12 -2
v 1 13 -2
v 2 0 -2
v 2 1 -2
v 2 5 -2
v 2 8 -2
v 2 9 -2
v 2 12 -2
v 2 13 -2
v 3 7 -2
v 3 8 -2
v 3 9 -2
v 4 7 -2
v 4 8 -2
v -2 5 -3
v -2 9 -3
v -2 11 -3
v -2 12 -3
v -1 10 -3
v -1 11 -3
v -1 12 -3
v -1 13 -3
v -1 14 -3
v 1 10 -3
v 1 11 -3
v 1 12 -3
v 1 13 -3
v 1 14 -3
v 2 5 -3
v 2 9 -3
v 2 11 -3
v 2 12 -3
v -2 0 -1
v -1 0 -1
v 1 0 -1
v 2 0 -1
v -2 0 -2
v -1 0 -2
v 1 0 -2
v 2 0 -2
v -1 4 -1
v 1 4 -1
v -1 4 -2
v 1 4 -2
v 2 5 3
v 4 5 3
v 2 5 1
v 4 5 1
v -2 5 -0
v 2 5 -0
v -4 5 -1
v -3 5 -1
v -2 5 -1
v 2 5 -1
v -4 5 -2
v -3 5 -2
v -2 5 -2
v 2 5 -2
v -2 5 -3
v 2 5 -3
v 3 6 1
v 4 6 1
v 3 6 -0
v 4 6 -0
v 3 6 -1
v 4 6 -1
v 3 7 -1
v 4 7 -1
v 3 7 -2
v 4 7 -2
v -3 8 -1
v -2 8 -1
v 2 8 -1
v 3 8 -1
v -3 8 -2
v -2 8 -2
v 2 8 -2
v 3 8 -2
v -1 10 -2
v 1 10 -2
v -1 10 -3
v 1 10 -3
v -2 11 -1
v -1 11 -1
v 1 11 -1
v 2 11 -1
v -2 11 -2
v -1 11 -2
v 1 11 -2
v 2 11 -2
v -2 11 -3
v -1 11 -3
v 1 11 -3
v 2 11 -3
v 2 7 3
v 4 7 3
v 2 7 1
v 3 7 1
v 4 7 1
v 3 7 -0
v 4 7 -0
v 3 7 -1
v 4 7 -1
v -4 8 -1
v -3 8 -1
v 3 8 -1
v 4 8 -1
v -4 8 -2
v -3 8 -2
v 3 8 -2
v 4 8 -2
v -2 9 -0
v -1 9 -0
v 1 9 -0
v 2 9 -0
v -3 9 -1
v -2 9 -1
v -1 9 -1
v 1 9 -1
v 2 9 -1
v 3 9 -1
v -3 9 -2
v -2 9 -2
v -1 9 -2
v 1 9 -2
v 2 9 -2
v 3 9 -2
v -2 9 -3
v 2 9 -3
v -1 10 -0
v 1 10 -0
v -1 10 -1
v 1 10 -1
v -2 12 -2
v -1 12 -2
v 1 12 -2
v 2 12 -2
v -2 12 -3
v -1 12 -3
v 1 12 -3
v 2 12 -3
v -2 13 -1
v -1 13 -1
v 1 13 -1
v 2 13 -1
v -2 13 -2
v -1 13 -2
v 1 13 -2
v 2 13 -2
v -1 14 -1
v 1 14 -1
v -1 14 -3
v 1 14 -3

# faces
f 3/5/1 2/5/1 1/5/1
f 4/5/1 2/5/1 3/5/1
f 5/2/1 4/2/1 3/2/1
f 6/2/1 4/2/1 5/2/1
f 9/2/1 8/2/1 7/2/1
f 10/2/1 8/2/1 9/2/1
f 13/4/1 12/4/1 11/4/1
f 14/4/1 12/4/1 13/4/1
f 16/3/1 14/3/1 13/3/1
f 17/3/1 14/3/1 16/3/1
f 19/2/1 17/2/1 16/2/1
f 19/2/1 18/2/1 17/2/1
f 19/2/1 16/2/1 15/2/1
f 20/2/1 18/2/1 19/2/1
f 21/2/1 19/2/1 15/2/1
f 22/2/1 19/2/1 21/2/1
f 23/2/1 18/2/1 20/2/1
f 24/2/1 18/2/1 23/2/1
f 28/5/1 26/5/1 25/5/1
f 29/6/1 27/6/1 26/6/1
f 29/5/1 26/5/1 28/5/1
f 30/6/1 27/6/1 29/6/1
f 31/6/1 29/6/1 28/6/1
f 32/6/1 29/6/1 31/6/1
f 36/6/1 34/6/1 33/6/1
f 37/5/1 35/5/1 34/5/1
f 37/6/1 34/6/1 36/6/1
f 38/5/1 35/5/1 37/5/1
f 40/5/1 38/5/1 37/5/1
f 41/6/1 39/6/1 38/6/1
f 41/5/1 38/5/1 40/5/1
f 42/6/1 39/6/1 41/6/1
f 46/6/1 44/6/1 43/6/1
f 47/6/1 44/6/1 46/6/1
f 48/2/1 46/2/1 45/2/1
f 48/2/1 47/2/1 46/2/1
f 49/2/1 47/2/1 48/2/1
f 52/4/1 51/4/1 50/4/1
f 53/4/1 51/4/1 52/4/1
f 54/3/1 53/3/1 52/3/1
f 55/3/1 53/3/1 54/3/1
f 58/1/1 57/1/1 56/1/1
f 59/1/1 57/1/1 58/1/1
f 63/5/1 61/5/1 60/5/1
f 64/2/1 62/2/1 61/2/1
f 64/5/1 61/5/1 63/5/1
f 65/2/1 62/2/1 64/2/1
f 67/2/1 66/2/1 65/2/1
f 68/2/1 66/2/1 67/2/1
f 69/5/2 70/5/2 71/5/2
f 71/5/2 70/5/2 72/5/2
f 71/2/2 72/2/2 73/2/2
f 73/2/2 72/2/2 74/2/2
f 75/4/2 76/4/2 77/4/2
f 77/4/2 76/4/2 78/4/2
f 77/3/2 78/3/2 79/3/2
f 79/3/2 78/3/2 80/3/2
f 81/6/2 82/6/2 84/6/2
f 82/5/2 83/5/2 85/5/2
f 84/6/2 82/6/2 85/6/2
f 85/5/2 83/5/2 86/5/2
f 85/5/2 86/5/2 88/5/2
f 86/6/2 87/6/2 89/6/2
f 88/5/2 86/5/2 89/5/2
f 89/6/2 87/6/2 90/6/2
f 91/6/2 92/6/2 94/6/2
f 94/6/2 92/6/2 95/6/2
f 93/2/2 94/2/2 96/2/2
f 94/2/2 95/2/2 96/2/2
f 96/2/2 95/2/2 97/2/2
f 98/4/2 99/4/2 100/4/2
f 100/4/2 99/4/2 101/4/2
f 100/3/2 101/3/2 103/3/2
f 103/3/2 101/3/2 104/3/2
f 103/2/2 104/2/2 106/2/2
f 104/2/2 105/2/2 106/2/2
f 102/2/2 103/2/2 106/2/2
f 106/2/2 105/2/2 107/2/2
f 102/2/2 106/2/2 108/2/2
f 108/2/2 106/2/2 109/2/2
f 107/2/2 105/2/2 110/2/2
f 110/2/2 105/2/2 111/2/2
f 112/5/2 113/5/2 115/5/2
f 113/6/2 114/6/2 116/6/2
f 115/5/2 113/5/2 116/5/2
f 116/6/2 114/6/2 117/6/2
f 115/6/2 116/6/2 118/6/2
f 118/6/2 116/6/2 119/6/2
f 120/2/2 121/2/2 122/2/2
f 122/2/2 121/2/2 123/2/2
f 124/1/2 125/1/2 126/1/2
f 124/1/2 126/1/2 129/1/2
f 126/5/2 127/5/2 130/5/2
f 129/1/2 126/1/2 130/1/2
f 127/2/2 128/2/2 131/2/2
f 130/5/2 127/5/2 131/5/2
f 131/2/2 128/2/2 132/2/2
f 132/2/2 133/2/2 134/2/2
f 134/2/2 133/2/2 135/2/2
f 138/1/3 137/1/3 136/1/3
f 139/1/3 137/1/3 138/1/3
f 142/2/3 141/2/3 140/2/3
f 144/2/3 142/2/3 140/2/3
f 144/6/3 143/6/3 142/6/3
f 145/6/3 143/6/3 144/6/3
f 146/2/3 144/2/3 140/2/3
f 147/2/3 144/2/3 146/2/3
f 151/5/3 149/5/3 148/5/3
f 152/2/3 150/2/3 149/2/3
f 152/5/3 149/5/3 151/5/3
f 153/2/3 150/2/3 152/2/3
f 158/2/3 154/2/3 153/2/3
f 159/2/3 154/2/3 158/2/3
f 163/4/3 156/4/3 155/4/3
f 164/3/3 157/3/3 156/3/3
f 164/4/3 156/4/3 163/4/3
f 165/3/3 157/3/3 164/3/3
f 167/5/3 161/5/3 160/5/3
f 168/6/3 162/6/3 161/6/3
f 168/5/3 161/5/3 167/5/3
f 169/6/3 162/6/3 168/6/3
f 173/3/3 157/3/3 165/3/3
f 174/5/3 167/5/3 166/5/3
f 174/5/3 169/5/3 168/5/3
f 174/5/3 168/5/3 167/5/3
f 175/5/3 169/5/3 174/5/3
f 176/5/3 169/5/3 175/5/3
f 177/2/3 170/2/3 169/2/3
f 177/5/3 169/5/3 176/5/3
f 178/2/3 170/2/3 177/2/3
f 179/4/3 172/4/3 171/4/3
f 180/3/3 173/3/3 172/3/3
f 180/4/3 172/4/3 179/4/3
f 181/3/3 157/3/3 173/3/3
f 181/3/3 173/3/3 180/3/3
f 184/5/3 176/5/3 175/5/3
f 185/6/3 177/6/3 176/6/3
f 185/5/3 176/5/3 184/5/3
f 186/6/3 177/6/3 185/6/3
f 188/2/3 183/2/3 182/2/3
f 189/2/3 183/2/3 188/2/3
f 190/2/3 188/2/3 187/2/3
f 191/2/3 188/2/3 190/2/3
f 192/1/4 193/1/4 194/1/4
f 194/1/4 193/1/4 195/1/4
f 192/1/4 194/1/4 196/1/4
f 196/1/4 194/1/4 197/1/4
f 198/2/4 199/2/4 200/2/4
f 200/2/4 199/2/4 201/2/4
f 202/5/4 203/5/4 205/5/4
f 203/2/4 204/2/4 206/2/4
f 205/5/4 203/5/4 206/5/4
f 206/2/4 204/2/4 207/2/4
f 207/2/4 208/2/4 212/2/4
f 212/2/4 208/2/4 213/2/4
f 209/4/4 210/4/4 216/4/4
f 210/3/4 211/3/4 217/3/4
f 216/4/4 210/4/4 217/4/4
f 217/3/4 211/3/4 218/3/4
f 214/6/4 215/6/4 221/6/4
f 221/6/4 215/6/4 222/6/4
f 218/3/4 211/3/4 225/3/4
f 219/5/4 220/5/4 226/5/4
f 226/5/4 220/5/4 227/5/4
f 223/4/4 224/4/4 230/4/4
f 224/3/4 225/3/4 231/3/4
f 230/4/4 224/4/4 231/4/4
f 225/3/4 211/3/4 232/3/4
f 231/3/4 225/3/4 232/3/4
f 228/6/4 229/6/4 235/6/4
f 235/6/4 229/6/4 236/6/4
f 233/2/4 234/2/4 238/2/4
f 238/2/4 234/2/4 239/2/4
f 237/2/4 238/2/4 240/2/4
f 240/2/4 238/2/4 241/2/4
f 244/6/4 245/6/4 247/6/4
f 247/6/4 245/6/4 248/6/4
f 246/6/4 247/6/4 251/6/4
f 247/6/4 248/6/4 251/6/4
f 248/6/4 249/6/4 251/6/4
f 251/6/4 249/6/4 252/6/4
f 252/6/4 249/6/4 253/6/4
f 249/2/4 250/2/4 254/2/4
f 253/6/4 249/6/4 254/6/4
f 254/2/4 250/2/4 255/2/4
f 242/2/4 243/2/4 256/2/4
f 256/2/4 243/2/4 257/2/4
f 252/6/4 253/6/4 258/6/4
f 258/6/4 253/6/4 259/6/4
f 264/4/5 261/4/5 260/4/5
f 265/4/5 261/4/5 264/4/5
f 266/4/5 263/4/5 262/4/5
f 267/4/5 263/4/5 266/4/5
f 270/3/5 269/3/5 268/3/5
f 271/3/5 269/3/5 270/3/5
f 274/1/5 273/1/5 272/1/5
f 275/1/5 273/1/5 274/1/5
f 280/2/5 277/2/5 276/2/5
f 281/2/5 277/2/5 280/2/5
f 282/5/5 279/5/5 278/5/5
f 283/5/5 279/5/5 282/5/5
f 286/2/5 285/2/5 284/2/5
f 287/2/5 285/2/5 286/2/5
f 290/5/5 289/5/5 288/5/5
f 291/5/5 289/5/5 290/5/5
f 292/2/5 291/2/5 290/2/5
f 293/2/5 291/2/5 292/2/5
f 296/2/5 295/2/5 294/2/5
f 297/2/5 295/2/5 296/2/5
f 302/2/5 299/2/5 298/2/5
f 303/2/5 299/2/5 302/2/5
f 304/2/5 301/2/5 300/2/5
f 305/2/5 301/2/5 304/2/5
f 308/6/5 307/6/5 306/6/5
f 309/6/5 307/6/5 308/6/5
f 314/5/5 311/5/5 310/5/5
f 315/5/5 311/5/5 314/5/5
f 316/5/5 313/5/5 312/5/5
f 317/5/5 313/5/5 316/5/5
f 318/6/5 315/6/5 314/6/5
f 319/6/5 315/6/5 318/6/5
f 320/6/5 317/6/5 316/6/5
f 321/6/5 317/6/5 320/6/5
f 322/1/6 323/1/6 324/1/6
f 324/1/6 323/1/6 325/1/6
f 325/1/6 323/1/6 326/1/6
f 325/5/6 326/5/6 327/5/6
f 327/5/6 326/5/6 328/5/6
f 327/2/6 328/2/6 329/2/6
f 329/2/6 328/2/6 330/2/6
f 331/2/6 332/2/6 335/2/6
f 335/2/6 332/2/6 336/2/6
f 333/2/6 334/2/6 337/2/6
f 337/2/6 334/2/6 338/2/6
f 339/2/6 340/2/6 344/2/6
f 344/2/6 340/2/6 345/2/6
f 341/2/6 342/2/6 346/2/6
f 346/2/6 342/2/6 347/2/6
f 344/2/6 345/2/6 349/2/6
f 343/2/6 344/2/6 349/2/6
f 349/2/6 345/2/6 350/2/6
f 350/2/6 345/2/6 351/2/6
f 347/2/6 348/2/6 352/2/6
f 346/2/6 347/2/6 352/2/6
f 352/2/6 348/2/6 353/2/6
f 353/2/6 348/2/6 354/2/6
f 350/2/6 351/2/6 355/2/6
f 352/2/6 353/2/6 355/2/6
f 351/2/6 352/2/6 355/2/6
f 355/2/6 353/2/6 356/2/6
f 357/6/6 358/6/6 359/6/6
f 359/6/6 358/6/6 360/6/6
f 361/6/6 362/6/6 365/6/6
f 365/6/6 362/6/6 366/6/6
f 363/6/6 364/6/6 367/6/6
f 367/6/6 364/6/6 368/6/6
f 369/6/6 370/6/6 373/6/6
f 373/6/6 370/6/6 374/6/6
f 371/6/6 372/6/6 375/6/6
f 375/6/6 372/6/6 376/6/6
f 377/2/6 378/2/6 379/2/6
f 379/2/6 378/2/6 380/2/6
