# MagicaVoxel @ ephtracy

# material
mtllib guybrushIdleStill.mtl
usemtl palette

# normals
vn -1 0 0
vn 1 0 0
vn 0 0 1
vn 0 0 -1
vn 0 -1 0
vn 0 1 0

# texcoords
vt 0.146484 0.5
vt 0.416016 0.5
vt 0.478516 0.5
vt 0.939453 0.5
vt 0.943359 0.5
vt 0.947266 0.5
vt 0.951172 0.5
vt 0.955078 0.5
vt 0.970703 0.5
vt 0.974609 0.5

# verts
v -4 6 2.5
v -4 6 1.5
v -4 6 0.5
v -4 7 2.5
v -4 7 1.5
v -4 7 0.5
v -4 7 -0.5
v -4 8 0.5
v -4 8 -0.5
v -3 8 0.5
v -3 8 -0.5
v -3 9 0.5
v -3 9 -0.5
v -2 0 0.5
v -2 0 -0.5
v -2 1 0.5
v -2 1 -0.5
v -2 2 0.5
v -2 2 -0.5
v -2 5 1.5
v -2 5 0.5
v -2 5 -0.5
v -2 5 -1.5
v -2 6 1.5
v -2 6 -1.5
v -2 7 1.5
v -2 7 -1.5
v -2 8 0.5
v -2 8 -0.5
v -2 9 1.5
v -2 9 0.5
v -2 9 -0.5
v -2 9 -1.5
v -2 10 -0.5
v -2 10 -1.5
v -2 11 0.5
v -2 11 -0.5
v -2 11 -1.5
v -2 12 1.5
v -2 12 0.5
v -2 12 -0.5
v -2 12 -1.5
v -2 13 1.5
v -2 13 0.5
v -2 13 -0.5
v -2 13 -1.5
v -2 14 0.5
v -2 14 -0.5
v -1 9 0.5
v -1 9 -0.5
v -1 10 -0.5
v -1 11 0.5
v -1 11 -0.5
v -1 11 -1.5
v -1 12 -0.5
v -1 12 -1.5
v -1 13 1.5
v -1 13 0.5
v -1 13 -0.5
v -1 13 -1.5
v -1 14 1.5
v -1 14 0.5
v -1 14 -0.5
v -1 14 -1.5
v 0 14 0.5
v 0 14 -0.5
v 0 15 0.5
v 0 15 -0.5
v 1 0 0.5
v 1 0 -0.5
v 1 1 0.5
v 1 1 -0.5
v 1 2 0.5
v 1 2 -0.5
v 1 4 0.5
v 1 4 -0.5
v 1 14 1.5
v 1 14 0.5
v 1 14 -0.5
v 1 14 -1.5
v 1 15 1.5
v 1 15 0.5
v 1 15 -0.5
v 1 15 -1.5
v 3 6 2.5
v 3 6 1.5
v 3 6 0.5
v 3 7 2.5
v 3 7 1.5
v 3 7 0.5
v 3 7 -0.5
v 3 8 0.5
v 3 8 -0.5
v -3 6 2.5
v -3 6 1.5
v -3 6 0.5
v -3 7 2.5
v -3 7 1.5
v -3 7 0.5
v -3 7 -0.5
v -3 8 0.5
v -3 8 -0.5
v -1 0 0.5
v -1 0 -0.5
v -1 1 0.5
v -1 1 -0.5
v -1 2 0.5
v -1 2 -0.5
v -1 4 0.5
v -1 4 -0.5
v -1 12 1.5
v -1 12 0.5
v -1 13 1.5
v -1 13 0.5
v 0 10 -0.5
v 0 10 -1.5
v 0 11 -0.5
v 0 11 -1.5
v 1 9 0.5
v 1 9 -0.5
v 1 11 0.5
v 1 11 -0.5
v 1 11 -1.5
v 1 12 -0.5
v 1 13 -0.5
v 1 13 -1.5
v 2 0 0.5
v 2 0 -0.5
v 2 1 0.5
v 2 1 -0.5
v 2 2 0.5
v 2 2 -0.5
v 2 3 0.5
v 2 3 -0.5
v 2 5 1.5
v 2 5 0.5
v 2 5 -0.5
v 2 5 -1.5
v 2 6 1.5
v 2 6 0.5
v 2 6 -0.5
v 2 6 -1.5
v 2 7 1.5
v 2 7 -1.5
v 2 8 0.5
v 2 8 -0.5
v 2 9 1.5
v 2 9 0.5
v 2 9 -0.5
v 2 9 -1.5
v 2 11 0.5
v 2 11 -0.5
v 2 12 0.5
v 2 12 -0.5
v 2 13 0.5
v 2 13 -0.5
v 2 14 1.5
v 2 14 0.5
v 2 14 -0.5
v 2 14 -1.5
v 2 15 1.5
v 2 15 0.5
v 2 15 -0.5
v 2 15 -1.5
v 3 3 0.5
v 3 3 -0.5
v 3 6 0.5
v 3 6 -0.5
v 3 8 0.5
v 3 8 -0.5
v 3 9 0.5
v 3 9 -0.5
v 3 13 1.5
v 3 13 -1.5
v 3 14 1.5
v 3 14 0.5
v 3 14 -0.5
v 3 14 -1.5
v 3 15 0.5
v 3 15 -0.5
v 4 6 2.5
v 4 6 1.5
v 4 6 0.5
v 4 7 2.5
v 4 7 1.5
v 4 7 0.5
v 4 7 -0.5
v 4 8 0.5
v 4 8 -0.5
v -4 6 2.5
v -4 7 2.5
v -3 6 2.5
v -3 7 2.5
v 3 6 2.5
v 3 7 2.5
v 4 6 2.5
v 4 7 2.5
v -2 5 1.5
v -2 6 1.5
v -2 7 1.5
v -2 9 1.5
v -2 12 1.5
v -2 13 1.5
v -1 7 1.5
v -1 9 1.5
v -1 12 1.5
v -1 13 1.5
v -1 14 1.5
v 1 7 1.5
v 1 9 1.5
v 1 14 1.5
v 1 15 1.5
v 2 5 1.5
v 2 6 1.5
v 2 7 1.5
v 2 9 1.5
v 2 14 1.5
v 2 15 1.5
v 3 13 1.5
v 3 14 1.5
v -4 7 0.5
v -4 8 0.5
v -3 7 0.5
v -3 8 0.5
v -3 9 0.5
v -2 0 0.5
v -2 1 0.5
v -2 2 0.5
v -2 5 0.5
v -2 8 0.5
v -2 9 0.5
v -2 11 0.5
v -2 12 0.5
v -2 13 0.5
v -2 14 0.5
v -1 0 0.5
v -1 1 0.5
v -1 2 0.5
v -1 4 0.5
v -1 9 0.5
v -1 11 0.5
v -1 12 0.5
v -1 13 0.5
v -1 14 0.5
v 0 14 0.5
v 0 15 0.5
v 1 0 0.5
v 1 1 0.5
v 1 2 0.5
v 1 4 0.5
v 1 9 0.5
v 1 11 0.5
v 1 12 0.5
v 1 13 0.5
v 1 14 0.5
v 1 15 0.5
v 2 0 0.5
v 2 1 0.5
v 2 2 0.5
v 2 3 0.5
v 2 5 0.5
v 2 6 0.5
v 2 8 0.5
v 2 9 0.5
v 2 11 0.5
v 2 12 0.5
v 2 13 0.5
v 2 14 0.5
v 2 15 0.5
v 3 3 0.5
v 3 6 0.5
v 3 7 0.5
v 3 8 0.5
v 3 9 0.5
v 3 14 0.5
v 3 15 0.5
v 4 7 0.5
v 4 8 0.5
v -2 10 -0.5
v -2 11 -0.5
v -1 10 -0.5
v -1 11 -0.5
v -4 6 0.5
v -4 7 0.5
v -3 6 0.5
v -3 7 0.5
v 3 6 0.5
v 3 7 0.5
v 4 6 0.5
v 4 7 0.5
v -4 7 -0.5
v -4 8 -0.5
v -3 7 -0.5
v -3 8 -0.5
v -3 9 -0.5
v -2 0 -0.5
v -2 1 -0.5
v -2 2 -0.5
v -2 5 -0.5
v -2 8 -0.5
v -2 9 -0.5
v -2 11 -0.5
v -2 12 -0.5
v -2 13 -0.5
v -2 14 -0.5
v -1 0 -0.5
v -1 1 -0.5
v -1 2 -0.5
v -1 4 -0.5
v -1 9 -0.5
v -1 10 -0.5
v -1 11 -0.5
v -1 12 -0.5
v -1 13 -0.5
v -1 14 -0.5
v 0 10 -0.5
v 0 11 -0.5
v 0 14 -0.5
v 0 15 -0.5
v 1 0 -0.5
v 1 1 -0.5
v 1 2 -0.5
v 1 4 -0.5
v 1 9 -0.5
v 1 11 -0.5
v 1 12 -0.5
v 1 13 -0.5
v 1 14 -0.5
v 1 15 -0.5
v 2 0 -0.5
v 2 1 -0.5
v 2 2 -0.5
v 2 3 -0.5
v 2 5 -0.5
v 2 6 -0.5
v 2 8 -0.5
v 2 9 -0.5
v 2 11 -0.5
v 2 12 -0.5
v 2 13 -0.5
v 2 14 -0.5
v 2 15 -0.5
v 3 3 -0.5
v 3 6 -0.5
v 3 7 -0.5
v 3 8 -0.5
v 3 9 -0.5
v 3 14 -0.5
v 3 15 -0.5
v 4 7 -0.5
v 4 8 -0.5
v -2 5 -1.5
v -2 6 -1.5
v -2 7 -1.5
v -2 9 -1.5
v -2 10 -1.5
v -2 11 -1.5
v -2 12 -1.5
v -2 13 -1.5
v -1 11 -1.5
v -1 12 -1.5
v -1 13 -1.5
v -1 14 -1.5
v 0 10 -1.5
v 0 11 -1.5
v 1 11 -1.5
v 1 13 -1.5
v 1 14 -1.5
v 1 15 -1.5
v 2 5 -1.5
v 2 6 -1.5
v 2 7 -1.5
v 2 9 -1.5
v 2 14 -1.5
v 2 15 -1.5
v 3 13 -1.5
v 3 14 -1.5
v -2 0 0.5
v -1 0 0.5
v 1 0 0.5
v 2 0 0.5
v -2 0 -0.5
v -1 0 -0.5
v 1 0 -0.5
v 2 0 -0.5
v 2 3 0.5
v 3 3 0.5
v 2 3 -0.5
v 3 3 -0.5
v -1 4 0.5
v 1 4 0.5
v -1 4 -0.5
v 1 4 -0.5
v -2 5 1.5
v 2 5 1.5
v -2 5 0.5
v 2 5 0.5
v -2 5 -0.5
v 2 5 -0.5
v -2 5 -1.5
v 2 5 -1.5
v -4 6 2.5
v -3 6 2.5
v 3 6 2.5
v 4 6 2.5
v -4 6 1.5
v -3 6 1.5
v 3 6 1.5
v 4 6 1.5
v -4 6 0.5
v -3 6 0.5
v 3 6 0.5
v 4 6 0.5
v -4 7 0.5
v -3 7 0.5
v 3 7 0.5
v 4 7 0.5
v -4 7 -0.5
v -3 7 -0.5
v 3 7 -0.5
v 4 7 -0.5
v -3 8 0.5
v -2 8 0.5
v 2 8 0.5
v 3 8 0.5
v -3 8 -0.5
v -2 8 -0.5
v 2 8 -0.5
v 3 8 -0.5
v -2 10 -0.5
v -1 10 -0.5
v 0 10 -0.5
v -2 10 -1.5
v 0 10 -1.5
v -2 11 0.5
v -1 11 0.5
v 1 11 0.5
v 2 11 0.5
v -2 11 -0.5
v -1 11 -0.5
v 0 11 -0.5
v 1 11 -0.5
v 2 11 -0.5
v 0 11 -1.5
v 1 11 -1.5
v -2 12 1.5
v -1 12 1.5
v -2 12 0.5
v -1 12 0.5
v -2 12 -0.5
v -1 12 -0.5
v -2 12 -1.5
v -1 12 -1.5
v -1 13 1.5
v 3 13 1.5
v -1 13 0.5
v 1 13 0.5
v 2 13 0.5
v 1 13 -0.5
v 2 13 -0.5
v 1 13 -1.5
v 3 13 -1.5
v 2 6 0.5
v 3 6 0.5
v 2 6 -0.5
v 3 6 -0.5
v -4 7 2.5
v -3 7 2.5
v 3 7 2.5
v 4 7 2.5
v -4 7 1.5
v -3 7 1.5
v 3 7 1.5
v 4 7 1.5
v -4 7 0.5
v -3 7 0.5
v 3 7 0.5
v 4 7 0.5
v -4 8 0.5
v -3 8 0.5
v 3 8 0.5
v 4 8 0.5
v -4 8 -0.5
v -3 8 -0.5
v 3 8 -0.5
v 4 8 -0.5
v -2 9 1.5
v -1 9 1.5
v 1 9 1.5
v 2 9 1.5
v -3 9 0.5
v -2 9 0.5
v -1 9 0.5
v 1 9 0.5
v 2 9 0.5
v 3 9 0.5
v -3 9 -0.5
v -2 9 -0.5
v -1 9 -0.5
v 1 9 -0.5
v 2 9 -0.5
v 3 9 -0.5
v -2 9 -1.5
v 2 9 -1.5
v -2 11 -0.5
v -1 11 -0.5
v -2 11 -1.5
v -1 11 -1.5
v -2 13 1.5
v -1 13 1.5
v -2 13 0.5
v -1 13 0.5
v -2 13 -0.5
v -1 13 -0.5
v -2 13 -1.5
v -1 13 -1.5
v -1 14 1.5
v 1 14 1.5
v 2 14 1.5
v 3 14 1.5
v -2 14 0.5
v -1 14 0.5
v 0 14 0.5
v 1 14 0.5
v 2 14 0.5
v 3 14 0.5
v -2 14 -0.5
v -1 14 -0.5
v 0 14 -0.5
v 1 14 -0.5
v 2 14 -0.5
v 3 14 -0.5
v -1 14 -1.5
v 1 14 -1.5
v 2 14 -1.5
v 3 14 -1.5
v 1 15 1.5
v 2 15 1.5
v 0 15 0.5
v 1 15 0.5
v 2 15 0.5
v 3 15 0.5
v 0 15 -0.5
v 1 15 -0.5
v 2 15 -0.5
v 3 15 -0.5
v 1 15 -1.5
v 2 15 -1.5

# faces
f 4/10/1 2/10/1 1/10/1
f 5/4/1 3/4/1 2/4/1
f 5/10/1 2/10/1 4/10/1
f 6/4/1 3/4/1 5/4/1
f 8/4/1 7/4/1 6/4/1
f 9/4/1 7/4/1 8/4/1
f 12/4/1 11/4/1 10/4/1
f 13/4/1 11/4/1 12/4/1
f 16/8/1 15/8/1 14/8/1
f 17/8/1 15/8/1 16/8/1
f 18/4/1 17/4/1 16/4/1
f 19/4/1 17/4/1 18/4/1
f 21/7/1 19/7/1 18/7/1
f 22/7/1 19/7/1 21/7/1
f 24/6/1 22/6/1 21/6/1
f 24/6/1 23/6/1 22/6/1
f 24/6/1 21/6/1 20/6/1
f 25/6/1 23/6/1 24/6/1
f 26/4/1 25/4/1 24/4/1
f 27/4/1 25/4/1 26/4/1
f 28/5/1 27/5/1 26/5/1
f 29/5/1 27/5/1 28/5/1
f 30/5/1 28/5/1 26/5/1
f 31/5/1 28/5/1 30/5/1
f 32/5/1 27/5/1 29/5/1
f 33/5/1 27/5/1 32/5/1
f 37/9/1 35/9/1 34/9/1
f 38/9/1 35/9/1 37/9/1
f 40/10/1 37/10/1 36/10/1
f 41/10/1 37/10/1 40/10/1
f 43/9/1 40/9/1 39/9/1
f 43/9/1 42/9/1 41/9/1
f 43/9/1 41/9/1 40/9/1
f 44/9/1 42/9/1 43/9/1
f 45/9/1 42/9/1 44/9/1
f 46/9/1 42/9/1 45/9/1
f 47/9/1 45/9/1 44/9/1
f 48/9/1 45/9/1 47/9/1
f 51/10/1 50/10/1 49/10/1
f 52/10/1 51/10/1 49/10/1
f 53/10/1 51/10/1 52/10/1
f 55/9/1 54/9/1 53/9/1
f 56/9/1 54/9/1 55/9/1
f 61/9/1 58/9/1 57/9/1
f 62/9/1 58/9/1 61/9/1
f 63/9/1 60/9/1 59/9/1
f 64/9/1 60/9/1 63/9/1
f 67/9/1 66/9/1 65/9/1
f 68/9/1 66/9/1 67/9/1
f 71/8/1 70/8/1 69/8/1
f 72/8/1 70/8/1 71/8/1
f 73/4/1 72/4/1 71/4/1
f 74/4/1 72/4/1 73/4/1
f 75/7/1 74/7/1 73/7/1
f 76/7/1 74/7/1 75/7/1
f 81/9/1 78/9/1 77/9/1
f 82/9/1 78/9/1 81/9/1
f 83/9/1 80/9/1 79/9/1
f 84/9/1 80/9/1 83/9/1
f 88/10/1 86/10/1 85/10/1
f 89/4/1 87/4/1 86/4/1
f 89/10/1 86/10/1 88/10/1
f 90/4/1 87/4/1 89/4/1
f 92/4/1 91/4/1 90/4/1
f 93/4/1 91/4/1 92/4/1
f 94/10/2 95/10/2 97/10/2
f 95/4/2 96/4/2 98/4/2
f 97/10/2 95/10/2 98/10/2
f 98/4/2 96/4/2 99/4/2
f 99/4/2 100/4/2 101/4/2
f 101/4/2 100/4/2 102/4/2
f 103/8/2 104/8/2 105/8/2
f 105/8/2 104/8/2 106/8/2
f 105/4/2 106/4/2 107/4/2
f 107/4/2 106/4/2 108/4/2
f 107/7/2 108/7/2 109/7/2
f 109/7/2 108/7/2 110/7/2
f 111/9/2 112/9/2 113/9/2
f 113/9/2 112/9/2 114/9/2
f 115/9/2 116/9/2 117/9/2
f 117/9/2 116/9/2 118/9/2
f 119/10/2 120/10/2 121/10/2
f 121/10/2 120/10/2 122/10/2
f 122/9/2 123/9/2 124/9/2
f 124/9/2 123/9/2 125/9/2
f 125/9/2 123/9/2 126/9/2
f 127/8/2 128/8/2 129/8/2
f 129/8/2 128/8/2 130/8/2
f 129/4/2 130/4/2 131/4/2
f 131/4/2 130/4/2 132/4/2
f 131/7/2 132/7/2 133/7/2
f 133/7/2 132/7/2 134/7/2
f 135/6/2 136/6/2 139/6/2
f 139/6/2 136/6/2 140/6/2
f 137/6/2 138/6/2 141/6/2
f 141/6/2 138/6/2 142/6/2
f 139/4/2 140/4/2 143/4/2
f 140/4/2 141/4/2 143/4/2
f 141/4/2 142/4/2 143/4/2
f 143/4/2 142/4/2 144/4/2
f 143/5/2 144/5/2 145/5/2
f 145/5/2 144/5/2 146/5/2
f 143/5/2 145/5/2 147/5/2
f 147/5/2 145/5/2 148/5/2
f 146/5/2 144/5/2 149/5/2
f 149/5/2 144/5/2 150/5/2
f 151/10/2 152/10/2 153/10/2
f 153/10/2 152/10/2 154/10/2
f 153/9/2 154/9/2 155/9/2
f 155/9/2 154/9/2 156/9/2
f 157/9/2 158/9/2 161/9/2
f 161/9/2 158/9/2 162/9/2
f 159/9/2 160/9/2 163/9/2
f 163/9/2 160/9/2 164/9/2
f 165/6/2 166/6/2 167/6/2
f 167/6/2 166/6/2 168/6/2
f 169/4/2 170/4/2 171/4/2
f 171/4/2 170/4/2 172/4/2
f 173/9/2 174/9/2 175/9/2
f 175/9/2 174/9/2 176/9/2
f 176/9/2 174/9/2 177/9/2
f 177/9/2 174/9/2 178/9/2
f 176/9/2 177/9/2 179/9/2
f 179/9/2 177/9/2 180/9/2
f 181/10/2 182/10/2 184/10/2
f 182/4/2 183/4/2 185/4/2
f 184/10/2 182/10/2 185/10/2
f 185/4/2 183/4/2 186/4/2
f 186/4/2 187/4/2 188/4/2
f 188/4/2 187/4/2 189/4/2
f 192/10/3 191/10/3 190/10/3
f 193/10/3 191/10/3 192/10/3
f 196/10/3 195/10/3 194/10/3
f 197/10/3 195/10/3 196/10/3
f 204/4/3 200/4/3 199/4/3
f 204/5/3 201/5/3 200/5/3
f 205/5/3 201/5/3 204/5/3
f 206/9/3 203/9/3 202/9/3
f 207/9/3 203/9/3 206/9/3
f 209/4/3 205/4/3 204/4/3
f 209/4/3 204/4/3 199/4/3
f 210/4/3 205/4/3 209/4/3
f 211/9/3 208/9/3 207/9/3
f 213/6/3 199/6/3 198/6/3
f 214/4/3 209/4/3 199/4/3
f 214/6/3 199/6/3 213/6/3
f 215/5/3 210/5/3 209/5/3
f 215/4/3 209/4/3 214/4/3
f 216/5/3 210/5/3 215/5/3
f 217/9/3 212/9/3 211/9/3
f 217/9/3 211/9/3 207/9/3
f 218/9/3 212/9/3 217/9/3
f 219/9/3 217/9/3 207/9/3
f 220/9/3 217/9/3 219/9/3
f 223/4/3 222/4/3 221/4/3
f 224/4/3 222/4/3 223/4/3
f 230/4/3 225/4/3 224/4/3
f 231/4/3 225/4/3 230/4/3
f 236/8/3 227/8/3 226/8/3
f 237/4/3 228/4/3 227/4/3
f 237/8/3 227/8/3 236/8/3
f 238/7/3 229/7/3 228/7/3
f 238/4/3 228/4/3 237/4/3
f 239/7/3 229/7/3 238/7/3
f 241/10/3 233/10/3 232/10/3
f 242/10/3 233/10/3 241/10/3
f 243/9/3 235/9/3 234/9/3
f 244/9/3 235/9/3 243/9/3
f 250/7/3 229/7/3 239/7/3
f 251/10/3 241/10/3 240/10/3
f 251/10/3 242/10/3 241/10/3
f 251/10/3 243/10/3 242/10/3
f 252/10/3 243/10/3 251/10/3
f 253/10/3 243/10/3 252/10/3
f 254/10/3 243/10/3 253/10/3
f 255/9/3 246/9/3 245/9/3
f 256/9/3 246/9/3 255/9/3
f 257/8/3 248/8/3 247/8/3
f 258/4/3 249/4/3 248/4/3
f 258/8/3 248/8/3 257/8/3
f 259/7/3 250/7/3 249/7/3
f 259/4/3 249/4/3 258/4/3
f 260/7/3 250/7/3 259/7/3
f 261/7/3 229/7/3 250/7/3
f 261/7/3 250/7/3 260/7/3
f 265/10/3 253/10/3 252/10/3
f 266/9/3 254/9/3 253/9/3
f 266/10/3 253/10/3 265/10/3
f 267/9/3 254/9/3 266/9/3
f 270/6/3 262/6/3 261/6/3
f 270/6/3 261/6/3 260/6/3
f 271/6/3 262/6/3 270/6/3
f 273/4/3 264/4/3 263/4/3
f 274/4/3 264/4/3 273/4/3
f 275/9/3 269/9/3 268/9/3
f 276/9/3 269/9/3 275/9/3
f 277/4/3 273/4/3 272/4/3
f 278/4/3 273/4/3 277/4/3
f 281/9/3 280/9/3 279/9/3
f 282/9/3 280/9/3 281/9/3
f 283/4/4 284/4/4 285/4/4
f 285/4/4 284/4/4 286/4/4
f 287/4/4 288/4/4 289/4/4
f 289/4/4 288/4/4 290/4/4
f 291/4/4 292/4/4 293/4/4
f 293/4/4 292/4/4 294/4/4
f 294/4/4 295/4/4 300/4/4
f 300/4/4 295/4/4 301/4/4
f 296/8/4 297/8/4 306/8/4
f 297/4/4 298/4/4 307/4/4
f 306/8/4 297/8/4 307/8/4
f 298/7/4 299/7/4 308/7/4
f 307/4/4 298/4/4 308/4/4
f 308/7/4 299/7/4 309/7/4
f 302/10/4 303/10/4 312/10/4
f 312/10/4 303/10/4 313/10/4
f 304/9/4 305/9/4 314/9/4
f 314/9/4 305/9/4 315/9/4
f 310/10/4 311/10/4 316/10/4
f 309/7/4 299/7/4 323/7/4
f 316/10/4 317/10/4 324/10/4
f 310/10/4 316/10/4 324/10/4
f 324/10/4 317/10/4 325/10/4
f 318/9/4 319/9/4 328/9/4
f 328/9/4 319/9/4 329/9/4
f 320/8/4 321/8/4 330/8/4
f 321/4/4 322/4/4 331/4/4
f 330/8/4 321/8/4 331/8/4
f 322/7/4 323/7/4 332/7/4
f 331/4/4 322/4/4 332/4/4
f 332/7/4 323/7/4 333/7/4
f 323/7/4 299/7/4 334/7/4
f 333/7/4 323/7/4 334/7/4
f 325/10/4 326/10/4 338/10/4
f 326/9/4 327/9/4 339/9/4
f 338/10/4 326/10/4 339/10/4
f 339/9/4 327/9/4 340/9/4
f 334/6/4 335/6/4 343/6/4
f 333/6/4 334/6/4 343/6/4
f 343/6/4 335/6/4 344/6/4
f 336/4/4 337/4/4 346/4/4
f 346/4/4 337/4/4 347/4/4
f 341/9/4 342/9/4 348/9/4
f 348/9/4 342/9/4 349/9/4
f 345/4/4 346/4/4 350/4/4
f 350/4/4 346/4/4 351/4/4
f 356/9/4 357/9/4 360/9/4
f 358/9/4 359/9/4 361/9/4
f 361/9/4 359/9/4 362/9/4
f 356/9/4 360/9/4 364/9/4
f 362/9/4 363/9/4 364/9/4
f 361/9/4 362/9/4 364/9/4
f 360/9/4 361/9/4 364/9/4
f 364/9/4 363/9/4 365/9/4
f 365/9/4 363/9/4 366/9/4
f 366/9/4 363/9/4 367/9/4
f 367/9/4 363/9/4 368/9/4
f 352/6/4 353/6/4 370/6/4
f 353/4/4 354/4/4 371/4/4
f 370/6/4 353/6/4 371/6/4
f 354/5/4 355/5/4 372/5/4
f 371/4/4 354/4/4 372/4/4
f 372/5/4 355/5/4 373/5/4
f 368/9/4 369/9/4 374/9/4
f 367/9/4 368/9/4 374/9/4
f 374/9/4 369/9/4 375/9/4
f 367/9/4 374/9/4 376/9/4
f 376/9/4 374/9/4 377/9/4
f 382/8/5 379/8/5 378/8/5
f 383/8/5 379/8/5 382/8/5
f 384/8/5 381/8/5 380/8/5
f 385/8/5 381/8/5 384/8/5
f 388/6/5 387/6/5 386/6/5
f 389/6/5 387/6/5 388/6/5
f 392/7/5 391/7/5 390/7/5
f 393/7/5 391/7/5 392/7/5
f 396/6/5 395/6/5 394/6/5
f 397/6/5 395/6/5 396/6/5
f 400/6/5 399/6/5 398/6/5
f 401/6/5 399/6/5 400/6/5
f 406/10/5 403/10/5 402/10/5
f 407/10/5 403/10/5 406/10/5
f 408/10/5 405/10/5 404/10/5
f 409/10/5 405/10/5 408/10/5
f 410/4/5 407/4/5 406/4/5
f 411/4/5 407/4/5 410/4/5
f 412/4/5 409/4/5 408/4/5
f 413/4/5 409/4/5 412/4/5
f 418/4/5 415/4/5 414/4/5
f 419/4/5 415/4/5 418/4/5
f 420/4/5 417/4/5 416/4/5
f 421/4/5 417/4/5 420/4/5
f 426/4/5 423/4/5 422/4/5
f 427/4/5 423/4/5 426/4/5
f 428/4/5 425/4/5 424/4/5
f 429/4/5 425/4/5 428/4/5
f 433/9/5 431/9/5 430/9/5
f 433/9/5 432/9/5 431/9/5
f 434/9/5 432/9/5 433/9/5
f 439/10/5 436/10/5 435/10/5
f 440/10/5 436/10/5 439/10/5
f 442/10/5 438/10/5 437/10/5
f 443/10/5 438/10/5 442/10/5
f 444/9/5 442/9/5 441/9/5
f 445/9/5 442/9/5 444/9/5
f 448/9/5 447/9/5 446/9/5
f 449/9/5 447/9/5 448/9/5
f 452/9/5 451/9/5 450/9/5
f 453/9/5 451/9/5 452/9/5
f 456/9/5 455/9/5 454/9/5
f 457/9/5 455/9/5 456/9/5
f 458/9/5 455/9/5 457/9/5
f 460/9/5 455/9/5 458/9/5
f 461/9/5 460/9/5 459/9/5
f 462/9/5 455/9/5 460/9/5
f 462/9/5 460/9/5 461/9/5
f 463/6/6 464/6/6 465/6/6
f 465/6/6 464/6/6 466/6/6
f 467/10/6 468/10/6 471/10/6
f 471/10/6 468/10/6 472/10/6
f 469/10/6 470/10/6 473/10/6
f 473/10/6 470/10/6 474/10/6
f 471/4/6 472/4/6 475/4/6
f 475/4/6 472/4/6 476/4/6
f 473/4/6 474/4/6 477/4/6
f 477/4/6 474/4/6 478/4/6
f 479/4/6 480/4/6 483/4/6
f 483/4/6 480/4/6 484/4/6
f 481/4/6 482/4/6 485/4/6
f 485/4/6 482/4/6 486/4/6
f 487/5/6 488/5/6 492/5/6
f 488/4/6 489/4/6 493/4/6
f 492/5/6 488/5/6 493/5/6
f 489/5/6 490/5/6 494/5/6
f 493/4/6 489/4/6 494/4/6
f 494/5/6 490/5/6 495/5/6
f 491/4/6 492/4/6 497/4/6
f 492/5/6 493/5/6 498/5/6
f 497/4/6 492/4/6 498/4/6
f 498/5/6 493/5/6 499/5/6
f 494/5/6 495/5/6 500/5/6
f 495/4/6 496/4/6 501/4/6
f 500/5/6 495/5/6 501/5/6
f 501/4/6 496/4/6 502/4/6
f 499/5/6 500/5/6 503/5/6
f 498/5/6 499/5/6 503/5/6
f 500/5/6 501/5/6 503/5/6
f 503/5/6 501/5/6 504/5/6
f 505/9/6 506/9/6 507/9/6
f 507/9/6 506/9/6 508/9/6
f 509/9/6 510/9/6 511/9/6
f 511/9/6 510/9/6 512/9/6
f 513/9/6 514/9/6 515/9/6
f 515/9/6 514/9/6 516/9/6
f 517/9/6 518/9/6 522/9/6
f 522/9/6 518/9/6 523/9/6
f 523/9/6 518/9/6 524/9/6
f 519/9/6 520/9/6 525/9/6
f 525/9/6 520/9/6 526/9/6
f 521/9/6 522/9/6 527/9/6
f 522/9/6 523/9/6 527/9/6
f 527/9/6 523/9/6 528/9/6
f 528/9/6 523/9/6 529/9/6
f 528/9/6 529/9/6 533/9/6
f 529/9/6 530/9/6 533/9/6
f 533/9/6 530/9/6 534/9/6
f 531/9/6 532/9/6 535/9/6
f 535/9/6 532/9/6 536/9/6
f 537/9/6 538/9/6 540/9/6
f 540/9/6 538/9/6 541/9/6
f 539/9/6 540/9/6 543/9/6
f 541/9/6 542/9/6 543/9/6
f 540/9/6 541/9/6 543/9/6
f 543/9/6 542/9/6 544/9/6
f 544/9/6 542/9/6 545/9/6
f 545/9/6 542/9/6 546/9/6
f 544/9/6 545/9/6 547/9/6
f 547/9/6 545/9/6 548/9/6
