# MagicaVoxel @ ephtracy

# material
mtllib scummBarPirate08_body.mtl
usemtl palette

# normals
vn -1 0 0
vn 1 0 0
vn 0 0 1
vn 0 0 -1
vn 0 -1 0
vn 0 1 0

# texcoords
vt 0.939453 0.5
vt 0.943359 0.5
vt 0.947266 0.5
vt 0.970703 0.5

# verts
v -4 5 1.5
v -4 5 0.5
v -4 6 1.5
v -4 6 0.5
v -4 6 -0.5
v -4 8 0.5
v -4 8 -0.5
v -3 8 0.5
v -3 8 -0.5
v -3 9 0.5
v -3 9 -0.5
v -2 0 0.5
v -2 0 -0.5
v -2 1 0.5
v -2 1 -0.5
v -2 3 -0.5
v -2 3 -1.5
v -2 5 1.5
v -2 5 0.5
v -2 5 -0.5
v -2 8 0.5
v -2 8 -0.5
v -2 9 1.5
v -2 9 0.5
v -2 9 -0.5
v -2 9 -1.5
v 1 0 0.5
v 1 0 -0.5
v 1 1 0.5
v 1 1 -0.5
v 1 3 -0.5
v 1 3 -1.5
v 1 4 0.5
v 1 4 -0.5
v 1 4 -1.5
v 3 5 1.5
v 3 5 0.5
v 3 6 1.5
v 3 6 0.5
v 3 6 -0.5
v 3 8 0.5
v 3 8 -0.5
v -3 5 1.5
v -3 5 0.5
v -3 6 1.5
v -3 6 0.5
v -3 6 -0.5
v -3 8 0.5
v -3 8 -0.5
v -1 0 0.5
v -1 0 -0.5
v -1 1 0.5
v -1 1 -0.5
v -1 3 -0.5
v -1 3 -1.5
v -1 4 0.5
v -1 4 -0.5
v -1 4 -1.5
v 2 0 0.5
v 2 0 -0.5
v 2 1 0.5
v 2 1 -0.5
v 2 3 -0.5
v 2 3 -1.5
v 2 5 1.5
v 2 5 0.5
v 2 5 -0.5
v 2 8 0.5
v 2 8 -0.5
v 2 9 1.5
v 2 9 0.5
v 2 9 -0.5
v 2 9 -1.5
v 3 8 0.5
v 3 8 -0.5
v 3 9 0.5
v 3 9 -0.5
v 4 5 1.5
v 4 5 0.5
v 4 6 1.5
v 4 6 0.5
v 4 6 -0.5
v 4 8 0.5
v 4 8 -0.5
v -4 5 1.5
v -4 6 1.5
v -3 5 1.5
v -3 6 1.5
v -2 5 1.5
v -2 9 1.5
v 2 5 1.5
v 2 9 1.5
v 3 5 1.5
v 3 6 1.5
v 4 5 1.5
v 4 6 1.5
v -4 6 0.5
v -4 8 0.5
v -3 6 0.5
v -3 8 0.5
v -3 9 0.5
v -2 0 0.5
v -2 1 0.5
v -2 5 0.5
v -2 8 0.5
v -2 9 0.5
v -1 0 0.5
v -1 1 0.5
v -1 4 0.5
v 1 0 0.5
v 1 1 0.5
v 1 4 0.5
v 2 0 0.5
v 2 1 0.5
v 2 5 0.5
v 2 8 0.5
v 2 9 0.5
v 3 6 0.5
v 3 8 0.5
v 3 9 0.5
v 4 6 0.5
v 4 8 0.5
v -4 5 0.5
v -4 6 0.5
v -3 5 0.5
v -3 6 0.5
v 3 5 0.5
v 3 6 0.5
v 4 5 0.5
v 4 6 0.5
v -4 6 -0.5
v -4 8 -0.5
v -3 6 -0.5
v -3 8 -0.5
v -3 9 -0.5
v -2 0 -0.5
v -2 1 -0.5
v -2 3 -0.5
v -2 8 -0.5
v -2 9 -0.5
v -1 0 -0.5
v -1 1 -0.5
v -1 3 -0.5
v 1 0 -0.5
v 1 1 -0.5
v 1 3 -0.5
v 2 0 -0.5
v 2 1 -0.5
v 2 3 -0.5
v 2 8 -0.5
v 2 9 -0.5
v 3 6 -0.5
v 3 8 -0.5
v 3 9 -0.5
v 4 6 -0.5
v 4 8 -0.5
v -2 3 -1.5
v -2 9 -1.5
v -1 3 -1.5
v -1 4 -1.5
v 1 3 -1.5
v 1 4 -1.5
v 2 3 -1.5
v 2 9 -1.5
v -2 0 0.5
v -1 0 0.5
v 1 0 0.5
v 2 0 0.5
v -2 0 -0.5
v -1 0 -0.5
v 1 0 -0.5
v 2 0 -0.5
v -2 3 -0.5
v -1 3 -0.5
v 1 3 -0.5
v 2 3 -0.5
v -2 3 -1.5
v -1 3 -1.5
v 1 3 -1.5
v 2 3 -1.5
v -1 4 0.5
v 1 4 0.5
v -1 4 -0.5
v 1 4 -0.5
v -1 4 -1.5
v 1 4 -1.5
v -4 5 1.5
v -3 5 1.5
v -2 5 1.5
v 2 5 1.5
v 3 5 1.5
v 4 5 1.5
v -4 5 0.5
v -3 5 0.5
v -2 5 0.5
v 2 5 0.5
v 3 5 0.5
v 4 5 0.5
v -4 6 0.5
v -3 6 0.5
v 3 6 0.5
v 4 6 0.5
v -4 6 -0.5
v -3 6 -0.5
v 3 6 -0.5
v 4 6 -0.5
v -3 8 0.5
v -2 8 0.5
v 2 8 0.5
v 3 8 0.5
v -3 8 -0.5
v -2 8 -0.5
v 2 8 -0.5
v 3 8 -0.5
v -4 6 1.5
v -3 6 1.5
v 3 6 1.5
v 4 6 1.5
v -4 6 0.5
v -3 6 0.5
v 3 6 0.5
v 4 6 0.5
v -4 8 0.5
v -3 8 0.5
v 3 8 0.5
v 4 8 0.5
v -4 8 -0.5
v -3 8 -0.5
v 3 8 -0.5
v 4 8 -0.5
v -2 9 1.5
v 2 9 1.5
v -3 9 0.5
v -2 9 0.5
v -1 9 0.5
v 1 9 0.5
v 2 9 0.5
v 3 9 0.5
v -3 9 -0.5
v -2 9 -0.5
v -1 9 -0.5
v 1 9 -0.5
v 2 9 -0.5
v 3 9 -0.5
v -2 9 -1.5
v 2 9 -1.5

# faces
f 3/4/1 2/4/1 1/4/1
f 4/4/1 2/4/1 3/4/1
f 6/3/1 5/3/1 4/3/1
f 7/3/1 5/3/1 6/3/1
f 10/3/1 9/3/1 8/3/1
f 11/3/1 9/3/1 10/3/1
f 14/2/1 13/2/1 12/2/1
f 15/2/1 13/2/1 14/2/1
f 16/1/1 15/1/1 14/1/1
f 19/1/1 16/1/1 14/1/1
f 20/3/1 17/3/1 16/3/1
f 20/1/1 16/1/1 19/1/1
f 21/3/1 19/3/1 18/3/1
f 21/3/1 20/3/1 19/3/1
f 22/3/1 17/3/1 20/3/1
f 22/3/1 20/3/1 21/3/1
f 23/3/1 21/3/1 18/3/1
f 24/3/1 21/3/1 23/3/1
f 25/3/1 17/3/1 22/3/1
f 26/3/1 17/3/1 25/3/1
f 29/2/1 28/2/1 27/2/1
f 30/2/1 28/2/1 29/2/1
f 31/1/1 30/1/1 29/1/1
f 33/1/1 31/1/1 29/1/1
f 34/3/1 32/3/1 31/3/1
f 34/1/1 31/1/1 33/1/1
f 35/3/1 32/3/1 34/3/1
f 38/4/1 37/4/1 36/4/1
f 39/4/1 37/4/1 38/4/1
f 41/3/1 40/3/1 39/3/1
f 42/3/1 40/3/1 41/3/1
f 43/4/2 44/4/2 45/4/2
f 45/4/2 44/4/2 46/4/2
f 46/3/2 47/3/2 48/3/2
f 48/3/2 47/3/2 49/3/2
f 50/2/2 51/2/2 52/2/2
f 52/2/2 51/2/2 53/2/2
f 52/1/2 53/1/2 54/1/2
f 52/1/2 54/1/2 56/1/2
f 54/3/2 55/3/2 57/3/2
f 56/1/2 54/1/2 57/1/2
f 57/3/2 55/3/2 58/3/2
f 59/2/2 60/2/2 61/2/2
f 61/2/2 60/2/2 62/2/2
f 61/1/2 62/1/2 63/1/2
f 61/1/2 63/1/2 66/1/2
f 63/3/2 64/3/2 67/3/2
f 66/1/2 63/1/2 67/1/2
f 65/3/2 66/3/2 68/3/2
f 66/3/2 67/3/2 68/3/2
f 67/3/2 64/3/2 69/3/2
f 68/3/2 67/3/2 69/3/2
f 65/3/2 68/3/2 70/3/2
f 70/3/2 68/3/2 71/3/2
f 69/3/2 64/3/2 72/3/2
f 72/3/2 64/3/2 73/3/2
f 74/3/2 75/3/2 76/3/2
f 76/3/2 75/3/2 77/3/2
f 78/4/2 79/4/2 80/4/2
f 80/4/2 79/4/2 81/4/2
f 81/3/2 82/3/2 83/3/2
f 83/3/2 82/3/2 84/3/2
f 87/4/3 86/4/3 85/4/3
f 88/4/3 86/4/3 87/4/3
f 91/3/3 90/3/3 89/3/3
f 92/3/3 90/3/3 91/3/3
f 95/4/3 94/4/3 93/4/3
f 96/4/3 94/4/3 95/4/3
f 99/3/3 98/3/3 97/3/3
f 100/3/3 98/3/3 99/3/3
f 105/3/3 101/3/3 100/3/3
f 106/3/3 101/3/3 105/3/3
f 107/2/3 103/2/3 102/2/3
f 108/1/3 104/1/3 103/1/3
f 108/2/3 103/2/3 107/2/3
f 109/1/3 104/1/3 108/1/3
f 112/1/3 104/1/3 109/1/3
f 113/2/3 111/2/3 110/2/3
f 114/1/3 112/1/3 111/1/3
f 114/2/3 111/2/3 113/2/3
f 115/1/3 104/1/3 112/1/3
f 115/1/3 112/1/3 114/1/3
f 119/3/3 117/3/3 116/3/3
f 120/3/3 117/3/3 119/3/3
f 121/3/3 119/3/3 118/3/3
f 122/3/3 119/3/3 121/3/3
f 123/4/4 124/4/4 125/4/4
f 125/4/4 124/4/4 126/4/4
f 127/4/4 128/4/4 129/4/4
f 129/4/4 128/4/4 130/4/4
f 131/3/4 132/3/4 133/3/4
f 133/3/4 132/3/4 134/3/4
f 134/3/4 135/3/4 139/3/4
f 139/3/4 135/3/4 140/3/4
f 136/2/4 137/2/4 141/2/4
f 137/1/4 138/1/4 142/1/4
f 141/2/4 137/2/4 142/2/4
f 142/1/4 138/1/4 143/1/4
f 144/2/4 145/2/4 147/2/4
f 145/1/4 146/1/4 148/1/4
f 147/2/4 145/2/4 148/2/4
f 148/1/4 146/1/4 149/1/4
f 150/3/4 151/3/4 153/3/4
f 153/3/4 151/3/4 154/3/4
f 152/3/4 153/3/4 155/3/4
f 155/3/4 153/3/4 156/3/4
f 157/3/4 158/3/4 159/3/4
f 159/3/4 158/3/4 160/3/4
f 160/3/4 158/3/4 162/3/4
f 161/3/4 162/3/4 163/3/4
f 162/3/4 158/3/4 164/3/4
f 163/3/4 162/3/4 164/3/4
f 169/2/5 166/2/5 165/2/5
f 170/2/5 166/2/5 169/2/5
f 171/2/5 168/2/5 167/2/5
f 172/2/5 168/2/5 171/2/5
f 177/3/5 174/3/5 173/3/5
f 178/3/5 174/3/5 177/3/5
f 179/3/5 176/3/5 175/3/5
f 180/3/5 176/3/5 179/3/5
f 183/1/5 182/1/5 181/1/5
f 184/1/5 182/1/5 183/1/5
f 185/3/5 184/3/5 183/3/5
f 186/3/5 184/3/5 185/3/5
f 193/4/5 188/4/5 187/4/5
f 194/4/5 188/4/5 193/4/5
f 195/3/5 190/3/5 189/3/5
f 196/3/5 190/3/5 195/3/5
f 197/4/5 192/4/5 191/4/5
f 198/4/5 192/4/5 197/4/5
f 203/3/5 200/3/5 199/3/5
f 204/3/5 200/3/5 203/3/5
f 205/3/5 202/3/5 201/3/5
f 206/3/5 202/3/5 205/3/5
f 211/3/5 208/3/5 207/3/5
f 212/3/5 208/3/5 211/3/5
f 213/3/5 210/3/5 209/3/5
f 214/3/5 210/3/5 213/3/5
f 215/4/6 216/4/6 219/4/6
f 219/4/6 216/4/6 220/4/6
f 217/4/6 218/4/6 221/4/6
f 221/4/6 218/4/6 222/4/6
f 223/3/6 224/3/6 227/3/6
f 227/3/6 224/3/6 228/3/6
f 225/3/6 226/3/6 229/3/6
f 229/3/6 226/3/6 230/3/6
f 231/3/6 232/3/6 234/3/6
f 234/3/6 232/3/6 235/3/6
f 235/3/6 232/3/6 236/3/6
f 236/3/6 232/3/6 237/3/6
f 233/3/6 234/3/6 239/3/6
f 234/3/6 235/3/6 239/3/6
f 239/3/6 235/3/6 240/3/6
f 235/4/6 236/4/6 241/4/6
f 240/3/6 235/3/6 241/3/6
f 237/3/6 238/3/6 242/3/6
f 241/4/6 236/4/6 242/4/6
f 236/3/6 237/3/6 242/3/6
f 242/3/6 238/3/6 243/3/6
f 243/3/6 238/3/6 244/3/6
f 240/3/6 241/3/6 245/3/6
f 242/3/6 243/3/6 245/3/6
f 241/3/6 242/3/6 245/3/6
f 245/3/6 243/3/6 246/3/6
