# MagicaVoxel @ ephtracy

# material
mtllib scummBarPirate09_body.mtl
usemtl palette

# normals
vn -1 0 0
vn 1 0 0
vn 0 0 1
vn 0 0 -1
vn 0 -1 0
vn 0 1 0

# texcoords
vt 0.908203 0.5
vt 0.912109 0.5
vt 0.947266 0.5
vt 0.951172 0.5
vt 0.955078 0.5
vt 0.970703 0.5

# verts
v -4 5 0.5
v -4 5 -0.5
v -4 6 0.5
v -4 6 -0.5
v -4 6 -1.5
v -4 8 -0.5
v -4 8 -1.5
v -3 8 -0.5
v -3 8 -1.5
v -3 9 -0.5
v -3 9 -1.5
v -2 0 -0.5
v -2 0 -1.5
v -2 1 -0.5
v -2 1 -1.5
v -2 5 0.5
v -2 5 -0.5
v -2 5 -1.5
v -2 5 -2.5
v -2 8 -0.5
v -2 8 -1.5
v -2 9 0.5
v -2 9 -0.5
v -2 9 -1.5
v -2 9 -2.5
v 0 6 2.5
v 0 6 0.5
v 0 8 2.5
v 0 8 0.5
v 0 9 2.5
v 0 9 0.5
v 1 0 -0.5
v 1 0 -1.5
v 1 1 -0.5
v 1 1 -1.5
v 1 4 -0.5
v 1 4 -1.5
v 3 7 1.5
v 3 7 -0.5
v 3 8 1.5
v 3 8 -0.5
v -3 5 0.5
v -3 5 -0.5
v -3 6 0.5
v -3 6 -0.5
v -3 6 -1.5
v -3 8 -0.5
v -3 8 -1.5
v -1 0 -0.5
v -1 0 -1.5
v -1 1 -0.5
v -1 1 -1.5
v -1 4 -0.5
v -1 4 -1.5
v 2 0 -0.5
v 2 0 -1.5
v 2 1 -0.5
v 2 1 -1.5
v 2 5 0.5
v 2 5 -0.5
v 2 5 -1.5
v 2 5 -2.5
v 2 6 2.5
v 2 6 0.5
v 2 7 2.5
v 2 7 1.5
v 2 8 2.5
v 2 8 1.5
v 2 8 0.5
v 2 8 -0.5
v 2 8 -1.5
v 2 9 2.5
v 2 9 0.5
v 2 9 -0.5
v 2 9 -1.5
v 2 9 -2.5
v 3 7 2.5
v 3 7 1.5
v 3 8 2.5
v 3 8 1.5
v 3 8 -0.5
v 3 8 -1.5
v 3 9 -0.5
v 3 9 -1.5
v 4 7 1.5
v 4 7 -0.5
v 4 8 1.5
v 4 8 -0.5
v 0 6 2.5
v 0 8 2.5
v 0 9 2.5
v 2 6 2.5
v 2 7 2.5
v 2 8 2.5
v 2 9 2.5
v 3 7 2.5
v 3 8 2.5
v 3 7 1.5
v 3 8 1.5
v 4 7 1.5
v 4 8 1.5
v -4 5 0.5
v -4 6 0.5
v -3 5 0.5
v -3 6 0.5
v -2 5 0.5
v -2 9 0.5
v 0 6 0.5
v 0 8 0.5
v 0 9 0.5
v 2 5 0.5
v 2 6 0.5
v -4 6 -0.5
v -4 8 -0.5
v -3 6 -0.5
v -3 8 -0.5
v -3 9 -0.5
v -2 0 -0.5
v -2 1 -0.5
v -2 5 -0.5
v -2 8 -0.5
v -2 9 -0.5
v -1 0 -0.5
v -1 1 -0.5
v -1 4 -0.5
v 1 0 -0.5
v 1 1 -0.5
v 1 4 -0.5
v 2 0 -0.5
v 2 1 -0.5
v 2 5 -0.5
v 2 8 -0.5
v 2 9 -0.5
v 3 8 -0.5
v 3 9 -0.5
v 2 7 1.5
v 2 8 1.5
v 3 7 1.5
v 3 8 1.5
v -4 5 -0.5
v -4 6 -0.5
v -3 5 -0.5
v -3 6 -0.5
v 3 7 -0.5
v 3 8 -0.5
v 4 7 -0.5
v 4 8 -0.5
v -4 6 -1.5
v -4 8 -1.5
v -3 6 -1.5
v -3 8 -1.5
v -3 9 -1.5
v -2 0 -1.5
v -2 1 -1.5
v -2 5 -1.5
v -2 8 -1.5
v -2 9 -1.5
v -1 0 -1.5
v -1 1 -1.5
v -1 4 -1.5
v 1 0 -1.5
v 1 1 -1.5
v 1 4 -1.5
v 2 0 -1.5
v 2 1 -1.5
v 2 5 -1.5
v 2 8 -1.5
v 2 9 -1.5
v 3 8 -1.5
v 3 9 -1.5
v -2 5 -2.5
v -2 9 -2.5
v 2 5 -2.5
v 2 9 -2.5
v -2 0 -0.5
v -1 0 -0.5
v 1 0 -0.5
v 2 0 -0.5
v -2 0 -1.5
v -1 0 -1.5
v 1 0 -1.5
v 2 0 -1.5
v -1 4 -0.5
v 1 4 -0.5
v -1 4 -1.5
v 1 4 -1.5
v -4 5 0.5
v -3 5 0.5
v -2 5 0.5
v 2 5 0.5
v -4 5 -0.5
v -3 5 -0.5
v -2 5 -0.5
v 2 5 -0.5
v -2 5 -1.5
v 2 5 -1.5
v -2 5 -2.5
v 2 5 -2.5
v 0 6 2.5
v 2 6 2.5
v 0 6 0.5
v 2 6 0.5
v -4 6 -0.5
v -3 6 -0.5
v -4 6 -1.5
v -3 6 -1.5
v 2 7 2.5
v 3 7 2.5
v 2 7 1.5
v 3 7 1.5
v 4 7 1.5
v 3 7 -0.5
v 4 7 -0.5
v -3 8 -0.5
v -2 8 -0.5
v 2 8 -0.5
v 3 8 -0.5
v -3 8 -1.5
v -2 8 -1.5
v 2 8 -1.5
v 3 8 -1.5
v -4 6 0.5
v -3 6 0.5
v -4 6 -0.5
v -3 6 -0.5
v 2 8 2.5
v 3 8 2.5
v 2 8 1.5
v 3 8 1.5
v 4 8 1.5
v -4 8 -0.5
v -3 8 -0.5
v 3 8 -0.5
v 4 8 -0.5
v -4 8 -1.5
v -3 8 -1.5
v 0 9 2.5
v 2 9 2.5
v -2 9 0.5
v 0 9 0.5
v 2 9 0.5
v -3 9 -0.5
v -2 9 -0.5
v 2 9 -0.5
v 3 9 -0.5
v -3 9 -1.5
v -2 9 -1.5
v 2 9 -1.5
v 3 9 -1.5
v -2 9 -2.5
v 2 9 -2.5

# faces
f 3/6/1 2/6/1 1/6/1
f 4/6/1 2/6/1 3/6/1
f 6/3/1 5/3/1 4/3/1
f 7/3/1 5/3/1 6/3/1
f 10/3/1 9/3/1 8/3/1
f 11/3/1 9/3/1 10/3/1
f 14/5/1 13/5/1 12/5/1
f 15/5/1 13/5/1 14/5/1
f 17/4/1 15/4/1 14/4/1
f 18/4/1 15/4/1 17/4/1
f 20/3/1 18/3/1 17/3/1
f 20/3/1 19/3/1 18/3/1
f 20/3/1 17/3/1 16/3/1
f 21/3/1 19/3/1 20/3/1
f 22/3/1 20/3/1 16/3/1
f 23/3/1 20/3/1 22/3/1
f 24/3/1 19/3/1 21/3/1
f 25/3/1 19/3/1 24/3/1
f 28/1/1 27/1/1 26/1/1
f 29/1/1 27/1/1 28/1/1
f 30/2/1 29/2/1 28/2/1
f 31/2/1 29/2/1 30/2/1
f 34/5/1 33/5/1 32/5/1
f 35/5/1 33/5/1 34/5/1
f 36/4/1 35/4/1 34/4/1
f 37/4/1 35/4/1 36/4/1
f 40/3/1 39/3/1 38/3/1
f 41/3/1 39/3/1 40/3/1
f 42/6/2 43/6/2 44/6/2
f 44/6/2 43/6/2 45/6/2
f 45/3/2 46/3/2 47/3/2
f 47/3/2 46/3/2 48/3/2
f 49/5/2 50/5/2 51/5/2
f 51/5/2 50/5/2 52/5/2
f 51/4/2 52/4/2 53/4/2
f 53/4/2 52/4/2 54/4/2
f 55/5/2 56/5/2 57/5/2
f 57/5/2 56/5/2 58/5/2
f 57/4/2 58/4/2 60/4/2
f 60/4/2 58/4/2 61/4/2
f 60/3/2 61/3/2 64/3/2
f 61/3/2 62/3/2 64/3/2
f 59/3/2 60/3/2 64/3/2
f 63/1/2 64/1/2 65/1/2
f 65/1/2 64/1/2 66/1/2
f 66/1/2 64/1/2 68/1/2
f 64/3/2 62/3/2 69/3/2
f 68/1/2 64/1/2 69/1/2
f 69/3/2 62/3/2 70/3/2
f 70/3/2 62/3/2 71/3/2
f 67/2/2 68/2/2 72/2/2
f 68/2/2 69/2/2 72/2/2
f 69/3/2 70/3/2 73/3/2
f 72/2/2 69/2/2 73/2/2
f 73/3/2 70/3/2 74/3/2
f 71/3/2 62/3/2 75/3/2
f 75/3/2 62/3/2 76/3/2
f 77/6/2 78/6/2 79/6/2
f 79/6/2 78/6/2 80/6/2
f 81/3/2 82/3/2 83/3/2
f 83/3/2 82/3/2 84/3/2
f 85/3/2 86/3/2 87/3/2
f 87/3/2 86/3/2 88/3/2
f 92/1/3 90/1/3 89/1/3
f 93/1/3 90/1/3 92/1/3
f 94/2/3 91/2/3 90/2/3
f 94/1/3 90/1/3 93/1/3
f 95/2/3 91/2/3 94/2/3
f 96/6/3 94/6/3 93/6/3
f 97/6/3 94/6/3 96/6/3
f 100/3/3 99/3/3 98/3/3
f 101/3/3 99/3/3 100/3/3
f 104/6/3 103/6/3 102/6/3
f 105/6/3 103/6/3 104/6/3
f 108/3/3 107/3/3 106/3/3
f 109/3/3 107/3/3 108/3/3
f 110/3/3 107/3/3 109/3/3
f 111/3/3 108/3/3 106/3/3
f 112/3/3 108/3/3 111/3/3
f 115/3/3 114/3/3 113/3/3
f 116/3/3 114/3/3 115/3/3
f 121/3/3 117/3/3 116/3/3
f 122/3/3 117/3/3 121/3/3
f 123/5/3 119/5/3 118/5/3
f 124/4/3 120/4/3 119/4/3
f 124/5/3 119/5/3 123/5/3
f 125/4/3 120/4/3 124/4/3
f 128/4/3 120/4/3 125/4/3
f 129/5/3 127/5/3 126/5/3
f 130/4/3 128/4/3 127/4/3
f 130/5/3 127/5/3 129/5/3
f 131/4/3 120/4/3 128/4/3
f 131/4/3 128/4/3 130/4/3
f 134/3/3 133/3/3 132/3/3
f 135/3/3 133/3/3 134/3/3
f 136/6/4 137/6/4 138/6/4
f 138/6/4 137/6/4 139/6/4
f 140/6/4 141/6/4 142/6/4
f 142/6/4 141/6/4 143/6/4
f 144/3/4 145/3/4 146/3/4
f 146/3/4 145/3/4 147/3/4
f 148/3/4 149/3/4 150/3/4
f 150/3/4 149/3/4 151/3/4
f 151/3/4 152/3/4 156/3/4
f 156/3/4 152/3/4 157/3/4
f 153/5/4 154/5/4 158/5/4
f 154/4/4 155/4/4 159/4/4
f 158/5/4 154/5/4 159/5/4
f 159/4/4 155/4/4 160/4/4
f 160/4/4 155/4/4 163/4/4
f 161/5/4 162/5/4 164/5/4
f 162/4/4 163/4/4 165/4/4
f 164/5/4 162/5/4 165/5/4
f 163/4/4 155/4/4 166/4/4
f 165/4/4 163/4/4 166/4/4
f 167/3/4 168/3/4 169/3/4
f 169/3/4 168/3/4 170/3/4
f 171/3/4 172/3/4 173/3/4
f 173/3/4 172/3/4 174/3/4
f 179/5/5 176/5/5 175/5/5
f 180/5/5 176/5/5 179/5/5
f 181/5/5 178/5/5 177/5/5
f 182/5/5 178/5/5 181/5/5
f 185/4/5 184/4/5 183/4/5
f 186/4/5 184/4/5 185/4/5
f 191/6/5 188/6/5 187/6/5
f 192/6/5 188/6/5 191/6/5
f 193/3/5 190/3/5 189/3/5
f 194/3/5 190/3/5 193/3/5
f 197/3/5 196/3/5 195/3/5
f 198/3/5 196/3/5 197/3/5
f 201/1/5 200/1/5 199/1/5
f 202/1/5 200/1/5 201/1/5
f 205/3/5 204/3/5 203/3/5
f 206/3/5 204/3/5 205/3/5
f 209/6/5 208/6/5 207/6/5
f 210/6/5 208/6/5 209/6/5
f 212/3/5 211/3/5 210/3/5
f 213/3/5 211/3/5 212/3/5
f 218/3/5 215/3/5 214/3/5
f 219/3/5 215/3/5 218/3/5
f 220/3/5 217/3/5 216/3/5
f 221/3/5 217/3/5 220/3/5
f 222/6/6 223/6/6 224/6/6
f 224/6/6 223/6/6 225/6/6
f 226/6/6 227/6/6 228/6/6
f 228/6/6 227/6/6 229/6/6
f 229/3/6 230/3/6 233/3/6
f 233/3/6 230/3/6 234/3/6
f 231/3/6 232/3/6 235/3/6
f 235/3/6 232/3/6 236/3/6
f 237/2/6 238/2/6 240/2/6
f 240/2/6 238/2/6 241/2/6
f 239/3/6 240/3/6 243/3/6
f 240/3/6 241/3/6 243/3/6
f 243/3/6 241/3/6 244/3/6
f 243/3/6 244/3/6 246/3/6
f 244/3/6 245/3/6 246/3/6
f 242/3/6 243/3/6 246/3/6
f 246/3/6 245/3/6 247/3/6
f 247/3/6 245/3/6 248/3/6
f 248/3/6 245/3/6 249/3/6
f 247/3/6 248/3/6 250/3/6
f 250/3/6 248/3/6 251/3/6
