# MagicaVoxel @ ephtracy

# material
mtllib guybrushWalk_frame2.mtl
usemtl palette

# normals
vn -1 0 0
vn 1 0 0
vn 0 0 1
vn 0 0 -1
vn 0 -1 0
vn 0 1 0

# texcoords
vt 0.146484 0.5
vt 0.416016 0.5
vt 0.478516 0.5
vt 0.939453 0.5
vt 0.943359 0.5
vt 0.947266 0.5
vt 0.951172 0.5
vt 0.955078 0.5
vt 0.970703 0.5
vt 0.974609 0.5

# verts
v -4 7 2.5
v -4 7 1.5
v -4 7 0.5
v -4 8 2.5
v -4 8 1.5
v -4 8 0.5
v -4 8 -0.5
v -4 9 0.5
v -4 9 -0.5
v -3 9 0.5
v -3 9 -0.5
v -3 10 0.5
v -3 10 -0.5
v -2 3 0.5
v -2 3 -0.5
v -2 3 -1.5
v -2 3 -2.5
v -2 4 -0.5
v -2 4 -1.5
v -2 4 -2.5
v -2 6 1.5
v -2 6 0.5
v -2 6 -0.5
v -2 6 -1.5
v -2 7 1.5
v -2 7 -1.5
v -2 8 1.5
v -2 8 -1.5
v -2 9 0.5
v -2 9 -0.5
v -2 10 1.5
v -2 10 0.5
v -2 10 -0.5
v -2 10 -1.5
v -2 11 -0.5
v -2 11 -1.5
v -2 12 0.5
v -2 12 -0.5
v -2 12 -1.5
v -2 13 1.5
v -2 13 0.5
v -2 13 -0.5
v -2 13 -1.5
v -2 14 1.5
v -2 14 0.5
v -2 14 -0.5
v -2 14 -1.5
v -2 15 0.5
v -2 15 -0.5
v -1 10 0.5
v -1 10 -0.5
v -1 11 -0.5
v -1 12 0.5
v -1 12 -0.5
v -1 12 -1.5
v -1 13 -0.5
v -1 13 -1.5
v -1 14 1.5
v -1 14 0.5
v -1 14 -0.5
v -1 14 -1.5
v -1 15 1.5
v -1 15 0.5
v -1 15 -0.5
v -1 15 -1.5
v 0 15 0.5
v 0 15 -0.5
v 0 16 0.5
v 0 16 -0.5
v 1 3 2.5
v 1 3 1.5
v 1 4 2.5
v 1 4 1.5
v 1 5 2.5
v 1 5 1.5
v 1 5 0.5
v 1 6 2.5
v 1 6 1.5
v 1 6 0.5
v 1 15 1.5
v 1 15 0.5
v 1 15 -0.5
v 1 15 -1.5
v 1 16 1.5
v 1 16 0.5
v 1 16 -0.5
v 1 16 -1.5
v 2 4 0.5
v 2 4 -0.5
v 2 5 0.5
v 2 5 -0.5
v 3 7 2.5
v 3 7 1.5
v 3 7 0.5
v 3 8 2.5
v 3 8 1.5
v 3 8 0.5
v 3 8 -0.5
v 3 9 0.5
v 3 9 -0.5
v -3 7 2.5
v -3 7 1.5
v -3 7 0.5
v -3 8 2.5
v -3 8 1.5
v -3 8 0.5
v -3 8 -0.5
v -3 9 0.5
v -3 9 -0.5
v -1 3 0.5
v -1 3 -0.5
v -1 3 -1.5
v -1 3 -2.5
v -1 4 -0.5
v -1 4 -1.5
v -1 4 -2.5
v -1 5 0.5
v -1 5 -0.5
v -1 13 1.5
v -1 13 0.5
v -1 14 1.5
v -1 14 0.5
v 0 11 -0.5
v 0 11 -1.5
v 0 12 -0.5
v 0 12 -1.5
v 1 10 0.5
v 1 10 -0.5
v 1 12 0.5
v 1 12 -0.5
v 1 12 -1.5
v 1 13 -0.5
v 1 14 -0.5
v 1 14 -1.5
v 2 3 2.5
v 2 3 1.5
v 2 4 2.5
v 2 4 1.5
v 2 5 2.5
v 2 5 1.5
v 2 5 0.5
v 2 6 2.5
v 2 6 1.5
v 2 6 0.5
v 2 6 -0.5
v 2 6 -1.5
v 2 7 1.5
v 2 7 0.5
v 2 7 -0.5
v 2 7 -1.5
v 2 8 1.5
v 2 8 -1.5
v 2 9 0.5
v 2 9 -0.5
v 2 10 1.5
v 2 10 0.5
v 2 10 -0.5
v 2 10 -1.5
v 2 12 0.5
v 2 12 -0.5
v 2 13 0.5
v 2 13 -0.5
v 2 14 0.5
v 2 14 -0.5
v 2 15 1.5
v 2 15 0.5
v 2 15 -0.5
v 2 15 -1.5
v 2 16 1.5
v 2 16 0.5
v 2 16 -0.5
v 2 16 -1.5
v 3 4 0.5
v 3 4 -0.5
v 3 7 0.5
v 3 7 -0.5
v 3 9 0.5
v 3 9 -0.5
v 3 10 0.5
v 3 10 -0.5
v 3 14 1.5
v 3 14 -1.5
v 3 15 1.5
v 3 15 0.5
v 3 15 -0.5
v 3 15 -1.5
v 3 16 0.5
v 3 16 -0.5
v 4 7 2.5
v 4 7 1.5
v 4 7 0.5
v 4 8 2.5
v 4 8 1.5
v 4 8 0.5
v 4 8 -0.5
v 4 9 0.5
v 4 9 -0.5
v -4 7 2.5
v -4 8 2.5
v -3 7 2.5
v -3 8 2.5
v 1 3 2.5
v 1 4 2.5
v 1 5 2.5
v 1 6 2.5
v 2 3 2.5
v 2 4 2.5
v 2 5 2.5
v 2 6 2.5
v 3 7 2.5
v 3 8 2.5
v 4 7 2.5
v 4 8 2.5
v -2 6 1.5
v -2 7 1.5
v -2 8 1.5
v -2 10 1.5
v -2 13 1.5
v -2 14 1.5
v -1 8 1.5
v -1 10 1.5
v -1 13 1.5
v -1 14 1.5
v -1 15 1.5
v 1 6 1.5
v 1 8 1.5
v 1 10 1.5
v 1 15 1.5
v 1 16 1.5
v 2 6 1.5
v 2 7 1.5
v 2 8 1.5
v 2 10 1.5
v 2 15 1.5
v 2 16 1.5
v 3 14 1.5
v 3 15 1.5
v -4 8 0.5
v -4 9 0.5
v -3 8 0.5
v -3 9 0.5
v -3 10 0.5
v -2 3 0.5
v -2 6 0.5
v -2 9 0.5
v -2 10 0.5
v -2 12 0.5
v -2 13 0.5
v -2 14 0.5
v -2 15 0.5
v -1 3 0.5
v -1 5 0.5
v -1 10 0.5
v -1 12 0.5
v -1 13 0.5
v -1 14 0.5
v -1 15 0.5
v 0 15 0.5
v 0 16 0.5
v 1 5 0.5
v 1 6 0.5
v 1 10 0.5
v 1 12 0.5
v 1 13 0.5
v 1 14 0.5
v 1 15 0.5
v 1 16 0.5
v 2 4 0.5
v 2 5 0.5
v 2 6 0.5
v 2 7 0.5
v 2 9 0.5
v 2 10 0.5
v 2 12 0.5
v 2 13 0.5
v 2 14 0.5
v 2 15 0.5
v 2 16 0.5
v 3 4 0.5
v 3 7 0.5
v 3 8 0.5
v 3 9 0.5
v 3 10 0.5
v 3 15 0.5
v 3 16 0.5
v 4 8 0.5
v 4 9 0.5
v -2 11 -0.5
v -2 12 -0.5
v -1 11 -0.5
v -1 12 -0.5
v 1 3 1.5
v 1 4 1.5
v 1 5 1.5
v 2 3 1.5
v 2 4 1.5
v 2 5 1.5
v -4 7 0.5
v -4 8 0.5
v -3 7 0.5
v -3 8 0.5
v 3 7 0.5
v 3 8 0.5
v 4 7 0.5
v 4 8 0.5
v -4 8 -0.5
v -4 9 -0.5
v -3 8 -0.5
v -3 9 -0.5
v -3 10 -0.5
v -2 4 -0.5
v -2 6 -0.5
v -2 9 -0.5
v -2 10 -0.5
v -2 12 -0.5
v -2 13 -0.5
v -2 14 -0.5
v -2 15 -0.5
v -1 4 -0.5
v -1 5 -0.5
v -1 10 -0.5
v -1 11 -0.5
v -1 12 -0.5
v -1 13 -0.5
v -1 14 -0.5
v -1 15 -0.5
v 0 11 -0.5
v 0 12 -0.5
v 0 15 -0.5
v 0 16 -0.5
v 1 10 -0.5
v 1 12 -0.5
v 1 13 -0.5
v 1 14 -0.5
v 1 15 -0.5
v 1 16 -0.5
v 2 4 -0.5
v 2 5 -0.5
v 2 6 -0.5
v 2 7 -0.5
v 2 9 -0.5
v 2 10 -0.5
v 2 12 -0.5
v 2 13 -0.5
v 2 14 -0.5
v 2 15 -0.5
v 2 16 -0.5
v 3 4 -0.5
v 3 7 -0.5
v 3 8 -0.5
v 3 9 -0.5
v 3 10 -0.5
v 3 15 -0.5
v 3 16 -0.5
v 4 8 -0.5
v 4 9 -0.5
v -2 6 -1.5
v -2 7 -1.5
v -2 8 -1.5
v -2 10 -1.5
v -2 11 -1.5
v -2 12 -1.5
v -2 13 -1.5
v -2 14 -1.5
v -1 12 -1.5
v -1 13 -1.5
v -1 14 -1.5
v -1 15 -1.5
v 0 11 -1.5
v 0 12 -1.5
v 1 12 -1.5
v 1 14 -1.5
v 1 15 -1.5
v 1 16 -1.5
v 2 6 -1.5
v 2 7 -1.5
v 2 8 -1.5
v 2 10 -1.5
v 2 15 -1.5
v 2 16 -1.5
v 3 14 -1.5
v 3 15 -1.5
v -2 3 -2.5
v -2 4 -2.5
v -1 3 -2.5
v -1 4 -2.5
v 1 3 2.5
v 2 3 2.5
v 1 3 1.5
v 2 3 1.5
v -2 3 0.5
v -1 3 0.5
v -2 3 -0.5
v -1 3 -0.5
v -2 3 -1.5
v -1 3 -1.5
v -2 3 -2.5
v -1 3 -2.5
v 2 4 0.5
v 3 4 0.5
v 2 4 -0.5
v 3 4 -0.5
v 1 5 1.5
v 2 5 1.5
v -1 5 0.5
v 1 5 0.5
v 2 5 0.5
v -1 5 -0.5
v 2 5 -0.5
v -2 6 1.5
v 1 6 1.5
v -2 6 0.5
v 1 6 0.5
v -2 6 -0.5
v 2 6 -0.5
v -2 6 -1.5
v 2 6 -1.5
v -4 7 2.5
v -3 7 2.5
v 3 7 2.5
v 4 7 2.5
v -4 7 1.5
v -3 7 1.5
v 3 7 1.5
v 4 7 1.5
v -4 7 0.5
v -3 7 0.5
v 3 7 0.5
v 4 7 0.5
v -4 8 0.5
v -3 8 0.5
v 3 8 0.5
v 4 8 0.5
v -4 8 -0.5
v -3 8 -0.5
v 3 8 -0.5
v 4 8 -0.5
v -3 9 0.5
v -2 9 0.5
v 2 9 0.5
v 3 9 0.5
v -3 9 -0.5
v -2 9 -0.5
v 2 9 -0.5
v 3 9 -0.5
v -2 11 -0.5
v -1 11 -0.5
v 0 11 -0.5
v -2 11 -1.5
v 0 11 -1.5
v -2 12 0.5
v -1 12 0.5
v 1 12 0.5
v 2 12 0.5
v -2 12 -0.5
v -1 12 -0.5
v 0 12 -0.5
v 1 12 -0.5
v 2 12 -0.5
v 0 12 -1.5
v 1 12 -1.5
v -2 13 1.5
v -1 13 1.5
v -2 13 0.5
v -1 13 0.5
v -2 13 -0.5
v -1 13 -0.5
v -2 13 -1.5
v -1 13 -1.5
v -1 14 1.5
v 3 14 1.5
v -1 14 0.5
v 1 14 0.5
v 2 14 0.5
v 1 14 -0.5
v 2 14 -0.5
v 1 14 -1.5
v 3 14 -1.5
v -2 4 -0.5
v -1 4 -0.5
v -2 4 -1.5
v -1 4 -1.5
v -2 4 -2.5
v -1 4 -2.5
v 1 6 2.5
v 2 6 2.5
v 1 6 1.5
v 2 6 1.5
v 2 7 0.5
v 3 7 0.5
v 2 7 -0.5
v 3 7 -0.5
v -4 8 2.5
v -3 8 2.5
v 3 8 2.5
v 4 8 2.5
v -4 8 1.5
v -3 8 1.5
v 3 8 1.5
v 4 8 1.5
v -4 8 0.5
v -3 8 0.5
v 3 8 0.5
v 4 8 0.5
v -4 9 0.5
v -3 9 0.5
v 3 9 0.5
v 4 9 0.5
v -4 9 -0.5
v -3 9 -0.5
v 3 9 -0.5
v 4 9 -0.5
v -2 10 1.5
v -1 10 1.5
v 1 10 1.5
v 2 10 1.5
v -3 10 0.5
v -2 10 0.5
v -1 10 0.5
v 1 10 0.5
v 2 10 0.5
v 3 10 0.5
v -3 10 -0.5
v -2 10 -0.5
v -1 10 -0.5
v 1 10 -0.5
v 2 10 -0.5
v 3 10 -0.5
v -2 10 -1.5
v 2 10 -1.5
v -2 12 -0.5
v -1 12 -0.5
v -2 12 -1.5
v -1 12 -1.5
v -2 14 1.5
v -1 14 1.5
v -2 14 0.5
v -1 14 0.5
v -2 14 -0.5
v -1 14 -0.5
v -2 14 -1.5
v -1 14 -1.5
v -1 15 1.5
v 1 15 1.5
v 2 15 1.5
v 3 15 1.5
v -2 15 0.5
v -1 15 0.5
v 0 15 0.5
v 1 15 0.5
v 2 15 0.5
v 3 15 0.5
v -2 15 -0.5
v -1 15 -0.5
v 0 15 -0.5
v 1 15 -0.5
v 2 15 -0.5
v 3 15 -0.5
v -1 15 -1.5
v 1 15 -1.5
v 2 15 -1.5
v 3 15 -1.5
v 1 16 1.5
v 2 16 1.5
v 0 16 0.5
v 1 16 0.5
v 2 16 0.5
v 3 16 0.5
v 0 16 -0.5
v 1 16 -0.5
v 2 16 -0.5
v 3 16 -0.5
v 1 16 -1.5
v 2 16 -1.5

# faces
f 4/10/1 2/10/1 1/10/1
f 5/4/1 3/4/1 2/4/1
f 5/10/1 2/10/1 4/10/1
f 6/4/1 3/4/1 5/4/1
f 8/4/1 7/4/1 6/4/1
f 9/4/1 7/4/1 8/4/1
f 12/4/1 11/4/1 10/4/1
f 13/4/1 11/4/1 12/4/1
f 18/7/1 15/7/1 14/7/1
f 18/4/1 16/4/1 15/4/1
f 19/8/1 17/8/1 16/8/1
f 19/4/1 16/4/1 18/4/1
f 20/8/1 17/8/1 19/8/1
f 22/7/1 18/7/1 14/7/1
f 23/7/1 18/7/1 22/7/1
f 25/6/1 22/6/1 21/6/1
f 25/6/1 24/6/1 23/6/1
f 25/6/1 23/6/1 22/6/1
f 26/6/1 24/6/1 25/6/1
f 27/4/1 26/4/1 25/4/1
f 28/4/1 26/4/1 27/4/1
f 29/5/1 28/5/1 27/5/1
f 30/5/1 28/5/1 29/5/1
f 31/5/1 29/5/1 27/5/1
f 32/5/1 29/5/1 31/5/1
f 33/5/1 28/5/1 30/5/1
f 34/5/1 28/5/1 33/5/1
f 38/9/1 36/9/1 35/9/1
f 39/9/1 36/9/1 38/9/1
f 41/10/1 38/10/1 37/10/1
f 42/10/1 38/10/1 41/10/1
f 44/9/1 41/9/1 40/9/1
f 44/9/1 43/9/1 42/9/1
f 44/9/1 42/9/1 41/9/1
f 45/9/1 43/9/1 44/9/1
f 46/9/1 43/9/1 45/9/1
f 47/9/1 43/9/1 46/9/1
f 48/9/1 46/9/1 45/9/1
f 49/9/1 46/9/1 48/9/1
f 52/10/1 51/10/1 50/10/1
f 53/10/1 52/10/1 50/10/1
f 54/10/1 52/10/1 53/10/1
f 56/9/1 55/9/1 54/9/1
f 57/9/1 55/9/1 56/9/1
f 62/9/1 59/9/1 58/9/1
f 63/9/1 59/9/1 62/9/1
f 64/9/1 61/9/1 60/9/1
f 65/9/1 61/9/1 64/9/1
f 68/9/1 67/9/1 66/9/1
f 69/9/1 67/9/1 68/9/1
f 72/8/1 71/8/1 70/8/1
f 73/8/1 71/8/1 72/8/1
f 74/4/1 73/4/1 72/4/1
f 75/4/1 73/4/1 74/4/1
f 77/7/1 75/7/1 74/7/1
f 77/7/1 76/7/1 75/7/1
f 78/7/1 76/7/1 77/7/1
f 79/7/1 76/7/1 78/7/1
f 84/9/1 81/9/1 80/9/1
f 85/9/1 81/9/1 84/9/1
f 86/9/1 83/9/1 82/9/1
f 87/9/1 83/9/1 86/9/1
f 90/6/1 89/6/1 88/6/1
f 91/6/1 89/6/1 90/6/1
f 95/10/1 93/10/1 92/10/1
f 96/4/1 94/4/1 93/4/1
f 96/10/1 93/10/1 95/10/1
f 97/4/1 94/4/1 96/4/1
f 99/4/1 98/4/1 97/4/1
f 100/4/1 98/4/1 99/4/1
f 101/10/2 102/10/2 104/10/2
f 102/4/2 103/4/2 105/4/2
f 104/10/2 102/10/2 105/10/2
f 105/4/2 103/4/2 106/4/2
f 106/4/2 107/4/2 108/4/2
f 108/4/2 107/4/2 109/4/2
f 110/7/2 111/7/2 114/7/2
f 111/4/2 112/4/2 114/4/2
f 112/8/2 113/8/2 115/8/2
f 114/4/2 112/4/2 115/4/2
f 115/8/2 113/8/2 116/8/2
f 110/7/2 114/7/2 117/7/2
f 117/7/2 114/7/2 118/7/2
f 119/9/2 120/9/2 121/9/2
f 121/9/2 120/9/2 122/9/2
f 123/9/2 124/9/2 125/9/2
f 125/9/2 124/9/2 126/9/2
f 127/10/2 128/10/2 129/10/2
f 129/10/2 128/10/2 130/10/2
f 130/9/2 131/9/2 132/9/2
f 132/9/2 131/9/2 133/9/2
f 133/9/2 131/9/2 134/9/2
f 135/8/2 136/8/2 137/8/2
f 137/8/2 136/8/2 138/8/2
f 137/4/2 138/4/2 139/4/2
f 139/4/2 138/4/2 140/4/2
f 139/7/2 140/7/2 142/7/2
f 140/7/2 141/7/2 142/7/2
f 142/7/2 141/7/2 143/7/2
f 143/7/2 141/7/2 144/7/2
f 143/6/2 144/6/2 147/6/2
f 147/6/2 144/6/2 148/6/2
f 145/6/2 146/6/2 149/6/2
f 149/6/2 146/6/2 150/6/2
f 147/4/2 148/4/2 151/4/2
f 148/4/2 149/4/2 151/4/2
f 149/4/2 150/4/2 151/4/2
f 151/4/2 150/4/2 152/4/2
f 151/5/2 152/5/2 153/5/2
f 153/5/2 152/5/2 154/5/2
f 151/5/2 153/5/2 155/5/2
f 155/5/2 153/5/2 156/5/2
f 154/5/2 152/5/2 157/5/2
f 157/5/2 152/5/2 158/5/2
f 159/10/2 160/10/2 161/10/2
f 161/10/2 160/10/2 162/10/2
f 161/9/2 162/9/2 163/9/2
f 163/9/2 162/9/2 164/9/2
f 165/9/2 166/9/2 169/9/2
f 169/9/2 166/9/2 170/9/2
f 167/9/2 168/9/2 171/9/2
f 171/9/2 168/9/2 172/9/2
f 173/6/2 174/6/2 175/6/2
f 175/6/2 174/6/2 176/6/2
f 177/4/2 178/4/2 179/4/2
f 179/4/2 178/4/2 180/4/2
f 181/9/2 182/9/2 183/9/2
f 183/9/2 182/9/2 184/9/2
f 184/9/2 182/9/2 185/9/2
f 185/9/2 182/9/2 186/9/2
f 184/9/2 185/9/2 187/9/2
f 187/9/2 185/9/2 188/9/2
f 189/10/2 190/10/2 192/10/2
f 190/4/2 191/4/2 193/4/2
f 192/10/2 190/10/2 193/10/2
f 193/4/2 191/4/2 194/4/2
f 194/4/2 195/4/2 196/4/2
f 196/4/2 195/4/2 197/4/2
f 200/10/3 199/10/3 198/10/3
f 201/10/3 199/10/3 200/10/3
f 206/8/3 203/8/3 202/8/3
f 207/4/3 204/4/3 203/4/3
f 207/8/3 203/8/3 206/8/3
f 208/7/3 205/7/3 204/7/3
f 208/4/3 204/4/3 207/4/3
f 209/7/3 205/7/3 208/7/3
f 212/10/3 211/10/3 210/10/3
f 213/10/3 211/10/3 212/10/3
f 220/4/3 216/4/3 215/4/3
f 220/5/3 217/5/3 216/5/3
f 221/5/3 217/5/3 220/5/3
f 222/9/3 219/9/3 218/9/3
f 223/9/3 219/9/3 222/9/3
f 225/6/3 215/6/3 214/6/3
f 226/4/3 221/4/3 220/4/3
f 226/4/3 220/4/3 215/4/3
f 227/4/3 221/4/3 226/4/3
f 228/9/3 224/9/3 223/9/3
f 230/6/3 215/6/3 225/6/3
f 231/4/3 226/4/3 215/4/3
f 231/6/3 215/6/3 230/6/3
f 232/5/3 227/5/3 226/5/3
f 232/4/3 226/4/3 231/4/3
f 233/5/3 227/5/3 232/5/3
f 234/9/3 229/9/3 228/9/3
f 234/9/3 228/9/3 223/9/3
f 235/9/3 229/9/3 234/9/3
f 236/9/3 234/9/3 223/9/3
f 237/9/3 234/9/3 236/9/3
f 240/4/3 239/4/3 238/4/3
f 241/4/3 239/4/3 240/4/3
f 245/4/3 242/4/3 241/4/3
f 246/4/3 242/4/3 245/4/3
f 251/7/3 244/7/3 243/7/3
f 252/7/3 244/7/3 251/7/3
f 254/10/3 248/10/3 247/10/3
f 255/10/3 248/10/3 254/10/3
f 256/9/3 250/9/3 249/9/3
f 257/9/3 250/9/3 256/9/3
f 260/7/3 244/7/3 252/7/3
f 261/7/3 244/7/3 260/7/3
f 262/10/3 255/10/3 254/10/3
f 262/10/3 256/10/3 255/10/3
f 262/10/3 254/10/3 253/10/3
f 263/10/3 256/10/3 262/10/3
f 264/10/3 256/10/3 263/10/3
f 265/10/3 256/10/3 264/10/3
f 266/9/3 259/9/3 258/9/3
f 267/9/3 259/9/3 266/9/3
f 274/10/3 264/10/3 263/10/3
f 275/9/3 265/9/3 264/9/3
f 275/10/3 264/10/3 274/10/3
f 276/9/3 265/9/3 275/9/3
f 279/6/3 269/6/3 268/6/3
f 279/6/3 270/6/3 269/6/3
f 279/6/3 271/6/3 270/6/3
f 280/6/3 271/6/3 279/6/3
f 282/4/3 273/4/3 272/4/3
f 283/4/3 273/4/3 282/4/3
f 284/9/3 278/9/3 277/9/3
f 285/9/3 278/9/3 284/9/3
f 286/4/3 282/4/3 281/4/3
f 287/4/3 282/4/3 286/4/3
f 290/9/3 289/9/3 288/9/3
f 291/9/3 289/9/3 290/9/3
f 292/8/4 293/8/4 295/8/4
f 293/4/4 294/4/4 296/4/4
f 295/8/4 293/8/4 296/8/4
f 296/4/4 294/4/4 297/4/4
f 298/4/4 299/4/4 300/4/4
f 300/4/4 299/4/4 301/4/4
f 302/4/4 303/4/4 304/4/4
f 304/4/4 303/4/4 305/4/4
f 306/4/4 307/4/4 308/4/4
f 308/4/4 307/4/4 309/4/4
f 309/4/4 310/4/4 313/4/4
f 313/4/4 310/4/4 314/4/4
f 311/7/4 312/7/4 319/7/4
f 319/7/4 312/7/4 320/7/4
f 315/10/4 316/10/4 323/10/4
f 323/10/4 316/10/4 324/10/4
f 317/9/4 318/9/4 325/9/4
f 325/9/4 318/9/4 326/9/4
f 321/10/4 322/10/4 327/10/4
f 327/10/4 328/10/4 331/10/4
f 321/10/4 327/10/4 331/10/4
f 331/10/4 328/10/4 332/10/4
f 329/9/4 330/9/4 335/9/4
f 335/9/4 330/9/4 336/9/4
f 320/7/4 312/7/4 338/7/4
f 338/7/4 312/7/4 339/7/4
f 332/10/4 333/10/4 343/10/4
f 333/9/4 334/9/4 344/9/4
f 343/10/4 333/10/4 344/10/4
f 344/9/4 334/9/4 345/9/4
f 337/6/4 338/6/4 348/6/4
f 338/6/4 339/6/4 348/6/4
f 339/6/4 340/6/4 348/6/4
f 348/6/4 340/6/4 349/6/4
f 341/4/4 342/4/4 351/4/4
f 351/4/4 342/4/4 352/4/4
f 346/9/4 347/9/4 353/9/4
f 353/9/4 347/9/4 354/9/4
f 350/4/4 351/4/4 355/4/4
f 355/4/4 351/4/4 356/4/4
f 361/9/4 362/9/4 365/9/4
f 363/9/4 364/9/4 366/9/4
f 366/9/4 364/9/4 367/9/4
f 361/9/4 365/9/4 369/9/4
f 367/9/4 368/9/4 369/9/4
f 366/9/4 367/9/4 369/9/4
f 365/9/4 366/9/4 369/9/4
f 369/9/4 368/9/4 370/9/4
f 370/9/4 368/9/4 371/9/4
f 371/9/4 368/9/4 372/9/4
f 372/9/4 368/9/4 373/9/4
f 357/6/4 358/6/4 375/6/4
f 358/4/4 359/4/4 376/4/4
f 375/6/4 358/6/4 376/6/4
f 359/5/4 360/5/4 377/5/4
f 376/4/4 359/4/4 377/4/4
f 377/5/4 360/5/4 378/5/4
f 373/9/4 374/9/4 379/9/4
f 372/9/4 373/9/4 379/9/4
f 379/9/4 374/9/4 380/9/4
f 372/9/4 379/9/4 381/9/4
f 381/9/4 379/9/4 382/9/4
f 383/8/4 384/8/4 385/8/4
f 385/8/4 384/8/4 386/8/4
f 389/8/5 388/8/5 387/8/5
f 390/8/5 388/8/5 389/8/5
f 393/7/5 392/7/5 391/7/5
f 394/7/5 392/7/5 393/7/5
f 395/4/5 394/4/5 393/4/5
f 396/4/5 394/4/5 395/4/5
f 397/8/5 396/8/5 395/8/5
f 398/8/5 396/8/5 397/8/5
f 401/6/5 400/6/5 399/6/5
f 402/6/5 400/6/5 401/6/5
f 406/7/5 404/7/5 403/7/5
f 407/7/5 404/7/5 406/7/5
f 408/7/5 406/7/5 405/7/5
f 408/7/5 407/7/5 406/7/5
f 409/7/5 407/7/5 408/7/5
f 412/6/5 411/6/5 410/6/5
f 413/6/5 411/6/5 412/6/5
f 416/6/5 415/6/5 414/6/5
f 417/6/5 415/6/5 416/6/5
f 422/10/5 419/10/5 418/10/5
f 423/10/5 419/10/5 422/10/5
f 424/10/5 421/10/5 420/10/5
f 425/10/5 421/10/5 424/10/5
f 426/4/5 423/4/5 422/4/5
f 427/4/5 423/4/5 426/4/5
f 428/4/5 425/4/5 424/4/5
f 429/4/5 425/4/5 428/4/5
f 434/4/5 431/4/5 430/4/5
f 435/4/5 431/4/5 434/4/5
f 436/4/5 433/4/5 432/4/5
f 437/4/5 433/4/5 436/4/5
f 442/4/5 439/4/5 438/4/5
f 443/4/5 439/4/5 442/4/5
f 444/4/5 441/4/5 440/4/5
f 445/4/5 441/4/5 444/4/5
f 449/9/5 447/9/5 446/9/5
f 449/9/5 448/9/5 447/9/5
f 450/9/5 448/9/5 449/9/5
f 455/10/5 452/10/5 451/10/5
f 456/10/5 452/10/5 455/10/5
f 458/10/5 454/10/5 453/10/5
f 459/10/5 454/10/5 458/10/5
f 460/9/5 458/9/5 457/9/5
f 461/9/5 458/9/5 460/9/5
f 464/9/5 463/9/5 462/9/5
f 465/9/5 463/9/5 464/9/5
f 468/9/5 467/9/5 466/9/5
f 469/9/5 467/9/5 468/9/5
f 472/9/5 471/9/5 470/9/5
f 473/9/5 471/9/5 472/9/5
f 474/9/5 471/9/5 473/9/5
f 476/9/5 471/9/5 474/9/5
f 477/9/5 476/9/5 475/9/5
f 478/9/5 471/9/5 476/9/5
f 478/9/5 476/9/5 477/9/5
f 479/4/6 480/4/6 481/4/6
f 481/4/6 480/4/6 482/4/6
f 481/8/6 482/8/6 483/8/6
f 483/8/6 482/8/6 484/8/6
f 485/7/6 486/7/6 487/7/6
f 487/7/6 486/7/6 488/7/6
f 489/6/6 490/6/6 491/6/6
f 491/6/6 490/6/6 492/6/6
f 493/10/6 494/10/6 497/10/6
f 497/10/6 494/10/6 498/10/6
f 495/10/6 496/10/6 499/10/6
f 499/10/6 496/10/6 500/10/6
f 497/4/6 498/4/6 501/4/6
f 501/4/6 498/4/6 502/4/6
f 499/4/6 500/4/6 503/4/6
f 503/4/6 500/4/6 504/4/6
f 505/4/6 506/4/6 509/4/6
f 509/4/6 506/4/6 510/4/6
f 507/4/6 508/4/6 511/4/6
f 511/4/6 508/4/6 512/4/6
f 513/5/6 514/5/6 518/5/6
f 514/4/6 515/4/6 519/4/6
f 518/5/6 514/5/6 519/5/6
f 515/5/6 516/5/6 520/5/6
f 519/4/6 515/4/6 520/4/6
f 520/5/6 516/5/6 521/5/6
f 517/4/6 518/4/6 523/4/6
f 518/5/6 519/5/6 524/5/6
f 523/4/6 518/4/6 524/4/6
f 524/5/6 519/5/6 525/5/6
f 520/5/6 521/5/6 526/5/6
f 521/4/6 522/4/6 527/4/6
f 526/5/6 521/5/6 527/5/6
f 527/4/6 522/4/6 528/4/6
f 525/5/6 526/5/6 529/5/6
f 524/5/6 525/5/6 529/5/6
f 526/5/6 527/5/6 529/5/6
f 529/5/6 527/5/6 530/5/6
f 531/9/6 532/9/6 533/9/6
f 533/9/6 532/9/6 534/9/6
f 535/9/6 536/9/6 537/9/6
f 537/9/6 536/9/6 538/9/6
f 539/9/6 540/9/6 541/9/6
f 541/9/6 540/9/6 542/9/6
f 543/9/6 544/9/6 548/9/6
f 548/9/6 544/9/6 549/9/6
f 549/9/6 544/9/6 550/9/6
f 545/9/6 546/9/6 551/9/6
f 551/9/6 546/9/6 552/9/6
f 547/9/6 548/9/6 553/9/6
f 548/9/6 549/9/6 553/9/6
f 553/9/6 549/9/6 554/9/6
f 554/9/6 549/9/6 555/9/6
f 554/9/6 555/9/6 559/9/6
f 555/9/6 556/9/6 559/9/6
f 559/9/6 556/9/6 560/9/6
f 557/9/6 558/9/6 561/9/6
f 561/9/6 558/9/6 562/9/6
f 563/9/6 564/9/6 566/9/6
f 566/9/6 564/9/6 567/9/6
f 565/9/6 566/9/6 569/9/6
f 567/9/6 568/9/6 569/9/6
f 566/9/6 567/9/6 569/9/6
f 569/9/6 568/9/6 570/9/6
f 570/9/6 568/9/6 571/9/6
f 571/9/6 568/9/6 572/9/6
f 570/9/6 571/9/6 573/9/6
f 573/9/6 571/9/6 574/9/6
