# MagicaVoxel @ ephtracy

# material
mtllib scummBarFireFrame2.mtl
usemtl palette

# normals
vn -1 0 0
vn 1 0 0
vn 0 0 1
vn 0 0 -1
vn 0 -1 0
vn 0 1 0

# texcoords
vt 0.658203 0.5
vt 0.740234 0.5
vt 0.744141 0.5
vt 0.947266 0.5

# verts
v -4.5 0 1.5
v -4.5 0 0.5
v -4.5 1 1.5
v -4.5 1 0.5
v -3.5 0 3.5
v -3.5 0 2.5
v -3.5 0 0.5
v -3.5 0 -1.5
v -3.5 1 3.5
v -3.5 1 2.5
v -3.5 1 0.5
v -3.5 1 -1.5
v -2.5 0 2.5
v -2.5 0 1.5
v -2.5 0 -1.5
v -2.5 0 -2.5
v -2.5 1 2.5
v -2.5 1 1.5
v -2.5 1 0.5
v -2.5 1 -1.5
v -2.5 1 -2.5
v -2.5 2 1.5
v -2.5 2 -1.5
v -1.5 0 4.5
v -1.5 0 2.5
v -1.5 0 -2.5
v -1.5 0 -3.5
v -1.5 1 4.5
v -1.5 1 2.5
v -1.5 1 1.5
v -1.5 1 -1.5
v -1.5 1 -2.5
v -1.5 1 -3.5
v -1.5 2 2.5
v -1.5 2 1.5
v -1.5 2 0.5
v -1.5 2 -0.5
v -1.5 2 -1.5
v -1.5 2 -2.5
v -1.5 3 0.5
v -1.5 3 -0.5
v -0.5 0 -3.5
v -0.5 0 -4.5
v -0.5 1 3.5
v -0.5 1 2.5
v -0.5 1 -2.5
v -0.5 1 -3.5
v -0.5 1 -4.5
v -0.5 2 3.5
v -0.5 2 2.5
v -0.5 2 -1.5
v -0.5 2 -2.5
v -0.5 2 -3.5
v -0.5 3 -1.5
v -0.5 3 -2.5
v 0.5 0 4.5
v 0.5 0 3.5
v 0.5 1 4.5
v 0.5 1 3.5
v 0.5 2 3.5
v 0.5 2 2.5
v 0.5 2 1.5
v 0.5 3 3.5
v 0.5 3 2.5
v 0.5 3 -1.5
v 0.5 3 -2.5
v 0.5 4 2.5
v 0.5 4 1.5
v 0.5 4 -1.5
v 0.5 4 -2.5
v 0.5 5 2.5
v 0.5 5 1.5
v 1.5 2 0.5
v 1.5 2 -0.5
v 1.5 3 0.5
v 1.5 3 -0.5
v -2.5 0 3.5
v -2.5 0 2.5
v -2.5 1 3.5
v -2.5 1 2.5
v -0.5 0 4.5
v -0.5 0 3.5
v -0.5 1 4.5
v -0.5 1 3.5
v -0.5 2 0.5
v -0.5 2 -0.5
v -0.5 3 0.5
v -0.5 3 -0.5
v 1.5 0 4.5
v 1.5 0 3.5
v 1.5 1 4.5
v 1.5 1 3.5
v 1.5 1 2.5
v 1.5 2 3.5
v 1.5 2 2.5
v 1.5 2 1.5
v 1.5 2 -1.5
v 1.5 2 -2.5
v 1.5 3 3.5
v 1.5 3 2.5
v 1.5 4 2.5
v 1.5 4 1.5
v 1.5 4 -1.5
v 1.5 4 -2.5
v 1.5 5 2.5
v 1.5 5 1.5
v 2.5 0 3.5
v 2.5 0 2.5
v 2.5 1 3.5
v 2.5 1 2.5
v 2.5 1 1.5
v 2.5 1 -2.5
v 2.5 1 -3.5
v 2.5 2 2.5
v 2.5 2 1.5
v 2.5 2 0.5
v 2.5 2 -0.5
v 2.5 2 -2.5
v 2.5 2 -3.5
v 2.5 3 0.5
v 2.5 3 -0.5
v 3.5 0 2.5
v 3.5 0 0.5
v 3.5 0 -2.5
v 3.5 0 -4.5
v 3.5 1 2.5
v 3.5 1 1.5
v 3.5 1 0.5
v 3.5 1 -2.5
v 3.5 1 -4.5
v 3.5 2 1.5
v 3.5 2 -2.5
v 4.5 0 0.5
v 4.5 0 -2.5
v 4.5 1 0.5
v 4.5 1 -2.5
v -1.5 0 4.5
v -1.5 1 4.5
v -0.5 0 4.5
v -0.5 1 4.5
v 0.5 0 4.5
v 0.5 1 4.5
v 1.5 0 4.5
v 1.5 1 4.5
v -3.5 0 3.5
v -3.5 1 3.5
v -2.5 0 3.5
v -2.5 1 3.5
v -0.5 0 3.5
v -0.5 1 3.5
v -0.5 2 3.5
v 0.5 0 3.5
v 0.5 1 3.5
v 0.5 2 3.5
v 0.5 3 3.5
v 1.5 0 3.5
v 1.5 1 3.5
v 1.5 2 3.5
v 1.5 3 3.5
v 2.5 0 3.5
v 2.5 1 3.5
v -2.5 0 2.5
v -2.5 1 2.5
v -1.5 0 2.5
v -1.5 1 2.5
v -1.5 2 2.5
v -0.5 1 2.5
v -0.5 2 2.5
v 0.5 3 2.5
v 0.5 4 2.5
v 0.5 5 2.5
v 1.5 1 2.5
v 1.5 2 2.5
v 1.5 3 2.5
v 1.5 4 2.5
v 1.5 5 2.5
v 2.5 0 2.5
v 2.5 1 2.5
v 2.5 2 2.5
v 3.5 0 2.5
v 3.5 1 2.5
v -4.5 0 1.5
v -4.5 1 1.5
v -2.5 0 1.5
v -2.5 1 1.5
v -2.5 2 1.5
v -1.5 1 1.5
v -1.5 2 1.5
v 2.5 1 1.5
v 2.5 2 1.5
v 3.5 1 1.5
v 3.5 2 1.5
v -1.5 2 0.5
v -1.5 3 0.5
v -0.5 2 0.5
v -0.5 3 0.5
v 1.5 2 0.5
v 1.5 3 0.5
v 2.5 2 0.5
v 2.5 3 0.5
v 3.5 0 0.5
v 3.5 1 0.5
v 4.5 0 0.5
v 4.5 1 0.5
v -0.5 2 -1.5
v -0.5 3 -1.5
v 0.5 2 -1.5
v 0.5 3 -1.5
v 0.5 4 -1.5
v 1.5 2 -1.5
v 1.5 4 -1.5
v -3.5 0 2.5
v -3.5 1 2.5
v -2.5 0 2.5
v -2.5 1 2.5
v 0.5 2 1.5
v 0.5 4 1.5
v 0.5 5 1.5
v 1.5 2 1.5
v 1.5 4 1.5
v 1.5 5 1.5
v -4.5 0 0.5
v -4.5 1 0.5
v -3.5 0 0.5
v -3.5 1 0.5
v -1.5 2 -0.5
v -1.5 3 -0.5
v -0.5 2 -0.5
v -0.5 3 -0.5
v 1.5 2 -0.5
v 1.5 3 -0.5
v 2.5 2 -0.5
v 2.5 3 -0.5
v -3.5 0 -1.5
v -3.5 1 -1.5
v -2.5 0 -1.5
v -2.5 1 -1.5
v -2.5 2 -1.5
v -1.5 1 -1.5
v -1.5 2 -1.5
v -2.5 0 -2.5
v -2.5 1 -2.5
v -1.5 0 -2.5
v -1.5 1 -2.5
v -1.5 2 -2.5
v -0.5 1 -2.5
v -0.5 2 -2.5
v -0.5 3 -2.5
v 0.5 2 -2.5
v 0.5 3 -2.5
v 0.5 4 -2.5
v 1.5 2 -2.5
v 1.5 4 -2.5
v 2.5 1 -2.5
v 2.5 2 -2.5
v 3.5 0 -2.5
v 3.5 1 -2.5
v 3.5 2 -2.5
v 4.5 0 -2.5
v 4.5 1 -2.5
v -1.5 0 -3.5
v -1.5 1 -3.5
v -0.5 0 -3.5
v -0.5 1 -3.5
v -0.5 2 -3.5
v 2.5 1 -3.5
v 2.5 2 -3.5
v -0.5 0 -4.5
v -0.5 1 -4.5
v 3.5 0 -4.5
v 3.5 1 -4.5
v -1.5 0 4.5
v -0.5 0 4.5
v 0.5 0 4.5
v 1.5 0 4.5
v -3.5 0 3.5
v -2.5 0 3.5
v -0.5 0 3.5
v 0.5 0 3.5
v 1.5 0 3.5
v 2.5 0 3.5
v -3.5 0 2.5
v -2.5 0 2.5
v -1.5 0 2.5
v 2.5 0 2.5
v 3.5 0 2.5
v -4.5 0 1.5
v -2.5 0 1.5
v -1.5 0 1.5
v -0.5 0 1.5
v -4.5 0 0.5
v -3.5 0 0.5
v -1.5 0 0.5
v 3.5 0 0.5
v 4.5 0 0.5
v -3.5 0 -1.5
v -2.5 0 -1.5
v -2.5 0 -2.5
v -1.5 0 -2.5
v 3.5 0 -2.5
v 4.5 0 -2.5
v -1.5 0 -3.5
v -0.5 0 -3.5
v -0.5 0 -4.5
v 3.5 0 -4.5
v -1.5 1 4.5
v -0.5 1 4.5
v 0.5 1 4.5
v 1.5 1 4.5
v -3.5 1 3.5
v -2.5 1 3.5
v -0.5 1 3.5
v 0.5 1 3.5
v 1.5 1 3.5
v 2.5 1 3.5
v -3.5 1 2.5
v -2.5 1 2.5
v -1.5 1 2.5
v -0.5 1 2.5
v 1.5 1 2.5
v 2.5 1 2.5
v 3.5 1 2.5
v -4.5 1 1.5
v -2.5 1 1.5
v -1.5 1 1.5
v 2.5 1 1.5
v 3.5 1 1.5
v -4.5 1 0.5
v -3.5 1 0.5
v -2.5 1 0.5
v 3.5 1 0.5
v 4.5 1 0.5
v -3.5 1 -1.5
v -2.5 1 -1.5
v -1.5 1 -1.5
v -2.5 1 -2.5
v -1.5 1 -2.5
v -0.5 1 -2.5
v 2.5 1 -2.5
v 3.5 1 -2.5
v 4.5 1 -2.5
v -1.5 1 -3.5
v -0.5 1 -3.5
v 2.5 1 -3.5
v -0.5 1 -4.5
v 3.5 1 -4.5
v -0.5 2 3.5
v 0.5 2 3.5
v -1.5 2 2.5
v -0.5 2 2.5
v 0.5 2 2.5
v 1.5 2 2.5
v 2.5 2 2.5
v -2.5 2 1.5
v -1.5 2 1.5
v -0.5 2 1.5
v 0.5 2 1.5
v 1.5 2 1.5
v 2.5 2 1.5
v 3.5 2 1.5
v -1.5 2 0.5
v -0.5 2 0.5
v 1.5 2 0.5
v 2.5 2 0.5
v -1.5 2 -0.5
v -0.5 2 -0.5
v 1.5 2 -0.5
v 2.5 2 -0.5
v -2.5 2 -1.5
v -1.5 2 -1.5
v -0.5 2 -1.5
v 0.5 2 -1.5
v 1.5 2 -1.5
v -1.5 2 -2.5
v -0.5 2 -2.5
v 0.5 2 -2.5
v 1.5 2 -2.5
v 2.5 2 -2.5
v 3.5 2 -2.5
v -0.5 2 -3.5
v 2.5 2 -3.5
v 0.5 3 3.5
v 1.5 3 3.5
v 0.5 3 2.5
v 1.5 3 2.5
v -1.5 3 0.5
v -0.5 3 0.5
v 1.5 3 0.5
v 2.5 3 0.5
v -1.5 3 -0.5
v -0.5 3 -0.5
v 1.5 3 -0.5
v 2.5 3 -0.5
v -0.5 3 -1.5
v 0.5 3 -1.5
v -0.5 3 -2.5
v 0.5 3 -2.5
v 0.5 4 -1.5
v 1.5 4 -1.5
v 0.5 4 -2.5
v 1.5 4 -2.5
v 0.5 5 2.5
v 1.5 5 2.5
v 0.5 5 1.5
v 1.5 5 1.5

# faces
f 3/4/1 2/4/1 1/4/1
f 4/4/1 2/4/1 3/4/1
f 9/4/1 6/4/1 5/4/1
f 10/4/1 6/4/1 9/4/1
f 11/1/1 8/1/1 7/1/1
f 12/1/1 8/1/1 11/1/1
f 17/4/1 14/4/1 13/4/1
f 18/4/1 14/4/1 17/4/1
f 20/1/1 16/1/1 15/1/1
f 21/1/1 16/1/1 20/1/1
f 22/3/1 19/3/1 18/3/1
f 22/3/1 20/3/1 19/3/1
f 23/3/1 20/3/1 22/3/1
f 28/4/1 25/4/1 24/4/1
f 29/4/1 25/4/1 28/4/1
f 32/1/1 27/1/1 26/1/1
f 33/1/1 27/1/1 32/1/1
f 34/1/1 30/1/1 29/1/1
f 35/1/1 30/1/1 34/1/1
f 38/3/1 32/3/1 31/3/1
f 39/3/1 32/3/1 38/3/1
f 40/1/1 37/1/1 36/1/1
f 41/1/1 37/1/1 40/1/1
f 47/1/1 43/1/1 42/1/1
f 48/1/1 43/1/1 47/1/1
f 49/3/1 45/3/1 44/3/1
f 50/3/1 45/3/1 49/3/1
f 52/3/1 47/3/1 46/3/1
f 53/3/1 47/3/1 52/3/1
f 54/3/1 52/3/1 51/3/1
f 55/3/1 52/3/1 54/3/1
f 58/1/1 57/1/1 56/1/1
f 59/1/1 57/1/1 58/1/1
f 63/2/1 61/2/1 60/2/1
f 64/3/1 62/3/1 61/3/1
f 64/2/1 61/2/1 63/2/1
f 67/3/1 62/3/1 64/3/1
f 68/3/1 62/3/1 67/3/1
f 69/2/1 66/2/1 65/2/1
f 70/2/1 66/2/1 69/2/1
f 71/2/1 68/2/1 67/2/1
f 72/2/1 68/2/1 71/2/1
f 75/3/1 74/3/1 73/3/1
f 76/3/1 74/3/1 75/3/1
f 77/4/2 78/4/2 79/4/2
f 79/4/2 78/4/2 80/4/2
f 81/4/2 82/4/2 83/4/2
f 83/4/2 82/4/2 84/4/2
f 85/1/2 86/1/2 87/1/2
f 87/1/2 86/1/2 88/1/2
f 89/1/2 90/1/2 91/1/2
f 91/1/2 90/1/2 92/1/2
f 92/3/2 93/3/2 94/3/2
f 94/3/2 93/3/2 95/3/2
f 94/2/2 95/2/2 99/2/2
f 95/3/2 96/3/2 100/3/2
f 99/2/2 95/2/2 100/2/2
f 100/3/2 96/3/2 101/3/2
f 101/3/2 96/3/2 102/3/2
f 97/2/2 98/2/2 103/2/2
f 103/2/2 98/2/2 104/2/2
f 101/2/2 102/2/2 105/2/2
f 105/2/2 102/2/2 106/2/2
f 107/1/2 108/1/2 109/1/2
f 109/1/2 108/1/2 110/1/2
f 110/3/2 111/3/2 114/3/2
f 114/3/2 111/3/2 115/3/2
f 112/3/2 113/3/2 118/3/2
f 118/3/2 113/3/2 119/3/2
f 116/3/2 117/3/2 120/3/2
f 120/3/2 117/3/2 121/3/2
f 122/1/2 123/1/2 126/1/2
f 126/1/2 123/1/2 127/1/2
f 127/1/2 123/1/2 128/1/2
f 124/1/2 125/1/2 129/1/2
f 129/1/2 125/1/2 130/1/2
f 127/3/2 128/3/2 131/3/2
f 128/3/2 129/3/2 131/3/2
f 131/3/2 129/3/2 132/3/2
f 133/1/2 134/1/2 135/1/2
f 135/1/2 134/1/2 136/1/2
f 139/4/3 138/4/3 137/4/3
f 140/4/3 138/4/3 139/4/3
f 143/1/3 142/1/3 141/1/3
f 144/1/3 142/1/3 143/1/3
f 147/4/3 146/4/3 145/4/3
f 148/4/3 146/4/3 147/4/3
f 152/1/3 150/1/3 149/1/3
f 153/3/3 151/3/3 150/3/3
f 153/1/3 150/1/3 152/1/3
f 154/3/3 151/3/3 153/3/3
f 157/3/3 154/3/3 153/3/3
f 158/2/3 155/2/3 154/2/3
f 158/3/3 154/3/3 157/3/3
f 159/2/3 155/2/3 158/2/3
f 160/1/3 157/1/3 156/1/3
f 161/1/3 157/1/3 160/1/3
f 164/4/3 163/4/3 162/4/3
f 165/4/3 163/4/3 164/4/3
f 167/1/3 166/1/3 165/1/3
f 168/1/3 166/1/3 167/1/3
f 174/3/3 170/3/3 169/3/3
f 175/2/3 171/2/3 170/2/3
f 175/3/3 170/3/3 174/3/3
f 176/2/3 171/2/3 175/2/3
f 178/3/3 173/3/3 172/3/3
f 179/3/3 173/3/3 178/3/3
f 180/1/3 178/1/3 177/1/3
f 181/1/3 178/1/3 180/1/3
f 184/4/3 183/4/3 182/4/3
f 185/4/3 183/4/3 184/4/3
f 187/3/3 186/3/3 185/3/3
f 188/3/3 186/3/3 187/3/3
f 191/3/3 190/3/3 189/3/3
f 192/3/3 190/3/3 191/3/3
f 195/1/3 194/1/3 193/1/3
f 196/1/3 194/1/3 195/1/3
f 199/3/3 198/3/3 197/3/3
f 200/3/3 198/3/3 199/3/3
f 203/1/3 202/1/3 201/1/3
f 204/1/3 202/1/3 203/1/3
f 207/3/3 206/3/3 205/3/3
f 208/3/3 206/3/3 207/3/3
f 210/2/3 208/2/3 207/2/3
f 210/2/3 209/2/3 208/2/3
f 211/2/3 209/2/3 210/2/3
f 212/4/4 213/4/4 214/4/4
f 214/4/4 213/4/4 215/4/4
f 216/3/4 217/3/4 219/3/4
f 217/2/4 218/2/4 220/2/4
f 219/3/4 217/3/4 220/3/4
f 220/2/4 218/2/4 221/2/4
f 222/4/4 223/4/4 224/4/4
f 224/4/4 223/4/4 225/4/4
f 226/1/4 227/1/4 228/1/4
f 228/1/4 227/1/4 229/1/4
f 230/3/4 231/3/4 232/3/4
f 232/3/4 231/3/4 233/3/4
f 234/1/4 235/1/4 236/1/4
f 236/1/4 235/1/4 237/1/4
f 237/3/4 238/3/4 239/3/4
f 239/3/4 238/3/4 240/3/4
f 241/1/4 242/1/4 243/1/4
f 243/1/4 242/1/4 244/1/4
f 244/3/4 245/3/4 246/3/4
f 246/3/4 245/3/4 247/3/4
f 247/3/4 248/3/4 249/3/4
f 249/3/4 248/3/4 250/3/4
f 249/2/4 250/2/4 252/2/4
f 250/2/4 251/2/4 252/2/4
f 252/2/4 251/2/4 253/2/4
f 254/3/4 255/3/4 257/3/4
f 257/3/4 255/3/4 258/3/4
f 256/1/4 257/1/4 259/1/4
f 259/1/4 257/1/4 260/1/4
f 261/1/4 262/1/4 263/1/4
f 263/1/4 262/1/4 264/1/4
f 264/3/4 265/3/4 266/3/4
f 266/3/4 265/3/4 267/3/4
f 268/1/4 269/1/4 270/1/4
f 270/1/4 269/1/4 271/1/4
f 278/4/5 273/4/5 272/4/5
f 279/1/5 275/1/5 274/1/5
f 280/1/5 275/1/5 279/1/5
f 282/4/5 277/4/5 276/4/5
f 283/4/5 277/4/5 282/4/5
f 284/4/5 278/4/5 272/4/5
f 285/1/5 281/1/5 280/1/5
f 285/1/5 279/1/5 278/1/5
f 285/1/5 280/1/5 279/1/5
f 288/4/5 284/4/5 283/4/5
f 289/4/5 278/4/5 284/4/5
f 289/4/5 284/4/5 288/4/5
f 290/1/5 285/1/5 278/1/5
f 290/4/5 278/4/5 289/4/5
f 290/1/5 286/1/5 285/1/5
f 291/4/5 289/4/5 288/4/5
f 291/4/5 288/4/5 287/4/5
f 292/4/5 289/4/5 291/4/5
f 293/1/5 290/1/5 289/1/5
f 293/4/5 289/4/5 292/4/5
f 294/1/5 286/1/5 290/1/5
f 294/1/5 290/1/5 293/1/5
f 296/1/5 293/1/5 292/1/5
f 296/1/5 295/1/5 294/1/5
f 296/1/5 294/1/5 293/1/5
f 297/1/5 295/1/5 296/1/5
f 298/1/5 295/1/5 297/1/5
f 299/1/5 295/1/5 298/1/5
f 300/1/5 295/1/5 299/1/5
f 301/1/5 295/1/5 300/1/5
f 302/1/5 300/1/5 299/1/5
f 303/1/5 300/1/5 302/1/5
f 304/1/5 300/1/5 303/1/5
f 305/1/5 300/1/5 304/1/5
f 306/4/6 307/4/6 312/4/6
f 308/1/6 309/1/6 313/1/6
f 313/1/6 309/1/6 314/1/6
f 310/4/6 311/4/6 316/4/6
f 316/4/6 311/4/6 317/4/6
f 306/4/6 312/4/6 318/4/6
f 318/4/6 312/4/6 319/4/6
f 314/1/6 315/1/6 320/1/6
f 320/1/6 315/1/6 321/1/6
f 317/4/6 318/4/6 324/4/6
f 324/4/6 318/4/6 325/4/6
f 321/1/6 322/1/6 326/1/6
f 326/1/6 322/1/6 327/1/6
f 323/4/6 324/4/6 328/4/6
f 328/4/6 324/4/6 329/4/6
f 329/4/6 324/4/6 330/4/6
f 329/1/6 330/1/6 333/1/6
f 333/1/6 330/1/6 334/1/6
f 334/1/6 335/1/6 336/1/6
f 336/1/6 335/1/6 337/1/6
f 331/1/6 332/1/6 340/1/6
f 340/1/6 332/1/6 341/1/6
f 337/1/6 338/1/6 342/1/6
f 342/1/6 338/1/6 343/1/6
f 339/1/6 340/1/6 344/1/6
f 343/1/6 344/1/6 345/1/6
f 344/1/6 340/1/6 346/1/6
f 345/1/6 344/1/6 346/1/6
f 347/3/6 348/3/6 350/3/6
f 350/3/6 348/3/6 351/3/6
f 349/1/6 350/1/6 355/1/6
f 350/3/6 351/3/6 356/3/6
f 355/1/6 350/1/6 356/1/6
f 356/3/6 351/3/6 357/3/6
f 352/3/6 353/3/6 358/3/6
f 358/3/6 353/3/6 359/3/6
f 356/3/6 357/3/6 361/3/6
f 359/3/6 360/3/6 361/3/6
f 358/3/6 359/3/6 361/3/6
f 357/3/6 358/3/6 361/3/6
f 354/3/6 355/3/6 361/3/6
f 355/3/6 356/3/6 361/3/6
f 361/3/6 360/3/6 362/3/6
f 362/3/6 360/3/6 363/3/6
f 363/3/6 360/3/6 364/3/6
f 354/3/6 361/3/6 365/3/6
f 362/3/6 363/3/6 366/3/6
f 366/3/6 363/3/6 367/3/6
f 364/3/6 360/3/6 368/3/6
f 366/3/6 367/3/6 369/3/6
f 367/3/6 368/3/6 369/3/6
f 354/3/6 365/3/6 369/3/6
f 365/3/6 366/3/6 369/3/6
f 369/3/6 368/3/6 370/3/6
f 370/3/6 368/3/6 371/3/6
f 371/3/6 368/3/6 372/3/6
f 372/3/6 368/3/6 373/3/6
f 370/3/6 371/3/6 374/3/6
f 374/3/6 371/3/6 375/3/6
f 373/3/6 368/3/6 377/3/6
f 368/3/6 360/3/6 378/3/6
f 377/3/6 368/3/6 378/3/6
f 378/3/6 360/3/6 379/3/6
f 376/3/6 377/3/6 380/3/6
f 375/3/6 376/3/6 380/3/6
f 377/3/6 378/3/6 380/3/6
f 380/3/6 378/3/6 381/3/6
f 382/2/6 383/2/6 384/2/6
f 384/2/6 383/2/6 385/2/6
f 386/1/6 387/1/6 390/1/6
f 390/1/6 387/1/6 391/1/6
f 388/3/6 389/3/6 392/3/6
f 392/3/6 389/3/6 393/3/6
f 394/3/6 395/3/6 396/3/6
f 396/3/6 395/3/6 397/3/6
f 398/2/6 399/2/6 400/2/6
f 400/2/6 399/2/6 401/2/6
f 402/2/6 403/2/6 404/2/6
f 404/2/6 403/2/6 405/2/6
